<svg version="1.1" xmlns="http://www.w3.org/2000/svg" xmlns:xlink="http://www.w3.org/1999/xlink" stroke-linecap="round" stroke-linejoin="round" stroke-width="0" fill-rule="evenodd" clip-rule="evenodd" id="ueGYgbGUVH6d0NwOil0S_bottom" viewBox="-50 -50 2210 1900" width="2.21in" height="1.9in" class="w-100 h-100"><defs><style>.ueGYgbGUVH6d0NwOil0S_fr4 {color: #666666;}
.ueGYgbGUVH6d0NwOil0S_cu {color: #cccccc;}
.ueGYgbGUVH6d0NwOil0S_cf {color: #cc9933;}
.ueGYgbGUVH6d0NwOil0S_sm {color: #004200; opacity: 0.75;}
.ueGYgbGUVH6d0NwOil0S_ss {color: #ffffff;}
.ueGYgbGUVH6d0NwOil0S_sp {color: #999999;}
.ueGYgbGUVH6d0NwOil0S_out {color: #000000;}</style><mask id="A-0MobLFvszAwG80UN_Q_clear-1" fill="#000" stroke="#000"><g><rect x="60.05" y="240" width="1979.95" height="1100" fill="#fff"/><path d="M 175 1329.69 175 1295 209.69 1295 208.97 1300.44 204.94 1310.17 198.53 1318.53 190.17 1324.94 180.44 1328.97 175 1329.69"/><path d="M 165 1329.69 159.56 1328.97 149.83 1324.94 141.47 1318.53 135.06 1310.17 131.03 1300.44 130.31 1295 165 1295 165 1329.69"/><path d="M 209.69 1285 175 1285 175 1250.31 180.44 1251.03 190.17 1255.06 198.53 1261.47 204.94 1269.83 208.97 1279.56 209.69 1285"/><path d="M 165 1285 130.31 1285 131.03 1279.56 135.06 1269.83 141.47 1261.47 149.83 1255.06 159.56 1251.03 165 1250.31 165 1285"/><path d="M 215 1075 125 1075 125 985 215 985 215 1075"/><path d="M 910 984.69 910 950 944.69 950 943.97 955.44 939.94 965.17 933.53 973.53 925.17 979.94 915.44 983.97 910 984.69"/><path d="M 900 984.69 894.56 983.97 884.83 979.94 876.47 973.53 870.06 965.17 866.03 955.44 865.31 950 900 950 900 984.69"/><path d="M 944.69 940 910 940 910 905.31 915.44 906.03 925.17 910.06 933.53 916.47 939.94 924.83 943.97 934.56 944.69 940"/><path d="M 900 940 865.31 940 866.03 934.56 870.06 924.83 876.47 916.47 884.83 910.06 894.56 906.03 900 905.31 900 940"/><path d="M 610 884.69 610 850 644.69 850 643.97 855.44 639.94 865.17 633.53 873.53 625.17 879.94 615.44 883.97 610 884.69"/><path d="M 405 884.69 405 850 439.69 850 438.97 855.44 434.94 865.17 428.53 873.53 420.17 879.94 410.44 883.97 405 884.69"/><path d="M 395 884.69 389.56 883.97 379.83 879.94 371.47 873.53 365.06 865.17 361.03 855.44 360.31 850 395 850 395 884.69"/><path d="M 600 884.69 594.56 883.97 584.83 879.94 576.47 873.53 570.06 865.17 566.03 855.44 565.31 850 600 850 600 884.69"/><path d="M 175 869.69 175 835 209.69 835 208.97 840.44 204.94 850.17 198.53 858.53 190.17 864.94 180.44 868.97 175 869.69"/><path d="M 165 869.69 159.56 868.97 149.83 864.94 141.47 858.53 135.06 850.17 131.03 840.44 130.31 835 165 835 165 869.69"/><path d="M 644.69 840 610 840 610 805.31 615.44 806.03 625.17 810.06 633.53 816.47 639.94 824.83 643.97 834.56 644.69 840"/><path d="M 439.69 840 405 840 405 805.31 410.44 806.03 420.17 810.06 428.53 816.47 434.94 824.83 438.97 834.56 439.69 840"/><path d="M 395 840 360.31 840 361.03 834.56 365.06 824.83 371.47 816.47 379.83 810.06 389.56 806.03 395 805.31 395 840"/><path d="M 600 840 565.31 840 566.03 834.56 570.06 824.83 576.47 816.47 584.83 810.06 594.56 806.03 600 805.31 600 840"/><path d="M 209.69 825 175 825 175 790.31 180.44 791.03 190.17 795.06 198.53 801.47 204.94 809.83 208.97 819.56 209.69 825"/><path d="M 165 825 130.31 825 131.03 819.56 135.06 809.83 141.47 801.47 149.83 795.06 159.56 791.03 165 790.31 165 825"/><path d="M 605 790.39 593.25 788.84 582.31 784.31 572.91 777.09 565.69 767.69 561.16 756.75 559.61 745 561.16 733.25 565.69 722.31 572.91 712.91 582.31 705.69 593.25 701.16 605 699.61 616.75 701.16 627.69 705.69 637.09 712.91 644.31 722.31 648.84 733.25 650.39 745 648.84 756.75 644.31 767.69 637.09 777.09 627.69 784.31 616.75 788.84 605 790.39"/><path d="M 115 674.69 115 640 149.69 640 148.97 645.44 144.94 655.17 138.53 663.53 130.17 669.94 120.44 673.97 115 674.69"/><path d="M 105 674.69 99.56 673.97 89.83 669.94 81.47 663.53 75.06 655.17 71.03 645.44 70.31 640 105 640 105 674.69"/><path d="M 149.69 630 115 630 115 595.31 120.44 596.03 130.17 600.06 138.53 606.47 144.94 614.83 148.97 624.56 149.69 630"/><path d="M 105 630 70.31 630 71.03 624.56 75.06 614.83 81.47 606.47 89.83 600.06 99.56 596.03 105 595.31 105 630"/><path d="M 1345 589.69 1345 555 1379.69 555 1378.97 560.44 1374.94 570.17 1368.53 578.53 1360.17 584.94 1350.44 588.97 1345 589.69"/><path d="M 1335 589.69 1329.56 588.97 1319.83 584.94 1311.47 578.53 1305.06 570.17 1301.03 560.44 1300.31 555 1335 555 1335 589.69"/><path d="M 1379.69 545 1345 545 1345 510.31 1350.44 511.03 1360.17 515.06 1368.53 521.47 1374.94 529.83 1378.97 539.56 1379.69 545"/><path d="M 1335 545 1300.31 545 1301.03 539.56 1305.06 529.83 1311.47 521.47 1319.83 515.06 1329.56 511.03 1335 510.31 1335 545"/><path d="M 905 490.39 893.25 488.84 882.31 484.31 872.91 477.09 865.69 467.69 861.16 456.75 859.61 445 861.16 433.25 865.69 422.31 872.91 412.91 882.31 405.69 893.25 401.16 905 399.61 916.75 401.16 927.69 405.69 937.09 412.91 944.31 422.31 948.84 433.25 950.39 445 948.84 456.75 944.31 467.69 937.09 477.09 927.69 484.31 916.75 488.84 905 490.39"/><path d="M 1290 445.39 1278.25 443.84 1267.31 439.31 1257.91 432.09 1250.69 422.69 1246.16 411.75 1244.61 400 1246.16 388.25 1250.69 377.31 1257.91 367.91 1267.31 360.69 1278.25 356.16 1290 354.61 1301.75 356.16 1312.69 360.69 1322.09 367.91 1329.31 377.31 1333.84 388.25 1335.39 400 1333.84 411.75 1329.31 422.69 1322.09 432.09 1312.69 439.31 1301.75 443.84 1290 445.39"/><path d="M 1995 339.69 1995 305 2029.69 305 2028.97 310.44 2024.94 320.17 2018.53 328.53 2010.17 334.94 2000.44 338.97 1995 339.69"/><path d="M 1985 339.69 1979.56 338.97 1969.83 334.94 1961.47 328.53 1955.06 320.17 1951.03 310.44 1950.31 305 1985 305 1985 339.69"/><path d="M 1895 339.69 1895 305 1929.69 305 1928.97 310.44 1924.94 320.17 1918.53 328.53 1910.17 334.94 1900.44 338.97 1895 339.69"/><path d="M 1885 339.69 1879.56 338.97 1869.83 334.94 1861.47 328.53 1855.06 320.17 1851.03 310.44 1850.31 305 1885 305 1885 339.69"/><path d="M 1795 339.69 1795 305 1829.69 305 1828.97 310.44 1824.94 320.17 1818.53 328.53 1810.17 334.94 1800.44 338.97 1795 339.69"/><path d="M 1785 339.69 1779.56 338.97 1769.83 334.94 1761.47 328.53 1755.06 320.17 1751.03 310.44 1750.31 305 1785 305 1785 339.69"/><path d="M 1695 339.69 1695 305 1729.69 305 1728.97 310.44 1724.94 320.17 1718.53 328.53 1710.17 334.94 1700.44 338.97 1695 339.69"/><path d="M 1685 339.69 1679.56 338.97 1669.83 334.94 1661.47 328.53 1655.06 320.17 1651.03 310.44 1650.31 305 1685 305 1685 339.69"/><path d="M 1495 339.69 1495 305 1529.69 305 1528.97 310.44 1524.94 320.17 1518.53 328.53 1510.17 334.94 1500.44 338.97 1495 339.69"/><path d="M 1485 339.69 1479.56 338.97 1469.83 334.94 1461.47 328.53 1455.06 320.17 1451.03 310.44 1450.31 305 1485 305 1485 339.69"/><path d="M 1395 339.69 1395 305 1429.69 305 1428.97 310.44 1424.94 320.17 1418.53 328.53 1410.17 334.94 1400.44 338.97 1395 339.69"/><path d="M 1385 339.69 1379.56 338.97 1369.83 334.94 1361.47 328.53 1355.06 320.17 1351.03 310.44 1350.31 305 1385 305 1385 339.69"/><path d="M 2029.69 295 1995 295 1995 260.31 2000.44 261.03 2010.17 265.06 2018.53 271.47 2024.94 279.83 2028.97 289.56 2029.69 295"/><path d="M 1985 295 1950.31 295 1951.03 289.56 1955.06 279.83 1961.47 271.47 1969.83 265.06 1979.56 261.03 1985 260.31 1985 295"/><path d="M 1929.69 295 1895 295 1895 260.31 1900.44 261.03 1910.17 265.06 1918.53 271.47 1924.94 279.83 1928.97 289.56 1929.69 295"/><path d="M 1885 295 1850.31 295 1851.03 289.56 1855.06 279.83 1861.47 271.47 1869.83 265.06 1879.56 261.03 1885 260.31 1885 295"/><path d="M 1829.69 295 1795 295 1795 260.31 1800.44 261.03 1810.17 265.06 1818.53 271.47 1824.94 279.83 1828.97 289.56 1829.69 295"/><path d="M 1785 295 1750.31 295 1751.03 289.56 1755.06 279.83 1761.47 271.47 1769.83 265.06 1779.56 261.03 1785 260.31 1785 295"/><path d="M 1729.69 295 1695 295 1695 260.31 1700.44 261.03 1710.17 265.06 1718.53 271.47 1724.94 279.83 1728.97 289.56 1729.69 295"/><path d="M 1685 295 1650.31 295 1651.03 289.56 1655.06 279.83 1661.47 271.47 1669.83 265.06 1679.56 261.03 1685 260.31 1685 295"/><path d="M 1629.69 295 1595 295 1595 260.31 1600.44 261.03 1610.17 265.06 1618.53 271.47 1624.94 279.83 1628.97 289.56 1629.69 295"/><path d="M 1585 295 1550.31 295 1551.03 289.56 1555.06 279.83 1561.47 271.47 1569.83 265.06 1579.56 261.03 1585 260.31 1585 295"/><path d="M 1529.69 295 1495 295 1495 260.31 1500.44 261.03 1510.17 265.06 1518.53 271.47 1524.94 279.83 1528.97 289.56 1529.69 295"/><path d="M 1485 295 1450.31 295 1451.03 289.56 1455.06 279.83 1461.47 271.47 1469.83 265.06 1479.56 261.03 1485 260.31 1485 295"/><path d="M 1429.69 295 1395 295 1395 260.31 1400.44 261.03 1410.17 265.06 1418.53 271.47 1424.94 279.83 1428.97 289.56 1429.69 295"/><path d="M 1385 295 1350.31 295 1351.03 289.56 1355.06 279.83 1361.47 271.47 1369.83 265.06 1379.56 261.03 1385 260.31 1385 295"/><path d="M 1335 345 1245 345 1245 255 1335 255 1335 345"/></g></mask><circle cx="0" cy="0" r="30" id="A-0MobLFvszAwG80UN_Q_pad-14"/><rect x="-30" y="-30" width="60" height="60" id="A-0MobLFvszAwG80UN_Q_pad-15"/><rect x="-30" y="-30" width="60" height="60" id="A-0MobLFvszAwG80UN_Q_pad-16"/><circle cx="0" cy="0" r="34" id="aMjB-mm680Utlh7xOw7r_pad-11"/><rect x="-34" y="-34" width="68" height="68" id="aMjB-mm680Utlh7xOw7r_pad-12"/><rect x="-34" y="-34" width="68" height="68" id="aMjB-mm680Utlh7xOw7r_pad-13"/><circle cx="0" cy="0" r="15" id="VUmkNJq5uQFj1WPKnPZW_pad-1"/><circle cx="0" cy="0" r="59.055" id="VUmkNJq5uQFj1WPKnPZW_pad-2"/><g id="ueGYgbGUVH6d0NwOil0S_bottom_copper"><g mask="url(#A-0MobLFvszAwG80UN_Q_clear-1)"><path d="M 200 1340 230 1310 230 920 255 895 660 895 765 1000 902.05 1000 905 999.61 907.95 1000 930 1000 960 970 960 920 930 890 907.95 890 905 890.39 902.05 890 805 890 700 785 700 730 864.7 565.3 861.16 556.75 859.61 545 861.16 533.25 865.69 522.31 872.91 512.91 882.31 505.69 893.25 501.16 905 499.61 916.75 501.16 925.3 504.7 935 495 1280 495 1290 505 1290 590 1300 600 1385 600 1395 590 1395 552.95 1394.61 550 1395 547.05 1395 448.52 1391.24 445.23 1390 445.39 1378.25 443.84 1367.31 439.31 1357.91 432.09 1350.69 422.69 1346.16 411.75 1344.61 400 1346.16 388.25 1350.69 377.31 1357.91 367.91 1367.31 360.69 1378.25 356.16 1390 354.61 1394.46 355.2 1395 354.73 1399.73 350 1547.42 350 1555.01 343.77 1565.69 338.06 1566.6 334.43 1566.44 332.34 1561.47 328.53 1555.06 320.17 1551.03 310.44 1550.31 305 1629.69 305 1628.97 310.44 1624.94 320.17 1618.53 328.53 1614.74 331.44 1615.63 336.36 1619.22 337.45 1631.05 343.77 1638.64 350 2015 350 2040 325 2040 270 2010 240 1240 240 1090 390 907.95 390 905 390.39 902.05 390 875 390 643.61 621.39 644.31 622.31 648.84 633.25 650.39 645 648.84 656.75 644.31 667.69 637.09 677.09 627.69 684.31 616.75 688.84 605 690.39 593.25 688.84 582.31 684.31 581.39 683.61 510 755 185 755 160 730 160 615 130 585 90 585 60.05 614.96 60.05 773.42 64.66 775.34 66.15 773.85 85 755 60.84 779.16 60.09 779.91 60.09 784.93 60.24 1285.24 115 1340 200 1340"/></g><path d="M 1546.06 390.3 A 48.0989657 48.0989657 0 0 1 1640 390.3 M 1640 486.36 1685 531.36 M 1640 390.3 1640 486.36 M 1545 391.36 1546.06 390.3 M 605 1245 805 1245 M 850 1290 1420 1290 M 805 1245 850 1290 M 605 1045 716.76 1045 M 945 845 995 895 M 766.76 1095 939.57 1095 M 995 895 995 1039.57 M 716.76 1045 766.76 1095 M 905 845 945 845 M 939.57 1095 995 1039.57 M 1995 595 2040 550 M 1721.36 595 1995 595 M 1685 558.64 1721.36 595 M 1685 531.36 1685 558.64 M 1545 391.36 1545 483.28 1585 523.28 1585 568.64 M 1408.64 745 1585 568.64 M 905 745 1408.64 745 M 1740 550 1800 490 2060 490 2085 515 2085 625 M 1420 1290 2085 625 M 1445 645 1540 550 M 905 645 1445 645 M 995 1195 1640 550 M 605 1145 755 1145 M 1590 500 1640 550 M 805 1195 995 1195 M 1590 410 1590 500 M 755 1145 805 1195 M 1335 535.87 1335.43 535.43" fill="none" stroke-width="10"/><use xlink:href="#A-0MobLFvszAwG80UN_Q_pad-14" x="460" y="90"/><use xlink:href="#A-0MobLFvszAwG80UN_Q_pad-14" x="1090" y="1030"/><use xlink:href="#A-0MobLFvszAwG80UN_Q_pad-14" x="605" y="445"/><use xlink:href="#A-0MobLFvszAwG80UN_Q_pad-14" x="605" y="845"/><use xlink:href="#A-0MobLFvszAwG80UN_Q_pad-14" x="605" y="1245"/><use xlink:href="#A-0MobLFvszAwG80UN_Q_pad-14" x="605" y="245"/><use xlink:href="#A-0MobLFvszAwG80UN_Q_pad-14" x="605" y="345"/><use xlink:href="#A-0MobLFvszAwG80UN_Q_pad-14" x="605" y="645"/><use xlink:href="#A-0MobLFvszAwG80UN_Q_pad-14" x="605" y="745"/><use xlink:href="#A-0MobLFvszAwG80UN_Q_pad-14" x="605" y="945"/><use xlink:href="#A-0MobLFvszAwG80UN_Q_pad-14" x="605" y="1045"/><use xlink:href="#A-0MobLFvszAwG80UN_Q_pad-14" x="605" y="1345"/><use xlink:href="#A-0MobLFvszAwG80UN_Q_pad-14" x="605" y="1445"/><use xlink:href="#A-0MobLFvszAwG80UN_Q_pad-14" x="605" y="1545"/><use xlink:href="#A-0MobLFvszAwG80UN_Q_pad-14" x="605" y="545"/><use xlink:href="#A-0MobLFvszAwG80UN_Q_pad-14" x="605" y="1145"/><use xlink:href="#A-0MobLFvszAwG80UN_Q_pad-14" x="905" y="1545"/><use xlink:href="#A-0MobLFvszAwG80UN_Q_pad-14" x="905" y="345"/><use xlink:href="#A-0MobLFvszAwG80UN_Q_pad-14" x="905" y="445"/><use xlink:href="#A-0MobLFvszAwG80UN_Q_pad-14" x="905" y="545"/><use xlink:href="#A-0MobLFvszAwG80UN_Q_pad-14" x="905" y="645"/><use xlink:href="#A-0MobLFvszAwG80UN_Q_pad-14" x="905" y="745"/><use xlink:href="#A-0MobLFvszAwG80UN_Q_pad-14" x="905" y="845"/><use xlink:href="#A-0MobLFvszAwG80UN_Q_pad-14" x="905" y="945"/><use xlink:href="#A-0MobLFvszAwG80UN_Q_pad-14" x="905" y="1045"/><use xlink:href="#A-0MobLFvszAwG80UN_Q_pad-14" x="905" y="1145"/><use xlink:href="#A-0MobLFvszAwG80UN_Q_pad-14" x="905" y="1245"/><use xlink:href="#A-0MobLFvszAwG80UN_Q_pad-14" x="905" y="1345"/><use xlink:href="#A-0MobLFvszAwG80UN_Q_pad-14" x="905" y="1445"/><use xlink:href="#A-0MobLFvszAwG80UN_Q_pad-14" x="110" y="235"/><use xlink:href="#A-0MobLFvszAwG80UN_Q_pad-14" x="110" y="335"/><use xlink:href="#A-0MobLFvszAwG80UN_Q_pad-14" x="110" y="435"/><use xlink:href="#A-0MobLFvszAwG80UN_Q_pad-14" x="110" y="535"/><use xlink:href="#A-0MobLFvszAwG80UN_Q_pad-14" x="110" y="635"/><use xlink:href="#A-0MobLFvszAwG80UN_Q_pad-14" x="2040" y="550"/><use xlink:href="#A-0MobLFvszAwG80UN_Q_pad-14" x="1940" y="550"/><use xlink:href="#A-0MobLFvszAwG80UN_Q_pad-14" x="1840" y="550"/><use xlink:href="#A-0MobLFvszAwG80UN_Q_pad-14" x="1740" y="550"/><use xlink:href="#A-0MobLFvszAwG80UN_Q_pad-14" x="1640" y="550"/><use xlink:href="#A-0MobLFvszAwG80UN_Q_pad-14" x="1540" y="550"/><use xlink:href="#A-0MobLFvszAwG80UN_Q_pad-14" x="1440" y="550"/><use xlink:href="#A-0MobLFvszAwG80UN_Q_pad-14" x="1340" y="550"/><use xlink:href="#A-0MobLFvszAwG80UN_Q_pad-14" x="1640" y="1550"/><use xlink:href="#A-0MobLFvszAwG80UN_Q_pad-14" x="1540" y="1550"/><use xlink:href="#A-0MobLFvszAwG80UN_Q_pad-14" x="1440" y="1550"/><use xlink:href="#A-0MobLFvszAwG80UN_Q_pad-14" x="1340" y="1550"/><use xlink:href="#A-0MobLFvszAwG80UN_Q_pad-14" x="1240" y="1550"/><use xlink:href="#A-0MobLFvszAwG80UN_Q_pad-14" x="170" y="1290"/><use xlink:href="#A-0MobLFvszAwG80UN_Q_pad-14" x="170" y="1490"/><use xlink:href="#A-0MobLFvszAwG80UN_Q_pad-14" x="170" y="830"/><use xlink:href="#A-0MobLFvszAwG80UN_Q_pad-14" x="1290" y="400"/><use xlink:href="#A-0MobLFvszAwG80UN_Q_pad-14" x="1390" y="400"/><use xlink:href="#A-0MobLFvszAwG80UN_Q_pad-14" x="1490" y="400"/><use xlink:href="#A-0MobLFvszAwG80UN_Q_pad-14" x="1590" y="400"/><use xlink:href="#A-0MobLFvszAwG80UN_Q_pad-14" x="1690" y="400"/><use xlink:href="#A-0MobLFvszAwG80UN_Q_pad-14" x="1790" y="400"/><use xlink:href="#A-0MobLFvszAwG80UN_Q_pad-14" x="1890" y="400"/><use xlink:href="#A-0MobLFvszAwG80UN_Q_pad-14" x="1990" y="400"/><use xlink:href="#A-0MobLFvszAwG80UN_Q_pad-14" x="1990" y="300"/><use xlink:href="#A-0MobLFvszAwG80UN_Q_pad-14" x="1890" y="300"/><use xlink:href="#A-0MobLFvszAwG80UN_Q_pad-14" x="1790" y="300"/><use xlink:href="#A-0MobLFvszAwG80UN_Q_pad-14" x="1690" y="300"/><use xlink:href="#A-0MobLFvszAwG80UN_Q_pad-14" x="1590" y="300"/><use xlink:href="#A-0MobLFvszAwG80UN_Q_pad-14" x="1490" y="300"/><use xlink:href="#A-0MobLFvszAwG80UN_Q_pad-14" x="1390" y="300"/><use xlink:href="#A-0MobLFvszAwG80UN_Q_pad-14" x="400" y="845"/><use xlink:href="#A-0MobLFvszAwG80UN_Q_pad-14" x="470" y="1710"/><use xlink:href="#A-0MobLFvszAwG80UN_Q_pad-14" x="2015" y="90"/><use xlink:href="#A-0MobLFvszAwG80UN_Q_pad-14" x="2015" y="1710"/><use xlink:href="#A-0MobLFvszAwG80UN_Q_pad-15" x="1090" y="830"/><use xlink:href="#A-0MobLFvszAwG80UN_Q_pad-15" x="905" y="245"/><use xlink:href="#A-0MobLFvszAwG80UN_Q_pad-15" x="110" y="135"/><use xlink:href="#A-0MobLFvszAwG80UN_Q_pad-15" x="170" y="1690"/><use xlink:href="#A-0MobLFvszAwG80UN_Q_pad-15" x="170" y="1030"/><use xlink:href="#A-0MobLFvszAwG80UN_Q_pad-15" x="400" y="1045"/><use xlink:href="#A-0MobLFvszAwG80UN_Q_pad-16" x="1240" y="550"/><use xlink:href="#A-0MobLFvszAwG80UN_Q_pad-16" x="1290" y="300"/></g><g id="ueGYgbGUVH6d0NwOil0S_bottom_soldermask"><use xlink:href="#aMjB-mm680Utlh7xOw7r_pad-11" x="460" y="90"/><use xlink:href="#aMjB-mm680Utlh7xOw7r_pad-11" x="1090" y="1030"/><use xlink:href="#aMjB-mm680Utlh7xOw7r_pad-11" x="605" y="445"/><use xlink:href="#aMjB-mm680Utlh7xOw7r_pad-11" x="605" y="845"/><use xlink:href="#aMjB-mm680Utlh7xOw7r_pad-11" x="605" y="1245"/><use xlink:href="#aMjB-mm680Utlh7xOw7r_pad-11" x="605" y="245"/><use xlink:href="#aMjB-mm680Utlh7xOw7r_pad-11" x="605" y="345"/><use xlink:href="#aMjB-mm680Utlh7xOw7r_pad-11" x="605" y="645"/><use xlink:href="#aMjB-mm680Utlh7xOw7r_pad-11" x="605" y="745"/><use xlink:href="#aMjB-mm680Utlh7xOw7r_pad-11" x="605" y="945"/><use xlink:href="#aMjB-mm680Utlh7xOw7r_pad-11" x="605" y="1045"/><use xlink:href="#aMjB-mm680Utlh7xOw7r_pad-11" x="605" y="1345"/><use xlink:href="#aMjB-mm680Utlh7xOw7r_pad-11" x="605" y="1445"/><use xlink:href="#aMjB-mm680Utlh7xOw7r_pad-11" x="605" y="1545"/><use xlink:href="#aMjB-mm680Utlh7xOw7r_pad-11" x="605" y="545"/><use xlink:href="#aMjB-mm680Utlh7xOw7r_pad-11" x="605" y="1145"/><use xlink:href="#aMjB-mm680Utlh7xOw7r_pad-11" x="905" y="1545"/><use xlink:href="#aMjB-mm680Utlh7xOw7r_pad-11" x="905" y="345"/><use xlink:href="#aMjB-mm680Utlh7xOw7r_pad-11" x="905" y="445"/><use xlink:href="#aMjB-mm680Utlh7xOw7r_pad-11" x="905" y="545"/><use xlink:href="#aMjB-mm680Utlh7xOw7r_pad-11" x="905" y="645"/><use xlink:href="#aMjB-mm680Utlh7xOw7r_pad-11" x="905" y="745"/><use xlink:href="#aMjB-mm680Utlh7xOw7r_pad-11" x="905" y="845"/><use xlink:href="#aMjB-mm680Utlh7xOw7r_pad-11" x="905" y="945"/><use xlink:href="#aMjB-mm680Utlh7xOw7r_pad-11" x="905" y="1045"/><use xlink:href="#aMjB-mm680Utlh7xOw7r_pad-11" x="905" y="1145"/><use xlink:href="#aMjB-mm680Utlh7xOw7r_pad-11" x="905" y="1245"/><use xlink:href="#aMjB-mm680Utlh7xOw7r_pad-11" x="905" y="1345"/><use xlink:href="#aMjB-mm680Utlh7xOw7r_pad-11" x="905" y="1445"/><use xlink:href="#aMjB-mm680Utlh7xOw7r_pad-11" x="110" y="235"/><use xlink:href="#aMjB-mm680Utlh7xOw7r_pad-11" x="110" y="335"/><use xlink:href="#aMjB-mm680Utlh7xOw7r_pad-11" x="110" y="435"/><use xlink:href="#aMjB-mm680Utlh7xOw7r_pad-11" x="110" y="535"/><use xlink:href="#aMjB-mm680Utlh7xOw7r_pad-11" x="110" y="635"/><use xlink:href="#aMjB-mm680Utlh7xOw7r_pad-11" x="2040" y="550"/><use xlink:href="#aMjB-mm680Utlh7xOw7r_pad-11" x="1940" y="550"/><use xlink:href="#aMjB-mm680Utlh7xOw7r_pad-11" x="1840" y="550"/><use xlink:href="#aMjB-mm680Utlh7xOw7r_pad-11" x="1740" y="550"/><use xlink:href="#aMjB-mm680Utlh7xOw7r_pad-11" x="1640" y="550"/><use xlink:href="#aMjB-mm680Utlh7xOw7r_pad-11" x="1540" y="550"/><use xlink:href="#aMjB-mm680Utlh7xOw7r_pad-11" x="1440" y="550"/><use xlink:href="#aMjB-mm680Utlh7xOw7r_pad-11" x="1340" y="550"/><use xlink:href="#aMjB-mm680Utlh7xOw7r_pad-11" x="1640" y="1550"/><use xlink:href="#aMjB-mm680Utlh7xOw7r_pad-11" x="1540" y="1550"/><use xlink:href="#aMjB-mm680Utlh7xOw7r_pad-11" x="1440" y="1550"/><use xlink:href="#aMjB-mm680Utlh7xOw7r_pad-11" x="1340" y="1550"/><use xlink:href="#aMjB-mm680Utlh7xOw7r_pad-11" x="1240" y="1550"/><use xlink:href="#aMjB-mm680Utlh7xOw7r_pad-11" x="170" y="1290"/><use xlink:href="#aMjB-mm680Utlh7xOw7r_pad-11" x="170" y="1490"/><use xlink:href="#aMjB-mm680Utlh7xOw7r_pad-11" x="170" y="830"/><use xlink:href="#aMjB-mm680Utlh7xOw7r_pad-11" x="1290" y="400"/><use xlink:href="#aMjB-mm680Utlh7xOw7r_pad-11" x="1390" y="400"/><use xlink:href="#aMjB-mm680Utlh7xOw7r_pad-11" x="1490" y="400"/><use xlink:href="#aMjB-mm680Utlh7xOw7r_pad-11" x="1590" y="400"/><use xlink:href="#aMjB-mm680Utlh7xOw7r_pad-11" x="1690" y="400"/><use xlink:href="#aMjB-mm680Utlh7xOw7r_pad-11" x="1790" y="400"/><use xlink:href="#aMjB-mm680Utlh7xOw7r_pad-11" x="1890" y="400"/><use xlink:href="#aMjB-mm680Utlh7xOw7r_pad-11" x="1990" y="400"/><use xlink:href="#aMjB-mm680Utlh7xOw7r_pad-11" x="1990" y="300"/><use xlink:href="#aMjB-mm680Utlh7xOw7r_pad-11" x="1890" y="300"/><use xlink:href="#aMjB-mm680Utlh7xOw7r_pad-11" x="1790" y="300"/><use xlink:href="#aMjB-mm680Utlh7xOw7r_pad-11" x="1690" y="300"/><use xlink:href="#aMjB-mm680Utlh7xOw7r_pad-11" x="1590" y="300"/><use xlink:href="#aMjB-mm680Utlh7xOw7r_pad-11" x="1490" y="300"/><use xlink:href="#aMjB-mm680Utlh7xOw7r_pad-11" x="1390" y="300"/><use xlink:href="#aMjB-mm680Utlh7xOw7r_pad-11" x="400" y="845"/><use xlink:href="#aMjB-mm680Utlh7xOw7r_pad-11" x="470" y="1710"/><use xlink:href="#aMjB-mm680Utlh7xOw7r_pad-11" x="2015" y="90"/><use xlink:href="#aMjB-mm680Utlh7xOw7r_pad-11" x="2015" y="1710"/><use xlink:href="#aMjB-mm680Utlh7xOw7r_pad-12" x="1090" y="830"/><use xlink:href="#aMjB-mm680Utlh7xOw7r_pad-12" x="905" y="245"/><use xlink:href="#aMjB-mm680Utlh7xOw7r_pad-12" x="110" y="135"/><use xlink:href="#aMjB-mm680Utlh7xOw7r_pad-12" x="170" y="1690"/><use xlink:href="#aMjB-mm680Utlh7xOw7r_pad-12" x="170" y="1030"/><use xlink:href="#aMjB-mm680Utlh7xOw7r_pad-12" x="400" y="1045"/><use xlink:href="#aMjB-mm680Utlh7xOw7r_pad-13" x="1240" y="550"/><use xlink:href="#aMjB-mm680Utlh7xOw7r_pad-13" x="1290" y="300"/></g><g id="ueGYgbGUVH6d0NwOil0S_bottom_drill1"><use xlink:href="#VUmkNJq5uQFj1WPKnPZW_pad-1" x="605" y="245"/><use xlink:href="#VUmkNJq5uQFj1WPKnPZW_pad-1" x="605" y="345"/><use xlink:href="#VUmkNJq5uQFj1WPKnPZW_pad-1" x="605" y="445"/><use xlink:href="#VUmkNJq5uQFj1WPKnPZW_pad-1" x="605" y="545"/><use xlink:href="#VUmkNJq5uQFj1WPKnPZW_pad-1" x="605" y="645"/><use xlink:href="#VUmkNJq5uQFj1WPKnPZW_pad-1" x="605" y="745"/><use xlink:href="#VUmkNJq5uQFj1WPKnPZW_pad-1" x="605" y="845"/><use xlink:href="#VUmkNJq5uQFj1WPKnPZW_pad-1" x="605" y="945"/><use xlink:href="#VUmkNJq5uQFj1WPKnPZW_pad-1" x="605" y="1045"/><use xlink:href="#VUmkNJq5uQFj1WPKnPZW_pad-1" x="905" y="1045"/><use xlink:href="#VUmkNJq5uQFj1WPKnPZW_pad-1" x="905" y="945"/><use xlink:href="#VUmkNJq5uQFj1WPKnPZW_pad-1" x="905" y="845"/><use xlink:href="#VUmkNJq5uQFj1WPKnPZW_pad-1" x="905" y="745"/><use xlink:href="#VUmkNJq5uQFj1WPKnPZW_pad-1" x="905" y="645"/><use xlink:href="#VUmkNJq5uQFj1WPKnPZW_pad-1" x="905" y="545"/><use xlink:href="#VUmkNJq5uQFj1WPKnPZW_pad-1" x="905" y="445"/><use xlink:href="#VUmkNJq5uQFj1WPKnPZW_pad-1" x="905" y="345"/><use xlink:href="#VUmkNJq5uQFj1WPKnPZW_pad-1" x="905" y="245"/><use xlink:href="#VUmkNJq5uQFj1WPKnPZW_pad-1" x="1290" y="300"/><use xlink:href="#VUmkNJq5uQFj1WPKnPZW_pad-1" x="1290" y="400"/><use xlink:href="#VUmkNJq5uQFj1WPKnPZW_pad-1" x="1390" y="400"/><use xlink:href="#VUmkNJq5uQFj1WPKnPZW_pad-1" x="1490" y="400"/><use xlink:href="#VUmkNJq5uQFj1WPKnPZW_pad-1" x="1590" y="400"/><use xlink:href="#VUmkNJq5uQFj1WPKnPZW_pad-1" x="1690" y="400"/><use xlink:href="#VUmkNJq5uQFj1WPKnPZW_pad-1" x="1790" y="400"/><use xlink:href="#VUmkNJq5uQFj1WPKnPZW_pad-1" x="1890" y="400"/><use xlink:href="#VUmkNJq5uQFj1WPKnPZW_pad-1" x="1990" y="400"/><use xlink:href="#VUmkNJq5uQFj1WPKnPZW_pad-1" x="1990" y="300"/><use xlink:href="#VUmkNJq5uQFj1WPKnPZW_pad-1" x="1890" y="300"/><use xlink:href="#VUmkNJq5uQFj1WPKnPZW_pad-1" x="1790" y="300"/><use xlink:href="#VUmkNJq5uQFj1WPKnPZW_pad-1" x="1690" y="300"/><use xlink:href="#VUmkNJq5uQFj1WPKnPZW_pad-1" x="1590" y="300"/><use xlink:href="#VUmkNJq5uQFj1WPKnPZW_pad-1" x="1490" y="300"/><use xlink:href="#VUmkNJq5uQFj1WPKnPZW_pad-1" x="1390" y="300"/><use xlink:href="#VUmkNJq5uQFj1WPKnPZW_pad-1" x="1440" y="550"/><use xlink:href="#VUmkNJq5uQFj1WPKnPZW_pad-1" x="1540" y="550"/><use xlink:href="#VUmkNJq5uQFj1WPKnPZW_pad-1" x="1640" y="550"/><use xlink:href="#VUmkNJq5uQFj1WPKnPZW_pad-1" x="1740" y="550"/><use xlink:href="#VUmkNJq5uQFj1WPKnPZW_pad-1" x="1840" y="550"/><use xlink:href="#VUmkNJq5uQFj1WPKnPZW_pad-1" x="1940" y="550"/><use xlink:href="#VUmkNJq5uQFj1WPKnPZW_pad-1" x="2040" y="550"/><use xlink:href="#VUmkNJq5uQFj1WPKnPZW_pad-1" x="1340" y="550"/><use xlink:href="#VUmkNJq5uQFj1WPKnPZW_pad-1" x="1240" y="550"/><use xlink:href="#VUmkNJq5uQFj1WPKnPZW_pad-1" x="1090" y="830"/><use xlink:href="#VUmkNJq5uQFj1WPKnPZW_pad-1" x="1090" y="1030"/><use xlink:href="#VUmkNJq5uQFj1WPKnPZW_pad-1" x="400" y="1045"/><use xlink:href="#VUmkNJq5uQFj1WPKnPZW_pad-1" x="400" y="845"/><use xlink:href="#VUmkNJq5uQFj1WPKnPZW_pad-1" x="170" y="830"/><use xlink:href="#VUmkNJq5uQFj1WPKnPZW_pad-1" x="170" y="1030"/><use xlink:href="#VUmkNJq5uQFj1WPKnPZW_pad-1" x="110" y="635"/><use xlink:href="#VUmkNJq5uQFj1WPKnPZW_pad-1" x="110" y="535"/><use xlink:href="#VUmkNJq5uQFj1WPKnPZW_pad-1" x="110" y="435"/><use xlink:href="#VUmkNJq5uQFj1WPKnPZW_pad-1" x="110" y="335"/><use xlink:href="#VUmkNJq5uQFj1WPKnPZW_pad-1" x="110" y="235"/><use xlink:href="#VUmkNJq5uQFj1WPKnPZW_pad-1" x="110" y="135"/><use xlink:href="#VUmkNJq5uQFj1WPKnPZW_pad-1" x="170" y="1290"/><use xlink:href="#VUmkNJq5uQFj1WPKnPZW_pad-1" x="170" y="1490"/><use xlink:href="#VUmkNJq5uQFj1WPKnPZW_pad-1" x="170" y="1690"/><use xlink:href="#VUmkNJq5uQFj1WPKnPZW_pad-1" x="605" y="1545"/><use xlink:href="#VUmkNJq5uQFj1WPKnPZW_pad-1" x="605" y="1445"/><use xlink:href="#VUmkNJq5uQFj1WPKnPZW_pad-1" x="605" y="1345"/><use xlink:href="#VUmkNJq5uQFj1WPKnPZW_pad-1" x="605" y="1245"/><use xlink:href="#VUmkNJq5uQFj1WPKnPZW_pad-1" x="605" y="1145"/><use xlink:href="#VUmkNJq5uQFj1WPKnPZW_pad-1" x="905" y="1145"/><use xlink:href="#VUmkNJq5uQFj1WPKnPZW_pad-1" x="905" y="1245"/><use xlink:href="#VUmkNJq5uQFj1WPKnPZW_pad-1" x="905" y="1345"/><use xlink:href="#VUmkNJq5uQFj1WPKnPZW_pad-1" x="905" y="1445"/><use xlink:href="#VUmkNJq5uQFj1WPKnPZW_pad-1" x="905" y="1545"/><use xlink:href="#VUmkNJq5uQFj1WPKnPZW_pad-1" x="1240" y="1550"/><use xlink:href="#VUmkNJq5uQFj1WPKnPZW_pad-1" x="1340" y="1550"/><use xlink:href="#VUmkNJq5uQFj1WPKnPZW_pad-1" x="1440" y="1550"/><use xlink:href="#VUmkNJq5uQFj1WPKnPZW_pad-1" x="1540" y="1550"/><use xlink:href="#VUmkNJq5uQFj1WPKnPZW_pad-1" x="1640" y="1550"/><use xlink:href="#VUmkNJq5uQFj1WPKnPZW_pad-2" x="2015" y="90"/><use xlink:href="#VUmkNJq5uQFj1WPKnPZW_pad-2" x="460" y="90"/><use xlink:href="#VUmkNJq5uQFj1WPKnPZW_pad-2" x="470" y="1710"/><use xlink:href="#VUmkNJq5uQFj1WPKnPZW_pad-2" x="2015" y="1710"/></g><clipPath id="ueGYgbGUVH6d0NwOil0S_bottom_outline"><path d="M -50 1850 -50 -50 2160 -50 2160 1850 -50 1850" fill="none" stroke-width="10"/></clipPath><mask id="ueGYgbGUVH6d0NwOil0S_bottom_mech-mask"><g fill="#000" stroke="#000"><rect x="-50" y="-50" width="2210" height="1900" fill="#fff"/><use xlink:href="#ueGYgbGUVH6d0NwOil0S_bottom_drill1"/></g></mask><mask id="ueGYgbGUVH6d0NwOil0S_bottom_cf-mask"><g fill="#fff" stroke="#fff"><use xlink:href="#ueGYgbGUVH6d0NwOil0S_bottom_soldermask"/></g></mask><mask id="ueGYgbGUVH6d0NwOil0S_bottom_sm-mask"><g fill="#000" stroke="#000"><rect x="-50" y="-50" width="2210" height="1900" fill="#fff"/><use xlink:href="#ueGYgbGUVH6d0NwOil0S_bottom_soldermask"/></g></mask></defs><g transform="translate(0,1800) scale(1,-1)"><g mask="url(#ueGYgbGUVH6d0NwOil0S_bottom_mech-mask)" clip-path="url(#ueGYgbGUVH6d0NwOil0S_bottom_outline)" transform="translate(2110,0) scale(-1,1)"><rect x="-50" y="-50" width="2210" height="1900" fill="currentColor" class="ueGYgbGUVH6d0NwOil0S_fr4"/><use xlink:href="#ueGYgbGUVH6d0NwOil0S_bottom_copper" fill="currentColor" stroke="currentColor" class="ueGYgbGUVH6d0NwOil0S_cu"/><use xlink:href="#ueGYgbGUVH6d0NwOil0S_bottom_copper" fill="currentColor" stroke="currentColor" class="ueGYgbGUVH6d0NwOil0S_cf" mask="url(#ueGYgbGUVH6d0NwOil0S_bottom_cf-mask)"/><g mask="url(#ueGYgbGUVH6d0NwOil0S_bottom_sm-mask)"><rect x="-50" y="-50" width="2210" height="1900" fill="currentColor" class="ueGYgbGUVH6d0NwOil0S_sm"/></g></g></g></svg>