<svg version="1.1" xmlns="http://www.w3.org/2000/svg" xmlns:xlink="http://www.w3.org/1999/xlink" stroke-linecap="round" stroke-linejoin="round" stroke-width="0" fill-rule="evenodd" clip-rule="evenodd" id="ueGYgbGUVH6d0NwOil0S_top" viewBox="-50 -50 2210 1900" width="2.21in" height="1.9in" class="w-100 h-100"><defs><style>.ueGYgbGUVH6d0NwOil0S_fr4 {color: #666666;}
.ueGYgbGUVH6d0NwOil0S_cu {color: #cccccc;}
.ueGYgbGUVH6d0NwOil0S_cf {color: #cc9933;}
.ueGYgbGUVH6d0NwOil0S_sm {color: #004200; opacity: 0.75;}
.ueGYgbGUVH6d0NwOil0S_ss {color: #ffffff;}
.ueGYgbGUVH6d0NwOil0S_sp {color: #999999;}
.ueGYgbGUVH6d0NwOil0S_out {color: #000000;}</style><circle cx="0" cy="0" r="34" id="HevinzDhUYEC89-hInpD_pad-11"/><rect x="-34" y="-34" width="68" height="68" id="HevinzDhUYEC89-hInpD_pad-12"/><rect x="-34" y="-34" width="68" height="68" id="HevinzDhUYEC89-hInpD_pad-13"/><circle cx="0" cy="0" r="30" id="liFOvRTESxEIdEo9eVgo_pad-14"/><rect x="-30" y="-30" width="60" height="60" id="liFOvRTESxEIdEo9eVgo_pad-15"/><rect x="-30" y="-30" width="60" height="60" id="liFOvRTESxEIdEo9eVgo_pad-16"/><circle cx="0" cy="0" r="15" id="VUmkNJq5uQFj1WPKnPZW_pad-1"/><circle cx="0" cy="0" r="59.055" id="VUmkNJq5uQFj1WPKnPZW_pad-2"/><g id="ueGYgbGUVH6d0NwOil0S_top_soldermask"><use xlink:href="#HevinzDhUYEC89-hInpD_pad-11" x="460" y="90"/><use xlink:href="#HevinzDhUYEC89-hInpD_pad-11" x="1090" y="1030"/><use xlink:href="#HevinzDhUYEC89-hInpD_pad-11" x="605" y="445"/><use xlink:href="#HevinzDhUYEC89-hInpD_pad-11" x="605" y="845"/><use xlink:href="#HevinzDhUYEC89-hInpD_pad-11" x="605" y="1245"/><use xlink:href="#HevinzDhUYEC89-hInpD_pad-11" x="605" y="245"/><use xlink:href="#HevinzDhUYEC89-hInpD_pad-11" x="605" y="345"/><use xlink:href="#HevinzDhUYEC89-hInpD_pad-11" x="605" y="645"/><use xlink:href="#HevinzDhUYEC89-hInpD_pad-11" x="605" y="745"/><use xlink:href="#HevinzDhUYEC89-hInpD_pad-11" x="605" y="945"/><use xlink:href="#HevinzDhUYEC89-hInpD_pad-11" x="605" y="1045"/><use xlink:href="#HevinzDhUYEC89-hInpD_pad-11" x="605" y="1345"/><use xlink:href="#HevinzDhUYEC89-hInpD_pad-11" x="605" y="1445"/><use xlink:href="#HevinzDhUYEC89-hInpD_pad-11" x="605" y="1545"/><use xlink:href="#HevinzDhUYEC89-hInpD_pad-11" x="605" y="545"/><use xlink:href="#HevinzDhUYEC89-hInpD_pad-11" x="605" y="1145"/><use xlink:href="#HevinzDhUYEC89-hInpD_pad-11" x="905" y="1545"/><use xlink:href="#HevinzDhUYEC89-hInpD_pad-11" x="905" y="345"/><use xlink:href="#HevinzDhUYEC89-hInpD_pad-11" x="905" y="445"/><use xlink:href="#HevinzDhUYEC89-hInpD_pad-11" x="905" y="545"/><use xlink:href="#HevinzDhUYEC89-hInpD_pad-11" x="905" y="645"/><use xlink:href="#HevinzDhUYEC89-hInpD_pad-11" x="905" y="745"/><use xlink:href="#HevinzDhUYEC89-hInpD_pad-11" x="905" y="845"/><use xlink:href="#HevinzDhUYEC89-hInpD_pad-11" x="905" y="945"/><use xlink:href="#HevinzDhUYEC89-hInpD_pad-11" x="905" y="1045"/><use xlink:href="#HevinzDhUYEC89-hInpD_pad-11" x="905" y="1145"/><use xlink:href="#HevinzDhUYEC89-hInpD_pad-11" x="905" y="1245"/><use xlink:href="#HevinzDhUYEC89-hInpD_pad-11" x="905" y="1345"/><use xlink:href="#HevinzDhUYEC89-hInpD_pad-11" x="905" y="1445"/><use xlink:href="#HevinzDhUYEC89-hInpD_pad-11" x="110" y="235"/><use xlink:href="#HevinzDhUYEC89-hInpD_pad-11" x="110" y="335"/><use xlink:href="#HevinzDhUYEC89-hInpD_pad-11" x="110" y="435"/><use xlink:href="#HevinzDhUYEC89-hInpD_pad-11" x="110" y="535"/><use xlink:href="#HevinzDhUYEC89-hInpD_pad-11" x="110" y="635"/><use xlink:href="#HevinzDhUYEC89-hInpD_pad-11" x="2040" y="550"/><use xlink:href="#HevinzDhUYEC89-hInpD_pad-11" x="1940" y="550"/><use xlink:href="#HevinzDhUYEC89-hInpD_pad-11" x="1840" y="550"/><use xlink:href="#HevinzDhUYEC89-hInpD_pad-11" x="1740" y="550"/><use xlink:href="#HevinzDhUYEC89-hInpD_pad-11" x="1640" y="550"/><use xlink:href="#HevinzDhUYEC89-hInpD_pad-11" x="1540" y="550"/><use xlink:href="#HevinzDhUYEC89-hInpD_pad-11" x="1440" y="550"/><use xlink:href="#HevinzDhUYEC89-hInpD_pad-11" x="1340" y="550"/><use xlink:href="#HevinzDhUYEC89-hInpD_pad-11" x="1640" y="1550"/><use xlink:href="#HevinzDhUYEC89-hInpD_pad-11" x="1540" y="1550"/><use xlink:href="#HevinzDhUYEC89-hInpD_pad-11" x="1440" y="1550"/><use xlink:href="#HevinzDhUYEC89-hInpD_pad-11" x="1340" y="1550"/><use xlink:href="#HevinzDhUYEC89-hInpD_pad-11" x="1240" y="1550"/><use xlink:href="#HevinzDhUYEC89-hInpD_pad-11" x="170" y="1290"/><use xlink:href="#HevinzDhUYEC89-hInpD_pad-11" x="170" y="1490"/><use xlink:href="#HevinzDhUYEC89-hInpD_pad-11" x="170" y="830"/><use xlink:href="#HevinzDhUYEC89-hInpD_pad-11" x="1290" y="400"/><use xlink:href="#HevinzDhUYEC89-hInpD_pad-11" x="1390" y="400"/><use xlink:href="#HevinzDhUYEC89-hInpD_pad-11" x="1490" y="400"/><use xlink:href="#HevinzDhUYEC89-hInpD_pad-11" x="1590" y="400"/><use xlink:href="#HevinzDhUYEC89-hInpD_pad-11" x="1690" y="400"/><use xlink:href="#HevinzDhUYEC89-hInpD_pad-11" x="1790" y="400"/><use xlink:href="#HevinzDhUYEC89-hInpD_pad-11" x="1890" y="400"/><use xlink:href="#HevinzDhUYEC89-hInpD_pad-11" x="1990" y="400"/><use xlink:href="#HevinzDhUYEC89-hInpD_pad-11" x="1990" y="300"/><use xlink:href="#HevinzDhUYEC89-hInpD_pad-11" x="1890" y="300"/><use xlink:href="#HevinzDhUYEC89-hInpD_pad-11" x="1790" y="300"/><use xlink:href="#HevinzDhUYEC89-hInpD_pad-11" x="1690" y="300"/><use xlink:href="#HevinzDhUYEC89-hInpD_pad-11" x="1590" y="300"/><use xlink:href="#HevinzDhUYEC89-hInpD_pad-11" x="1490" y="300"/><use xlink:href="#HevinzDhUYEC89-hInpD_pad-11" x="1390" y="300"/><use xlink:href="#HevinzDhUYEC89-hInpD_pad-11" x="400" y="845"/><use xlink:href="#HevinzDhUYEC89-hInpD_pad-11" x="470" y="1710"/><use xlink:href="#HevinzDhUYEC89-hInpD_pad-11" x="2015" y="90"/><use xlink:href="#HevinzDhUYEC89-hInpD_pad-11" x="2015" y="1710"/><use xlink:href="#HevinzDhUYEC89-hInpD_pad-12" x="1090" y="830"/><use xlink:href="#HevinzDhUYEC89-hInpD_pad-12" x="905" y="245"/><use xlink:href="#HevinzDhUYEC89-hInpD_pad-12" x="110" y="135"/><use xlink:href="#HevinzDhUYEC89-hInpD_pad-12" x="170" y="1690"/><use xlink:href="#HevinzDhUYEC89-hInpD_pad-12" x="170" y="1030"/><use xlink:href="#HevinzDhUYEC89-hInpD_pad-12" x="400" y="1045"/><use xlink:href="#HevinzDhUYEC89-hInpD_pad-13" x="1240" y="550"/><use xlink:href="#HevinzDhUYEC89-hInpD_pad-13" x="1290" y="300"/></g><g id="ueGYgbGUVH6d0NwOil0S_top_silkscreen"><path d="M 1180 1055.21 A 90 90 0 0 1 1000 1055.21 M 1000 805 A 90 90 0 0 1 1180 805 M 785 195 A 30 30 0 0 1 725 195 M 1180 805 1180 1055.47 M 1000 805 1000 1055.21 M 785 195 955 195 M 555 195 725 195 M 555 1595 955 1595 M 955 195 955 1595 M 555 195 555 1595 M 130 685 160 655 M 60 85 60 685 130 685 M 160 85 160 655 M 60 85 160 85 M 1190 500 2090 500 2090 1600 M 1190 500 1190 1600 2090 1600 M 320 1195 320 1785 M 45 1785 320 1785 M 45 1245 45 1785 M 45 1245 95 1195 320 1195 M 45 1125 320 1125 M 320 735 320 1125 M 45 785 45 1125 M 45 785 95 735 320 735 M 1240 250 1240 450 2040 450 M 1240 250 2020 250 2040 270 2040 450 M 450 795 450 1095 M 350 1095 450 1095 M 370 795 450 795 M 350 815 370 795 M 350 815 350 1095 M 775.01 605.09 735.02 605.09 715.03 625.09 735.02 645.08 775.01 645.08 745.02 645.08 745.02 605.09 M 715.03 665.07 715.03 705.06 715.03 685.07 775.01 685.07 M 775.01 725.05 735.02 725.05 735.02 735.05 745.02 745.05 775.01 745.05 745.02 745.05 735.02 755.04 745.02 765.04 775.01 765.04 M 775.01 815.03 775.01 795.03 765.01 785.04 745.02 785.04 735.02 795.03 735.02 815.03 745.02 825.02 755.01 825.02 755.01 785.04 M 795 865.01 795 875.01 785 885 735.02 885 735.02 855.01 745.02 845.02 765.01 845.02 775.01 855.01 775.01 885 M 735.02 914.99 735.02 934.99 745.02 944.98 775.01 944.98 775.01 914.99 765.01 905 755.01 914.99 755.01 944.98 M 725.02 964.98 715.03 974.97 715.03 994.97 725.02 1004.96 735.02 1004.96 745.02 994.97 745.02 984.97 745.02 994.97 755.01 1004.96 765.01 1004.96 775.01 994.97 775.01 974.97 765.01 964.98 M 775.01 1064.94 775.01 1024.96 735.02 1064.94 725.02 1064.94 715.03 1054.95 715.03 1034.96 725.02 1024.96 M 725.02 1084.94 715.03 1094.94 715.03 1114.93 725.02 1124.93 735.02 1124.93 745.02 1114.93 755.01 1124.93 765.01 1124.93 775.01 1114.93 775.01 1094.94 765.01 1084.94 755.01 1084.94 745.02 1094.94 735.02 1084.94 725.02 1084.94 M 745.02 1094.94 745.02 1114.93 M 775.01 1144.92 715.03 1144.92 715.03 1174.91 725.02 1184.91 745.02 1184.91 755.01 1174.91 755.01 1144.92 M 1470.05 1030 1470.05 1089.98 1500.04 1089.98 1510.04 1079.98 1510.04 1059.99 1500.04 1049.99 1470.05 1049.99 M 1490.05 1049.99 1510.04 1030 M 1570.02 1089.98 1530.04 1089.98 1530.04 1059.99 1550.03 1059.99 1530.04 1059.99 1530.04 1030 M 1590.02 1030 1590.02 1089.98 1610.01 1069.99 1630 1089.98 1630 1030 M 1650 1040 1659.99 1030 1679.99 1030 1689.98 1040 1689.98 1079.98 1679.99 1089.98 1659.99 1089.98 1650 1079.98 1650 1069.99 1659.99 1059.99 1689.98 1059.99 M 1749.96 1089.98 1729.97 1079.98 1709.98 1059.99 1709.98 1040 1719.97 1030 1739.97 1030 1749.96 1040 1749.96 1049.99 1739.97 1059.99 1709.98 1059.99 M 1769.96 1089.98 1769.96 1030 1789.95 1049.99 1809.94 1030 1809.94 1089.98 M 412.5 908.76 412.5 917.09 412.5 912.93 387.5 912.93 391.67 908.76 M 391.67 929.59 387.5 933.75 387.5 942.08 391.67 946.25 408.33 946.25 412.5 942.08 412.5 933.75 408.33 929.59 391.67 929.59 M 395.83 954.58 408.33 954.58 412.5 958.74 412.5 971.24 395.83 971.24 M 190.02 210 250 210 250 239.99 240 249.99 200.02 249.99 190.02 239.99 190.02 210 M 200.02 309.97 190.02 299.97 190.02 279.98 200.02 269.98 210.01 269.98 220.01 279.98 220.01 299.97 230.01 309.97 240 309.97 250 299.97 250 279.98 240 269.98 M 200.02 329.96 190.02 339.96 190.02 359.95 200.02 369.95 210.01 369.95 220.01 359.95 220.01 349.95 220.01 359.95 230.01 369.95 240 369.95 250 359.95 250 339.96 240 329.96 M 250 429.93 250 389.94 210.01 429.93 200.02 429.93 190.02 419.93 190.02 399.94 200.02 389.94 M 200.02 449.92 190.02 459.92 190.02 479.91 200.02 489.91 210.01 489.91 220.01 479.91 220.01 469.92 220.01 479.91 230.01 489.91 240 489.91 250 479.91 250 459.92 240 449.92 M 250 509.9 250 529.9 250 519.9 190.02 519.9 200.02 509.9 M 1155.02 280 1215 280 1215 309.99 1205 319.99 1165.02 319.99 1155.02 309.99 1155.02 280 M 1215 339.98 1155.02 339.98 1175.01 359.97 1155.02 379.97 1215 379.97 M 1155.02 399.96 1215 399.96 1215 429.95 1205 439.95 1165.02 439.95 1155.02 429.95 1155.02 399.96 M 679.99 1729.97 640 1729.97 640 1669.99 679.99 1669.99 M 640 1699.98 659.99 1699.98 M 739.97 1719.98 729.97 1729.97 709.98 1729.97 699.98 1719.98 699.98 1679.99 709.98 1669.99 729.97 1669.99 739.97 1679.99 739.97 1699.98 719.97 1699.98 M 759.96 1729.97 759.96 1669.99 759.96 1699.98 799.95 1699.98 799.95 1729.97 799.95 1669.99 M 849.93 1669.99 849.93 1729.97 819.94 1699.98 859.93 1699.98 M 879.92 1719.98 889.92 1729.97 909.91 1729.97 919.91 1719.98 919.91 1679.99 909.91 1669.99 889.92 1669.99 879.92 1679.99 879.92 1719.98 M 939.9 1719.98 949.9 1729.97 969.89 1729.97 979.89 1719.98 979.89 1679.99 969.89 1669.99 949.9 1669.99 939.9 1679.99 939.9 1719.98 M 1059.86 1729.97 1059.86 1669.99 1089.85 1669.99 1099.85 1679.99 1099.85 1719.98 1089.85 1729.97 1059.86 1729.97 M 1119.85 1669.99 1139.84 1669.99 1129.84 1669.99 1129.84 1709.98 1119.85 1709.98 M 1169.83 1669.99 1199.82 1669.99 1209.82 1679.99 1199.82 1689.99 1179.82 1689.99 1169.83 1699.98 1179.82 1709.98 1209.82 1709.98 M 1229.81 1650 1229.81 1709.98 1259.8 1709.98 1269.8 1699.98 1269.8 1679.99 1259.8 1669.99 1229.81 1669.99 M 1289.79 1669.99 1309.78 1669.99 1299.79 1669.99 1299.79 1729.97 1289.79 1729.97 M 1349.77 1709.98 1369.76 1709.98 1379.76 1699.98 1379.76 1669.99 1349.77 1669.99 1339.77 1679.99 1349.77 1689.99 1379.76 1689.99 M 1399.75 1709.98 1399.75 1679.99 1409.75 1669.99 1439.74 1669.99 1439.74 1660 1429.74 1650 1419.75 1650 M 1439.74 1669.99 1439.74 1709.98 M 1519.71 1729.97 1519.71 1669.99 1549.71 1669.99 1559.7 1679.99 1559.7 1689.99 1549.71 1699.98 1519.71 1699.98 1549.71 1699.98 1559.7 1709.98 1559.7 1719.98 1549.71 1729.97 1519.71 1729.97 M 1589.69 1669.99 1609.69 1669.99 1619.68 1679.99 1619.68 1699.98 1609.69 1709.98 1589.69 1709.98 1579.7 1699.98 1579.7 1679.99 1589.69 1669.99 M 1649.67 1709.98 1669.67 1709.98 1679.66 1699.98 1679.66 1669.99 1649.67 1669.99 1639.68 1679.99 1649.67 1689.99 1679.66 1689.99 M 1699.66 1709.98 1699.66 1669.99 1699.66 1689.99 1709.65 1699.98 1719.65 1709.98 1729.65 1709.98 M 1799.63 1729.97 1799.63 1669.99 1769.63 1669.99 1759.64 1679.99 1759.64 1699.98 1769.63 1709.98 1799.63 1709.98 M 750 69.99 750 129.97 789.99 69.99 789.99 129.97 M 809.98 69.99 809.98 79.99 819.98 79.99 819.98 69.99 809.98 69.99 M 959.93 129.97 959.93 69.99 929.94 69.99 919.95 79.99 919.95 99.98 929.94 109.98 959.93 109.98 M 979.93 69.99 979.93 129.97 1009.92 129.97 1019.91 119.98 1019.91 99.98 1009.92 89.99 979.93 89.99 M 1049.9 60 1059.9 69.99 1059.9 79.99 1049.9 79.99 1049.9 69.99 1059.9 69.99 1049.9 60 1039.91 50 M 1159.87 129.97 1159.87 69.99 1189.86 69.99 1199.85 79.99 1199.85 89.99 1189.86 99.98 1159.87 99.98 1189.86 99.98 1199.85 109.98 1199.85 119.98 1189.86 129.97 1159.87 129.97 M 1219.85 69.99 1219.85 79.99 1229.85 79.99 1229.85 69.99 1219.85 69.99 M 1329.81 69.99 1329.81 129.97 1359.8 129.97 1369.8 119.98 1369.8 99.98 1359.8 89.99 1329.81 89.99 M 1399.79 60 1409.79 69.99 1409.79 79.99 1399.79 79.99 1399.79 69.99 1409.79 69.99 1399.79 60 1389.79 50 M 1549.74 119.98 1539.74 129.97 1519.75 129.97 1509.75 119.98 1509.75 79.99 1519.75 69.99 1539.74 69.99 1549.74 79.99 M 1569.74 69.99 1569.74 79.99 1579.73 79.99 1579.73 69.99 1569.74 69.99 M 1679.7 69.99 1679.7 129.97 1699.69 109.98 1719.69 129.97 1719.69 69.99" fill="none" stroke-width="10"/></g><g id="ueGYgbGUVH6d0NwOil0S_top_copper"><path d="M 1265 300 1290 300 M 965 600 1265 300 M 1285.86 314.14 1290 310 M 925 695 1270 350 M 1730 350 1788.94 408.94 M 1270 350 1730 350 M 220 1425 220 1610 M 170 1660 220 1610 M 550 1390 601.58 1338.43 M 550 1580 570 1600 M 550 1390 550 1580 M 570 1600 630 1600 M 605 1536.27 605 1545 M 605 1536.27 710 1431.27 M 170 1045 606.12 1045 M 860 390 860 490 905 535 M 650 180 860 390 M 175 180 650 180 M 905 535 905 545 M 660 570 660 1060 M 475 1090 630 1090 660 1060 M 649.14 1200 685 1164.14 M 445 1200 649.14 1200 M 685 525 685 1164.14 M 710 725 835 600 M 710 725 710 1431.27 M 630 1600 740 1490 M 740 740 785 695 M 740 740 740 1490 M 641.82 551.82 660 570 M 611.82 551.82 641.82 551.82 M 605 545 611.82 551.82 M 610 450 685 525 M 1790 410 1790 500 1840 550 M 200 245 605 245 M 975 1145 1090 1030 M 905 1145 975 1145 M 845 1305 845 1560 M 845 1305 905 1245 M 845 1560 880 1595 M 170 1395 475 1090 M 785 695 925 695 M 220 1425 445 1200 M 915 1045 1090 870 M 1090 830 1090 870 M 110 235 120 235 175 180 M 110 335 200 245 M 170 1395 170 1460 M 110 535 120 535 M 225 640 225 990 M 120 535 225 640 M 170 1045 225 990 M 200 345 605 345 M 110 435 200 345 M 905 1045 915 1045 M 835 600 965 600 M 1940 550 1940 590 M 935 1595 1940 590 M 880 1595 935 1595 M 905 1345 1290 960 M 1290 410 1290 960 M 905 1445 1390 960 M 1390 410 1390 960 M 905 1545 1690 760 M 1690 410 1690 760 M 905 845 910 845 M 1200.86 554.14 1235.86 554.14 M 910 845 1200.86 554.14" fill="none" stroke-width="10"/><use xlink:href="#liFOvRTESxEIdEo9eVgo_pad-14" x="460" y="90"/><use xlink:href="#liFOvRTESxEIdEo9eVgo_pad-14" x="1090" y="1030"/><use xlink:href="#liFOvRTESxEIdEo9eVgo_pad-14" x="605" y="445"/><use xlink:href="#liFOvRTESxEIdEo9eVgo_pad-14" x="605" y="845"/><use xlink:href="#liFOvRTESxEIdEo9eVgo_pad-14" x="605" y="1245"/><use xlink:href="#liFOvRTESxEIdEo9eVgo_pad-14" x="605" y="245"/><use xlink:href="#liFOvRTESxEIdEo9eVgo_pad-14" x="605" y="345"/><use xlink:href="#liFOvRTESxEIdEo9eVgo_pad-14" x="605" y="645"/><use xlink:href="#liFOvRTESxEIdEo9eVgo_pad-14" x="605" y="745"/><use xlink:href="#liFOvRTESxEIdEo9eVgo_pad-14" x="605" y="945"/><use xlink:href="#liFOvRTESxEIdEo9eVgo_pad-14" x="605" y="1045"/><use xlink:href="#liFOvRTESxEIdEo9eVgo_pad-14" x="605" y="1345"/><use xlink:href="#liFOvRTESxEIdEo9eVgo_pad-14" x="605" y="1445"/><use xlink:href="#liFOvRTESxEIdEo9eVgo_pad-14" x="605" y="1545"/><use xlink:href="#liFOvRTESxEIdEo9eVgo_pad-14" x="605" y="545"/><use xlink:href="#liFOvRTESxEIdEo9eVgo_pad-14" x="605" y="1145"/><use xlink:href="#liFOvRTESxEIdEo9eVgo_pad-14" x="905" y="1545"/><use xlink:href="#liFOvRTESxEIdEo9eVgo_pad-14" x="905" y="345"/><use xlink:href="#liFOvRTESxEIdEo9eVgo_pad-14" x="905" y="445"/><use xlink:href="#liFOvRTESxEIdEo9eVgo_pad-14" x="905" y="545"/><use xlink:href="#liFOvRTESxEIdEo9eVgo_pad-14" x="905" y="645"/><use xlink:href="#liFOvRTESxEIdEo9eVgo_pad-14" x="905" y="745"/><use xlink:href="#liFOvRTESxEIdEo9eVgo_pad-14" x="905" y="845"/><use xlink:href="#liFOvRTESxEIdEo9eVgo_pad-14" x="905" y="945"/><use xlink:href="#liFOvRTESxEIdEo9eVgo_pad-14" x="905" y="1045"/><use xlink:href="#liFOvRTESxEIdEo9eVgo_pad-14" x="905" y="1145"/><use xlink:href="#liFOvRTESxEIdEo9eVgo_pad-14" x="905" y="1245"/><use xlink:href="#liFOvRTESxEIdEo9eVgo_pad-14" x="905" y="1345"/><use xlink:href="#liFOvRTESxEIdEo9eVgo_pad-14" x="905" y="1445"/><use xlink:href="#liFOvRTESxEIdEo9eVgo_pad-14" x="110" y="235"/><use xlink:href="#liFOvRTESxEIdEo9eVgo_pad-14" x="110" y="335"/><use xlink:href="#liFOvRTESxEIdEo9eVgo_pad-14" x="110" y="435"/><use xlink:href="#liFOvRTESxEIdEo9eVgo_pad-14" x="110" y="535"/><use xlink:href="#liFOvRTESxEIdEo9eVgo_pad-14" x="110" y="635"/><use xlink:href="#liFOvRTESxEIdEo9eVgo_pad-14" x="2040" y="550"/><use xlink:href="#liFOvRTESxEIdEo9eVgo_pad-14" x="1940" y="550"/><use xlink:href="#liFOvRTESxEIdEo9eVgo_pad-14" x="1840" y="550"/><use xlink:href="#liFOvRTESxEIdEo9eVgo_pad-14" x="1740" y="550"/><use xlink:href="#liFOvRTESxEIdEo9eVgo_pad-14" x="1640" y="550"/><use xlink:href="#liFOvRTESxEIdEo9eVgo_pad-14" x="1540" y="550"/><use xlink:href="#liFOvRTESxEIdEo9eVgo_pad-14" x="1440" y="550"/><use xlink:href="#liFOvRTESxEIdEo9eVgo_pad-14" x="1340" y="550"/><use xlink:href="#liFOvRTESxEIdEo9eVgo_pad-14" x="1640" y="1550"/><use xlink:href="#liFOvRTESxEIdEo9eVgo_pad-14" x="1540" y="1550"/><use xlink:href="#liFOvRTESxEIdEo9eVgo_pad-14" x="1440" y="1550"/><use xlink:href="#liFOvRTESxEIdEo9eVgo_pad-14" x="1340" y="1550"/><use xlink:href="#liFOvRTESxEIdEo9eVgo_pad-14" x="1240" y="1550"/><use xlink:href="#liFOvRTESxEIdEo9eVgo_pad-14" x="170" y="1290"/><use xlink:href="#liFOvRTESxEIdEo9eVgo_pad-14" x="170" y="1490"/><use xlink:href="#liFOvRTESxEIdEo9eVgo_pad-14" x="170" y="830"/><use xlink:href="#liFOvRTESxEIdEo9eVgo_pad-14" x="1290" y="400"/><use xlink:href="#liFOvRTESxEIdEo9eVgo_pad-14" x="1390" y="400"/><use xlink:href="#liFOvRTESxEIdEo9eVgo_pad-14" x="1490" y="400"/><use xlink:href="#liFOvRTESxEIdEo9eVgo_pad-14" x="1590" y="400"/><use xlink:href="#liFOvRTESxEIdEo9eVgo_pad-14" x="1690" y="400"/><use xlink:href="#liFOvRTESxEIdEo9eVgo_pad-14" x="1790" y="400"/><use xlink:href="#liFOvRTESxEIdEo9eVgo_pad-14" x="1890" y="400"/><use xlink:href="#liFOvRTESxEIdEo9eVgo_pad-14" x="1990" y="400"/><use xlink:href="#liFOvRTESxEIdEo9eVgo_pad-14" x="1990" y="300"/><use xlink:href="#liFOvRTESxEIdEo9eVgo_pad-14" x="1890" y="300"/><use xlink:href="#liFOvRTESxEIdEo9eVgo_pad-14" x="1790" y="300"/><use xlink:href="#liFOvRTESxEIdEo9eVgo_pad-14" x="1690" y="300"/><use xlink:href="#liFOvRTESxEIdEo9eVgo_pad-14" x="1590" y="300"/><use xlink:href="#liFOvRTESxEIdEo9eVgo_pad-14" x="1490" y="300"/><use xlink:href="#liFOvRTESxEIdEo9eVgo_pad-14" x="1390" y="300"/><use xlink:href="#liFOvRTESxEIdEo9eVgo_pad-14" x="400" y="845"/><use xlink:href="#liFOvRTESxEIdEo9eVgo_pad-14" x="470" y="1710"/><use xlink:href="#liFOvRTESxEIdEo9eVgo_pad-14" x="2015" y="90"/><use xlink:href="#liFOvRTESxEIdEo9eVgo_pad-14" x="2015" y="1710"/><use xlink:href="#liFOvRTESxEIdEo9eVgo_pad-15" x="1090" y="830"/><use xlink:href="#liFOvRTESxEIdEo9eVgo_pad-15" x="905" y="245"/><use xlink:href="#liFOvRTESxEIdEo9eVgo_pad-15" x="110" y="135"/><use xlink:href="#liFOvRTESxEIdEo9eVgo_pad-15" x="170" y="1690"/><use xlink:href="#liFOvRTESxEIdEo9eVgo_pad-15" x="170" y="1030"/><use xlink:href="#liFOvRTESxEIdEo9eVgo_pad-15" x="400" y="1045"/><use xlink:href="#liFOvRTESxEIdEo9eVgo_pad-16" x="1240" y="550"/><use xlink:href="#liFOvRTESxEIdEo9eVgo_pad-16" x="1290" y="300"/></g><g id="ueGYgbGUVH6d0NwOil0S_top_drill1"><use xlink:href="#VUmkNJq5uQFj1WPKnPZW_pad-1" x="605" y="245"/><use xlink:href="#VUmkNJq5uQFj1WPKnPZW_pad-1" x="605" y="345"/><use xlink:href="#VUmkNJq5uQFj1WPKnPZW_pad-1" x="605" y="445"/><use xlink:href="#VUmkNJq5uQFj1WPKnPZW_pad-1" x="605" y="545"/><use xlink:href="#VUmkNJq5uQFj1WPKnPZW_pad-1" x="605" y="645"/><use xlink:href="#VUmkNJq5uQFj1WPKnPZW_pad-1" x="605" y="745"/><use xlink:href="#VUmkNJq5uQFj1WPKnPZW_pad-1" x="605" y="845"/><use xlink:href="#VUmkNJq5uQFj1WPKnPZW_pad-1" x="605" y="945"/><use xlink:href="#VUmkNJq5uQFj1WPKnPZW_pad-1" x="605" y="1045"/><use xlink:href="#VUmkNJq5uQFj1WPKnPZW_pad-1" x="905" y="1045"/><use xlink:href="#VUmkNJq5uQFj1WPKnPZW_pad-1" x="905" y="945"/><use xlink:href="#VUmkNJq5uQFj1WPKnPZW_pad-1" x="905" y="845"/><use xlink:href="#VUmkNJq5uQFj1WPKnPZW_pad-1" x="905" y="745"/><use xlink:href="#VUmkNJq5uQFj1WPKnPZW_pad-1" x="905" y="645"/><use xlink:href="#VUmkNJq5uQFj1WPKnPZW_pad-1" x="905" y="545"/><use xlink:href="#VUmkNJq5uQFj1WPKnPZW_pad-1" x="905" y="445"/><use xlink:href="#VUmkNJq5uQFj1WPKnPZW_pad-1" x="905" y="345"/><use xlink:href="#VUmkNJq5uQFj1WPKnPZW_pad-1" x="905" y="245"/><use xlink:href="#VUmkNJq5uQFj1WPKnPZW_pad-1" x="1290" y="300"/><use xlink:href="#VUmkNJq5uQFj1WPKnPZW_pad-1" x="1290" y="400"/><use xlink:href="#VUmkNJq5uQFj1WPKnPZW_pad-1" x="1390" y="400"/><use xlink:href="#VUmkNJq5uQFj1WPKnPZW_pad-1" x="1490" y="400"/><use xlink:href="#VUmkNJq5uQFj1WPKnPZW_pad-1" x="1590" y="400"/><use xlink:href="#VUmkNJq5uQFj1WPKnPZW_pad-1" x="1690" y="400"/><use xlink:href="#VUmkNJq5uQFj1WPKnPZW_pad-1" x="1790" y="400"/><use xlink:href="#VUmkNJq5uQFj1WPKnPZW_pad-1" x="1890" y="400"/><use xlink:href="#VUmkNJq5uQFj1WPKnPZW_pad-1" x="1990" y="400"/><use xlink:href="#VUmkNJq5uQFj1WPKnPZW_pad-1" x="1990" y="300"/><use xlink:href="#VUmkNJq5uQFj1WPKnPZW_pad-1" x="1890" y="300"/><use xlink:href="#VUmkNJq5uQFj1WPKnPZW_pad-1" x="1790" y="300"/><use xlink:href="#VUmkNJq5uQFj1WPKnPZW_pad-1" x="1690" y="300"/><use xlink:href="#VUmkNJq5uQFj1WPKnPZW_pad-1" x="1590" y="300"/><use xlink:href="#VUmkNJq5uQFj1WPKnPZW_pad-1" x="1490" y="300"/><use xlink:href="#VUmkNJq5uQFj1WPKnPZW_pad-1" x="1390" y="300"/><use xlink:href="#VUmkNJq5uQFj1WPKnPZW_pad-1" x="1440" y="550"/><use xlink:href="#VUmkNJq5uQFj1WPKnPZW_pad-1" x="1540" y="550"/><use xlink:href="#VUmkNJq5uQFj1WPKnPZW_pad-1" x="1640" y="550"/><use xlink:href="#VUmkNJq5uQFj1WPKnPZW_pad-1" x="1740" y="550"/><use xlink:href="#VUmkNJq5uQFj1WPKnPZW_pad-1" x="1840" y="550"/><use xlink:href="#VUmkNJq5uQFj1WPKnPZW_pad-1" x="1940" y="550"/><use xlink:href="#VUmkNJq5uQFj1WPKnPZW_pad-1" x="2040" y="550"/><use xlink:href="#VUmkNJq5uQFj1WPKnPZW_pad-1" x="1340" y="550"/><use xlink:href="#VUmkNJq5uQFj1WPKnPZW_pad-1" x="1240" y="550"/><use xlink:href="#VUmkNJq5uQFj1WPKnPZW_pad-1" x="1090" y="830"/><use xlink:href="#VUmkNJq5uQFj1WPKnPZW_pad-1" x="1090" y="1030"/><use xlink:href="#VUmkNJq5uQFj1WPKnPZW_pad-1" x="400" y="1045"/><use xlink:href="#VUmkNJq5uQFj1WPKnPZW_pad-1" x="400" y="845"/><use xlink:href="#VUmkNJq5uQFj1WPKnPZW_pad-1" x="170" y="830"/><use xlink:href="#VUmkNJq5uQFj1WPKnPZW_pad-1" x="170" y="1030"/><use xlink:href="#VUmkNJq5uQFj1WPKnPZW_pad-1" x="110" y="635"/><use xlink:href="#VUmkNJq5uQFj1WPKnPZW_pad-1" x="110" y="535"/><use xlink:href="#VUmkNJq5uQFj1WPKnPZW_pad-1" x="110" y="435"/><use xlink:href="#VUmkNJq5uQFj1WPKnPZW_pad-1" x="110" y="335"/><use xlink:href="#VUmkNJq5uQFj1WPKnPZW_pad-1" x="110" y="235"/><use xlink:href="#VUmkNJq5uQFj1WPKnPZW_pad-1" x="110" y="135"/><use xlink:href="#VUmkNJq5uQFj1WPKnPZW_pad-1" x="170" y="1290"/><use xlink:href="#VUmkNJq5uQFj1WPKnPZW_pad-1" x="170" y="1490"/><use xlink:href="#VUmkNJq5uQFj1WPKnPZW_pad-1" x="170" y="1690"/><use xlink:href="#VUmkNJq5uQFj1WPKnPZW_pad-1" x="605" y="1545"/><use xlink:href="#VUmkNJq5uQFj1WPKnPZW_pad-1" x="605" y="1445"/><use xlink:href="#VUmkNJq5uQFj1WPKnPZW_pad-1" x="605" y="1345"/><use xlink:href="#VUmkNJq5uQFj1WPKnPZW_pad-1" x="605" y="1245"/><use xlink:href="#VUmkNJq5uQFj1WPKnPZW_pad-1" x="605" y="1145"/><use xlink:href="#VUmkNJq5uQFj1WPKnPZW_pad-1" x="905" y="1145"/><use xlink:href="#VUmkNJq5uQFj1WPKnPZW_pad-1" x="905" y="1245"/><use xlink:href="#VUmkNJq5uQFj1WPKnPZW_pad-1" x="905" y="1345"/><use xlink:href="#VUmkNJq5uQFj1WPKnPZW_pad-1" x="905" y="1445"/><use xlink:href="#VUmkNJq5uQFj1WPKnPZW_pad-1" x="905" y="1545"/><use xlink:href="#VUmkNJq5uQFj1WPKnPZW_pad-1" x="1240" y="1550"/><use xlink:href="#VUmkNJq5uQFj1WPKnPZW_pad-1" x="1340" y="1550"/><use xlink:href="#VUmkNJq5uQFj1WPKnPZW_pad-1" x="1440" y="1550"/><use xlink:href="#VUmkNJq5uQFj1WPKnPZW_pad-1" x="1540" y="1550"/><use xlink:href="#VUmkNJq5uQFj1WPKnPZW_pad-1" x="1640" y="1550"/><use xlink:href="#VUmkNJq5uQFj1WPKnPZW_pad-2" x="2015" y="90"/><use xlink:href="#VUmkNJq5uQFj1WPKnPZW_pad-2" x="460" y="90"/><use xlink:href="#VUmkNJq5uQFj1WPKnPZW_pad-2" x="470" y="1710"/><use xlink:href="#VUmkNJq5uQFj1WPKnPZW_pad-2" x="2015" y="1710"/></g><clipPath id="ueGYgbGUVH6d0NwOil0S_top_outline"><path d="M -50 1850 -50 -50 2160 -50 2160 1850 -50 1850" fill="none" stroke-width="10"/></clipPath><mask id="ueGYgbGUVH6d0NwOil0S_top_mech-mask"><g fill="#000" stroke="#000"><rect x="-50" y="-50" width="2210" height="1900" fill="#fff"/><use xlink:href="#ueGYgbGUVH6d0NwOil0S_top_drill1"/></g></mask><mask id="ueGYgbGUVH6d0NwOil0S_top_cf-mask"><g fill="#fff" stroke="#fff"><use xlink:href="#ueGYgbGUVH6d0NwOil0S_top_soldermask"/></g></mask><mask id="ueGYgbGUVH6d0NwOil0S_top_sm-mask"><g fill="#000" stroke="#000"><rect x="-50" y="-50" width="2210" height="1900" fill="#fff"/><use xlink:href="#ueGYgbGUVH6d0NwOil0S_top_soldermask"/></g></mask></defs><g transform="translate(0,1800) scale(1,-1)"><g mask="url(#ueGYgbGUVH6d0NwOil0S_top_mech-mask)" clip-path="url(#ueGYgbGUVH6d0NwOil0S_top_outline)"><rect x="-50" y="-50" width="2210" height="1900" fill="currentColor" class="ueGYgbGUVH6d0NwOil0S_fr4"/><use xlink:href="#ueGYgbGUVH6d0NwOil0S_top_copper" fill="currentColor" stroke="currentColor" class="ueGYgbGUVH6d0NwOil0S_cu"/><use xlink:href="#ueGYgbGUVH6d0NwOil0S_top_copper" fill="currentColor" stroke="currentColor" class="ueGYgbGUVH6d0NwOil0S_cf" mask="url(#ueGYgbGUVH6d0NwOil0S_top_cf-mask)"/><g mask="url(#ueGYgbGUVH6d0NwOil0S_top_sm-mask)"><rect x="-50" y="-50" width="2210" height="1900" fill="currentColor" class="ueGYgbGUVH6d0NwOil0S_sm"/><use xlink:href="#ueGYgbGUVH6d0NwOil0S_top_silkscreen" fill="currentColor" stroke="currentColor" class="ueGYgbGUVH6d0NwOil0S_ss"/></g></g></g></svg>