<svg version="1.1" xmlns="http://www.w3.org/2000/svg" xmlns:xlink="http://www.w3.org/1999/xlink" stroke-linecap="round" stroke-linejoin="round" stroke-width="0" fill-rule="evenodd" clip-rule="evenodd" id="Pr8lLkhjeZUgKunvvyGm_top" viewBox="-50 -50 2100 2670" width="2.1in" height="2.67in" class="w-100 h-100"><defs><style>.Pr8lLkhjeZUgKunvvyGm_fr4 {color: #666666;}
.Pr8lLkhjeZUgKunvvyGm_cu {color: #cccccc;}
.Pr8lLkhjeZUgKunvvyGm_cf {color: #cc9933;}
.Pr8lLkhjeZUgKunvvyGm_sm {color: #004200; opacity: 0.75;}
.Pr8lLkhjeZUgKunvvyGm_ss {color: #ffffff;}
.Pr8lLkhjeZUgKunvvyGm_sp {color: #999999;}
.Pr8lLkhjeZUgKunvvyGm_out {color: #000000;}</style><rect x="-34" y="-34" width="68" height="68" id="EK1nPzeiPCjai7P8DQJ5_pad-11"/><circle cx="0" cy="0" r="34" id="EK1nPzeiPCjai7P8DQJ5_pad-12"/><rect x="-34" y="-34" width="68" height="68" id="EK1nPzeiPCjai7P8DQJ5_pad-13"/><rect x="-30" y="-30" width="60" height="60" id="oZD5mcAYQNTaLJF56jA7_pad-14"/><circle cx="0" cy="0" r="30" id="oZD5mcAYQNTaLJF56jA7_pad-15"/><rect x="-30" y="-30" width="60" height="60" id="oZD5mcAYQNTaLJF56jA7_pad-16"/><circle cx="0" cy="0" r="15" id="clNaK7LNb58YnrZjOqvg_pad-1"/><circle cx="0" cy="0" r="59.055" id="clNaK7LNb58YnrZjOqvg_pad-2"/><g id="Pr8lLkhjeZUgKunvvyGm_top_soldermask"><use xlink:href="#EK1nPzeiPCjai7P8DQJ5_pad-11" x="80" y="1460"/><use xlink:href="#EK1nPzeiPCjai7P8DQJ5_pad-11" x="1310" y="700"/><use xlink:href="#EK1nPzeiPCjai7P8DQJ5_pad-11" x="1585" y="475"/><use xlink:href="#EK1nPzeiPCjai7P8DQJ5_pad-11" x="940" y="1460"/><use xlink:href="#EK1nPzeiPCjai7P8DQJ5_pad-11" x="440" y="890"/><use xlink:href="#EK1nPzeiPCjai7P8DQJ5_pad-11" x="1480" y="220"/><use xlink:href="#EK1nPzeiPCjai7P8DQJ5_pad-12" x="180" y="1460"/><use xlink:href="#EK1nPzeiPCjai7P8DQJ5_pad-12" x="280" y="1460"/><use xlink:href="#EK1nPzeiPCjai7P8DQJ5_pad-12" x="380" y="1460"/><use xlink:href="#EK1nPzeiPCjai7P8DQJ5_pad-12" x="480" y="1460"/><use xlink:href="#EK1nPzeiPCjai7P8DQJ5_pad-12" x="580" y="1460"/><use xlink:href="#EK1nPzeiPCjai7P8DQJ5_pad-12" x="780" y="1460"/><use xlink:href="#EK1nPzeiPCjai7P8DQJ5_pad-12" x="780" y="2170"/><use xlink:href="#EK1nPzeiPCjai7P8DQJ5_pad-12" x="580" y="2170"/><use xlink:href="#EK1nPzeiPCjai7P8DQJ5_pad-12" x="480" y="2170"/><use xlink:href="#EK1nPzeiPCjai7P8DQJ5_pad-12" x="380" y="2170"/><use xlink:href="#EK1nPzeiPCjai7P8DQJ5_pad-12" x="280" y="2170"/><use xlink:href="#EK1nPzeiPCjai7P8DQJ5_pad-12" x="180" y="2170"/><use xlink:href="#EK1nPzeiPCjai7P8DQJ5_pad-12" x="80" y="2170"/><use xlink:href="#EK1nPzeiPCjai7P8DQJ5_pad-12" x="680" y="1460"/><use xlink:href="#EK1nPzeiPCjai7P8DQJ5_pad-12" x="680" y="2170"/><use xlink:href="#EK1nPzeiPCjai7P8DQJ5_pad-12" x="1510" y="700"/><use xlink:href="#EK1nPzeiPCjai7P8DQJ5_pad-12" x="1485" y="475"/><use xlink:href="#EK1nPzeiPCjai7P8DQJ5_pad-12" x="1385" y="475"/><use xlink:href="#EK1nPzeiPCjai7P8DQJ5_pad-12" x="1740" y="1460"/><use xlink:href="#EK1nPzeiPCjai7P8DQJ5_pad-12" x="1640" y="1460"/><use xlink:href="#EK1nPzeiPCjai7P8DQJ5_pad-12" x="1540" y="1460"/><use xlink:href="#EK1nPzeiPCjai7P8DQJ5_pad-12" x="1440" y="1460"/><use xlink:href="#EK1nPzeiPCjai7P8DQJ5_pad-12" x="1340" y="1460"/><use xlink:href="#EK1nPzeiPCjai7P8DQJ5_pad-12" x="1240" y="1460"/><use xlink:href="#EK1nPzeiPCjai7P8DQJ5_pad-12" x="1140" y="1460"/><use xlink:href="#EK1nPzeiPCjai7P8DQJ5_pad-12" x="1040" y="1460"/><use xlink:href="#EK1nPzeiPCjai7P8DQJ5_pad-12" x="1340" y="2460"/><use xlink:href="#EK1nPzeiPCjai7P8DQJ5_pad-12" x="1240" y="2460"/><use xlink:href="#EK1nPzeiPCjai7P8DQJ5_pad-12" x="1140" y="2460"/><use xlink:href="#EK1nPzeiPCjai7P8DQJ5_pad-12" x="1040" y="2460"/><use xlink:href="#EK1nPzeiPCjai7P8DQJ5_pad-12" x="940" y="2460"/><use xlink:href="#EK1nPzeiPCjai7P8DQJ5_pad-12" x="1640" y="890"/><use xlink:href="#EK1nPzeiPCjai7P8DQJ5_pad-12" x="1540" y="890"/><use xlink:href="#EK1nPzeiPCjai7P8DQJ5_pad-12" x="1440" y="890"/><use xlink:href="#EK1nPzeiPCjai7P8DQJ5_pad-12" x="1340" y="890"/><use xlink:href="#EK1nPzeiPCjai7P8DQJ5_pad-12" x="1240" y="890"/><use xlink:href="#EK1nPzeiPCjai7P8DQJ5_pad-12" x="1140" y="890"/><use xlink:href="#EK1nPzeiPCjai7P8DQJ5_pad-12" x="1040" y="890"/><use xlink:href="#EK1nPzeiPCjai7P8DQJ5_pad-12" x="940" y="890"/><use xlink:href="#EK1nPzeiPCjai7P8DQJ5_pad-12" x="840" y="890"/><use xlink:href="#EK1nPzeiPCjai7P8DQJ5_pad-12" x="740" y="890"/><use xlink:href="#EK1nPzeiPCjai7P8DQJ5_pad-12" x="640" y="890"/><use xlink:href="#EK1nPzeiPCjai7P8DQJ5_pad-12" x="540" y="890"/><use xlink:href="#EK1nPzeiPCjai7P8DQJ5_pad-12" x="1740" y="890"/><use xlink:href="#EK1nPzeiPCjai7P8DQJ5_pad-12" x="1340" y="1190"/><use xlink:href="#EK1nPzeiPCjai7P8DQJ5_pad-12" x="740" y="1190"/><use xlink:href="#EK1nPzeiPCjai7P8DQJ5_pad-12" x="1740" y="1190"/><use xlink:href="#EK1nPzeiPCjai7P8DQJ5_pad-12" x="1640" y="1190"/><use xlink:href="#EK1nPzeiPCjai7P8DQJ5_pad-12" x="1540" y="1190"/><use xlink:href="#EK1nPzeiPCjai7P8DQJ5_pad-12" x="1240" y="1190"/><use xlink:href="#EK1nPzeiPCjai7P8DQJ5_pad-12" x="1140" y="1190"/><use xlink:href="#EK1nPzeiPCjai7P8DQJ5_pad-12" x="940" y="1190"/><use xlink:href="#EK1nPzeiPCjai7P8DQJ5_pad-12" x="840" y="1190"/><use xlink:href="#EK1nPzeiPCjai7P8DQJ5_pad-12" x="540" y="1190"/><use xlink:href="#EK1nPzeiPCjai7P8DQJ5_pad-12" x="440" y="1190"/><use xlink:href="#EK1nPzeiPCjai7P8DQJ5_pad-12" x="1440" y="1190"/><use xlink:href="#EK1nPzeiPCjai7P8DQJ5_pad-12" x="1040" y="1190"/><use xlink:href="#EK1nPzeiPCjai7P8DQJ5_pad-12" x="640" y="1190"/><use xlink:href="#EK1nPzeiPCjai7P8DQJ5_pad-12" x="800" y="400"/><use xlink:href="#EK1nPzeiPCjai7P8DQJ5_pad-12" x="800" y="300"/><use xlink:href="#EK1nPzeiPCjai7P8DQJ5_pad-12" x="610" y="400"/><use xlink:href="#EK1nPzeiPCjai7P8DQJ5_pad-12" x="610" y="300"/><use xlink:href="#EK1nPzeiPCjai7P8DQJ5_pad-12" x="960" y="160"/><use xlink:href="#EK1nPzeiPCjai7P8DQJ5_pad-12" x="1100" y="160"/><use xlink:href="#EK1nPzeiPCjai7P8DQJ5_pad-12" x="1680" y="220"/><use xlink:href="#EK1nPzeiPCjai7P8DQJ5_pad-12" x="350" y="200"/><use xlink:href="#EK1nPzeiPCjai7P8DQJ5_pad-12" x="1250" y="275"/><use xlink:href="#EK1nPzeiPCjai7P8DQJ5_pad-12" x="1720" y="660"/><use xlink:href="#EK1nPzeiPCjai7P8DQJ5_pad-12" x="90" y="2480"/><use xlink:href="#EK1nPzeiPCjai7P8DQJ5_pad-12" x="90" y="90"/><use xlink:href="#EK1nPzeiPCjai7P8DQJ5_pad-12" x="1910" y="90"/><use xlink:href="#EK1nPzeiPCjai7P8DQJ5_pad-12" x="1910" y="2480"/><use xlink:href="#EK1nPzeiPCjai7P8DQJ5_pad-13" x="800" y="200"/><use xlink:href="#EK1nPzeiPCjai7P8DQJ5_pad-13" x="610" y="200"/><use xlink:href="#EK1nPzeiPCjai7P8DQJ5_pad-13" x="960" y="660"/><use xlink:href="#EK1nPzeiPCjai7P8DQJ5_pad-13" x="1100" y="660"/><use xlink:href="#EK1nPzeiPCjai7P8DQJ5_pad-13" x="350" y="400"/><use xlink:href="#EK1nPzeiPCjai7P8DQJ5_pad-13" x="1250" y="475"/><use xlink:href="#EK1nPzeiPCjai7P8DQJ5_pad-13" x="1720" y="460"/></g><g id="Pr8lLkhjeZUgKunvvyGm_top_silkscreen"><path d="M 1535.21 610 A 90 90 0 0 1 1535.21 790 M 1285 790 A 90 90 0 0 1 1285 610 M 390 1010 A 30 30 0 0 1 390 1070 M 30 1410 30 2220 M 30 1410 800 1410 830 1440 830 2190 M 30 2220 800 2220 830 2190 M 1285 610 1535.47 610 M 1285 790 1535.21 790 M 1335 400 1635 400 M 1335 585 1635 585 M 1335 400 1335 585 M 1635 400 1635 585 M 890 1410 1790 1410 1790 2510 M 890 1410 890 2510 1790 2510 M 390 1240 1790 1240 M 390 840 1790 840 1790 1240 M 390 1070 390 1240 M 390 840 390 1010 M 720 105 720 495 855 495 880 470 M 880 105 880 470 M 720 105 880 105 M 530 105 530 495 665 495 690 470 M 690 105 690 470 M 530 105 690 105 M 910 135 910 710 M 910 135 935 110 990 110 M 910 710 1010 710 M 1010 130 1010 710 M 990 110 1010 130 M 1050 135 1050 710 M 1050 135 1075 110 1130 110 M 1050 710 1150 710 M 1150 130 1150 710 M 1130 110 1150 130 M 1385 95 1385 370 1775 370 M 1385 95 1725 95 1775 145 1775 370 M 225 495 500 495 M 500 105 500 495 M 225 155 225 495 M 225 155 275 105 500 105 M 1300 225 1300 525 M 1200 525 1300 525 M 1220 225 1300 225 M 1200 245 1220 225 M 1200 245 1200 525 M 1670 410 1670 710 M 1670 410 1770 410 M 1670 710 1750 710 1770 690 M 1770 410 1770 690 M 1170.06 1940 1170.06 1999.98 1200.04 1999.98 1210.04 1989.98 1210.04 1969.99 1200.04 1959.99 1170.06 1959.99 M 1190.05 1959.99 1210.04 1940 M 1270.02 1999.98 1230.04 1999.98 1230.04 1969.99 1250.03 1969.99 1230.04 1969.99 1230.04 1940 M 1290.02 1940 1290.02 1999.98 1310.01 1979.99 1330 1999.98 1330 1940 M 1350 1950 1359.99 1940 1379.99 1940 1389.98 1950 1389.98 1989.98 1379.99 1999.98 1359.99 1999.98 1350 1989.98 1350 1979.99 1359.99 1969.99 1389.98 1969.99 M 1449.97 1999.98 1429.97 1989.98 1409.98 1969.99 1409.98 1950 1419.97 1940 1439.97 1940 1449.97 1950 1449.97 1959.99 1439.97 1969.99 1409.98 1969.99 M 1469.96 1999.98 1469.96 1940 1489.95 1959.99 1509.95 1940 1509.95 1999.98 M 800.09 1019.99 800.09 1059.98 820.09 1079.97 840.08 1059.98 840.08 1019.99 840.08 1049.98 800.09 1049.98 M 860.07 1079.97 900.06 1079.97 880.07 1079.97 880.07 1019.99 M 920.05 1019.99 920.05 1059.98 930.05 1059.98 940.05 1049.98 940.05 1019.99 940.05 1049.98 950.04 1059.98 960.04 1049.98 960.04 1019.99 M 1010.03 1019.99 990.03 1019.99 980.04 1029.99 980.04 1049.98 990.03 1059.98 1010.03 1059.98 1020.02 1049.98 1020.02 1039.99 980.04 1039.99 M 1060.01 1000 1070.01 1000 1080 1010 1080 1059.98 1050.01 1059.98 1040.02 1049.98 1040.02 1029.99 1050.01 1019.99 1080 1019.99 M 1109.99 1059.98 1129.99 1059.98 1139.98 1049.98 1139.98 1019.99 1109.99 1019.99 1100 1029.99 1109.99 1039.99 1139.98 1039.99 M 1159.98 1069.98 1169.97 1079.97 1189.97 1079.97 1199.97 1069.98 1199.97 1059.98 1189.97 1049.98 1179.97 1049.98 1189.97 1049.98 1199.97 1039.99 1199.97 1029.99 1189.97 1019.99 1169.97 1019.99 1159.98 1029.99 M 1259.95 1019.99 1219.96 1019.99 1259.95 1059.98 1259.95 1069.98 1249.95 1079.97 1229.95 1079.97 1219.96 1069.98 M 1279.94 1069.98 1289.93 1079.97 1309.93 1079.97 1319.93 1069.98 1319.93 1059.98 1309.93 1049.98 1319.93 1039.99 1319.93 1029.99 1309.93 1019.99 1289.93 1019.99 1279.94 1029.99 1279.94 1039.99 1289.93 1049.98 1279.94 1059.98 1279.94 1069.98 M 1289.93 1049.98 1309.93 1049.98 M 1339.92 1019.99 1339.92 1079.97 1369.91 1079.97 1379.91 1069.98 1379.91 1049.98 1369.91 1039.99 1339.92 1039.99 M 1119.99 343.35 1119.99 356.68 1119.99 350.01 1080.01 350.01 1086.67 343.35 M 1086.67 376.67 1080.01 383.34 1080.01 396.67 1086.67 403.33 1113.33 403.33 1119.99 396.67 1119.99 383.34 1113.33 376.67 1086.67 376.67 M 1119.99 416.66 1080.01 416.66 M 1106.66 416.66 1093.34 436.65 M 1106.66 416.66 1119.99 436.65 M 979.99 353.35 979.99 366.68 979.99 360.01 940.01 360.01 946.67 353.35 M 946.67 386.67 940.01 393.34 940.01 406.66 946.67 413.33 973.33 413.33 979.99 406.66 979.99 393.34 973.33 386.67 946.67 386.67 M 979.99 426.66 940.01 426.66 M 966.66 426.66 953.33 446.65 M 966.66 426.66 979.99 446.65 M 1707.5 514.18 1703.34 518.35 1703.34 526.68 1707.5 530.84 1711.67 530.84 1715.83 526.68 1715.83 522.51 1715.83 526.68 1720 530.84 1724.16 530.84 1728.33 526.68 1728.33 518.35 1724.16 514.18 M 1707.5 539.17 1703.34 543.34 1703.34 551.67 1707.5 555.84 1711.67 555.84 1715.83 551.67 1715.83 547.5 1715.83 551.67 1720 555.84 1724.16 555.84 1728.33 551.67 1728.33 543.34 1724.16 539.17 M 1707.5 564.16 1703.34 568.33 1703.34 576.66 1707.5 580.83 1724.16 580.83 1728.33 576.66 1728.33 568.33 1724.16 564.16 1707.5 564.16 M 1736.66 589.16 1711.67 589.16 1711.67 601.65 1715.83 605.82 1724.16 605.82 1728.33 601.65 1728.33 589.16 M 1241.67 328.35 1237.5 332.51 1237.5 340.84 1241.67 345.01 1258.33 345.01 1262.5 340.84 1262.5 332.51 1258.33 328.35 1241.67 328.35 M 1262.5 353.34 1258.33 353.34 1258.33 357.5 1262.5 357.5 1262.5 353.34 M 1262.5 374.16 1262.5 382.5 1262.5 378.33 1237.5 378.33 1241.67 374.16 M 1245.83 394.99 1258.33 394.99 1262.5 399.16 1262.5 411.65 1245.83 411.65 M 1850.03 719.99 1850.03 680 1910.01 680 1910.01 719.99 M 1880.02 680 1880.02 699.99 M 1860.02 779.97 1850.03 769.97 1850.03 749.98 1860.02 739.98 1900.01 739.98 1910.01 749.98 1910.01 769.97 1900.01 779.97 1880.02 779.97 1880.02 759.97 M 1850.03 799.96 1910.01 799.96 1880.02 799.96 1880.02 839.95 1850.03 839.95 1910.01 839.95 M 1910.01 889.93 1850.03 889.93 1880.02 859.94 1880.02 899.93 M 1860.02 919.92 1850.03 929.92 1850.03 949.91 1860.02 959.91 1900.01 959.91 1910.01 949.91 1910.01 929.92 1900.01 919.92 1860.02 919.92 M 1860.02 979.9 1850.03 989.9 1850.03 1009.89 1860.02 1019.89 1900.01 1019.89 1910.01 1009.89 1910.01 989.9 1900.01 979.9 1860.02 979.9 M 1860.02 1139.85 1850.03 1129.85 1850.03 1109.86 1860.02 1099.86 1870.02 1099.86 1880.02 1109.86 1880.02 1129.85 1890.01 1139.85 1900.01 1139.85 1910.01 1129.85 1910.01 1109.86 1900.01 1099.86 M 1930 1159.84 1870.02 1159.84 1870.02 1189.83 1880.02 1199.83 1900.01 1199.83 1910.01 1189.83 1910.01 1159.84 M 1910.01 1249.82 1910.01 1229.82 1900.01 1219.83 1880.02 1219.83 1870.02 1229.82 1870.02 1249.82 1880.02 1259.81 1890.01 1259.81 1890.01 1219.83 M 1870.02 1289.8 1870.02 1309.8 1880.02 1319.79 1910.01 1319.79 1910.01 1289.8 1900.01 1279.81 1890.01 1289.8 1890.01 1319.79 M 1910.01 1339.79 1850.03 1339.79 M 1890.01 1339.79 1870.02 1369.78 M 1890.01 1339.79 1910.01 1369.78 M 1910.01 1429.76 1910.01 1409.76 1900.01 1399.77 1880.02 1399.77 1870.02 1409.76 1870.02 1429.76 1880.02 1439.75 1890.01 1439.75 1890.01 1399.77 M 1870.02 1459.75 1910.01 1459.75 1890.01 1459.75 1880.02 1469.75 1870.02 1479.74 1870.02 1489.74 M 1860.02 1619.7 1850.03 1609.7 1850.03 1589.71 1860.02 1579.71 1870.02 1579.71 1880.02 1589.71 1880.02 1609.7 1890.01 1619.7 1900.01 1619.7 1910.01 1609.7 1910.01 1589.71 1900.01 1579.71 M 1870.02 1639.69 1900.01 1639.69 1910.01 1649.69 1910.01 1679.68 1920 1679.68 1930 1669.68 1930 1659.68 M 1910.01 1679.68 1870.02 1679.68 M 1910.01 1699.67 1910.01 1729.66 1900.01 1739.66 1890.01 1729.66 1890.01 1709.67 1880.02 1699.67 1870.02 1709.67 1870.02 1739.66 M 1860.02 1769.65 1870.02 1769.65 1870.02 1759.65 1870.02 1779.64 1870.02 1769.65 1900.01 1769.65 1910.01 1779.64 M 1910.01 1839.63 1910.01 1819.63 1900.01 1809.64 1880.02 1809.64 1870.02 1819.63 1870.02 1839.63 1880.02 1849.62 1890.01 1849.62 1890.01 1809.64 M 1910.01 1869.61 1870.02 1869.61 1870.02 1879.61 1880.02 1889.61 1910.01 1889.61 1880.02 1889.61 1870.02 1899.61 1880.02 1909.6 1910.01 1909.6 M 160.01 290 100.03 290 160.01 329.99 100.03 329.99 M 160.01 349.98 150.01 349.98 150.01 359.98 160.01 359.98 160.01 349.98 M 100.03 499.93 160.01 499.93 160.01 469.94 150.01 459.94 130.02 459.94 120.02 469.94 120.02 499.93 M 160.01 519.93 100.03 519.93 100.03 549.92 110.02 559.91 130.02 559.91 140.01 549.92 140.01 519.93 M 170 589.9 160.01 599.9 150.01 599.9 150.01 589.9 160.01 589.9 160.01 599.9 170 589.9 180 579.91 M 100.03 699.87 160.01 699.87 160.01 729.86 150.01 739.85 140.01 739.85 130.02 729.86 130.02 699.87 130.02 729.86 120.02 739.85 110.02 739.85 100.03 729.86 100.03 699.87 M 160.01 759.85 150.01 759.85 150.01 769.85 160.01 769.85 160.01 759.85 M 160.01 869.81 100.03 869.81 100.03 899.8 110.02 909.8 130.02 909.8 140.01 899.8 140.01 869.81 M 170 939.79 160.01 949.79 150.01 949.79 150.01 939.79 160.01 939.79 160.01 949.79 170 939.79 180 929.79 M 110.02 1089.74 100.03 1079.75 100.03 1059.75 110.02 1049.75 150.01 1049.75 160.01 1059.75 160.01 1079.75 150.01 1089.74 M 160.01 1109.74 150.01 1109.74 150.01 1119.73 160.01 1119.73 160.01 1109.74 M 160.01 1219.7 100.03 1219.7 120.02 1239.69 100.03 1259.69 160.01 1259.69 M 240 1879.97 240 1819.99 269.99 1819.99 279.99 1829.99 279.99 1869.98 269.99 1879.97 240 1879.97 M 339.97 1879.97 299.98 1879.97 299.98 1849.98 319.97 1849.98 299.98 1849.98 299.98 1819.99 M 359.96 1819.99 359.96 1879.97 389.95 1879.97 399.95 1869.98 399.95 1849.98 389.95 1839.99 359.96 1839.99 M 419.94 1819.99 439.93 1819.99 429.94 1819.99 429.94 1879.97 419.94 1879.97 M 479.92 1859.98 499.92 1859.98 509.91 1849.98 509.91 1819.99 479.92 1819.99 469.93 1829.99 479.92 1839.99 509.91 1839.99 M 529.91 1859.98 529.91 1829.99 539.9 1819.99 569.89 1819.99 569.89 1810 559.9 1800 549.9 1800 M 569.89 1819.99 569.89 1859.98 M 619.88 1819.99 599.88 1819.99 589.89 1829.99 589.89 1849.98 599.88 1859.98 619.88 1859.98 629.87 1849.98 629.87 1839.99 589.89 1839.99 M 649.87 1859.98 649.87 1819.99 649.87 1839.99 659.86 1849.98 669.86 1859.98 679.86 1859.98" fill="none" stroke-width="10"/></g><g id="Pr8lLkhjeZUgKunvvyGm_top_copper"><path d="M 890.46 1859.54 1140.46 1859.54 M 580 2170 890.46 1859.54 M 180 1560 840 1560 M 89.82 1469.82 180 1560 M 380 810 380 1360 480 1460 M 320 700 320 1400 380 1460 M 1345 860 1505 700 M 1340 890 1345 885 M 1345 860 1345 885 M 740 890 740 900 M 990 1150 990 1210 M 740 900 990 1150 M 1250 475 1250 670 M 1050 870 1250 670 M 1240 1190 1240 1260 M 1040 890 1240 1090 1240 1190 M 1640 890 1640 940 M 1490 1090 1640 940 M 1490 1090 1490 1510 M 990 1210 1240 1460 M 1240 850 1240 890 M 1310 700 1310 780 M 1240 850 1310 780 M 1250 475 1385 475 M 1505 700 1510 700 M 1585 475 1600 460 M 1140.46 1859.54 1490 1510 M 1010 1530 1250 1530 M 1290 1426.76 1290 1490 M 1250 1530 1290 1490 M 1240 1376.77 1290 1426.76 M 320 700 610 410 M 380 810 790 400 M 1240 1260 1240 1376.77 M 940 1460 1010 1530 M 840 1560 940 1460 M 1340 1190 1340 1460 M 1440 1190 1440 1460 M 1540 1190 1540 1460 M 1640 1190 1640 1460 M 1740 1190 1740 1460 M 1600 460 1720 460 M 1680 220 1680 420 1720 460 M 960 360 960 660 M 800 200 960 360 M 1100 390 1100 660 M 865 155 1100 390 M 610 200 713.11 200 758.11 155 865 155 M 350 400 546.36 400 591.58 354.78 745.22 354.78 800 300 M 350 200 510 200 610 300 M 790 400 800 400 M 610 400 610 410" fill="none" stroke-width="10"/><use xlink:href="#oZD5mcAYQNTaLJF56jA7_pad-14" x="80" y="1460"/><use xlink:href="#oZD5mcAYQNTaLJF56jA7_pad-14" x="1310" y="700"/><use xlink:href="#oZD5mcAYQNTaLJF56jA7_pad-14" x="1585" y="475"/><use xlink:href="#oZD5mcAYQNTaLJF56jA7_pad-14" x="940" y="1460"/><use xlink:href="#oZD5mcAYQNTaLJF56jA7_pad-14" x="440" y="890"/><use xlink:href="#oZD5mcAYQNTaLJF56jA7_pad-14" x="1480" y="220"/><use xlink:href="#oZD5mcAYQNTaLJF56jA7_pad-15" x="180" y="1460"/><use xlink:href="#oZD5mcAYQNTaLJF56jA7_pad-15" x="280" y="1460"/><use xlink:href="#oZD5mcAYQNTaLJF56jA7_pad-15" x="380" y="1460"/><use xlink:href="#oZD5mcAYQNTaLJF56jA7_pad-15" x="480" y="1460"/><use xlink:href="#oZD5mcAYQNTaLJF56jA7_pad-15" x="580" y="1460"/><use xlink:href="#oZD5mcAYQNTaLJF56jA7_pad-15" x="780" y="1460"/><use xlink:href="#oZD5mcAYQNTaLJF56jA7_pad-15" x="780" y="2170"/><use xlink:href="#oZD5mcAYQNTaLJF56jA7_pad-15" x="580" y="2170"/><use xlink:href="#oZD5mcAYQNTaLJF56jA7_pad-15" x="480" y="2170"/><use xlink:href="#oZD5mcAYQNTaLJF56jA7_pad-15" x="380" y="2170"/><use xlink:href="#oZD5mcAYQNTaLJF56jA7_pad-15" x="280" y="2170"/><use xlink:href="#oZD5mcAYQNTaLJF56jA7_pad-15" x="180" y="2170"/><use xlink:href="#oZD5mcAYQNTaLJF56jA7_pad-15" x="80" y="2170"/><use xlink:href="#oZD5mcAYQNTaLJF56jA7_pad-15" x="680" y="1460"/><use xlink:href="#oZD5mcAYQNTaLJF56jA7_pad-15" x="680" y="2170"/><use xlink:href="#oZD5mcAYQNTaLJF56jA7_pad-15" x="1510" y="700"/><use xlink:href="#oZD5mcAYQNTaLJF56jA7_pad-15" x="1485" y="475"/><use xlink:href="#oZD5mcAYQNTaLJF56jA7_pad-15" x="1385" y="475"/><use xlink:href="#oZD5mcAYQNTaLJF56jA7_pad-15" x="1740" y="1460"/><use xlink:href="#oZD5mcAYQNTaLJF56jA7_pad-15" x="1640" y="1460"/><use xlink:href="#oZD5mcAYQNTaLJF56jA7_pad-15" x="1540" y="1460"/><use xlink:href="#oZD5mcAYQNTaLJF56jA7_pad-15" x="1440" y="1460"/><use xlink:href="#oZD5mcAYQNTaLJF56jA7_pad-15" x="1340" y="1460"/><use xlink:href="#oZD5mcAYQNTaLJF56jA7_pad-15" x="1240" y="1460"/><use xlink:href="#oZD5mcAYQNTaLJF56jA7_pad-15" x="1140" y="1460"/><use xlink:href="#oZD5mcAYQNTaLJF56jA7_pad-15" x="1040" y="1460"/><use xlink:href="#oZD5mcAYQNTaLJF56jA7_pad-15" x="1340" y="2460"/><use xlink:href="#oZD5mcAYQNTaLJF56jA7_pad-15" x="1240" y="2460"/><use xlink:href="#oZD5mcAYQNTaLJF56jA7_pad-15" x="1140" y="2460"/><use xlink:href="#oZD5mcAYQNTaLJF56jA7_pad-15" x="1040" y="2460"/><use xlink:href="#oZD5mcAYQNTaLJF56jA7_pad-15" x="940" y="2460"/><use xlink:href="#oZD5mcAYQNTaLJF56jA7_pad-15" x="1640" y="890"/><use xlink:href="#oZD5mcAYQNTaLJF56jA7_pad-15" x="1540" y="890"/><use xlink:href="#oZD5mcAYQNTaLJF56jA7_pad-15" x="1440" y="890"/><use xlink:href="#oZD5mcAYQNTaLJF56jA7_pad-15" x="1340" y="890"/><use xlink:href="#oZD5mcAYQNTaLJF56jA7_pad-15" x="1240" y="890"/><use xlink:href="#oZD5mcAYQNTaLJF56jA7_pad-15" x="1140" y="890"/><use xlink:href="#oZD5mcAYQNTaLJF56jA7_pad-15" x="1040" y="890"/><use xlink:href="#oZD5mcAYQNTaLJF56jA7_pad-15" x="940" y="890"/><use xlink:href="#oZD5mcAYQNTaLJF56jA7_pad-15" x="840" y="890"/><use xlink:href="#oZD5mcAYQNTaLJF56jA7_pad-15" x="740" y="890"/><use xlink:href="#oZD5mcAYQNTaLJF56jA7_pad-15" x="640" y="890"/><use xlink:href="#oZD5mcAYQNTaLJF56jA7_pad-15" x="540" y="890"/><use xlink:href="#oZD5mcAYQNTaLJF56jA7_pad-15" x="1740" y="890"/><use xlink:href="#oZD5mcAYQNTaLJF56jA7_pad-15" x="1340" y="1190"/><use xlink:href="#oZD5mcAYQNTaLJF56jA7_pad-15" x="740" y="1190"/><use xlink:href="#oZD5mcAYQNTaLJF56jA7_pad-15" x="1740" y="1190"/><use xlink:href="#oZD5mcAYQNTaLJF56jA7_pad-15" x="1640" y="1190"/><use xlink:href="#oZD5mcAYQNTaLJF56jA7_pad-15" x="1540" y="1190"/><use xlink:href="#oZD5mcAYQNTaLJF56jA7_pad-15" x="1240" y="1190"/><use xlink:href="#oZD5mcAYQNTaLJF56jA7_pad-15" x="1140" y="1190"/><use xlink:href="#oZD5mcAYQNTaLJF56jA7_pad-15" x="940" y="1190"/><use xlink:href="#oZD5mcAYQNTaLJF56jA7_pad-15" x="840" y="1190"/><use xlink:href="#oZD5mcAYQNTaLJF56jA7_pad-15" x="540" y="1190"/><use xlink:href="#oZD5mcAYQNTaLJF56jA7_pad-15" x="440" y="1190"/><use xlink:href="#oZD5mcAYQNTaLJF56jA7_pad-15" x="1440" y="1190"/><use xlink:href="#oZD5mcAYQNTaLJF56jA7_pad-15" x="1040" y="1190"/><use xlink:href="#oZD5mcAYQNTaLJF56jA7_pad-15" x="640" y="1190"/><use xlink:href="#oZD5mcAYQNTaLJF56jA7_pad-15" x="800" y="400"/><use xlink:href="#oZD5mcAYQNTaLJF56jA7_pad-15" x="800" y="300"/><use xlink:href="#oZD5mcAYQNTaLJF56jA7_pad-15" x="610" y="400"/><use xlink:href="#oZD5mcAYQNTaLJF56jA7_pad-15" x="610" y="300"/><use xlink:href="#oZD5mcAYQNTaLJF56jA7_pad-15" x="960" y="160"/><use xlink:href="#oZD5mcAYQNTaLJF56jA7_pad-15" x="1100" y="160"/><use xlink:href="#oZD5mcAYQNTaLJF56jA7_pad-15" x="1680" y="220"/><use xlink:href="#oZD5mcAYQNTaLJF56jA7_pad-15" x="350" y="200"/><use xlink:href="#oZD5mcAYQNTaLJF56jA7_pad-15" x="1250" y="275"/><use xlink:href="#oZD5mcAYQNTaLJF56jA7_pad-15" x="1720" y="660"/><use xlink:href="#oZD5mcAYQNTaLJF56jA7_pad-15" x="90" y="2480"/><use xlink:href="#oZD5mcAYQNTaLJF56jA7_pad-15" x="90" y="90"/><use xlink:href="#oZD5mcAYQNTaLJF56jA7_pad-15" x="1910" y="90"/><use xlink:href="#oZD5mcAYQNTaLJF56jA7_pad-15" x="1910" y="2480"/><use xlink:href="#oZD5mcAYQNTaLJF56jA7_pad-16" x="800" y="200"/><use xlink:href="#oZD5mcAYQNTaLJF56jA7_pad-16" x="610" y="200"/><use xlink:href="#oZD5mcAYQNTaLJF56jA7_pad-16" x="960" y="660"/><use xlink:href="#oZD5mcAYQNTaLJF56jA7_pad-16" x="1100" y="660"/><use xlink:href="#oZD5mcAYQNTaLJF56jA7_pad-16" x="350" y="400"/><use xlink:href="#oZD5mcAYQNTaLJF56jA7_pad-16" x="1250" y="475"/><use xlink:href="#oZD5mcAYQNTaLJF56jA7_pad-16" x="1720" y="460"/></g><g id="Pr8lLkhjeZUgKunvvyGm_top_drill1"><use xlink:href="#clNaK7LNb58YnrZjOqvg_pad-1" x="350" y="200"/><use xlink:href="#clNaK7LNb58YnrZjOqvg_pad-1" x="350" y="400"/><use xlink:href="#clNaK7LNb58YnrZjOqvg_pad-1" x="610" y="400"/><use xlink:href="#clNaK7LNb58YnrZjOqvg_pad-1" x="610" y="300"/><use xlink:href="#clNaK7LNb58YnrZjOqvg_pad-1" x="610" y="200"/><use xlink:href="#clNaK7LNb58YnrZjOqvg_pad-1" x="800" y="200"/><use xlink:href="#clNaK7LNb58YnrZjOqvg_pad-1" x="800" y="300"/><use xlink:href="#clNaK7LNb58YnrZjOqvg_pad-1" x="800" y="400"/><use xlink:href="#clNaK7LNb58YnrZjOqvg_pad-1" x="960" y="160"/><use xlink:href="#clNaK7LNb58YnrZjOqvg_pad-1" x="1100" y="160"/><use xlink:href="#clNaK7LNb58YnrZjOqvg_pad-1" x="1250" y="275"/><use xlink:href="#clNaK7LNb58YnrZjOqvg_pad-1" x="1250" y="475"/><use xlink:href="#clNaK7LNb58YnrZjOqvg_pad-1" x="1385" y="475"/><use xlink:href="#clNaK7LNb58YnrZjOqvg_pad-1" x="1485" y="475"/><use xlink:href="#clNaK7LNb58YnrZjOqvg_pad-1" x="1585" y="475"/><use xlink:href="#clNaK7LNb58YnrZjOqvg_pad-1" x="1720" y="460"/><use xlink:href="#clNaK7LNb58YnrZjOqvg_pad-1" x="1720" y="660"/><use xlink:href="#clNaK7LNb58YnrZjOqvg_pad-1" x="1510" y="700"/><use xlink:href="#clNaK7LNb58YnrZjOqvg_pad-1" x="1310" y="700"/><use xlink:href="#clNaK7LNb58YnrZjOqvg_pad-1" x="1340" y="890"/><use xlink:href="#clNaK7LNb58YnrZjOqvg_pad-1" x="1440" y="890"/><use xlink:href="#clNaK7LNb58YnrZjOqvg_pad-1" x="1540" y="890"/><use xlink:href="#clNaK7LNb58YnrZjOqvg_pad-1" x="1640" y="890"/><use xlink:href="#clNaK7LNb58YnrZjOqvg_pad-1" x="1740" y="890"/><use xlink:href="#clNaK7LNb58YnrZjOqvg_pad-1" x="1240" y="890"/><use xlink:href="#clNaK7LNb58YnrZjOqvg_pad-1" x="1140" y="890"/><use xlink:href="#clNaK7LNb58YnrZjOqvg_pad-1" x="1040" y="890"/><use xlink:href="#clNaK7LNb58YnrZjOqvg_pad-1" x="940" y="890"/><use xlink:href="#clNaK7LNb58YnrZjOqvg_pad-1" x="840" y="890"/><use xlink:href="#clNaK7LNb58YnrZjOqvg_pad-1" x="740" y="890"/><use xlink:href="#clNaK7LNb58YnrZjOqvg_pad-1" x="640" y="890"/><use xlink:href="#clNaK7LNb58YnrZjOqvg_pad-1" x="540" y="890"/><use xlink:href="#clNaK7LNb58YnrZjOqvg_pad-1" x="440" y="890"/><use xlink:href="#clNaK7LNb58YnrZjOqvg_pad-1" x="960" y="660"/><use xlink:href="#clNaK7LNb58YnrZjOqvg_pad-1" x="1100" y="660"/><use xlink:href="#clNaK7LNb58YnrZjOqvg_pad-1" x="1480" y="220"/><use xlink:href="#clNaK7LNb58YnrZjOqvg_pad-1" x="1680" y="220"/><use xlink:href="#clNaK7LNb58YnrZjOqvg_pad-1" x="280" y="1460"/><use xlink:href="#clNaK7LNb58YnrZjOqvg_pad-1" x="180" y="1460"/><use xlink:href="#clNaK7LNb58YnrZjOqvg_pad-1" x="80" y="1460"/><use xlink:href="#clNaK7LNb58YnrZjOqvg_pad-1" x="80" y="2170"/><use xlink:href="#clNaK7LNb58YnrZjOqvg_pad-1" x="180" y="2170"/><use xlink:href="#clNaK7LNb58YnrZjOqvg_pad-1" x="280" y="2170"/><use xlink:href="#clNaK7LNb58YnrZjOqvg_pad-1" x="380" y="2170"/><use xlink:href="#clNaK7LNb58YnrZjOqvg_pad-1" x="480" y="2170"/><use xlink:href="#clNaK7LNb58YnrZjOqvg_pad-1" x="580" y="2170"/><use xlink:href="#clNaK7LNb58YnrZjOqvg_pad-1" x="680" y="2170"/><use xlink:href="#clNaK7LNb58YnrZjOqvg_pad-1" x="780" y="2170"/><use xlink:href="#clNaK7LNb58YnrZjOqvg_pad-1" x="940" y="2460"/><use xlink:href="#clNaK7LNb58YnrZjOqvg_pad-1" x="1040" y="2460"/><use xlink:href="#clNaK7LNb58YnrZjOqvg_pad-1" x="1140" y="2460"/><use xlink:href="#clNaK7LNb58YnrZjOqvg_pad-1" x="1240" y="2460"/><use xlink:href="#clNaK7LNb58YnrZjOqvg_pad-1" x="1340" y="2460"/><use xlink:href="#clNaK7LNb58YnrZjOqvg_pad-1" x="1340" y="1460"/><use xlink:href="#clNaK7LNb58YnrZjOqvg_pad-1" x="1440" y="1460"/><use xlink:href="#clNaK7LNb58YnrZjOqvg_pad-1" x="1540" y="1460"/><use xlink:href="#clNaK7LNb58YnrZjOqvg_pad-1" x="1640" y="1460"/><use xlink:href="#clNaK7LNb58YnrZjOqvg_pad-1" x="1740" y="1460"/><use xlink:href="#clNaK7LNb58YnrZjOqvg_pad-1" x="1740" y="1190"/><use xlink:href="#clNaK7LNb58YnrZjOqvg_pad-1" x="1640" y="1190"/><use xlink:href="#clNaK7LNb58YnrZjOqvg_pad-1" x="1540" y="1190"/><use xlink:href="#clNaK7LNb58YnrZjOqvg_pad-1" x="1440" y="1190"/><use xlink:href="#clNaK7LNb58YnrZjOqvg_pad-1" x="1340" y="1190"/><use xlink:href="#clNaK7LNb58YnrZjOqvg_pad-1" x="1240" y="1190"/><use xlink:href="#clNaK7LNb58YnrZjOqvg_pad-1" x="1140" y="1190"/><use xlink:href="#clNaK7LNb58YnrZjOqvg_pad-1" x="1040" y="1190"/><use xlink:href="#clNaK7LNb58YnrZjOqvg_pad-1" x="940" y="1190"/><use xlink:href="#clNaK7LNb58YnrZjOqvg_pad-1" x="840" y="1190"/><use xlink:href="#clNaK7LNb58YnrZjOqvg_pad-1" x="740" y="1190"/><use xlink:href="#clNaK7LNb58YnrZjOqvg_pad-1" x="640" y="1190"/><use xlink:href="#clNaK7LNb58YnrZjOqvg_pad-1" x="540" y="1190"/><use xlink:href="#clNaK7LNb58YnrZjOqvg_pad-1" x="440" y="1190"/><use xlink:href="#clNaK7LNb58YnrZjOqvg_pad-1" x="480" y="1460"/><use xlink:href="#clNaK7LNb58YnrZjOqvg_pad-1" x="380" y="1460"/><use xlink:href="#clNaK7LNb58YnrZjOqvg_pad-1" x="580" y="1460"/><use xlink:href="#clNaK7LNb58YnrZjOqvg_pad-1" x="680" y="1460"/><use xlink:href="#clNaK7LNb58YnrZjOqvg_pad-1" x="780" y="1460"/><use xlink:href="#clNaK7LNb58YnrZjOqvg_pad-1" x="940" y="1460"/><use xlink:href="#clNaK7LNb58YnrZjOqvg_pad-1" x="1040" y="1460"/><use xlink:href="#clNaK7LNb58YnrZjOqvg_pad-1" x="1140" y="1460"/><use xlink:href="#clNaK7LNb58YnrZjOqvg_pad-1" x="1240" y="1460"/><use xlink:href="#clNaK7LNb58YnrZjOqvg_pad-2" x="1910" y="90"/><use xlink:href="#clNaK7LNb58YnrZjOqvg_pad-2" x="90" y="90"/><use xlink:href="#clNaK7LNb58YnrZjOqvg_pad-2" x="90" y="2480"/><use xlink:href="#clNaK7LNb58YnrZjOqvg_pad-2" x="1910" y="2480"/></g><clipPath id="Pr8lLkhjeZUgKunvvyGm_top_outline"><path d="M -50 -50 2050 -50 2050 2620 -50 2620 -50 -50" fill="none" stroke-width="10"/></clipPath><mask id="Pr8lLkhjeZUgKunvvyGm_top_mech-mask"><g fill="#000" stroke="#000"><rect x="-50" y="-50" width="2100" height="2670" fill="#fff"/><use xlink:href="#Pr8lLkhjeZUgKunvvyGm_top_drill1"/></g></mask><mask id="Pr8lLkhjeZUgKunvvyGm_top_cf-mask"><g fill="#fff" stroke="#fff"><use xlink:href="#Pr8lLkhjeZUgKunvvyGm_top_soldermask"/></g></mask><mask id="Pr8lLkhjeZUgKunvvyGm_top_sm-mask"><g fill="#000" stroke="#000"><rect x="-50" y="-50" width="2100" height="2670" fill="#fff"/><use xlink:href="#Pr8lLkhjeZUgKunvvyGm_top_soldermask"/></g></mask></defs><g transform="translate(0,2570) scale(1,-1)"><g mask="url(#Pr8lLkhjeZUgKunvvyGm_top_mech-mask)" clip-path="url(#Pr8lLkhjeZUgKunvvyGm_top_outline)"><rect x="-50" y="-50" width="2100" height="2670" fill="currentColor" class="Pr8lLkhjeZUgKunvvyGm_fr4"/><use xlink:href="#Pr8lLkhjeZUgKunvvyGm_top_copper" fill="currentColor" stroke="currentColor" class="Pr8lLkhjeZUgKunvvyGm_cu"/><use xlink:href="#Pr8lLkhjeZUgKunvvyGm_top_copper" fill="currentColor" stroke="currentColor" class="Pr8lLkhjeZUgKunvvyGm_cf" mask="url(#Pr8lLkhjeZUgKunvvyGm_top_cf-mask)"/><g mask="url(#Pr8lLkhjeZUgKunvvyGm_top_sm-mask)"><rect x="-50" y="-50" width="2100" height="2670" fill="currentColor" class="Pr8lLkhjeZUgKunvvyGm_sm"/><use xlink:href="#Pr8lLkhjeZUgKunvvyGm_top_silkscreen" fill="currentColor" stroke="currentColor" class="Pr8lLkhjeZUgKunvvyGm_ss"/></g></g></g></svg>