<svg version="1.1" xmlns="http://www.w3.org/2000/svg" xmlns:xlink="http://www.w3.org/1999/xlink" stroke-linecap="round" stroke-linejoin="round" stroke-width="0" fill-rule="evenodd" clip-rule="evenodd" id="Pr8lLkhjeZUgKunvvyGm_bottom" viewBox="-50 -50 2100 2670" width="2.1in" height="2.67in" class="w-100 h-100"><defs><style>.Pr8lLkhjeZUgKunvvyGm_fr4 {color: #666666;}
.Pr8lLkhjeZUgKunvvyGm_cu {color: #cccccc;}
.Pr8lLkhjeZUgKunvvyGm_cf {color: #cc9933;}
.Pr8lLkhjeZUgKunvvyGm_sm {color: #004200; opacity: 0.75;}
.Pr8lLkhjeZUgKunvvyGm_ss {color: #ffffff;}
.Pr8lLkhjeZUgKunvvyGm_sp {color: #999999;}
.Pr8lLkhjeZUgKunvvyGm_out {color: #000000;}</style><rect x="-34" y="-34" width="68" height="68" id="WWX14SmYsnJpjgP4aVsL_pad-11"/><circle cx="0" cy="0" r="34" id="WWX14SmYsnJpjgP4aVsL_pad-12"/><rect x="-34" y="-34" width="68" height="68" id="WWX14SmYsnJpjgP4aVsL_pad-13"/><mask id="qqR3MBDsLvIKxmjluJtC_clear-1" fill="#000" stroke="#000"><g><rect x="630" y="90" width="1160" height="2099.28" fill="#fff"/><path d="M 719.69 2165 685 2165 685 2130.31 690.44 2131.03 700.17 2135.06 708.53 2141.47 714.94 2149.83 718.97 2159.56 719.69 2165"/><path d="M 675 2165 640.31 2165 641.03 2159.56 645.06 2149.83 651.47 2141.47 659.83 2135.06 669.56 2131.03 675 2130.31 675 2165"/><path d="M 1045 1499.69 1045 1465 1079.69 1465 1078.97 1470.44 1074.94 1480.17 1068.53 1488.53 1060.17 1494.94 1050.44 1498.97 1045 1499.69"/><path d="M 1035 1499.69 1029.56 1498.97 1019.83 1494.94 1011.47 1488.53 1005.06 1480.17 1001.03 1470.44 1000.31 1465 1035 1465 1035 1499.69"/><path d="M 685 1499.69 685 1465 719.69 1465 718.97 1470.44 714.94 1480.17 708.53 1488.53 700.17 1494.94 690.44 1498.97 685 1499.69"/><path d="M 675 1499.69 669.56 1498.97 659.83 1494.94 651.47 1488.53 645.06 1480.17 641.03 1470.44 640.31 1465 675 1465 675 1499.69"/><path d="M 1079.69 1455 1045 1455 1045 1420.31 1050.44 1421.03 1060.17 1425.06 1068.53 1431.47 1074.94 1439.83 1078.97 1449.56 1079.69 1455"/><path d="M 1035 1455 1000.31 1455 1001.03 1449.56 1005.06 1439.83 1011.47 1431.47 1019.83 1425.06 1029.56 1421.03 1035 1420.31 1035 1455"/><path d="M 719.69 1455 685 1455 685 1420.31 690.44 1421.03 700.17 1425.06 708.53 1431.47 714.94 1439.83 718.97 1449.56 719.69 1455"/><path d="M 675 1455 640.31 1455 641.03 1449.56 645.06 1439.83 651.47 1431.47 659.83 1425.06 669.56 1421.03 675 1420.31 675 1455"/><path d="M 985 1505 895 1505 895 1415 985 1415 985 1505"/><path d="M 780 1505.39 768.25 1503.84 757.31 1499.31 747.91 1492.09 740.69 1482.69 736.16 1471.75 734.61 1460 736.16 1448.25 740.69 1437.31 747.91 1427.91 757.31 1420.69 768.25 1416.16 780 1414.61 791.75 1416.16 802.69 1420.69 812.09 1427.91 819.31 1437.31 823.84 1448.25 825.39 1460 823.84 1471.75 819.31 1482.69 812.09 1492.09 802.69 1499.31 791.75 1503.84 780 1505.39"/><path d="M 1045 1229.69 1045 1195 1079.69 1195 1078.97 1200.44 1074.94 1210.17 1068.53 1218.53 1060.17 1224.94 1050.44 1228.97 1045 1229.69"/><path d="M 1035 1229.69 1029.56 1228.97 1019.83 1224.94 1011.47 1218.53 1005.06 1210.17 1001.03 1200.44 1000.31 1195 1035 1195 1035 1229.69"/><path d="M 1079.69 1185 1045 1185 1045 1150.31 1050.44 1151.03 1060.17 1155.06 1068.53 1161.47 1074.94 1169.83 1078.97 1179.56 1079.69 1185"/><path d="M 1035 1185 1000.31 1185 1001.03 1179.56 1005.06 1169.83 1011.47 1161.47 1019.83 1155.06 1029.56 1151.03 1035 1150.31 1035 1185"/><path d="M 1145 929.69 1145 895 1179.69 895 1178.97 900.44 1174.94 910.17 1168.53 918.53 1160.17 924.94 1150.44 928.97 1145 929.69"/><path d="M 1135 929.69 1129.56 928.97 1119.83 924.94 1111.47 918.53 1105.06 910.17 1101.03 900.44 1100.31 895 1135 895 1135 929.69"/><path d="M 1179.69 885 1145 885 1145 850.31 1150.44 851.03 1160.17 855.06 1168.53 861.47 1174.94 869.83 1178.97 879.56 1179.69 885"/><path d="M 1135 885 1100.31 885 1101.03 879.56 1105.06 869.83 1111.47 861.47 1119.83 855.06 1129.56 851.03 1135 850.31 1135 885"/><path d="M 1725 699.69 1725 665 1759.69 665 1758.97 670.44 1754.94 680.17 1748.53 688.53 1740.17 694.94 1730.44 698.97 1725 699.69"/><path d="M 1715 699.69 1709.56 698.97 1699.83 694.94 1691.47 688.53 1685.06 680.17 1681.03 670.44 1680.31 665 1715 665 1715 699.69"/><path d="M 1759.69 655 1725 655 1725 620.31 1730.44 621.03 1740.17 625.06 1748.53 631.47 1754.94 639.83 1758.97 649.56 1759.69 655"/><path d="M 1715 655 1680.31 655 1681.03 649.56 1685.06 639.83 1691.47 631.47 1699.83 625.06 1709.56 621.03 1715 620.31 1715 655"/><path d="M 1490 514.69 1490 480 1524.69 480 1523.97 485.44 1519.94 495.17 1513.53 503.53 1505.17 509.94 1495.44 513.97 1490 514.69"/><path d="M 1480 514.69 1474.56 513.97 1464.83 509.94 1456.47 503.53 1450.06 495.17 1446.03 485.44 1445.31 480 1480 480 1480 514.69"/><path d="M 1524.69 470 1490 470 1490 435.31 1495.44 436.03 1505.17 440.06 1513.53 446.47 1519.94 454.83 1523.97 464.56 1524.69 470"/><path d="M 1480 470 1445.31 470 1446.03 464.56 1450.06 454.83 1456.47 446.47 1464.83 440.06 1474.56 436.03 1480 435.31 1480 470"/><path d="M 1255 314.69 1255 280 1289.69 280 1288.97 285.44 1284.94 295.17 1278.53 303.53 1270.17 309.94 1260.44 313.97 1255 314.69"/><path d="M 1245 314.69 1239.56 313.97 1229.83 309.94 1221.47 303.53 1215.06 295.17 1211.03 285.44 1210.31 280 1245 280 1245 314.69"/><path d="M 1289.69 270 1255 270 1255 235.31 1260.44 236.03 1270.17 240.06 1278.53 246.47 1284.94 254.83 1288.97 264.56 1289.69 270"/><path d="M 1245 270 1210.31 270 1211.03 264.56 1215.06 254.83 1221.47 246.47 1229.83 240.06 1239.56 236.03 1245 235.31 1245 270"/><path d="M 1520 260 1485 260 1485 225 1520 225 1520 260"/><path d="M 1475 260 1440 260 1440 225 1475 225 1475 260"/><path d="M 1520 215 1485 215 1485 180 1520 180 1520 215"/><path d="M 1475 215 1440 215 1440 180 1475 180 1475 215"/><path d="M 1105 199.69 1105 165 1139.69 165 1138.97 170.44 1134.94 180.17 1128.53 188.53 1120.17 194.94 1110.44 198.97 1105 199.69"/><path d="M 965 199.69 965 165 999.69 165 998.97 170.44 994.94 180.17 988.53 188.53 980.17 194.94 970.44 198.97 965 199.69"/><path d="M 1095 199.69 1089.56 198.97 1079.83 194.94 1071.47 188.53 1065.06 180.17 1061.03 170.44 1060.31 165 1095 165 1095 199.69"/><path d="M 955 199.69 949.56 198.97 939.83 194.94 931.47 188.53 925.06 180.17 921.03 170.44 920.31 165 955 165 955 199.69"/><path d="M 1139.69 155 1105 155 1105 120.31 1110.44 121.03 1120.17 125.06 1128.53 131.47 1134.94 139.83 1138.97 149.56 1139.69 155"/><path d="M 999.69 155 965 155 965 120.31 970.44 121.03 980.17 125.06 988.53 131.47 994.94 139.83 998.97 149.56 999.69 155"/><path d="M 1095 155 1060.31 155 1061.03 149.56 1065.06 139.83 1071.47 131.47 1079.83 125.06 1089.56 121.03 1095 120.31 1095 155"/><path d="M 955 155 920.31 155 921.03 149.56 925.06 139.83 931.47 131.47 939.83 125.06 949.56 121.03 955 120.31 955 155"/></g></mask><rect x="-30" y="-30" width="60" height="60" id="qqR3MBDsLvIKxmjluJtC_pad-14"/><circle cx="0" cy="0" r="30" id="qqR3MBDsLvIKxmjluJtC_pad-15"/><rect x="-30" y="-30" width="60" height="60" id="qqR3MBDsLvIKxmjluJtC_pad-16"/><circle cx="0" cy="0" r="15" id="clNaK7LNb58YnrZjOqvg_pad-1"/><circle cx="0" cy="0" r="59.055" id="clNaK7LNb58YnrZjOqvg_pad-2"/><g id="Pr8lLkhjeZUgKunvvyGm_bottom_soldermask"><use xlink:href="#WWX14SmYsnJpjgP4aVsL_pad-11" x="80" y="1460"/><use xlink:href="#WWX14SmYsnJpjgP4aVsL_pad-11" x="1310" y="700"/><use xlink:href="#WWX14SmYsnJpjgP4aVsL_pad-11" x="1585" y="475"/><use xlink:href="#WWX14SmYsnJpjgP4aVsL_pad-11" x="940" y="1460"/><use xlink:href="#WWX14SmYsnJpjgP4aVsL_pad-11" x="440" y="890"/><use xlink:href="#WWX14SmYsnJpjgP4aVsL_pad-11" x="1480" y="220"/><use xlink:href="#WWX14SmYsnJpjgP4aVsL_pad-12" x="180" y="1460"/><use xlink:href="#WWX14SmYsnJpjgP4aVsL_pad-12" x="280" y="1460"/><use xlink:href="#WWX14SmYsnJpjgP4aVsL_pad-12" x="380" y="1460"/><use xlink:href="#WWX14SmYsnJpjgP4aVsL_pad-12" x="480" y="1460"/><use xlink:href="#WWX14SmYsnJpjgP4aVsL_pad-12" x="580" y="1460"/><use xlink:href="#WWX14SmYsnJpjgP4aVsL_pad-12" x="780" y="1460"/><use xlink:href="#WWX14SmYsnJpjgP4aVsL_pad-12" x="780" y="2170"/><use xlink:href="#WWX14SmYsnJpjgP4aVsL_pad-12" x="580" y="2170"/><use xlink:href="#WWX14SmYsnJpjgP4aVsL_pad-12" x="480" y="2170"/><use xlink:href="#WWX14SmYsnJpjgP4aVsL_pad-12" x="380" y="2170"/><use xlink:href="#WWX14SmYsnJpjgP4aVsL_pad-12" x="280" y="2170"/><use xlink:href="#WWX14SmYsnJpjgP4aVsL_pad-12" x="180" y="2170"/><use xlink:href="#WWX14SmYsnJpjgP4aVsL_pad-12" x="80" y="2170"/><use xlink:href="#WWX14SmYsnJpjgP4aVsL_pad-12" x="680" y="1460"/><use xlink:href="#WWX14SmYsnJpjgP4aVsL_pad-12" x="680" y="2170"/><use xlink:href="#WWX14SmYsnJpjgP4aVsL_pad-12" x="1510" y="700"/><use xlink:href="#WWX14SmYsnJpjgP4aVsL_pad-12" x="1485" y="475"/><use xlink:href="#WWX14SmYsnJpjgP4aVsL_pad-12" x="1385" y="475"/><use xlink:href="#WWX14SmYsnJpjgP4aVsL_pad-12" x="1740" y="1460"/><use xlink:href="#WWX14SmYsnJpjgP4aVsL_pad-12" x="1640" y="1460"/><use xlink:href="#WWX14SmYsnJpjgP4aVsL_pad-12" x="1540" y="1460"/><use xlink:href="#WWX14SmYsnJpjgP4aVsL_pad-12" x="1440" y="1460"/><use xlink:href="#WWX14SmYsnJpjgP4aVsL_pad-12" x="1340" y="1460"/><use xlink:href="#WWX14SmYsnJpjgP4aVsL_pad-12" x="1240" y="1460"/><use xlink:href="#WWX14SmYsnJpjgP4aVsL_pad-12" x="1140" y="1460"/><use xlink:href="#WWX14SmYsnJpjgP4aVsL_pad-12" x="1040" y="1460"/><use xlink:href="#WWX14SmYsnJpjgP4aVsL_pad-12" x="1340" y="2460"/><use xlink:href="#WWX14SmYsnJpjgP4aVsL_pad-12" x="1240" y="2460"/><use xlink:href="#WWX14SmYsnJpjgP4aVsL_pad-12" x="1140" y="2460"/><use xlink:href="#WWX14SmYsnJpjgP4aVsL_pad-12" x="1040" y="2460"/><use xlink:href="#WWX14SmYsnJpjgP4aVsL_pad-12" x="940" y="2460"/><use xlink:href="#WWX14SmYsnJpjgP4aVsL_pad-12" x="1640" y="890"/><use xlink:href="#WWX14SmYsnJpjgP4aVsL_pad-12" x="1540" y="890"/><use xlink:href="#WWX14SmYsnJpjgP4aVsL_pad-12" x="1440" y="890"/><use xlink:href="#WWX14SmYsnJpjgP4aVsL_pad-12" x="1340" y="890"/><use xlink:href="#WWX14SmYsnJpjgP4aVsL_pad-12" x="1240" y="890"/><use xlink:href="#WWX14SmYsnJpjgP4aVsL_pad-12" x="1140" y="890"/><use xlink:href="#WWX14SmYsnJpjgP4aVsL_pad-12" x="1040" y="890"/><use xlink:href="#WWX14SmYsnJpjgP4aVsL_pad-12" x="940" y="890"/><use xlink:href="#WWX14SmYsnJpjgP4aVsL_pad-12" x="840" y="890"/><use xlink:href="#WWX14SmYsnJpjgP4aVsL_pad-12" x="740" y="890"/><use xlink:href="#WWX14SmYsnJpjgP4aVsL_pad-12" x="640" y="890"/><use xlink:href="#WWX14SmYsnJpjgP4aVsL_pad-12" x="540" y="890"/><use xlink:href="#WWX14SmYsnJpjgP4aVsL_pad-12" x="1740" y="890"/><use xlink:href="#WWX14SmYsnJpjgP4aVsL_pad-12" x="1340" y="1190"/><use xlink:href="#WWX14SmYsnJpjgP4aVsL_pad-12" x="740" y="1190"/><use xlink:href="#WWX14SmYsnJpjgP4aVsL_pad-12" x="1740" y="1190"/><use xlink:href="#WWX14SmYsnJpjgP4aVsL_pad-12" x="1640" y="1190"/><use xlink:href="#WWX14SmYsnJpjgP4aVsL_pad-12" x="1540" y="1190"/><use xlink:href="#WWX14SmYsnJpjgP4aVsL_pad-12" x="1240" y="1190"/><use xlink:href="#WWX14SmYsnJpjgP4aVsL_pad-12" x="1140" y="1190"/><use xlink:href="#WWX14SmYsnJpjgP4aVsL_pad-12" x="940" y="1190"/><use xlink:href="#WWX14SmYsnJpjgP4aVsL_pad-12" x="840" y="1190"/><use xlink:href="#WWX14SmYsnJpjgP4aVsL_pad-12" x="540" y="1190"/><use xlink:href="#WWX14SmYsnJpjgP4aVsL_pad-12" x="440" y="1190"/><use xlink:href="#WWX14SmYsnJpjgP4aVsL_pad-12" x="1440" y="1190"/><use xlink:href="#WWX14SmYsnJpjgP4aVsL_pad-12" x="1040" y="1190"/><use xlink:href="#WWX14SmYsnJpjgP4aVsL_pad-12" x="640" y="1190"/><use xlink:href="#WWX14SmYsnJpjgP4aVsL_pad-12" x="800" y="400"/><use xlink:href="#WWX14SmYsnJpjgP4aVsL_pad-12" x="800" y="300"/><use xlink:href="#WWX14SmYsnJpjgP4aVsL_pad-12" x="610" y="400"/><use xlink:href="#WWX14SmYsnJpjgP4aVsL_pad-12" x="610" y="300"/><use xlink:href="#WWX14SmYsnJpjgP4aVsL_pad-12" x="960" y="160"/><use xlink:href="#WWX14SmYsnJpjgP4aVsL_pad-12" x="1100" y="160"/><use xlink:href="#WWX14SmYsnJpjgP4aVsL_pad-12" x="1680" y="220"/><use xlink:href="#WWX14SmYsnJpjgP4aVsL_pad-12" x="350" y="200"/><use xlink:href="#WWX14SmYsnJpjgP4aVsL_pad-12" x="1250" y="275"/><use xlink:href="#WWX14SmYsnJpjgP4aVsL_pad-12" x="1720" y="660"/><use xlink:href="#WWX14SmYsnJpjgP4aVsL_pad-12" x="90" y="2480"/><use xlink:href="#WWX14SmYsnJpjgP4aVsL_pad-12" x="90" y="90"/><use xlink:href="#WWX14SmYsnJpjgP4aVsL_pad-12" x="1910" y="90"/><use xlink:href="#WWX14SmYsnJpjgP4aVsL_pad-12" x="1910" y="2480"/><use xlink:href="#WWX14SmYsnJpjgP4aVsL_pad-13" x="800" y="200"/><use xlink:href="#WWX14SmYsnJpjgP4aVsL_pad-13" x="610" y="200"/><use xlink:href="#WWX14SmYsnJpjgP4aVsL_pad-13" x="960" y="660"/><use xlink:href="#WWX14SmYsnJpjgP4aVsL_pad-13" x="1100" y="660"/><use xlink:href="#WWX14SmYsnJpjgP4aVsL_pad-13" x="350" y="400"/><use xlink:href="#WWX14SmYsnJpjgP4aVsL_pad-13" x="1250" y="475"/><use xlink:href="#WWX14SmYsnJpjgP4aVsL_pad-13" x="1720" y="460"/></g><g id="Pr8lLkhjeZUgKunvvyGm_bottom_copper"><g mask="url(#qqR3MBDsLvIKxmjluJtC_clear-1)"><path d="M 643.52 2186.44 641.03 2180.44 640.31 2175 719.69 2175 718.97 2180.44 716.49 2186.44 720.72 2189.28 730 2180 730 1548.86 763.86 1515 1065 1515 1099.7 1480.3 1096.16 1471.75 1094.61 1460 1096.16 1448.25 1100 1438.98 1100 1211.02 1096.16 1201.75 1094.61 1190 1096.16 1178.25 1100.69 1167.31 1107.91 1157.91 1117.31 1150.69 1128.25 1146.16 1129.62 1145.98 1200 1067.78 1200 911.02 1196.16 901.75 1194.61 890 1196.16 878.25 1200 868.98 1200 840 1290.38 749.62 1288.47 745 1265 745 1265 655 1355 655 1355 720 1465.08 720 1467.85 715.84 1466.16 711.75 1464.61 700 1466.16 688.25 1470.69 677.31 1477.91 667.91 1487.31 660.69 1498.25 656.16 1510 654.61 1521.75 656.16 1532.69 660.69 1542.09 667.91 1549.31 677.31 1553.84 688.25 1555.39 700 1553.84 711.75 1552.15 715.84 1554.92 720 1760 720 1790 690 1790 640 1750 600 1570 600 1540 570 1540 520 1540 520 1540 430 1540 430 1540 180 1520 160 1450 90 920 90 890 120 890 190 920 220 1185 220 1195 230 1195 295 1230 330 1270 330 1300 300 1300 220 1360 220 1420 280 1420 446.69 1424.31 452.31 1428.84 463.25 1430.39 475 1428.84 486.75 1424.31 497.69 1420 503.31 1420 570 1390 600 1300 600 1170 730 1080 820 1080 868.98 1083.84 878.25 1085.39 890 1083.84 901.75 1080 911.02 1080 1010 990 1100 990 1310 910 1390 800 1390 670 1390 630 1430 630 2180 639.28 2189.28 643.52 2186.44"/></g><use xlink:href="#qqR3MBDsLvIKxmjluJtC_pad-14" x="80" y="1460"/><use xlink:href="#qqR3MBDsLvIKxmjluJtC_pad-14" x="1310" y="700"/><use xlink:href="#qqR3MBDsLvIKxmjluJtC_pad-14" x="1585" y="475"/><use xlink:href="#qqR3MBDsLvIKxmjluJtC_pad-14" x="940" y="1460"/><use xlink:href="#qqR3MBDsLvIKxmjluJtC_pad-14" x="440" y="890"/><use xlink:href="#qqR3MBDsLvIKxmjluJtC_pad-14" x="1480" y="220"/><use xlink:href="#qqR3MBDsLvIKxmjluJtC_pad-15" x="180" y="1460"/><use xlink:href="#qqR3MBDsLvIKxmjluJtC_pad-15" x="280" y="1460"/><use xlink:href="#qqR3MBDsLvIKxmjluJtC_pad-15" x="380" y="1460"/><use xlink:href="#qqR3MBDsLvIKxmjluJtC_pad-15" x="480" y="1460"/><use xlink:href="#qqR3MBDsLvIKxmjluJtC_pad-15" x="580" y="1460"/><use xlink:href="#qqR3MBDsLvIKxmjluJtC_pad-15" x="780" y="1460"/><use xlink:href="#qqR3MBDsLvIKxmjluJtC_pad-15" x="780" y="2170"/><use xlink:href="#qqR3MBDsLvIKxmjluJtC_pad-15" x="580" y="2170"/><use xlink:href="#qqR3MBDsLvIKxmjluJtC_pad-15" x="480" y="2170"/><use xlink:href="#qqR3MBDsLvIKxmjluJtC_pad-15" x="380" y="2170"/><use xlink:href="#qqR3MBDsLvIKxmjluJtC_pad-15" x="280" y="2170"/><use xlink:href="#qqR3MBDsLvIKxmjluJtC_pad-15" x="180" y="2170"/><use xlink:href="#qqR3MBDsLvIKxmjluJtC_pad-15" x="80" y="2170"/><use xlink:href="#qqR3MBDsLvIKxmjluJtC_pad-15" x="680" y="1460"/><use xlink:href="#qqR3MBDsLvIKxmjluJtC_pad-15" x="680" y="2170"/><use xlink:href="#qqR3MBDsLvIKxmjluJtC_pad-15" x="1510" y="700"/><use xlink:href="#qqR3MBDsLvIKxmjluJtC_pad-15" x="1485" y="475"/><use xlink:href="#qqR3MBDsLvIKxmjluJtC_pad-15" x="1385" y="475"/><use xlink:href="#qqR3MBDsLvIKxmjluJtC_pad-15" x="1740" y="1460"/><use xlink:href="#qqR3MBDsLvIKxmjluJtC_pad-15" x="1640" y="1460"/><use xlink:href="#qqR3MBDsLvIKxmjluJtC_pad-15" x="1540" y="1460"/><use xlink:href="#qqR3MBDsLvIKxmjluJtC_pad-15" x="1440" y="1460"/><use xlink:href="#qqR3MBDsLvIKxmjluJtC_pad-15" x="1340" y="1460"/><use xlink:href="#qqR3MBDsLvIKxmjluJtC_pad-15" x="1240" y="1460"/><use xlink:href="#qqR3MBDsLvIKxmjluJtC_pad-15" x="1140" y="1460"/><use xlink:href="#qqR3MBDsLvIKxmjluJtC_pad-15" x="1040" y="1460"/><use xlink:href="#qqR3MBDsLvIKxmjluJtC_pad-15" x="1340" y="2460"/><use xlink:href="#qqR3MBDsLvIKxmjluJtC_pad-15" x="1240" y="2460"/><use xlink:href="#qqR3MBDsLvIKxmjluJtC_pad-15" x="1140" y="2460"/><use xlink:href="#qqR3MBDsLvIKxmjluJtC_pad-15" x="1040" y="2460"/><use xlink:href="#qqR3MBDsLvIKxmjluJtC_pad-15" x="940" y="2460"/><use xlink:href="#qqR3MBDsLvIKxmjluJtC_pad-15" x="1640" y="890"/><use xlink:href="#qqR3MBDsLvIKxmjluJtC_pad-15" x="1540" y="890"/><use xlink:href="#qqR3MBDsLvIKxmjluJtC_pad-15" x="1440" y="890"/><use xlink:href="#qqR3MBDsLvIKxmjluJtC_pad-15" x="1340" y="890"/><use xlink:href="#qqR3MBDsLvIKxmjluJtC_pad-15" x="1240" y="890"/><use xlink:href="#qqR3MBDsLvIKxmjluJtC_pad-15" x="1140" y="890"/><use xlink:href="#qqR3MBDsLvIKxmjluJtC_pad-15" x="1040" y="890"/><use xlink:href="#qqR3MBDsLvIKxmjluJtC_pad-15" x="940" y="890"/><use xlink:href="#qqR3MBDsLvIKxmjluJtC_pad-15" x="840" y="890"/><use xlink:href="#qqR3MBDsLvIKxmjluJtC_pad-15" x="740" y="890"/><use xlink:href="#qqR3MBDsLvIKxmjluJtC_pad-15" x="640" y="890"/><use xlink:href="#qqR3MBDsLvIKxmjluJtC_pad-15" x="540" y="890"/><use xlink:href="#qqR3MBDsLvIKxmjluJtC_pad-15" x="1740" y="890"/><use xlink:href="#qqR3MBDsLvIKxmjluJtC_pad-15" x="1340" y="1190"/><use xlink:href="#qqR3MBDsLvIKxmjluJtC_pad-15" x="740" y="1190"/><use xlink:href="#qqR3MBDsLvIKxmjluJtC_pad-15" x="1740" y="1190"/><use xlink:href="#qqR3MBDsLvIKxmjluJtC_pad-15" x="1640" y="1190"/><use xlink:href="#qqR3MBDsLvIKxmjluJtC_pad-15" x="1540" y="1190"/><use xlink:href="#qqR3MBDsLvIKxmjluJtC_pad-15" x="1240" y="1190"/><use xlink:href="#qqR3MBDsLvIKxmjluJtC_pad-15" x="1140" y="1190"/><use xlink:href="#qqR3MBDsLvIKxmjluJtC_pad-15" x="940" y="1190"/><use xlink:href="#qqR3MBDsLvIKxmjluJtC_pad-15" x="840" y="1190"/><use xlink:href="#qqR3MBDsLvIKxmjluJtC_pad-15" x="540" y="1190"/><use xlink:href="#qqR3MBDsLvIKxmjluJtC_pad-15" x="440" y="1190"/><use xlink:href="#qqR3MBDsLvIKxmjluJtC_pad-15" x="1440" y="1190"/><use xlink:href="#qqR3MBDsLvIKxmjluJtC_pad-15" x="1040" y="1190"/><use xlink:href="#qqR3MBDsLvIKxmjluJtC_pad-15" x="640" y="1190"/><use xlink:href="#qqR3MBDsLvIKxmjluJtC_pad-15" x="800" y="400"/><use xlink:href="#qqR3MBDsLvIKxmjluJtC_pad-15" x="800" y="300"/><use xlink:href="#qqR3MBDsLvIKxmjluJtC_pad-15" x="610" y="400"/><use xlink:href="#qqR3MBDsLvIKxmjluJtC_pad-15" x="610" y="300"/><use xlink:href="#qqR3MBDsLvIKxmjluJtC_pad-15" x="960" y="160"/><use xlink:href="#qqR3MBDsLvIKxmjluJtC_pad-15" x="1100" y="160"/><use xlink:href="#qqR3MBDsLvIKxmjluJtC_pad-15" x="1680" y="220"/><use xlink:href="#qqR3MBDsLvIKxmjluJtC_pad-15" x="350" y="200"/><use xlink:href="#qqR3MBDsLvIKxmjluJtC_pad-15" x="1250" y="275"/><use xlink:href="#qqR3MBDsLvIKxmjluJtC_pad-15" x="1720" y="660"/><use xlink:href="#qqR3MBDsLvIKxmjluJtC_pad-15" x="90" y="2480"/><use xlink:href="#qqR3MBDsLvIKxmjluJtC_pad-15" x="90" y="90"/><use xlink:href="#qqR3MBDsLvIKxmjluJtC_pad-15" x="1910" y="90"/><use xlink:href="#qqR3MBDsLvIKxmjluJtC_pad-15" x="1910" y="2480"/><use xlink:href="#qqR3MBDsLvIKxmjluJtC_pad-16" x="800" y="200"/><use xlink:href="#qqR3MBDsLvIKxmjluJtC_pad-16" x="610" y="200"/><use xlink:href="#qqR3MBDsLvIKxmjluJtC_pad-16" x="960" y="660"/><use xlink:href="#qqR3MBDsLvIKxmjluJtC_pad-16" x="1100" y="660"/><use xlink:href="#qqR3MBDsLvIKxmjluJtC_pad-16" x="350" y="400"/><use xlink:href="#qqR3MBDsLvIKxmjluJtC_pad-16" x="1250" y="475"/><use xlink:href="#qqR3MBDsLvIKxmjluJtC_pad-16" x="1720" y="460"/></g><g id="Pr8lLkhjeZUgKunvvyGm_bottom_drill1"><use xlink:href="#clNaK7LNb58YnrZjOqvg_pad-1" x="350" y="200"/><use xlink:href="#clNaK7LNb58YnrZjOqvg_pad-1" x="350" y="400"/><use xlink:href="#clNaK7LNb58YnrZjOqvg_pad-1" x="610" y="400"/><use xlink:href="#clNaK7LNb58YnrZjOqvg_pad-1" x="610" y="300"/><use xlink:href="#clNaK7LNb58YnrZjOqvg_pad-1" x="610" y="200"/><use xlink:href="#clNaK7LNb58YnrZjOqvg_pad-1" x="800" y="200"/><use xlink:href="#clNaK7LNb58YnrZjOqvg_pad-1" x="800" y="300"/><use xlink:href="#clNaK7LNb58YnrZjOqvg_pad-1" x="800" y="400"/><use xlink:href="#clNaK7LNb58YnrZjOqvg_pad-1" x="960" y="160"/><use xlink:href="#clNaK7LNb58YnrZjOqvg_pad-1" x="1100" y="160"/><use xlink:href="#clNaK7LNb58YnrZjOqvg_pad-1" x="1250" y="275"/><use xlink:href="#clNaK7LNb58YnrZjOqvg_pad-1" x="1250" y="475"/><use xlink:href="#clNaK7LNb58YnrZjOqvg_pad-1" x="1385" y="475"/><use xlink:href="#clNaK7LNb58YnrZjOqvg_pad-1" x="1485" y="475"/><use xlink:href="#clNaK7LNb58YnrZjOqvg_pad-1" x="1585" y="475"/><use xlink:href="#clNaK7LNb58YnrZjOqvg_pad-1" x="1720" y="460"/><use xlink:href="#clNaK7LNb58YnrZjOqvg_pad-1" x="1720" y="660"/><use xlink:href="#clNaK7LNb58YnrZjOqvg_pad-1" x="1510" y="700"/><use xlink:href="#clNaK7LNb58YnrZjOqvg_pad-1" x="1310" y="700"/><use xlink:href="#clNaK7LNb58YnrZjOqvg_pad-1" x="1340" y="890"/><use xlink:href="#clNaK7LNb58YnrZjOqvg_pad-1" x="1440" y="890"/><use xlink:href="#clNaK7LNb58YnrZjOqvg_pad-1" x="1540" y="890"/><use xlink:href="#clNaK7LNb58YnrZjOqvg_pad-1" x="1640" y="890"/><use xlink:href="#clNaK7LNb58YnrZjOqvg_pad-1" x="1740" y="890"/><use xlink:href="#clNaK7LNb58YnrZjOqvg_pad-1" x="1240" y="890"/><use xlink:href="#clNaK7LNb58YnrZjOqvg_pad-1" x="1140" y="890"/><use xlink:href="#clNaK7LNb58YnrZjOqvg_pad-1" x="1040" y="890"/><use xlink:href="#clNaK7LNb58YnrZjOqvg_pad-1" x="940" y="890"/><use xlink:href="#clNaK7LNb58YnrZjOqvg_pad-1" x="840" y="890"/><use xlink:href="#clNaK7LNb58YnrZjOqvg_pad-1" x="740" y="890"/><use xlink:href="#clNaK7LNb58YnrZjOqvg_pad-1" x="640" y="890"/><use xlink:href="#clNaK7LNb58YnrZjOqvg_pad-1" x="540" y="890"/><use xlink:href="#clNaK7LNb58YnrZjOqvg_pad-1" x="440" y="890"/><use xlink:href="#clNaK7LNb58YnrZjOqvg_pad-1" x="960" y="660"/><use xlink:href="#clNaK7LNb58YnrZjOqvg_pad-1" x="1100" y="660"/><use xlink:href="#clNaK7LNb58YnrZjOqvg_pad-1" x="1480" y="220"/><use xlink:href="#clNaK7LNb58YnrZjOqvg_pad-1" x="1680" y="220"/><use xlink:href="#clNaK7LNb58YnrZjOqvg_pad-1" x="280" y="1460"/><use xlink:href="#clNaK7LNb58YnrZjOqvg_pad-1" x="180" y="1460"/><use xlink:href="#clNaK7LNb58YnrZjOqvg_pad-1" x="80" y="1460"/><use xlink:href="#clNaK7LNb58YnrZjOqvg_pad-1" x="80" y="2170"/><use xlink:href="#clNaK7LNb58YnrZjOqvg_pad-1" x="180" y="2170"/><use xlink:href="#clNaK7LNb58YnrZjOqvg_pad-1" x="280" y="2170"/><use xlink:href="#clNaK7LNb58YnrZjOqvg_pad-1" x="380" y="2170"/><use xlink:href="#clNaK7LNb58YnrZjOqvg_pad-1" x="480" y="2170"/><use xlink:href="#clNaK7LNb58YnrZjOqvg_pad-1" x="580" y="2170"/><use xlink:href="#clNaK7LNb58YnrZjOqvg_pad-1" x="680" y="2170"/><use xlink:href="#clNaK7LNb58YnrZjOqvg_pad-1" x="780" y="2170"/><use xlink:href="#clNaK7LNb58YnrZjOqvg_pad-1" x="940" y="2460"/><use xlink:href="#clNaK7LNb58YnrZjOqvg_pad-1" x="1040" y="2460"/><use xlink:href="#clNaK7LNb58YnrZjOqvg_pad-1" x="1140" y="2460"/><use xlink:href="#clNaK7LNb58YnrZjOqvg_pad-1" x="1240" y="2460"/><use xlink:href="#clNaK7LNb58YnrZjOqvg_pad-1" x="1340" y="2460"/><use xlink:href="#clNaK7LNb58YnrZjOqvg_pad-1" x="1340" y="1460"/><use xlink:href="#clNaK7LNb58YnrZjOqvg_pad-1" x="1440" y="1460"/><use xlink:href="#clNaK7LNb58YnrZjOqvg_pad-1" x="1540" y="1460"/><use xlink:href="#clNaK7LNb58YnrZjOqvg_pad-1" x="1640" y="1460"/><use xlink:href="#clNaK7LNb58YnrZjOqvg_pad-1" x="1740" y="1460"/><use xlink:href="#clNaK7LNb58YnrZjOqvg_pad-1" x="1740" y="1190"/><use xlink:href="#clNaK7LNb58YnrZjOqvg_pad-1" x="1640" y="1190"/><use xlink:href="#clNaK7LNb58YnrZjOqvg_pad-1" x="1540" y="1190"/><use xlink:href="#clNaK7LNb58YnrZjOqvg_pad-1" x="1440" y="1190"/><use xlink:href="#clNaK7LNb58YnrZjOqvg_pad-1" x="1340" y="1190"/><use xlink:href="#clNaK7LNb58YnrZjOqvg_pad-1" x="1240" y="1190"/><use xlink:href="#clNaK7LNb58YnrZjOqvg_pad-1" x="1140" y="1190"/><use xlink:href="#clNaK7LNb58YnrZjOqvg_pad-1" x="1040" y="1190"/><use xlink:href="#clNaK7LNb58YnrZjOqvg_pad-1" x="940" y="1190"/><use xlink:href="#clNaK7LNb58YnrZjOqvg_pad-1" x="840" y="1190"/><use xlink:href="#clNaK7LNb58YnrZjOqvg_pad-1" x="740" y="1190"/><use xlink:href="#clNaK7LNb58YnrZjOqvg_pad-1" x="640" y="1190"/><use xlink:href="#clNaK7LNb58YnrZjOqvg_pad-1" x="540" y="1190"/><use xlink:href="#clNaK7LNb58YnrZjOqvg_pad-1" x="440" y="1190"/><use xlink:href="#clNaK7LNb58YnrZjOqvg_pad-1" x="480" y="1460"/><use xlink:href="#clNaK7LNb58YnrZjOqvg_pad-1" x="380" y="1460"/><use xlink:href="#clNaK7LNb58YnrZjOqvg_pad-1" x="580" y="1460"/><use xlink:href="#clNaK7LNb58YnrZjOqvg_pad-1" x="680" y="1460"/><use xlink:href="#clNaK7LNb58YnrZjOqvg_pad-1" x="780" y="1460"/><use xlink:href="#clNaK7LNb58YnrZjOqvg_pad-1" x="940" y="1460"/><use xlink:href="#clNaK7LNb58YnrZjOqvg_pad-1" x="1040" y="1460"/><use xlink:href="#clNaK7LNb58YnrZjOqvg_pad-1" x="1140" y="1460"/><use xlink:href="#clNaK7LNb58YnrZjOqvg_pad-1" x="1240" y="1460"/><use xlink:href="#clNaK7LNb58YnrZjOqvg_pad-2" x="1910" y="90"/><use xlink:href="#clNaK7LNb58YnrZjOqvg_pad-2" x="90" y="90"/><use xlink:href="#clNaK7LNb58YnrZjOqvg_pad-2" x="90" y="2480"/><use xlink:href="#clNaK7LNb58YnrZjOqvg_pad-2" x="1910" y="2480"/></g><clipPath id="Pr8lLkhjeZUgKunvvyGm_bottom_outline"><path d="M -50 -50 2050 -50 2050 2620 -50 2620 -50 -50" fill="none" stroke-width="10"/></clipPath><mask id="Pr8lLkhjeZUgKunvvyGm_bottom_mech-mask"><g fill="#000" stroke="#000"><rect x="-50" y="-50" width="2100" height="2670" fill="#fff"/><use xlink:href="#Pr8lLkhjeZUgKunvvyGm_bottom_drill1"/></g></mask><mask id="Pr8lLkhjeZUgKunvvyGm_bottom_cf-mask"><g fill="#fff" stroke="#fff"><use xlink:href="#Pr8lLkhjeZUgKunvvyGm_bottom_soldermask"/></g></mask><mask id="Pr8lLkhjeZUgKunvvyGm_bottom_sm-mask"><g fill="#000" stroke="#000"><rect x="-50" y="-50" width="2100" height="2670" fill="#fff"/><use xlink:href="#Pr8lLkhjeZUgKunvvyGm_bottom_soldermask"/></g></mask></defs><g transform="translate(0,2570) scale(1,-1)"><g mask="url(#Pr8lLkhjeZUgKunvvyGm_bottom_mech-mask)" clip-path="url(#Pr8lLkhjeZUgKunvvyGm_bottom_outline)" transform="translate(2000,0) scale(-1,1)"><rect x="-50" y="-50" width="2100" height="2670" fill="currentColor" class="Pr8lLkhjeZUgKunvvyGm_fr4"/><use xlink:href="#Pr8lLkhjeZUgKunvvyGm_bottom_copper" fill="currentColor" stroke="currentColor" class="Pr8lLkhjeZUgKunvvyGm_cu"/><use xlink:href="#Pr8lLkhjeZUgKunvvyGm_bottom_copper" fill="currentColor" stroke="currentColor" class="Pr8lLkhjeZUgKunvvyGm_cf" mask="url(#Pr8lLkhjeZUgKunvvyGm_bottom_cf-mask)"/><g mask="url(#Pr8lLkhjeZUgKunvvyGm_bottom_sm-mask)"><rect x="-50" y="-50" width="2100" height="2670" fill="currentColor" class="Pr8lLkhjeZUgKunvvyGm_sm"/></g></g></g></svg>