<svg version="1.1" xmlns="http://www.w3.org/2000/svg" xmlns:xlink="http://www.w3.org/1999/xlink" stroke-linecap="round" stroke-linejoin="round" stroke-width="0" fill-rule="evenodd" clip-rule="evenodd" id="z4QeCu4L9m9IoNXxfRWU_top" viewBox="-50 -50 2200 3605" width="2.2in" height="3.605in" class="w-100 h-100"><defs><style>.z4QeCu4L9m9IoNXxfRWU_fr4 {color: #666666;}
.z4QeCu4L9m9IoNXxfRWU_cu {color: #cccccc;}
.z4QeCu4L9m9IoNXxfRWU_cf {color: #cc9933;}
.z4QeCu4L9m9IoNXxfRWU_sm {color: #004200; opacity: 0.75;}
.z4QeCu4L9m9IoNXxfRWU_ss {color: #ffffff;}
.z4QeCu4L9m9IoNXxfRWU_sp {color: #999999;}
.z4QeCu4L9m9IoNXxfRWU_out {color: #000000;}</style><circle cx="0" cy="0" r="34" id="Xz-ZxZbg7nUsGvumTrJq_pad-11"/><rect x="-34" y="-34" width="68" height="68" id="Xz-ZxZbg7nUsGvumTrJq_pad-12"/><rect x="-34" y="-34" width="68" height="68" id="Xz-ZxZbg7nUsGvumTrJq_pad-13"/><circle cx="0" cy="0" r="29" id="Xz-ZxZbg7nUsGvumTrJq_pad-14"/><circle cx="0" cy="0" r="30" id="gbyXgyViRqQw-VIG7qaE_pad-15"/><rect x="-30" y="-30" width="60" height="60" id="gbyXgyViRqQw-VIG7qaE_pad-16"/><rect x="-30" y="-30" width="60" height="60" id="gbyXgyViRqQw-VIG7qaE_pad-17"/><circle cx="0" cy="0" r="25" id="gbyXgyViRqQw-VIG7qaE_pad-18"/><circle cx="0" cy="0" r="14" id="NoC4Ehkpld1aRqc7tfnv_pad-1"/><circle cx="0" cy="0" r="15" id="NoC4Ehkpld1aRqc7tfnv_pad-2"/><circle cx="0" cy="0" r="59.055" id="NoC4Ehkpld1aRqc7tfnv_pad-3"/><g id="z4QeCu4L9m9IoNXxfRWU_top_soldermask"><use xlink:href="#Xz-ZxZbg7nUsGvumTrJq_pad-11" x="2040" y="370"/><use xlink:href="#Xz-ZxZbg7nUsGvumTrJq_pad-11" x="1940" y="370"/><use xlink:href="#Xz-ZxZbg7nUsGvumTrJq_pad-11" x="1840" y="370"/><use xlink:href="#Xz-ZxZbg7nUsGvumTrJq_pad-11" x="1740" y="370"/><use xlink:href="#Xz-ZxZbg7nUsGvumTrJq_pad-11" x="1640" y="370"/><use xlink:href="#Xz-ZxZbg7nUsGvumTrJq_pad-11" x="1540" y="370"/><use xlink:href="#Xz-ZxZbg7nUsGvumTrJq_pad-11" x="1440" y="370"/><use xlink:href="#Xz-ZxZbg7nUsGvumTrJq_pad-11" x="1340" y="370"/><use xlink:href="#Xz-ZxZbg7nUsGvumTrJq_pad-11" x="1640" y="1370"/><use xlink:href="#Xz-ZxZbg7nUsGvumTrJq_pad-11" x="1540" y="1370"/><use xlink:href="#Xz-ZxZbg7nUsGvumTrJq_pad-11" x="1440" y="1370"/><use xlink:href="#Xz-ZxZbg7nUsGvumTrJq_pad-11" x="1340" y="1370"/><use xlink:href="#Xz-ZxZbg7nUsGvumTrJq_pad-11" x="1240" y="1370"/><use xlink:href="#Xz-ZxZbg7nUsGvumTrJq_pad-11" x="830" y="1920"/><use xlink:href="#Xz-ZxZbg7nUsGvumTrJq_pad-11" x="950" y="510"/><use xlink:href="#Xz-ZxZbg7nUsGvumTrJq_pad-11" x="1050" y="510"/><use xlink:href="#Xz-ZxZbg7nUsGvumTrJq_pad-11" x="1600" y="2860"/><use xlink:href="#Xz-ZxZbg7nUsGvumTrJq_pad-11" x="1600" y="2760"/><use xlink:href="#Xz-ZxZbg7nUsGvumTrJq_pad-11" x="1600" y="2660"/><use xlink:href="#Xz-ZxZbg7nUsGvumTrJq_pad-11" x="1600" y="2560"/><use xlink:href="#Xz-ZxZbg7nUsGvumTrJq_pad-11" x="1600" y="2460"/><use xlink:href="#Xz-ZxZbg7nUsGvumTrJq_pad-11" x="1700" y="2260"/><use xlink:href="#Xz-ZxZbg7nUsGvumTrJq_pad-11" x="1700" y="2160"/><use xlink:href="#Xz-ZxZbg7nUsGvumTrJq_pad-11" x="1700" y="2060"/><use xlink:href="#Xz-ZxZbg7nUsGvumTrJq_pad-11" x="1700" y="1960"/><use xlink:href="#Xz-ZxZbg7nUsGvumTrJq_pad-11" x="1700" y="1860"/><use xlink:href="#Xz-ZxZbg7nUsGvumTrJq_pad-11" x="1700" y="1760"/><use xlink:href="#Xz-ZxZbg7nUsGvumTrJq_pad-11" x="1700" y="1660"/><use xlink:href="#Xz-ZxZbg7nUsGvumTrJq_pad-11" x="1700" y="1560"/><use xlink:href="#Xz-ZxZbg7nUsGvumTrJq_pad-11" x="1600" y="1560"/><use xlink:href="#Xz-ZxZbg7nUsGvumTrJq_pad-11" x="1600" y="1660"/><use xlink:href="#Xz-ZxZbg7nUsGvumTrJq_pad-11" x="1600" y="1760"/><use xlink:href="#Xz-ZxZbg7nUsGvumTrJq_pad-11" x="1600" y="1860"/><use xlink:href="#Xz-ZxZbg7nUsGvumTrJq_pad-11" x="1600" y="1960"/><use xlink:href="#Xz-ZxZbg7nUsGvumTrJq_pad-11" x="1600" y="2060"/><use xlink:href="#Xz-ZxZbg7nUsGvumTrJq_pad-11" x="1600" y="2160"/><use xlink:href="#Xz-ZxZbg7nUsGvumTrJq_pad-11" x="1350" y="2630"/><use xlink:href="#Xz-ZxZbg7nUsGvumTrJq_pad-11" x="1350" y="2230"/><use xlink:href="#Xz-ZxZbg7nUsGvumTrJq_pad-11" x="1350" y="1830"/><use xlink:href="#Xz-ZxZbg7nUsGvumTrJq_pad-11" x="1350" y="2830"/><use xlink:href="#Xz-ZxZbg7nUsGvumTrJq_pad-11" x="1350" y="2730"/><use xlink:href="#Xz-ZxZbg7nUsGvumTrJq_pad-11" x="1350" y="2430"/><use xlink:href="#Xz-ZxZbg7nUsGvumTrJq_pad-11" x="1350" y="2330"/><use xlink:href="#Xz-ZxZbg7nUsGvumTrJq_pad-11" x="1350" y="2130"/><use xlink:href="#Xz-ZxZbg7nUsGvumTrJq_pad-11" x="1350" y="2030"/><use xlink:href="#Xz-ZxZbg7nUsGvumTrJq_pad-11" x="1350" y="1730"/><use xlink:href="#Xz-ZxZbg7nUsGvumTrJq_pad-11" x="1350" y="1630"/><use xlink:href="#Xz-ZxZbg7nUsGvumTrJq_pad-11" x="1350" y="1530"/><use xlink:href="#Xz-ZxZbg7nUsGvumTrJq_pad-11" x="1350" y="2530"/><use xlink:href="#Xz-ZxZbg7nUsGvumTrJq_pad-11" x="1350" y="1930"/><use xlink:href="#Xz-ZxZbg7nUsGvumTrJq_pad-11" x="1050" y="1530"/><use xlink:href="#Xz-ZxZbg7nUsGvumTrJq_pad-11" x="1050" y="2730"/><use xlink:href="#Xz-ZxZbg7nUsGvumTrJq_pad-11" x="1050" y="2630"/><use xlink:href="#Xz-ZxZbg7nUsGvumTrJq_pad-11" x="1050" y="2530"/><use xlink:href="#Xz-ZxZbg7nUsGvumTrJq_pad-11" x="1050" y="2430"/><use xlink:href="#Xz-ZxZbg7nUsGvumTrJq_pad-11" x="1050" y="2330"/><use xlink:href="#Xz-ZxZbg7nUsGvumTrJq_pad-11" x="1050" y="2230"/><use xlink:href="#Xz-ZxZbg7nUsGvumTrJq_pad-11" x="1050" y="2130"/><use xlink:href="#Xz-ZxZbg7nUsGvumTrJq_pad-11" x="1050" y="2030"/><use xlink:href="#Xz-ZxZbg7nUsGvumTrJq_pad-11" x="1050" y="1930"/><use xlink:href="#Xz-ZxZbg7nUsGvumTrJq_pad-11" x="1050" y="1830"/><use xlink:href="#Xz-ZxZbg7nUsGvumTrJq_pad-11" x="1050" y="1730"/><use xlink:href="#Xz-ZxZbg7nUsGvumTrJq_pad-11" x="1050" y="1630"/><use xlink:href="#Xz-ZxZbg7nUsGvumTrJq_pad-11" x="410" y="360"/><use xlink:href="#Xz-ZxZbg7nUsGvumTrJq_pad-11" x="410" y="260"/><use xlink:href="#Xz-ZxZbg7nUsGvumTrJq_pad-11" x="910" y="700"/><use xlink:href="#Xz-ZxZbg7nUsGvumTrJq_pad-11" x="780" y="700"/><use xlink:href="#Xz-ZxZbg7nUsGvumTrJq_pad-11" x="150" y="730"/><use xlink:href="#Xz-ZxZbg7nUsGvumTrJq_pad-11" x="150" y="1400"/><use xlink:href="#Xz-ZxZbg7nUsGvumTrJq_pad-11" x="150" y="2070"/><use xlink:href="#Xz-ZxZbg7nUsGvumTrJq_pad-11" x="150" y="2740"/><use xlink:href="#Xz-ZxZbg7nUsGvumTrJq_pad-11" x="150" y="600"/><use xlink:href="#Xz-ZxZbg7nUsGvumTrJq_pad-11" x="150" y="1270"/><use xlink:href="#Xz-ZxZbg7nUsGvumTrJq_pad-11" x="150" y="1940"/><use xlink:href="#Xz-ZxZbg7nUsGvumTrJq_pad-11" x="150" y="2610"/><use xlink:href="#Xz-ZxZbg7nUsGvumTrJq_pad-11" x="1010" y="220"/><use xlink:href="#Xz-ZxZbg7nUsGvumTrJq_pad-11" x="810" y="220"/><use xlink:href="#Xz-ZxZbg7nUsGvumTrJq_pad-11" x="570" y="1100"/><use xlink:href="#Xz-ZxZbg7nUsGvumTrJq_pad-11" x="570" y="1770"/><use xlink:href="#Xz-ZxZbg7nUsGvumTrJq_pad-11" x="570" y="2440"/><use xlink:href="#Xz-ZxZbg7nUsGvumTrJq_pad-11" x="570" y="3110"/><use xlink:href="#Xz-ZxZbg7nUsGvumTrJq_pad-11" x="200" y="900"/><use xlink:href="#Xz-ZxZbg7nUsGvumTrJq_pad-11" x="200" y="1570"/><use xlink:href="#Xz-ZxZbg7nUsGvumTrJq_pad-11" x="200" y="2240"/><use xlink:href="#Xz-ZxZbg7nUsGvumTrJq_pad-11" x="205" y="2910"/><use xlink:href="#Xz-ZxZbg7nUsGvumTrJq_pad-11" x="1050" y="1190"/><use xlink:href="#Xz-ZxZbg7nUsGvumTrJq_pad-11" x="1050" y="860"/><use xlink:href="#Xz-ZxZbg7nUsGvumTrJq_pad-11" x="150" y="150"/><use xlink:href="#Xz-ZxZbg7nUsGvumTrJq_pad-11" x="150" y="3350"/><use xlink:href="#Xz-ZxZbg7nUsGvumTrJq_pad-11" x="1950" y="150"/><use xlink:href="#Xz-ZxZbg7nUsGvumTrJq_pad-11" x="1950" y="3350"/><use xlink:href="#Xz-ZxZbg7nUsGvumTrJq_pad-12" x="1240" y="370"/><use xlink:href="#Xz-ZxZbg7nUsGvumTrJq_pad-12" x="850" y="510"/><use xlink:href="#Xz-ZxZbg7nUsGvumTrJq_pad-12" x="650" y="730"/><use xlink:href="#Xz-ZxZbg7nUsGvumTrJq_pad-12" x="650" y="1400"/><use xlink:href="#Xz-ZxZbg7nUsGvumTrJq_pad-12" x="650" y="2070"/><use xlink:href="#Xz-ZxZbg7nUsGvumTrJq_pad-12" x="650" y="2740"/><use xlink:href="#Xz-ZxZbg7nUsGvumTrJq_pad-12" x="650" y="600"/><use xlink:href="#Xz-ZxZbg7nUsGvumTrJq_pad-12" x="650" y="1270"/><use xlink:href="#Xz-ZxZbg7nUsGvumTrJq_pad-12" x="650" y="1940"/><use xlink:href="#Xz-ZxZbg7nUsGvumTrJq_pad-12" x="650" y="2610"/><use xlink:href="#Xz-ZxZbg7nUsGvumTrJq_pad-12" x="610" y="220"/><use xlink:href="#Xz-ZxZbg7nUsGvumTrJq_pad-13" x="830" y="2120"/><use xlink:href="#Xz-ZxZbg7nUsGvumTrJq_pad-13" x="1600" y="2960"/><use xlink:href="#Xz-ZxZbg7nUsGvumTrJq_pad-13" x="1600" y="2260"/><use xlink:href="#Xz-ZxZbg7nUsGvumTrJq_pad-13" x="1050" y="2830"/><use xlink:href="#Xz-ZxZbg7nUsGvumTrJq_pad-13" x="410" y="460"/><use xlink:href="#Xz-ZxZbg7nUsGvumTrJq_pad-13" x="910" y="1200"/><use xlink:href="#Xz-ZxZbg7nUsGvumTrJq_pad-13" x="780" y="1200"/><use xlink:href="#Xz-ZxZbg7nUsGvumTrJq_pad-13" x="570" y="900"/><use xlink:href="#Xz-ZxZbg7nUsGvumTrJq_pad-13" x="570" y="1570"/><use xlink:href="#Xz-ZxZbg7nUsGvumTrJq_pad-13" x="570" y="2240"/><use xlink:href="#Xz-ZxZbg7nUsGvumTrJq_pad-13" x="570" y="2910"/><use xlink:href="#Xz-ZxZbg7nUsGvumTrJq_pad-13" x="200" y="1100"/><use xlink:href="#Xz-ZxZbg7nUsGvumTrJq_pad-13" x="200" y="1770"/><use xlink:href="#Xz-ZxZbg7nUsGvumTrJq_pad-13" x="200" y="2440"/><use xlink:href="#Xz-ZxZbg7nUsGvumTrJq_pad-13" x="205" y="3110"/><use xlink:href="#Xz-ZxZbg7nUsGvumTrJq_pad-13" x="1050" y="990"/><use xlink:href="#Xz-ZxZbg7nUsGvumTrJq_pad-13" x="1050" y="660"/><use xlink:href="#Xz-ZxZbg7nUsGvumTrJq_pad-14" x="550" y="2740"/><use xlink:href="#Xz-ZxZbg7nUsGvumTrJq_pad-14" x="570" y="1400"/></g><g id="z4QeCu4L9m9IoNXxfRWU_top_copper"><path d="M 1745 364.51 1745 1615 M 1740 359.51 1745 364.51 M 1700 1660 1745 1615 M 1700 1760 1790 1670 M 1765 325 1790 350 1790 1670 M 1540 375.91 1540 581.21 M 1086.21 1035 1540 581.21 M 1590 335 1630 295 M 1940 370 1940 371.56 M 1940 356.47 1940 370 M 1352.02 1627.98 1590 1390 M 1590 335 1590 1390 M 1640 360 1675 325 1765 325 M 1640 360 1640 370 M 1880 295 1925.68 340.68 M 1630 295 1880 295 M 1925.68 342.15 1940 356.47 M 1925.68 340.68 1925.68 342.15 M 1700 1860 1840 1720 M 1840 370 1840 1720 M 1050 510 1050 518.79 M 1050 496.47 1050 510 M 1175 370 1245 370 M 1064.32 480.68 1175 370 M 1050 496.47 1064.32 482.15 M 1064.32 480.68 1064.32 482.15 M 1600 1560 1700 1560 M 778.79 2530 1050 2530 M 525 2276.21 778.79 2530 M 525 1983.79 525 2276.21 M 525 1983.79 615 1893.79 M 615 1696.21 615 1893.79 M 525 1606.21 615 1696.21 M 525 1313.79 525 1606.21 M 525 1313.79 615 1223.79 M 615 1081.36 615 1223.79 M 525 991.36 615 1081.36 M 525 863.79 525 991.36 M 525 863.79 533.79 855 636 855 816 1035 1086.21 1035 M 1031.36 1485 1110 1485 M 1300 1675 1501.42 1675 M 1110 1485 1300 1675 M 1330 1775 1458.64 1775 M 1050 1530 1054.14 1534.14 1089.14 1534.14 1330 1775 M 1110 1585 1354.8 1829.8 M 1041.36 1585 1110 1585 M 1441.92 1930 1600 1771.92 M 1350 1930 1441.92 1930 M 1289.11 1900.89 1289.11 1943.32 M 1288.71 1943.71 1289.11 1943.32 M 1320 1975 1501.42 1975 M 1288.71 1943.71 1320 1975 M 1310 1880 1463.64 1880 M 1289.11 1900.89 1310 1880 M 1200 1816.36 1200 2170 1359.39 2329.39 M 805 2475 1308.53 2475 1362.13 2528.59 M 1350 2830 1450 2830 M 1350 2730 1530 2730 1600 2660 M 1340 2630 1350 2630 M 1240 2730 1340 2630 M 1170 2910 1240 2840 M 1240 2730 1240 2840 M 150 850 200 900 M 150 730 150 850 M 85 1215 85 1700 M 85 1215 200 1100 M 155 1770 200 1770 M 85 1700 155 1770 M 80 980 200 1100 M 80 606.36 80 980 M 80 606.36 131.36 555 364.29 555 799.29 990 1050 990 M 100 650 100 863.64 M 336.36 1100 570 1100 M 100 863.64 336.36 1100 M 150 1520 200 1570 M 150 1400 150 1520 M 85 1885 85 2325 M 85 1885 200 1770 M 85 2325 200 2440 M 105 1315 105 1538.64 M 336.36 1770 570 1770 M 105 1538.64 336.36 1770 M 200 2240 215 2240 M 150 2190 200 2240 M 150 2070 150 2190 M 200 2240 215 2240 433.64 2240 M 85 2555 85 3030 M 85 2555 200 2440 M 165 3110 205 3110 M 85 3030 165 3110 M 433.64 2240 823.64 2630 1050 2630 M 105 1985 105 2208.64 M 336.36 2440 570 2440 M 105 2208.64 336.36 2440 M 150 2855 205 2910 M 150 2740 150 2855 M 105 2655 105 2878.64 M 336.36 3110 570 3110 M 105 2878.64 336.36 3110 M 1058.64 1675 1200 1816.36 M 1600 1960 1700 1960 M 1600 1660 1700 1660 M 830 1920 835 1925 1045 1925 1050 1930 M 830 2120 960 2120 1050 2030 M 1483.64 2060 1600 2060 M 1501.42 1975 1516.41 1960 1600 1960 M 1516.41 1660 1600 1660 M 735 1735 735 2144.5 M 570 1570 735 1735 M 570 1401.21 898.79 1730 1050 1730 M 1031.36 1675 1058.64 1675 M 735 1378.64 1031.36 1675 M 735 1065 735 1378.64 M 1005 1548.64 1041.36 1585 M 570 1400 570 1401.21 M 1501.42 1675 1516.41 1660 M 1458.64 1775 1495 1811.36 1495 1848.64 M 1228.49 2430 1350 2430 M 1183.49 2385 1228.49 2430 M 975.5 2385 1183.49 2385 M 735 2144.5 975.5 2385 M 570 2240 805 2475 M 910 1490 1050 1630 M 910 1200 910 1490 M 1005 1511.36 1005 1548.64 M 570 2910 1170 2910 M 1600 1760 1600 1771.92 M 1463.64 1880 1495 1848.64 M 570 900 735 1065 M 1350 2030 1453.64 2030 1483.64 2060 M 1450 2830 1520 2760 1600 2760 M 1005 1511.36 1031.36 1485 M 1600 1760 1700 1760 M 1645 2296.21 1645 2515 M 1600 2560 1645 2515 M 1600 1860 1700 1860 M 1563.79 2305 1636.21 2305 M 1535 2276.21 1563.79 2305 M 1535 2125 1535 2276.21 M 1535 2125 1600 2060 M 1645 2115 1645 2296.21 M 1636.21 2305 1645 2296.21 M 1645 2115 1700 2060 M 470 360 610 220 M 410 360 470 360 M 780 600 780 700 M 640 460 780 600 M 410 460 640 460 M 810 470 1000 660 M 810 220 810 470 M 170 2740 550 2740 M 160 2750 170 2740 M 150 2740 160 2750 M 1000 660 1050 660 M 765.1 1200 910 1200 M 1120 588.79 1120 920 M 1050 990 1120 920 M 1050 518.79 1120 588.79 M 100 650 150 600 M 105 2655 150 2610 M 105 1315 150 1270 M 105 1985 150 1940" fill="none" stroke-width="10"/><use xlink:href="#gbyXgyViRqQw-VIG7qaE_pad-15" x="2040" y="370"/><use xlink:href="#gbyXgyViRqQw-VIG7qaE_pad-15" x="1940" y="370"/><use xlink:href="#gbyXgyViRqQw-VIG7qaE_pad-15" x="1840" y="370"/><use xlink:href="#gbyXgyViRqQw-VIG7qaE_pad-15" x="1740" y="370"/><use xlink:href="#gbyXgyViRqQw-VIG7qaE_pad-15" x="1640" y="370"/><use xlink:href="#gbyXgyViRqQw-VIG7qaE_pad-15" x="1540" y="370"/><use xlink:href="#gbyXgyViRqQw-VIG7qaE_pad-15" x="1440" y="370"/><use xlink:href="#gbyXgyViRqQw-VIG7qaE_pad-15" x="1340" y="370"/><use xlink:href="#gbyXgyViRqQw-VIG7qaE_pad-15" x="1640" y="1370"/><use xlink:href="#gbyXgyViRqQw-VIG7qaE_pad-15" x="1540" y="1370"/><use xlink:href="#gbyXgyViRqQw-VIG7qaE_pad-15" x="1440" y="1370"/><use xlink:href="#gbyXgyViRqQw-VIG7qaE_pad-15" x="1340" y="1370"/><use xlink:href="#gbyXgyViRqQw-VIG7qaE_pad-15" x="1240" y="1370"/><use xlink:href="#gbyXgyViRqQw-VIG7qaE_pad-15" x="830" y="1920"/><use xlink:href="#gbyXgyViRqQw-VIG7qaE_pad-15" x="950" y="510"/><use xlink:href="#gbyXgyViRqQw-VIG7qaE_pad-15" x="1050" y="510"/><use xlink:href="#gbyXgyViRqQw-VIG7qaE_pad-15" x="1600" y="2860"/><use xlink:href="#gbyXgyViRqQw-VIG7qaE_pad-15" x="1600" y="2760"/><use xlink:href="#gbyXgyViRqQw-VIG7qaE_pad-15" x="1600" y="2660"/><use xlink:href="#gbyXgyViRqQw-VIG7qaE_pad-15" x="1600" y="2560"/><use xlink:href="#gbyXgyViRqQw-VIG7qaE_pad-15" x="1600" y="2460"/><use xlink:href="#gbyXgyViRqQw-VIG7qaE_pad-15" x="1700" y="2260"/><use xlink:href="#gbyXgyViRqQw-VIG7qaE_pad-15" x="1700" y="2160"/><use xlink:href="#gbyXgyViRqQw-VIG7qaE_pad-15" x="1700" y="2060"/><use xlink:href="#gbyXgyViRqQw-VIG7qaE_pad-15" x="1700" y="1960"/><use xlink:href="#gbyXgyViRqQw-VIG7qaE_pad-15" x="1700" y="1860"/><use xlink:href="#gbyXgyViRqQw-VIG7qaE_pad-15" x="1700" y="1760"/><use xlink:href="#gbyXgyViRqQw-VIG7qaE_pad-15" x="1700" y="1660"/><use xlink:href="#gbyXgyViRqQw-VIG7qaE_pad-15" x="1700" y="1560"/><use xlink:href="#gbyXgyViRqQw-VIG7qaE_pad-15" x="1600" y="1560"/><use xlink:href="#gbyXgyViRqQw-VIG7qaE_pad-15" x="1600" y="1660"/><use xlink:href="#gbyXgyViRqQw-VIG7qaE_pad-15" x="1600" y="1760"/><use xlink:href="#gbyXgyViRqQw-VIG7qaE_pad-15" x="1600" y="1860"/><use xlink:href="#gbyXgyViRqQw-VIG7qaE_pad-15" x="1600" y="1960"/><use xlink:href="#gbyXgyViRqQw-VIG7qaE_pad-15" x="1600" y="2060"/><use xlink:href="#gbyXgyViRqQw-VIG7qaE_pad-15" x="1600" y="2160"/><use xlink:href="#gbyXgyViRqQw-VIG7qaE_pad-15" x="1350" y="2630"/><use xlink:href="#gbyXgyViRqQw-VIG7qaE_pad-15" x="1350" y="2230"/><use xlink:href="#gbyXgyViRqQw-VIG7qaE_pad-15" x="1350" y="1830"/><use xlink:href="#gbyXgyViRqQw-VIG7qaE_pad-15" x="1350" y="2830"/><use xlink:href="#gbyXgyViRqQw-VIG7qaE_pad-15" x="1350" y="2730"/><use xlink:href="#gbyXgyViRqQw-VIG7qaE_pad-15" x="1350" y="2430"/><use xlink:href="#gbyXgyViRqQw-VIG7qaE_pad-15" x="1350" y="2330"/><use xlink:href="#gbyXgyViRqQw-VIG7qaE_pad-15" x="1350" y="2130"/><use xlink:href="#gbyXgyViRqQw-VIG7qaE_pad-15" x="1350" y="2030"/><use xlink:href="#gbyXgyViRqQw-VIG7qaE_pad-15" x="1350" y="1730"/><use xlink:href="#gbyXgyViRqQw-VIG7qaE_pad-15" x="1350" y="1630"/><use xlink:href="#gbyXgyViRqQw-VIG7qaE_pad-15" x="1350" y="1530"/><use xlink:href="#gbyXgyViRqQw-VIG7qaE_pad-15" x="1350" y="2530"/><use xlink:href="#gbyXgyViRqQw-VIG7qaE_pad-15" x="1350" y="1930"/><use xlink:href="#gbyXgyViRqQw-VIG7qaE_pad-15" x="1050" y="1530"/><use xlink:href="#gbyXgyViRqQw-VIG7qaE_pad-15" x="1050" y="2730"/><use xlink:href="#gbyXgyViRqQw-VIG7qaE_pad-15" x="1050" y="2630"/><use xlink:href="#gbyXgyViRqQw-VIG7qaE_pad-15" x="1050" y="2530"/><use xlink:href="#gbyXgyViRqQw-VIG7qaE_pad-15" x="1050" y="2430"/><use xlink:href="#gbyXgyViRqQw-VIG7qaE_pad-15" x="1050" y="2330"/><use xlink:href="#gbyXgyViRqQw-VIG7qaE_pad-15" x="1050" y="2230"/><use xlink:href="#gbyXgyViRqQw-VIG7qaE_pad-15" x="1050" y="2130"/><use xlink:href="#gbyXgyViRqQw-VIG7qaE_pad-15" x="1050" y="2030"/><use xlink:href="#gbyXgyViRqQw-VIG7qaE_pad-15" x="1050" y="1930"/><use xlink:href="#gbyXgyViRqQw-VIG7qaE_pad-15" x="1050" y="1830"/><use xlink:href="#gbyXgyViRqQw-VIG7qaE_pad-15" x="1050" y="1730"/><use xlink:href="#gbyXgyViRqQw-VIG7qaE_pad-15" x="1050" y="1630"/><use xlink:href="#gbyXgyViRqQw-VIG7qaE_pad-15" x="410" y="360"/><use xlink:href="#gbyXgyViRqQw-VIG7qaE_pad-15" x="410" y="260"/><use xlink:href="#gbyXgyViRqQw-VIG7qaE_pad-15" x="910" y="700"/><use xlink:href="#gbyXgyViRqQw-VIG7qaE_pad-15" x="780" y="700"/><use xlink:href="#gbyXgyViRqQw-VIG7qaE_pad-15" x="150" y="730"/><use xlink:href="#gbyXgyViRqQw-VIG7qaE_pad-15" x="150" y="1400"/><use xlink:href="#gbyXgyViRqQw-VIG7qaE_pad-15" x="150" y="2070"/><use xlink:href="#gbyXgyViRqQw-VIG7qaE_pad-15" x="150" y="2740"/><use xlink:href="#gbyXgyViRqQw-VIG7qaE_pad-15" x="150" y="600"/><use xlink:href="#gbyXgyViRqQw-VIG7qaE_pad-15" x="150" y="1270"/><use xlink:href="#gbyXgyViRqQw-VIG7qaE_pad-15" x="150" y="1940"/><use xlink:href="#gbyXgyViRqQw-VIG7qaE_pad-15" x="150" y="2610"/><use xlink:href="#gbyXgyViRqQw-VIG7qaE_pad-15" x="1010" y="220"/><use xlink:href="#gbyXgyViRqQw-VIG7qaE_pad-15" x="810" y="220"/><use xlink:href="#gbyXgyViRqQw-VIG7qaE_pad-15" x="570" y="1100"/><use xlink:href="#gbyXgyViRqQw-VIG7qaE_pad-15" x="570" y="1770"/><use xlink:href="#gbyXgyViRqQw-VIG7qaE_pad-15" x="570" y="2440"/><use xlink:href="#gbyXgyViRqQw-VIG7qaE_pad-15" x="570" y="3110"/><use xlink:href="#gbyXgyViRqQw-VIG7qaE_pad-15" x="200" y="900"/><use xlink:href="#gbyXgyViRqQw-VIG7qaE_pad-15" x="200" y="1570"/><use xlink:href="#gbyXgyViRqQw-VIG7qaE_pad-15" x="200" y="2240"/><use xlink:href="#gbyXgyViRqQw-VIG7qaE_pad-15" x="205" y="2910"/><use xlink:href="#gbyXgyViRqQw-VIG7qaE_pad-15" x="1050" y="1190"/><use xlink:href="#gbyXgyViRqQw-VIG7qaE_pad-15" x="1050" y="860"/><use xlink:href="#gbyXgyViRqQw-VIG7qaE_pad-15" x="150" y="150"/><use xlink:href="#gbyXgyViRqQw-VIG7qaE_pad-15" x="150" y="3350"/><use xlink:href="#gbyXgyViRqQw-VIG7qaE_pad-15" x="1950" y="150"/><use xlink:href="#gbyXgyViRqQw-VIG7qaE_pad-15" x="1950" y="3350"/><use xlink:href="#gbyXgyViRqQw-VIG7qaE_pad-16" x="1240" y="370"/><use xlink:href="#gbyXgyViRqQw-VIG7qaE_pad-16" x="850" y="510"/><use xlink:href="#gbyXgyViRqQw-VIG7qaE_pad-16" x="650" y="730"/><use xlink:href="#gbyXgyViRqQw-VIG7qaE_pad-16" x="650" y="1400"/><use xlink:href="#gbyXgyViRqQw-VIG7qaE_pad-16" x="650" y="2070"/><use xlink:href="#gbyXgyViRqQw-VIG7qaE_pad-16" x="650" y="2740"/><use xlink:href="#gbyXgyViRqQw-VIG7qaE_pad-16" x="650" y="600"/><use xlink:href="#gbyXgyViRqQw-VIG7qaE_pad-16" x="650" y="1270"/><use xlink:href="#gbyXgyViRqQw-VIG7qaE_pad-16" x="650" y="1940"/><use xlink:href="#gbyXgyViRqQw-VIG7qaE_pad-16" x="650" y="2610"/><use xlink:href="#gbyXgyViRqQw-VIG7qaE_pad-16" x="610" y="220"/><use xlink:href="#gbyXgyViRqQw-VIG7qaE_pad-17" x="830" y="2120"/><use xlink:href="#gbyXgyViRqQw-VIG7qaE_pad-17" x="1600" y="2960"/><use xlink:href="#gbyXgyViRqQw-VIG7qaE_pad-17" x="1600" y="2260"/><use xlink:href="#gbyXgyViRqQw-VIG7qaE_pad-17" x="1050" y="2830"/><use xlink:href="#gbyXgyViRqQw-VIG7qaE_pad-17" x="410" y="460"/><use xlink:href="#gbyXgyViRqQw-VIG7qaE_pad-17" x="910" y="1200"/><use xlink:href="#gbyXgyViRqQw-VIG7qaE_pad-17" x="780" y="1200"/><use xlink:href="#gbyXgyViRqQw-VIG7qaE_pad-17" x="570" y="900"/><use xlink:href="#gbyXgyViRqQw-VIG7qaE_pad-17" x="570" y="1570"/><use xlink:href="#gbyXgyViRqQw-VIG7qaE_pad-17" x="570" y="2240"/><use xlink:href="#gbyXgyViRqQw-VIG7qaE_pad-17" x="570" y="2910"/><use xlink:href="#gbyXgyViRqQw-VIG7qaE_pad-17" x="200" y="1100"/><use xlink:href="#gbyXgyViRqQw-VIG7qaE_pad-17" x="200" y="1770"/><use xlink:href="#gbyXgyViRqQw-VIG7qaE_pad-17" x="200" y="2440"/><use xlink:href="#gbyXgyViRqQw-VIG7qaE_pad-17" x="205" y="3110"/><use xlink:href="#gbyXgyViRqQw-VIG7qaE_pad-17" x="1050" y="990"/><use xlink:href="#gbyXgyViRqQw-VIG7qaE_pad-17" x="1050" y="660"/><use xlink:href="#gbyXgyViRqQw-VIG7qaE_pad-18" x="550" y="2740"/><use xlink:href="#gbyXgyViRqQw-VIG7qaE_pad-18" x="570" y="1400"/></g><g id="z4QeCu4L9m9IoNXxfRWU_top_silkscreen"><path d="M 740 1894.79 A 90 90 0 0 1 920 1894.79 M 920 2145 A 90 90 0 0 1 740 2145 M 1170 2880 A 30 30 0 0 1 1230 2880 M 1190 320 2090 320 2090 1420 M 1190 320 1190 1420 2090 1420 M 740 1894.53 740 2145 M 920 1894.79 920 2145 M 800 585 1100 585 M 800 400 1100 400 1100 585 M 800 400 800 585 M 1550 2440 1580 2410 M 1650 2410 1650 3010 M 1580 2410 1650 2410 M 1550 2440 1550 3010 1650 3010 M 1550 1535 1575 1510 M 1550 1535 1550 2310 M 1575 1510 1725 1510 1750 1535 1750 2310 M 1550 2310 1750 2310 M 1000 2880 1170 2880 M 1230 2880 1400 2880 M 1000 1480 1400 1480 M 1000 1480 1000 2880 M 1400 1480 1400 2880 M 485 210 485 510 M 300 210 300 510 M 300 210 485 210 M 300 510 485 510 M 860 675 860 1250 M 860 675 885 650 940 650 M 860 1250 960 1250 M 960 670 960 1250 M 940 650 960 670 M 730 675 730 1250 M 730 675 755 650 810 650 M 730 1250 830 1250 M 830 670 830 1250 M 810 650 830 670 M 125 780 700 780 M 100 755 125 780 M 100 700 100 755 M 700 680 700 780 M 120 680 700 680 M 100 700 120 680 M 125 1450 700 1450 M 100 1425 125 1450 M 100 1370 100 1425 M 700 1350 700 1450 M 120 1350 700 1350 M 100 1370 120 1350 M 125 2120 700 2120 M 100 2095 125 2120 M 100 2040 100 2095 M 700 2020 700 2120 M 120 2020 700 2020 M 100 2040 120 2020 M 125 2790 700 2790 M 100 2765 125 2790 M 100 2710 100 2765 M 700 2690 700 2790 M 120 2690 700 2690 M 100 2710 120 2690 M 125 650 700 650 M 100 625 125 650 M 100 570 100 625 M 700 550 700 650 M 120 550 700 550 M 100 570 120 550 M 125 1320 700 1320 M 100 1295 125 1320 M 100 1240 100 1295 M 700 1220 700 1320 M 120 1220 700 1220 M 100 1240 120 1220 M 125 1990 700 1990 M 100 1965 125 1990 M 100 1910 100 1965 M 700 1890 700 1990 M 120 1890 700 1890 M 100 1910 120 1890 M 125 2660 700 2660 M 100 2635 125 2660 M 100 2580 100 2635 M 700 2560 700 2660 M 120 2560 700 2560 M 100 2580 120 2560 M 515 370 1105 370 M 515 95 515 370 M 515 95 1055 95 1105 145 1105 370 M 420 805 695 805 M 420 805 420 1195 M 695 805 695 1145 M 645 1195 695 1145 M 420 1195 645 1195 M 420 1475 695 1475 M 420 1475 420 1865 M 695 1475 695 1815 M 645 1865 695 1815 M 420 1865 645 1865 M 420 2145 695 2145 M 420 2145 420 2535 M 695 2145 695 2485 M 645 2535 695 2485 M 420 2535 645 2535 M 420 2815 695 2815 M 420 2815 420 3205 M 695 2815 695 3155 M 645 3205 695 3155 M 420 3205 645 3205 M 75 1195 350 1195 M 350 805 350 1195 M 75 855 75 1195 M 75 855 125 805 350 805 M 75 1865 350 1865 M 350 1475 350 1865 M 75 1525 75 1865 M 75 1525 125 1475 350 1475 M 75 2535 350 2535 M 350 2145 350 2535 M 75 2195 75 2535 M 75 2195 125 2145 350 2145 M 80 3205 355 3205 M 355 2815 355 3205 M 80 2865 80 3205 M 80 2865 130 2815 355 2815 M 1000 940 1000 1240 M 1000 940 1100 940 M 1000 1240 1080 1240 1100 1220 M 1100 940 1100 1220 M 1000 610 1000 910 M 1000 610 1100 610 M 1000 910 1080 910 1100 890 M 1100 610 1100 890 M 1470.05 850 1470.05 909.98 1500.04 909.98 1510.04 899.98 1510.04 879.99 1500.04 869.99 1470.05 869.99 M 1490.05 869.99 1510.04 850 M 1570.02 909.98 1530.04 909.98 1530.04 879.99 1550.03 879.99 1530.04 879.99 1530.04 850 M 1590.02 850 1590.02 909.98 1610.01 889.99 1630 909.98 1630 850 M 1650 860 1659.99 850 1679.99 850 1689.98 860 1689.98 899.98 1679.99 909.98 1659.99 909.98 1650 899.98 1650 889.99 1659.99 879.99 1689.98 879.99 M 1749.96 909.98 1729.97 899.98 1709.98 879.99 1709.98 860 1719.97 850 1739.97 850 1749.96 860 1749.96 869.99 1739.97 879.99 1709.98 879.99 M 1769.96 909.98 1769.96 850 1789.95 869.99 1809.94 850 1809.94 909.98 M 1179.99 2469.91 1219.98 2469.91 1239.97 2449.91 1219.98 2429.92 1179.99 2429.92 1209.98 2429.92 1209.98 2469.91 M 1239.97 2409.93 1239.97 2369.94 1239.97 2389.93 1179.99 2389.93 M 1179.99 2349.95 1219.98 2349.95 1219.98 2339.95 1209.98 2329.95 1179.99 2329.95 1209.98 2329.95 1219.98 2319.96 1209.98 2309.96 1179.99 2309.96 M 1179.99 2259.97 1179.99 2279.97 1189.99 2289.96 1209.98 2289.96 1219.98 2279.97 1219.98 2259.97 1209.98 2249.98 1199.99 2249.98 1199.99 2289.96 M 1160 2209.99 1160 2199.99 1170 2190 1219.98 2190 1219.98 2219.99 1209.98 2229.98 1189.99 2229.98 1179.99 2219.99 1179.99 2190 M 1219.98 2160.01 1219.98 2140.01 1209.98 2130.02 1179.99 2130.02 1179.99 2160.01 1189.99 2170 1199.99 2160.01 1199.99 2130.02 M 1229.98 2110.02 1239.97 2100.03 1239.97 2080.03 1229.98 2070.04 1219.98 2070.04 1209.98 2080.03 1209.98 2090.03 1209.98 2080.03 1199.99 2070.04 1189.99 2070.04 1179.99 2080.03 1179.99 2100.03 1189.99 2110.02 M 1179.99 2010.06 1179.99 2050.04 1219.98 2010.06 1229.98 2010.06 1239.97 2020.05 1239.97 2040.05 1229.98 2050.04 M 1229.98 1990.06 1239.97 1980.06 1239.97 1960.07 1229.98 1950.08 1219.98 1950.08 1209.98 1960.07 1199.99 1950.08 1189.99 1950.08 1179.99 1960.07 1179.99 1980.06 1189.99 1990.06 1199.99 1990.06 1209.98 1980.06 1219.98 1990.06 1229.98 1990.06 M 1209.98 1980.06 1209.98 1960.07 M 1179.99 1930.08 1239.97 1930.08 1239.97 1900.09 1229.98 1890.09 1209.98 1890.09 1199.99 1900.09 1199.99 1930.08 M 929.99 913.35 929.99 926.68 929.99 920.01 890.01 920.01 896.67 913.35 M 896.67 946.67 890.01 953.34 890.01 966.67 896.67 973.33 923.33 973.33 929.99 966.67 929.99 953.34 923.33 946.67 896.67 946.67 M 929.99 986.66 890.01 986.66 M 916.66 986.66 903.33 1006.65 M 916.66 986.66 929.99 1006.65 M 799.99 933.34 799.99 946.67 799.99 940.01 760.01 940.01 766.67 933.34 M 799.99 966.67 760.01 966.67 M 786.66 966.67 773.34 986.66 M 786.66 966.67 799.99 986.66 M 353.35 710.01 366.68 710.01 360.01 710.01 360.01 749.99 353.35 743.33 M 386.67 743.33 393.34 749.99 406.66 749.99 413.33 743.33 413.33 716.67 406.66 710.01 393.34 710.01 386.67 716.67 386.67 743.33 M 426.66 710.01 426.66 749.99 M 426.66 723.34 446.65 736.66 M 426.66 723.34 446.65 710.01 M 353.35 1380.01 366.68 1380.01 360.01 1380.01 360.01 1419.99 353.35 1413.33 M 386.67 1413.33 393.34 1419.99 406.66 1419.99 413.33 1413.33 413.33 1386.67 406.66 1380.01 393.34 1380.01 386.67 1386.67 386.67 1413.33 M 426.66 1380.01 426.66 1419.99 M 426.66 1393.33 446.65 1406.66 M 426.66 1393.33 446.65 1380.01 M 353.35 2050.01 366.68 2050.01 360.01 2050.01 360.01 2089.99 353.35 2083.33 M 386.67 2083.33 393.34 2089.99 406.66 2089.99 413.33 2083.33 413.33 2056.67 406.66 2050.01 393.34 2050.01 386.67 2056.67 386.67 2083.33 M 426.66 2050.01 426.66 2089.99 M 426.66 2063.34 446.65 2076.66 M 426.66 2063.34 446.65 2050.01 M 343.35 2720.01 356.68 2720.01 350.01 2720.01 350.01 2759.99 343.35 2753.33 M 376.67 2753.33 383.34 2759.99 396.66 2759.99 403.33 2753.33 403.33 2726.67 396.66 2720.01 383.34 2720.01 376.67 2726.67 376.67 2753.33 M 416.66 2720.01 416.66 2759.99 M 416.66 2733.34 436.65 2746.66 M 416.66 2733.34 436.65 2720.01 M 346.68 613.33 353.35 619.99 366.68 619.99 373.34 613.33 373.34 606.66 366.68 600 360.01 600 366.68 600 373.34 593.34 373.34 586.67 366.68 580.01 353.35 580.01 346.68 586.67 M 386.67 613.33 393.34 619.99 406.66 619.99 413.33 613.33 413.33 606.66 406.66 600 400 600 406.66 600 413.33 593.34 413.33 586.67 406.66 580.01 393.34 580.01 386.67 586.67 M 426.66 613.33 433.32 619.99 446.65 619.99 453.32 613.33 453.32 586.67 446.65 580.01 433.32 580.01 426.66 586.67 426.66 613.33 M 346.68 1283.33 353.35 1289.99 366.68 1289.99 373.34 1283.33 373.34 1276.66 366.68 1270 360.01 1270 366.68 1270 373.34 1263.33 373.34 1256.67 366.68 1250.01 353.35 1250.01 346.68 1256.67 M 386.67 1283.33 393.34 1289.99 406.66 1289.99 413.33 1283.33 413.33 1276.66 406.66 1270 400 1270 406.66 1270 413.33 1263.33 413.33 1256.67 406.66 1250.01 393.34 1250.01 386.67 1256.67 M 426.66 1283.33 433.32 1289.99 446.65 1289.99 453.32 1283.33 453.32 1256.67 446.65 1250.01 433.32 1250.01 426.66 1256.67 426.66 1283.33 M 346.68 1953.33 353.35 1959.99 366.68 1959.99 373.34 1953.33 373.34 1946.67 366.68 1940 360.01 1940 366.68 1940 373.34 1933.33 373.34 1926.67 366.68 1920.01 353.35 1920.01 346.68 1926.67 M 386.67 1953.33 393.34 1959.99 406.66 1959.99 413.33 1953.33 413.33 1946.67 406.66 1940 400 1940 406.66 1940 413.33 1933.33 413.33 1926.67 406.66 1920.01 393.34 1920.01 386.67 1926.67 M 426.66 1953.33 433.32 1959.99 446.65 1959.99 453.32 1953.33 453.32 1926.67 446.65 1920.01 433.32 1920.01 426.66 1926.67 426.66 1953.33 M 336.68 2623.33 343.35 2629.99 356.68 2629.99 363.34 2623.33 363.34 2616.66 356.68 2610 350.01 2610 356.68 2610 363.34 2603.34 363.34 2596.67 356.68 2590.01 343.35 2590.01 336.68 2596.67 M 376.67 2623.33 383.34 2629.99 396.66 2629.99 403.33 2623.33 403.33 2616.66 396.66 2610 390 2610 396.66 2610 403.33 2603.34 403.33 2596.67 396.66 2590.01 383.34 2590.01 376.67 2596.67 M 416.66 2623.33 423.32 2629.99 436.65 2629.99 443.32 2623.33 443.32 2596.67 436.65 2590.01 423.32 2590.01 416.66 2596.67 416.66 2623.33 M 1058.33 1046.26 1058.33 1054.59 1058.33 1050.43 1033.34 1050.43 1037.5 1046.26 M 1037.5 1067.09 1033.34 1071.26 1033.34 1079.59 1037.5 1083.75 1054.17 1083.75 1058.33 1079.59 1058.33 1071.26 1054.17 1067.09 1037.5 1067.09 M 1037.5 1092.08 1033.34 1096.25 1033.34 1104.58 1037.5 1108.74 1054.17 1108.74 1058.33 1104.58 1058.33 1096.25 1054.17 1092.08 1037.5 1092.08 M 1066.66 1117.07 1041.67 1117.07 1041.67 1129.57 1045.84 1133.74 1054.17 1133.74 1058.33 1129.57 1058.33 1117.07 M 1037.5 714.18 1033.34 718.35 1033.34 726.68 1037.5 730.84 1041.67 730.84 1045.83 726.68 1045.83 722.51 1045.83 726.68 1050 730.84 1054.17 730.84 1058.33 726.68 1058.33 718.35 1054.17 714.18 M 1037.5 739.17 1033.34 743.34 1033.34 751.67 1037.5 755.83 1041.67 755.83 1045.83 751.67 1045.83 747.5 1045.83 751.67 1050 755.83 1054.17 755.83 1058.33 751.67 1058.33 743.34 1054.17 739.17 M 1037.5 764.16 1033.34 768.33 1033.34 776.66 1037.5 780.83 1054.17 780.83 1058.33 776.66 1058.33 768.33 1054.17 764.16 1037.5 764.16 M 1066.66 789.16 1041.67 789.16 1041.67 801.65 1045.83 805.82 1054.17 805.82 1058.33 801.65 1058.33 789.16 M 2030.01 1520 1970.03 1520 2030.01 1559.99 1970.03 1559.99 M 2030.01 1579.98 2020.01 1579.98 2020.01 1589.98 2030.01 1589.98 2030.01 1579.98 M 1970.03 1729.93 2030.01 1729.93 2030.01 1699.94 2020.01 1689.94 2000.02 1689.94 1990.02 1699.94 1990.02 1729.93 M 2030.01 1749.93 1970.03 1749.93 1970.03 1779.92 1980.02 1789.91 2000.02 1789.91 2010.01 1779.92 2010.01 1749.93 M 2040 1819.9 2030.01 1829.9 2020.01 1829.9 2020.01 1819.9 2030.01 1819.9 2030.01 1829.9 2040 1819.9 2050 1809.91 M 1970.03 1929.87 2030.01 1929.87 2030.01 1959.86 2020.01 1969.85 2010.01 1969.85 2000.02 1959.86 2000.02 1929.87 2000.02 1959.86 1990.02 1969.85 1980.02 1969.85 1970.03 1959.86 1970.03 1929.87 M 2030.01 1989.85 2020.01 1989.85 2020.01 1999.85 2030.01 1999.85 2030.01 1989.85 M 2030.01 2099.81 1970.03 2099.81 1970.03 2129.8 1980.02 2139.8 2000.02 2139.8 2010.01 2129.8 2010.01 2099.81 M 2040 2169.79 2030.01 2179.79 2020.01 2179.79 2020.01 2169.79 2030.01 2169.79 2030.01 2179.79 2040 2169.79 2050 2159.79 M 1980.02 2319.74 1970.03 2309.74 1970.03 2289.75 1980.02 2279.75 2020.01 2279.75 2030.01 2289.75 2030.01 2309.74 2020.01 2319.74 M 2030.01 2339.74 2020.01 2339.74 2020.01 2349.73 2030.01 2349.73 2030.01 2339.74 M 2030.01 2449.7 1970.03 2449.7 1990.02 2469.69 1970.03 2489.69 2030.01 2489.69 M 1870.03 1559.99 1870.03 1520 1930.01 1520 1930.01 1559.99 M 1900.02 1520 1900.02 1539.99 M 1880.02 1619.97 1870.03 1609.97 1870.03 1589.98 1880.02 1579.98 1920.01 1579.98 1930.01 1589.98 1930.01 1609.97 1920.01 1619.97 1900.02 1619.97 1900.02 1599.97 M 1870.03 1639.96 1930.01 1639.96 1900.02 1639.96 1900.02 1679.95 1870.03 1679.95 1930.01 1679.95 M 1930.01 1729.93 1870.03 1729.93 1900.02 1699.94 1900.02 1739.93 M 1880.02 1759.92 1870.03 1769.92 1870.03 1789.91 1880.02 1799.91 1920.01 1799.91 1930.01 1789.91 1930.01 1769.92 1920.01 1759.92 1880.02 1759.92 M 1880.02 1819.9 1870.03 1829.9 1870.03 1849.89 1880.02 1859.89 1920.01 1859.89 1930.01 1849.89 1930.01 1829.9 1920.01 1819.9 1880.02 1819.9 M 1880.02 1979.85 1870.03 1969.85 1870.03 1949.86 1880.02 1939.86 1890.02 1939.86 1900.02 1949.86 1900.02 1969.85 1910.01 1979.85 1920.01 1979.85 1930.01 1969.85 1930.01 1949.86 1920.01 1939.86 M 1880.02 2009.84 1890.02 2009.84 1890.02 1999.85 1890.02 2019.84 1890.02 2009.84 1920.01 2009.84 1930.01 2019.84 M 1890.02 2059.82 1890.02 2079.82 1900.02 2089.82 1930.01 2089.82 1930.01 2059.82 1920.01 2049.83 1910.01 2059.82 1910.01 2089.82 M 1890.02 2109.81 1930.01 2109.81 1910.01 2109.81 1900.02 2119.81 1890.02 2129.8 1890.02 2139.8 M 1880.02 2179.79 1890.02 2179.79 1890.02 2169.79 1890.02 2189.78 1890.02 2179.79 1920.01 2179.79 1930.01 2189.78 M 1870.03 2279.75 1930.01 2279.75 1930.01 2319.74 M 1930.01 2339.74 1930.01 2359.73 1930.01 2349.73 1890.02 2349.73 1890.02 2339.74 M 1930.01 2389.72 1890.02 2389.72 1890.02 2419.71 1900.02 2429.71 1930.01 2429.71 M 1930.01 2479.69 1930.01 2459.7 1920.01 2449.7 1900.02 2449.7 1890.02 2459.7 1890.02 2479.69 1900.02 2489.69 1910.01 2489.69 1910.01 2449.7 M 1880.02 2609.65 1870.03 2599.65 1870.03 2579.66 1880.02 2569.66 1890.02 2569.66 1900.02 2579.66 1900.02 2599.65 1910.01 2609.65 1920.01 2609.65 1930.01 2599.65 1930.01 2579.66 1920.01 2569.66 M 1890.02 2629.64 1920.01 2629.64 1930.01 2639.64 1930.01 2669.63 1940 2669.63 1950 2659.63 1950 2649.64 M 1930.01 2669.63 1890.02 2669.63 M 1930.01 2689.62 1930.01 2719.61 1920.01 2729.61 1910.01 2719.61 1910.01 2699.62 1900.02 2689.62 1890.02 2699.62 1890.02 2729.61 M 1880.02 2759.6 1890.02 2759.6 1890.02 2749.6 1890.02 2769.6 1890.02 2759.6 1920.01 2759.6 1930.01 2769.6 M 1930.01 2829.58 1930.01 2809.58 1920.01 2799.59 1900.02 2799.59 1890.02 2809.58 1890.02 2829.58 1900.02 2839.57 1910.01 2839.57 1910.01 2799.59 M 1930.01 2859.57 1890.02 2859.57 1890.02 2869.56 1900.02 2879.56 1930.01 2879.56 1900.02 2879.56 1890.02 2889.56 1900.02 2899.55 1930.01 2899.55 M 246.68 166.66 240.01 159.99 240.01 146.67 246.68 140 253.34 140 260.01 146.67 260.01 159.99 266.67 166.66 273.34 166.66 280 159.99 280 146.67 273.34 140 M 240.01 179.99 240.01 206.64 240.01 193.32 280 193.32 M 280 219.97 240.01 219.97 240.01 239.97 246.68 246.63 260.01 246.63 266.67 239.97 266.67 219.97 M 280 259.96 280 273.29 280 266.63 240.01 266.63 246.68 259.96 M 240.01 319.94 246.68 306.61 260.01 293.28 273.34 293.28 280 299.95 280 313.28 273.34 319.94 266.67 319.94 260.01 313.28 260.01 293.28 M 280 333.27 240.01 333.27 280 359.93 240.01 359.93 M 240.01 399.92 240.01 373.26 260.01 373.26 260.01 386.59 260.01 373.26 280 373.26 M 246.68 413.24 240.01 419.91 240.01 433.24 246.68 439.9 273.34 439.9 280 433.24 280 419.91 273.34 413.24 246.68 413.24 M 240.01 479.89 246.68 466.56 260.01 453.23 273.34 453.23 280 459.9 280 473.23 273.34 479.89 266.67 479.89 260.01 473.23 260.01 453.23 M 240.01 493.22 280 493.22 280 519.88 M 740.01 400 780 400 780 426.66 M 740.01 439.99 740.01 466.65 746.68 466.65 773.34 439.99 780 439.99 M 746.68 479.97 740.01 486.64 740.01 499.97 746.68 506.63 753.34 506.63 760.01 499.97 766.67 506.63 773.34 506.63 780 499.97 780 486.64 773.34 479.97 766.67 479.97 760.01 486.64 753.34 479.97 746.68 479.97 M 760.01 486.64 760.01 499.97 M 746.68 519.96 740.01 526.63 740.01 539.96 746.68 546.62 773.34 546.62 780 539.96 780 526.63 773.34 519.96 746.68 519.96 M 740.01 586.61 740.01 559.95 760.01 559.95 753.34 573.28 753.34 579.94 760.01 586.61 773.34 586.61 780 579.94 780 566.61 773.34 559.95 M 966.66 63.32 959.99 69.99 946.66 69.99 940 63.32 940 36.66 946.66 30 959.99 30 966.66 36.66 966.66 49.99 953.33 49.99 M 979.99 30 979.99 69.99 1006.64 30 1006.64 69.99 M 1019.97 69.99 1019.97 30 1039.97 30 1046.63 36.66 1046.63 63.32 1039.97 69.99 1019.97 69.99 M 740 69.99 740 43.33 753.33 30 766.66 43.33 766.66 69.99 M 779.99 30 793.32 30 786.65 30 786.65 56.66 779.99 56.66 M 813.31 30 813.31 56.66 833.3 56.66 839.97 49.99 839.97 30 M 520 69.99 520 30 546.66 30 M 586.65 69.99 559.99 69.99 559.99 30 586.65 30 M 559.99 49.99 573.32 49.99 M 599.97 69.99 599.97 30 619.97 30 626.63 36.66 626.63 63.32 619.97 69.99 599.97 69.99 M 1680.02 2550 1740 2550 1740 2579.99 1730 2589.99 1690.02 2589.99 1680.02 2579.99 1680.02 2550 M 1690.02 2649.97 1680.02 2639.97 1680.02 2619.98 1690.02 2609.98 1700.01 2609.98 1710.01 2619.98 1710.01 2639.97 1720.01 2649.97 1730 2649.97 1740 2639.97 1740 2619.98 1730 2609.98 M 1690.02 2669.96 1680.02 2679.96 1680.02 2699.95 1690.02 2709.95 1700.01 2709.95 1710.01 2699.95 1710.01 2689.95 1710.01 2699.95 1720.01 2709.95 1730 2709.95 1740 2699.95 1740 2679.96 1730 2669.96 M 1740 2769.93 1740 2729.94 1700.01 2769.93 1690.02 2769.93 1680.02 2759.93 1680.02 2739.94 1690.02 2729.94 M 1690.02 2789.92 1680.02 2799.92 1680.02 2819.91 1690.02 2829.91 1700.01 2829.91 1710.01 2819.91 1710.01 2809.92 1710.01 2819.91 1720.01 2829.91 1730 2829.91 1740 2819.91 1740 2799.92 1730 2789.92 M 1740 2849.9 1740 2869.9 1740 2859.9 1680.02 2859.9 1690.02 2849.9 M 1770.02 1760 1770.02 1799.99 1780.02 1799.99 1820 1760 1830 1760 1830 1799.99 M 1770.02 1859.97 1780.02 1839.97 1800.01 1819.98 1820 1819.98 1830 1829.98 1830 1849.97 1820 1859.97 1810.01 1859.97 1800.01 1849.97 1800.01 1819.98 M 1780.02 1879.96 1770.02 1889.96 1770.02 1909.95 1780.02 1919.95 1790.01 1919.95 1800.01 1909.95 1800.01 1899.96 1800.01 1909.95 1810.01 1919.95 1820 1919.95 1830 1909.95 1830 1889.96 1820 1879.96 M 1770.02 1979.93 1770.02 1939.94 1800.01 1939.94 1790.01 1959.93 1790.01 1969.93 1800.01 1979.93 1820 1979.93 1830 1969.93 1830 1949.94 1820 1939.94 M 1780.02 1999.92 1770.02 2009.92 1770.02 2029.91 1780.02 2039.91 1790.01 2039.91 1800.01 2029.91 1800.01 2019.92 1800.01 2029.91 1810.01 2039.91 1820 2039.91 1830 2029.91 1830 2009.92 1820 1999.92 M 420 3284.98 420 3225 459.99 3225 M 519.97 3284.98 479.98 3284.98 479.98 3225 519.97 3225 M 479.98 3254.99 499.97 3254.99 M 539.96 3284.98 539.96 3225 569.95 3225 579.95 3235 579.95 3274.98 569.95 3284.98 539.96 3284.98 M 5.02 929.99 -4.98 919.99 -4.98 900 5.02 890 15.01 890 25.01 900 25.01 919.99 35.01 929.99 45 929.99 55 919.99 55 900 45 890 M -4.98 949.98 5.02 949.98 25.01 969.97 5.02 989.97 -4.98 989.97 M 25.01 969.97 55 969.97 M 55 1009.96 -4.98 1009.96 55 1049.95 -4.98 1049.95 M 5.02 1109.93 -4.98 1099.93 -4.98 1079.94 5.02 1069.94 45 1069.94 55 1079.94 55 1099.93 45 1109.93 M 280 3225 280 3284.98 309.99 3284.98 319.99 3274.98 319.99 3254.99 309.99 3244.99 280 3244.99 M 339.98 3284.98 339.98 3225 369.97 3225 379.97 3235 379.97 3244.99 369.97 3254.99 339.98 3254.99 369.97 3254.99 379.97 3264.99 379.97 3274.98 369.97 3284.98 339.98 3284.98 M 5.02 2909.99 -4.98 2899.99 -4.98 2880 5.02 2870 15.01 2870 25.01 2880 25.01 2899.99 35.01 2909.99 45 2909.99 55 2899.99 55 2880 45 2870 M -4.98 2929.98 -4.98 2969.97 -4.98 2949.97 55 2949.97 M 55 2989.96 15.01 2989.96 -4.98 3009.95 15.01 3029.95 55 3029.95 25.01 3029.95 25.01 2989.96 M 55 3049.94 -4.98 3049.94 -4.98 3079.93 5.02 3089.93 25.01 3089.93 35.01 3079.93 35.01 3049.94 M 35.01 3069.94 55 3089.93 M -4.98 3109.92 -4.98 3149.91 -4.98 3129.92 55 3129.92 M 5.02 2269.99 -4.98 2259.99 -4.98 2240 5.02 2230 15.01 2230 25.01 2240 25.01 2259.99 35.01 2269.99 45 2269.99 55 2259.99 55 2240 45 2230 M -4.98 2289.98 -4.98 2329.97 -4.98 2309.97 55 2309.97 M -4.98 2379.95 -4.98 2359.96 5.02 2349.96 45 2349.96 55 2359.96 55 2379.95 45 2389.95 5.02 2389.95 -4.98 2379.95 M 55 2409.94 -4.98 2409.94 -4.98 2439.93 5.02 2449.93 25.01 2449.93 35.01 2439.93 35.01 2409.94 M -4.98 1689.99 -4.98 1650 25.01 1650 25.01 1669.99 25.01 1650 55 1650 M 5.02 1749.97 -4.98 1739.97 -4.98 1719.98 5.02 1709.98 15.01 1709.98 25.01 1719.98 25.01 1739.97 35.01 1749.97 45 1749.97 55 1739.97 55 1719.98 45 1709.98" fill="none" stroke-width="10"/></g><g id="z4QeCu4L9m9IoNXxfRWU_top_drill1"><use xlink:href="#NoC4Ehkpld1aRqc7tfnv_pad-1" x="570" y="1400"/><use xlink:href="#NoC4Ehkpld1aRqc7tfnv_pad-1" x="550" y="2740"/><use xlink:href="#NoC4Ehkpld1aRqc7tfnv_pad-2" x="410" y="260"/><use xlink:href="#NoC4Ehkpld1aRqc7tfnv_pad-2" x="410" y="360"/><use xlink:href="#NoC4Ehkpld1aRqc7tfnv_pad-2" x="410" y="460"/><use xlink:href="#NoC4Ehkpld1aRqc7tfnv_pad-2" x="650" y="600"/><use xlink:href="#NoC4Ehkpld1aRqc7tfnv_pad-2" x="650" y="730"/><use xlink:href="#NoC4Ehkpld1aRqc7tfnv_pad-2" x="780" y="700"/><use xlink:href="#NoC4Ehkpld1aRqc7tfnv_pad-2" x="910" y="700"/><use xlink:href="#NoC4Ehkpld1aRqc7tfnv_pad-2" x="1050" y="660"/><use xlink:href="#NoC4Ehkpld1aRqc7tfnv_pad-2" x="1050" y="510"/><use xlink:href="#NoC4Ehkpld1aRqc7tfnv_pad-2" x="950" y="510"/><use xlink:href="#NoC4Ehkpld1aRqc7tfnv_pad-2" x="850" y="510"/><use xlink:href="#NoC4Ehkpld1aRqc7tfnv_pad-2" x="810" y="220"/><use xlink:href="#NoC4Ehkpld1aRqc7tfnv_pad-2" x="1010" y="220"/><use xlink:href="#NoC4Ehkpld1aRqc7tfnv_pad-2" x="1240" y="370"/><use xlink:href="#NoC4Ehkpld1aRqc7tfnv_pad-2" x="1340" y="370"/><use xlink:href="#NoC4Ehkpld1aRqc7tfnv_pad-2" x="1050" y="860"/><use xlink:href="#NoC4Ehkpld1aRqc7tfnv_pad-2" x="1050" y="990"/><use xlink:href="#NoC4Ehkpld1aRqc7tfnv_pad-2" x="1050" y="1190"/><use xlink:href="#NoC4Ehkpld1aRqc7tfnv_pad-2" x="910" y="1200"/><use xlink:href="#NoC4Ehkpld1aRqc7tfnv_pad-2" x="780" y="1200"/><use xlink:href="#NoC4Ehkpld1aRqc7tfnv_pad-2" x="650" y="1270"/><use xlink:href="#NoC4Ehkpld1aRqc7tfnv_pad-2" x="650" y="1400"/><use xlink:href="#NoC4Ehkpld1aRqc7tfnv_pad-2" x="570" y="1100"/><use xlink:href="#NoC4Ehkpld1aRqc7tfnv_pad-2" x="570" y="900"/><use xlink:href="#NoC4Ehkpld1aRqc7tfnv_pad-2" x="200" y="900"/><use xlink:href="#NoC4Ehkpld1aRqc7tfnv_pad-2" x="200" y="1100"/><use xlink:href="#NoC4Ehkpld1aRqc7tfnv_pad-2" x="150" y="1270"/><use xlink:href="#NoC4Ehkpld1aRqc7tfnv_pad-2" x="150" y="1400"/><use xlink:href="#NoC4Ehkpld1aRqc7tfnv_pad-2" x="150" y="730"/><use xlink:href="#NoC4Ehkpld1aRqc7tfnv_pad-2" x="150" y="600"/><use xlink:href="#NoC4Ehkpld1aRqc7tfnv_pad-2" x="610" y="220"/><use xlink:href="#NoC4Ehkpld1aRqc7tfnv_pad-2" x="1240" y="1370"/><use xlink:href="#NoC4Ehkpld1aRqc7tfnv_pad-2" x="1340" y="1370"/><use xlink:href="#NoC4Ehkpld1aRqc7tfnv_pad-2" x="1440" y="1370"/><use xlink:href="#NoC4Ehkpld1aRqc7tfnv_pad-2" x="1540" y="1370"/><use xlink:href="#NoC4Ehkpld1aRqc7tfnv_pad-2" x="1640" y="1370"/><use xlink:href="#NoC4Ehkpld1aRqc7tfnv_pad-2" x="1640" y="370"/><use xlink:href="#NoC4Ehkpld1aRqc7tfnv_pad-2" x="1740" y="370"/><use xlink:href="#NoC4Ehkpld1aRqc7tfnv_pad-2" x="1840" y="370"/><use xlink:href="#NoC4Ehkpld1aRqc7tfnv_pad-2" x="1940" y="370"/><use xlink:href="#NoC4Ehkpld1aRqc7tfnv_pad-2" x="2040" y="370"/><use xlink:href="#NoC4Ehkpld1aRqc7tfnv_pad-2" x="1540" y="370"/><use xlink:href="#NoC4Ehkpld1aRqc7tfnv_pad-2" x="1440" y="370"/><use xlink:href="#NoC4Ehkpld1aRqc7tfnv_pad-2" x="1600" y="1560"/><use xlink:href="#NoC4Ehkpld1aRqc7tfnv_pad-2" x="1700" y="1560"/><use xlink:href="#NoC4Ehkpld1aRqc7tfnv_pad-2" x="1700" y="1660"/><use xlink:href="#NoC4Ehkpld1aRqc7tfnv_pad-2" x="1700" y="1760"/><use xlink:href="#NoC4Ehkpld1aRqc7tfnv_pad-2" x="1700" y="1860"/><use xlink:href="#NoC4Ehkpld1aRqc7tfnv_pad-2" x="1700" y="1960"/><use xlink:href="#NoC4Ehkpld1aRqc7tfnv_pad-2" x="1700" y="2060"/><use xlink:href="#NoC4Ehkpld1aRqc7tfnv_pad-2" x="1700" y="2160"/><use xlink:href="#NoC4Ehkpld1aRqc7tfnv_pad-2" x="1700" y="2260"/><use xlink:href="#NoC4Ehkpld1aRqc7tfnv_pad-2" x="1600" y="2260"/><use xlink:href="#NoC4Ehkpld1aRqc7tfnv_pad-2" x="1600" y="2160"/><use xlink:href="#NoC4Ehkpld1aRqc7tfnv_pad-2" x="1600" y="2060"/><use xlink:href="#NoC4Ehkpld1aRqc7tfnv_pad-2" x="1600" y="1960"/><use xlink:href="#NoC4Ehkpld1aRqc7tfnv_pad-2" x="1600" y="1860"/><use xlink:href="#NoC4Ehkpld1aRqc7tfnv_pad-2" x="1600" y="1760"/><use xlink:href="#NoC4Ehkpld1aRqc7tfnv_pad-2" x="1600" y="1660"/><use xlink:href="#NoC4Ehkpld1aRqc7tfnv_pad-2" x="1600" y="2460"/><use xlink:href="#NoC4Ehkpld1aRqc7tfnv_pad-2" x="1600" y="2560"/><use xlink:href="#NoC4Ehkpld1aRqc7tfnv_pad-2" x="1600" y="2660"/><use xlink:href="#NoC4Ehkpld1aRqc7tfnv_pad-2" x="1600" y="2760"/><use xlink:href="#NoC4Ehkpld1aRqc7tfnv_pad-2" x="1600" y="2860"/><use xlink:href="#NoC4Ehkpld1aRqc7tfnv_pad-2" x="1600" y="2960"/><use xlink:href="#NoC4Ehkpld1aRqc7tfnv_pad-2" x="1350" y="2830"/><use xlink:href="#NoC4Ehkpld1aRqc7tfnv_pad-2" x="1350" y="2730"/><use xlink:href="#NoC4Ehkpld1aRqc7tfnv_pad-2" x="1350" y="2630"/><use xlink:href="#NoC4Ehkpld1aRqc7tfnv_pad-2" x="1350" y="2530"/><use xlink:href="#NoC4Ehkpld1aRqc7tfnv_pad-2" x="1350" y="2430"/><use xlink:href="#NoC4Ehkpld1aRqc7tfnv_pad-2" x="1350" y="2330"/><use xlink:href="#NoC4Ehkpld1aRqc7tfnv_pad-2" x="1350" y="2230"/><use xlink:href="#NoC4Ehkpld1aRqc7tfnv_pad-2" x="1350" y="2130"/><use xlink:href="#NoC4Ehkpld1aRqc7tfnv_pad-2" x="1350" y="2030"/><use xlink:href="#NoC4Ehkpld1aRqc7tfnv_pad-2" x="1350" y="1930"/><use xlink:href="#NoC4Ehkpld1aRqc7tfnv_pad-2" x="1350" y="1830"/><use xlink:href="#NoC4Ehkpld1aRqc7tfnv_pad-2" x="1350" y="1730"/><use xlink:href="#NoC4Ehkpld1aRqc7tfnv_pad-2" x="1350" y="1630"/><use xlink:href="#NoC4Ehkpld1aRqc7tfnv_pad-2" x="1350" y="1530"/><use xlink:href="#NoC4Ehkpld1aRqc7tfnv_pad-2" x="1050" y="1530"/><use xlink:href="#NoC4Ehkpld1aRqc7tfnv_pad-2" x="1050" y="1630"/><use xlink:href="#NoC4Ehkpld1aRqc7tfnv_pad-2" x="1050" y="1730"/><use xlink:href="#NoC4Ehkpld1aRqc7tfnv_pad-2" x="1050" y="1830"/><use xlink:href="#NoC4Ehkpld1aRqc7tfnv_pad-2" x="1050" y="1930"/><use xlink:href="#NoC4Ehkpld1aRqc7tfnv_pad-2" x="1050" y="2030"/><use xlink:href="#NoC4Ehkpld1aRqc7tfnv_pad-2" x="1050" y="2130"/><use xlink:href="#NoC4Ehkpld1aRqc7tfnv_pad-2" x="1050" y="2230"/><use xlink:href="#NoC4Ehkpld1aRqc7tfnv_pad-2" x="1050" y="2330"/><use xlink:href="#NoC4Ehkpld1aRqc7tfnv_pad-2" x="1050" y="2430"/><use xlink:href="#NoC4Ehkpld1aRqc7tfnv_pad-2" x="1050" y="2530"/><use xlink:href="#NoC4Ehkpld1aRqc7tfnv_pad-2" x="1050" y="2630"/><use xlink:href="#NoC4Ehkpld1aRqc7tfnv_pad-2" x="1050" y="2730"/><use xlink:href="#NoC4Ehkpld1aRqc7tfnv_pad-2" x="1050" y="2830"/><use xlink:href="#NoC4Ehkpld1aRqc7tfnv_pad-2" x="650" y="2740"/><use xlink:href="#NoC4Ehkpld1aRqc7tfnv_pad-2" x="650" y="2610"/><use xlink:href="#NoC4Ehkpld1aRqc7tfnv_pad-2" x="570" y="2440"/><use xlink:href="#NoC4Ehkpld1aRqc7tfnv_pad-2" x="570" y="2240"/><use xlink:href="#NoC4Ehkpld1aRqc7tfnv_pad-2" x="650" y="2070"/><use xlink:href="#NoC4Ehkpld1aRqc7tfnv_pad-2" x="650" y="1940"/><use xlink:href="#NoC4Ehkpld1aRqc7tfnv_pad-2" x="830" y="1920"/><use xlink:href="#NoC4Ehkpld1aRqc7tfnv_pad-2" x="830" y="2120"/><use xlink:href="#NoC4Ehkpld1aRqc7tfnv_pad-2" x="570" y="1770"/><use xlink:href="#NoC4Ehkpld1aRqc7tfnv_pad-2" x="570" y="1570"/><use xlink:href="#NoC4Ehkpld1aRqc7tfnv_pad-2" x="200" y="1570"/><use xlink:href="#NoC4Ehkpld1aRqc7tfnv_pad-2" x="200" y="1770"/><use xlink:href="#NoC4Ehkpld1aRqc7tfnv_pad-2" x="150" y="1940"/><use xlink:href="#NoC4Ehkpld1aRqc7tfnv_pad-2" x="150" y="2070"/><use xlink:href="#NoC4Ehkpld1aRqc7tfnv_pad-2" x="200" y="2240"/><use xlink:href="#NoC4Ehkpld1aRqc7tfnv_pad-2" x="200" y="2440"/><use xlink:href="#NoC4Ehkpld1aRqc7tfnv_pad-2" x="150" y="2610"/><use xlink:href="#NoC4Ehkpld1aRqc7tfnv_pad-2" x="150" y="2740"/><use xlink:href="#NoC4Ehkpld1aRqc7tfnv_pad-2" x="205" y="2910"/><use xlink:href="#NoC4Ehkpld1aRqc7tfnv_pad-2" x="570" y="2910"/><use xlink:href="#NoC4Ehkpld1aRqc7tfnv_pad-2" x="570" y="3110"/><use xlink:href="#NoC4Ehkpld1aRqc7tfnv_pad-2" x="205" y="3110"/><use xlink:href="#NoC4Ehkpld1aRqc7tfnv_pad-3" x="150" y="150"/><use xlink:href="#NoC4Ehkpld1aRqc7tfnv_pad-3" x="1950" y="150"/><use xlink:href="#NoC4Ehkpld1aRqc7tfnv_pad-3" x="150" y="3350"/><use xlink:href="#NoC4Ehkpld1aRqc7tfnv_pad-3" x="1950" y="3350"/></g><clipPath id="z4QeCu4L9m9IoNXxfRWU_top_outline"><path d="M 2150 3555 2150 -50 -50 -50 -50 3555 2150 3555" fill="none" stroke-width="10"/></clipPath><mask id="z4QeCu4L9m9IoNXxfRWU_top_mech-mask"><g fill="#000" stroke="#000"><rect x="-50" y="-50" width="2200" height="3605" fill="#fff"/><use xlink:href="#z4QeCu4L9m9IoNXxfRWU_top_drill1"/></g></mask><mask id="z4QeCu4L9m9IoNXxfRWU_top_cf-mask"><g fill="#fff" stroke="#fff"><use xlink:href="#z4QeCu4L9m9IoNXxfRWU_top_soldermask"/></g></mask><mask id="z4QeCu4L9m9IoNXxfRWU_top_sm-mask"><g fill="#000" stroke="#000"><rect x="-50" y="-50" width="2200" height="3605" fill="#fff"/><use xlink:href="#z4QeCu4L9m9IoNXxfRWU_top_soldermask"/></g></mask></defs><g transform="translate(0,3505) scale(1,-1)"><g mask="url(#z4QeCu4L9m9IoNXxfRWU_top_mech-mask)" clip-path="url(#z4QeCu4L9m9IoNXxfRWU_top_outline)"><rect x="-50" y="-50" width="2200" height="3605" fill="currentColor" class="z4QeCu4L9m9IoNXxfRWU_fr4"/><use xlink:href="#z4QeCu4L9m9IoNXxfRWU_top_copper" fill="currentColor" stroke="currentColor" class="z4QeCu4L9m9IoNXxfRWU_cu"/><use xlink:href="#z4QeCu4L9m9IoNXxfRWU_top_copper" fill="currentColor" stroke="currentColor" class="z4QeCu4L9m9IoNXxfRWU_cf" mask="url(#z4QeCu4L9m9IoNXxfRWU_top_cf-mask)"/><g mask="url(#z4QeCu4L9m9IoNXxfRWU_top_sm-mask)"><rect x="-50" y="-50" width="2200" height="3605" fill="currentColor" class="z4QeCu4L9m9IoNXxfRWU_sm"/><use xlink:href="#z4QeCu4L9m9IoNXxfRWU_top_silkscreen" fill="currentColor" stroke="currentColor" class="z4QeCu4L9m9IoNXxfRWU_ss"/></g></g></g></svg>