<svg version="1.1" xmlns="http://www.w3.org/2000/svg" xmlns:xlink="http://www.w3.org/1999/xlink" stroke-linecap="round" stroke-linejoin="round" stroke-width="0" fill-rule="evenodd" clip-rule="evenodd" id="z4QeCu4L9m9IoNXxfRWU_bottom" viewBox="-50 -50 2200 3605" width="2.2in" height="3.605in" class="w-100 h-100"><defs><style>.z4QeCu4L9m9IoNXxfRWU_fr4 {color: #666666;}
.z4QeCu4L9m9IoNXxfRWU_cu {color: #cccccc;}
.z4QeCu4L9m9IoNXxfRWU_cf {color: #cc9933;}
.z4QeCu4L9m9IoNXxfRWU_sm {color: #004200; opacity: 0.75;}
.z4QeCu4L9m9IoNXxfRWU_ss {color: #ffffff;}
.z4QeCu4L9m9IoNXxfRWU_sp {color: #999999;}
.z4QeCu4L9m9IoNXxfRWU_out {color: #000000;}</style><circle cx="0" cy="0" r="34" id="DaRyf9Wq-a2VjVkKv6qU_pad-11"/><rect x="-34" y="-34" width="68" height="68" id="DaRyf9Wq-a2VjVkKv6qU_pad-12"/><rect x="-34" y="-34" width="68" height="68" id="DaRyf9Wq-a2VjVkKv6qU_pad-13"/><circle cx="0" cy="0" r="29" id="DaRyf9Wq-a2VjVkKv6qU_pad-14"/><circle cx="0" cy="0" r="30" id="bhXHhKnF8CRiHwPBpOFS_pad-15"/><rect x="-30" y="-30" width="60" height="60" id="bhXHhKnF8CRiHwPBpOFS_pad-16"/><rect x="-30" y="-30" width="60" height="60" id="bhXHhKnF8CRiHwPBpOFS_pad-17"/><circle cx="0" cy="0" r="25" id="bhXHhKnF8CRiHwPBpOFS_pad-18"/><circle cx="0" cy="0" r="14" id="NoC4Ehkpld1aRqc7tfnv_pad-1"/><circle cx="0" cy="0" r="15" id="NoC4Ehkpld1aRqc7tfnv_pad-2"/><circle cx="0" cy="0" r="59.055" id="NoC4Ehkpld1aRqc7tfnv_pad-3"/><g id="z4QeCu4L9m9IoNXxfRWU_bottom_soldermask"><use xlink:href="#DaRyf9Wq-a2VjVkKv6qU_pad-11" x="2040" y="370"/><use xlink:href="#DaRyf9Wq-a2VjVkKv6qU_pad-11" x="1940" y="370"/><use xlink:href="#DaRyf9Wq-a2VjVkKv6qU_pad-11" x="1840" y="370"/><use xlink:href="#DaRyf9Wq-a2VjVkKv6qU_pad-11" x="1740" y="370"/><use xlink:href="#DaRyf9Wq-a2VjVkKv6qU_pad-11" x="1640" y="370"/><use xlink:href="#DaRyf9Wq-a2VjVkKv6qU_pad-11" x="1540" y="370"/><use xlink:href="#DaRyf9Wq-a2VjVkKv6qU_pad-11" x="1440" y="370"/><use xlink:href="#DaRyf9Wq-a2VjVkKv6qU_pad-11" x="1340" y="370"/><use xlink:href="#DaRyf9Wq-a2VjVkKv6qU_pad-11" x="1640" y="1370"/><use xlink:href="#DaRyf9Wq-a2VjVkKv6qU_pad-11" x="1540" y="1370"/><use xlink:href="#DaRyf9Wq-a2VjVkKv6qU_pad-11" x="1440" y="1370"/><use xlink:href="#DaRyf9Wq-a2VjVkKv6qU_pad-11" x="1340" y="1370"/><use xlink:href="#DaRyf9Wq-a2VjVkKv6qU_pad-11" x="1240" y="1370"/><use xlink:href="#DaRyf9Wq-a2VjVkKv6qU_pad-11" x="830" y="1920"/><use xlink:href="#DaRyf9Wq-a2VjVkKv6qU_pad-11" x="950" y="510"/><use xlink:href="#DaRyf9Wq-a2VjVkKv6qU_pad-11" x="1050" y="510"/><use xlink:href="#DaRyf9Wq-a2VjVkKv6qU_pad-11" x="1600" y="2860"/><use xlink:href="#DaRyf9Wq-a2VjVkKv6qU_pad-11" x="1600" y="2760"/><use xlink:href="#DaRyf9Wq-a2VjVkKv6qU_pad-11" x="1600" y="2660"/><use xlink:href="#DaRyf9Wq-a2VjVkKv6qU_pad-11" x="1600" y="2560"/><use xlink:href="#DaRyf9Wq-a2VjVkKv6qU_pad-11" x="1600" y="2460"/><use xlink:href="#DaRyf9Wq-a2VjVkKv6qU_pad-11" x="1700" y="2260"/><use xlink:href="#DaRyf9Wq-a2VjVkKv6qU_pad-11" x="1700" y="2160"/><use xlink:href="#DaRyf9Wq-a2VjVkKv6qU_pad-11" x="1700" y="2060"/><use xlink:href="#DaRyf9Wq-a2VjVkKv6qU_pad-11" x="1700" y="1960"/><use xlink:href="#DaRyf9Wq-a2VjVkKv6qU_pad-11" x="1700" y="1860"/><use xlink:href="#DaRyf9Wq-a2VjVkKv6qU_pad-11" x="1700" y="1760"/><use xlink:href="#DaRyf9Wq-a2VjVkKv6qU_pad-11" x="1700" y="1660"/><use xlink:href="#DaRyf9Wq-a2VjVkKv6qU_pad-11" x="1700" y="1560"/><use xlink:href="#DaRyf9Wq-a2VjVkKv6qU_pad-11" x="1600" y="1560"/><use xlink:href="#DaRyf9Wq-a2VjVkKv6qU_pad-11" x="1600" y="1660"/><use xlink:href="#DaRyf9Wq-a2VjVkKv6qU_pad-11" x="1600" y="1760"/><use xlink:href="#DaRyf9Wq-a2VjVkKv6qU_pad-11" x="1600" y="1860"/><use xlink:href="#DaRyf9Wq-a2VjVkKv6qU_pad-11" x="1600" y="1960"/><use xlink:href="#DaRyf9Wq-a2VjVkKv6qU_pad-11" x="1600" y="2060"/><use xlink:href="#DaRyf9Wq-a2VjVkKv6qU_pad-11" x="1600" y="2160"/><use xlink:href="#DaRyf9Wq-a2VjVkKv6qU_pad-11" x="1350" y="2630"/><use xlink:href="#DaRyf9Wq-a2VjVkKv6qU_pad-11" x="1350" y="2230"/><use xlink:href="#DaRyf9Wq-a2VjVkKv6qU_pad-11" x="1350" y="1830"/><use xlink:href="#DaRyf9Wq-a2VjVkKv6qU_pad-11" x="1350" y="2830"/><use xlink:href="#DaRyf9Wq-a2VjVkKv6qU_pad-11" x="1350" y="2730"/><use xlink:href="#DaRyf9Wq-a2VjVkKv6qU_pad-11" x="1350" y="2430"/><use xlink:href="#DaRyf9Wq-a2VjVkKv6qU_pad-11" x="1350" y="2330"/><use xlink:href="#DaRyf9Wq-a2VjVkKv6qU_pad-11" x="1350" y="2130"/><use xlink:href="#DaRyf9Wq-a2VjVkKv6qU_pad-11" x="1350" y="2030"/><use xlink:href="#DaRyf9Wq-a2VjVkKv6qU_pad-11" x="1350" y="1730"/><use xlink:href="#DaRyf9Wq-a2VjVkKv6qU_pad-11" x="1350" y="1630"/><use xlink:href="#DaRyf9Wq-a2VjVkKv6qU_pad-11" x="1350" y="1530"/><use xlink:href="#DaRyf9Wq-a2VjVkKv6qU_pad-11" x="1350" y="2530"/><use xlink:href="#DaRyf9Wq-a2VjVkKv6qU_pad-11" x="1350" y="1930"/><use xlink:href="#DaRyf9Wq-a2VjVkKv6qU_pad-11" x="1050" y="1530"/><use xlink:href="#DaRyf9Wq-a2VjVkKv6qU_pad-11" x="1050" y="2730"/><use xlink:href="#DaRyf9Wq-a2VjVkKv6qU_pad-11" x="1050" y="2630"/><use xlink:href="#DaRyf9Wq-a2VjVkKv6qU_pad-11" x="1050" y="2530"/><use xlink:href="#DaRyf9Wq-a2VjVkKv6qU_pad-11" x="1050" y="2430"/><use xlink:href="#DaRyf9Wq-a2VjVkKv6qU_pad-11" x="1050" y="2330"/><use xlink:href="#DaRyf9Wq-a2VjVkKv6qU_pad-11" x="1050" y="2230"/><use xlink:href="#DaRyf9Wq-a2VjVkKv6qU_pad-11" x="1050" y="2130"/><use xlink:href="#DaRyf9Wq-a2VjVkKv6qU_pad-11" x="1050" y="2030"/><use xlink:href="#DaRyf9Wq-a2VjVkKv6qU_pad-11" x="1050" y="1930"/><use xlink:href="#DaRyf9Wq-a2VjVkKv6qU_pad-11" x="1050" y="1830"/><use xlink:href="#DaRyf9Wq-a2VjVkKv6qU_pad-11" x="1050" y="1730"/><use xlink:href="#DaRyf9Wq-a2VjVkKv6qU_pad-11" x="1050" y="1630"/><use xlink:href="#DaRyf9Wq-a2VjVkKv6qU_pad-11" x="410" y="360"/><use xlink:href="#DaRyf9Wq-a2VjVkKv6qU_pad-11" x="410" y="260"/><use xlink:href="#DaRyf9Wq-a2VjVkKv6qU_pad-11" x="910" y="700"/><use xlink:href="#DaRyf9Wq-a2VjVkKv6qU_pad-11" x="780" y="700"/><use xlink:href="#DaRyf9Wq-a2VjVkKv6qU_pad-11" x="150" y="730"/><use xlink:href="#DaRyf9Wq-a2VjVkKv6qU_pad-11" x="150" y="1400"/><use xlink:href="#DaRyf9Wq-a2VjVkKv6qU_pad-11" x="150" y="2070"/><use xlink:href="#DaRyf9Wq-a2VjVkKv6qU_pad-11" x="150" y="2740"/><use xlink:href="#DaRyf9Wq-a2VjVkKv6qU_pad-11" x="150" y="600"/><use xlink:href="#DaRyf9Wq-a2VjVkKv6qU_pad-11" x="150" y="1270"/><use xlink:href="#DaRyf9Wq-a2VjVkKv6qU_pad-11" x="150" y="1940"/><use xlink:href="#DaRyf9Wq-a2VjVkKv6qU_pad-11" x="150" y="2610"/><use xlink:href="#DaRyf9Wq-a2VjVkKv6qU_pad-11" x="1010" y="220"/><use xlink:href="#DaRyf9Wq-a2VjVkKv6qU_pad-11" x="810" y="220"/><use xlink:href="#DaRyf9Wq-a2VjVkKv6qU_pad-11" x="570" y="1100"/><use xlink:href="#DaRyf9Wq-a2VjVkKv6qU_pad-11" x="570" y="1770"/><use xlink:href="#DaRyf9Wq-a2VjVkKv6qU_pad-11" x="570" y="2440"/><use xlink:href="#DaRyf9Wq-a2VjVkKv6qU_pad-11" x="570" y="3110"/><use xlink:href="#DaRyf9Wq-a2VjVkKv6qU_pad-11" x="200" y="900"/><use xlink:href="#DaRyf9Wq-a2VjVkKv6qU_pad-11" x="200" y="1570"/><use xlink:href="#DaRyf9Wq-a2VjVkKv6qU_pad-11" x="200" y="2240"/><use xlink:href="#DaRyf9Wq-a2VjVkKv6qU_pad-11" x="205" y="2910"/><use xlink:href="#DaRyf9Wq-a2VjVkKv6qU_pad-11" x="1050" y="1190"/><use xlink:href="#DaRyf9Wq-a2VjVkKv6qU_pad-11" x="1050" y="860"/><use xlink:href="#DaRyf9Wq-a2VjVkKv6qU_pad-11" x="150" y="150"/><use xlink:href="#DaRyf9Wq-a2VjVkKv6qU_pad-11" x="150" y="3350"/><use xlink:href="#DaRyf9Wq-a2VjVkKv6qU_pad-11" x="1950" y="150"/><use xlink:href="#DaRyf9Wq-a2VjVkKv6qU_pad-11" x="1950" y="3350"/><use xlink:href="#DaRyf9Wq-a2VjVkKv6qU_pad-12" x="1240" y="370"/><use xlink:href="#DaRyf9Wq-a2VjVkKv6qU_pad-12" x="850" y="510"/><use xlink:href="#DaRyf9Wq-a2VjVkKv6qU_pad-12" x="650" y="730"/><use xlink:href="#DaRyf9Wq-a2VjVkKv6qU_pad-12" x="650" y="1400"/><use xlink:href="#DaRyf9Wq-a2VjVkKv6qU_pad-12" x="650" y="2070"/><use xlink:href="#DaRyf9Wq-a2VjVkKv6qU_pad-12" x="650" y="2740"/><use xlink:href="#DaRyf9Wq-a2VjVkKv6qU_pad-12" x="650" y="600"/><use xlink:href="#DaRyf9Wq-a2VjVkKv6qU_pad-12" x="650" y="1270"/><use xlink:href="#DaRyf9Wq-a2VjVkKv6qU_pad-12" x="650" y="1940"/><use xlink:href="#DaRyf9Wq-a2VjVkKv6qU_pad-12" x="650" y="2610"/><use xlink:href="#DaRyf9Wq-a2VjVkKv6qU_pad-12" x="610" y="220"/><use xlink:href="#DaRyf9Wq-a2VjVkKv6qU_pad-13" x="830" y="2120"/><use xlink:href="#DaRyf9Wq-a2VjVkKv6qU_pad-13" x="1600" y="2960"/><use xlink:href="#DaRyf9Wq-a2VjVkKv6qU_pad-13" x="1600" y="2260"/><use xlink:href="#DaRyf9Wq-a2VjVkKv6qU_pad-13" x="1050" y="2830"/><use xlink:href="#DaRyf9Wq-a2VjVkKv6qU_pad-13" x="410" y="460"/><use xlink:href="#DaRyf9Wq-a2VjVkKv6qU_pad-13" x="910" y="1200"/><use xlink:href="#DaRyf9Wq-a2VjVkKv6qU_pad-13" x="780" y="1200"/><use xlink:href="#DaRyf9Wq-a2VjVkKv6qU_pad-13" x="570" y="900"/><use xlink:href="#DaRyf9Wq-a2VjVkKv6qU_pad-13" x="570" y="1570"/><use xlink:href="#DaRyf9Wq-a2VjVkKv6qU_pad-13" x="570" y="2240"/><use xlink:href="#DaRyf9Wq-a2VjVkKv6qU_pad-13" x="570" y="2910"/><use xlink:href="#DaRyf9Wq-a2VjVkKv6qU_pad-13" x="200" y="1100"/><use xlink:href="#DaRyf9Wq-a2VjVkKv6qU_pad-13" x="200" y="1770"/><use xlink:href="#DaRyf9Wq-a2VjVkKv6qU_pad-13" x="200" y="2440"/><use xlink:href="#DaRyf9Wq-a2VjVkKv6qU_pad-13" x="205" y="3110"/><use xlink:href="#DaRyf9Wq-a2VjVkKv6qU_pad-13" x="1050" y="990"/><use xlink:href="#DaRyf9Wq-a2VjVkKv6qU_pad-13" x="1050" y="660"/><use xlink:href="#DaRyf9Wq-a2VjVkKv6qU_pad-14" x="550" y="2740"/><use xlink:href="#DaRyf9Wq-a2VjVkKv6qU_pad-14" x="570" y="1400"/></g><g id="z4QeCu4L9m9IoNXxfRWU_bottom_copper"><path d="M 1490 920 1490 1490 M 1947.25 462.75 1947.25 462.75 M 1490 920 1947.25 462.75 2040 370 M 1450 1530 1487.07 1492.93 1490 1490 M 1350 2030 1362.94 2017.06 M 1300 2080 1350 2030 M 1010 220 1210 220 M 1353.01 364.48 1354.48 364.48 M 1330.68 342.15 1353.01 364.48 M 1330.68 340.68 1330.68 342.15 M 1210 220 1330.68 340.68 M 1350 1530 1450 1530 M 1501.42 1575 1516.41 1560 M 1311.36 1575 1501.42 1575 M 1050 1313.64 1311.36 1575 M 1516.41 1560 1600 1560 M 1050 1190 1050 1313.64 M 910 670 925 685 1050 810 M 1458.64 2085 1458.64 2085 M 1358.64 2185 1358.64 2221.36 M 1358.64 2185 1458.64 2085 1495 2048.64 M 1350 2230 1355 2235 M 1250 2130 1350 2230 1358.64 2221.36 M 1030 2080 1300 2080 M 1355 2235 1495 2235 M 1050 2130 1250 2130 M 1287.96 2852.96 1395 2960 M 1287.96 2667.96 1287.96 2852.96 M 1395 2960 1600 2960 M 570 1270 570 1400 M 200 900 570 1270 M 867.47 2512.54 1050 2330 M 867.47 2512.54 867.47 2632.03 M 694.5 2805 867.47 2632.03 M 483.79 2805 694.5 2805 M 105 2426.21 483.79 2805 M 105 1665 105 2426.21 M 105 1665 200 1570 M 200 2440 225 2465 225 2471.57 538.43 2785 686.21 2785 843.32 2627.89 M 843.32 2436.68 843.32 2627.89 M 843.32 2436.68 1050 2230 M 525 1983.79 525 2595 M 525 1983.79 678.79 1830 M 525 2595 550 2620 550 2740 M 1168.64 1975 1458.64 1975 1495 2011.36 1495 2048.64 M 1068.64 1875 1168.64 1975 M 990 2120 1030 2080 M 990 2120 990 2160 1050 2220 1050 2230 M 1600 2260 1700 2260 M 1520 2260 1600 2260 M 650 1940 650 2070 M 650 1895 650 1940 M 650 1400 650 1445 M 650 1270 650 1400 M 678.79 1830 1050 1830 M 650 1895 690 1855 869.32 1855 889.32 1875 1068.64 1875 M 1058.64 1775 1095 1811.36 M 980 1775 1058.64 1775 M 650 1445 980 1775 M 1068.64 1875 1095 1848.64 M 1095 1811.36 1095 1848.64 M 1350 1730 1460 1730 1590 1860 1600 1860 M 1050 2430 1287.96 2667.96 M 1495 2235 1520 2260 M 650 2070 665 2055 M 650 2070 650 2610 M 1520 2260 1520 2380 1600 2460 M 410 260 650 500 650 600 M 1010 220 1010 450 M 950 510 1010 450 M 910 700 925 685 M 910 600 950 560 M 950 510 950 560 M 990 920 990 1130 M 990 920 1050 860 M 1050 810 1050 860 M 990 1130 1050 1190 M 970 1270 1050 1190 M 650 1270 970 1270 M 700 650 860 650 910 600 M 650 600 700 650 M 650 600 650 730 M 650 2610 650 2740 M 910 600 910 670" fill="none" stroke-width="10"/><use xlink:href="#bhXHhKnF8CRiHwPBpOFS_pad-15" x="2040" y="370"/><use xlink:href="#bhXHhKnF8CRiHwPBpOFS_pad-15" x="1940" y="370"/><use xlink:href="#bhXHhKnF8CRiHwPBpOFS_pad-15" x="1840" y="370"/><use xlink:href="#bhXHhKnF8CRiHwPBpOFS_pad-15" x="1740" y="370"/><use xlink:href="#bhXHhKnF8CRiHwPBpOFS_pad-15" x="1640" y="370"/><use xlink:href="#bhXHhKnF8CRiHwPBpOFS_pad-15" x="1540" y="370"/><use xlink:href="#bhXHhKnF8CRiHwPBpOFS_pad-15" x="1440" y="370"/><use xlink:href="#bhXHhKnF8CRiHwPBpOFS_pad-15" x="1340" y="370"/><use xlink:href="#bhXHhKnF8CRiHwPBpOFS_pad-15" x="1640" y="1370"/><use xlink:href="#bhXHhKnF8CRiHwPBpOFS_pad-15" x="1540" y="1370"/><use xlink:href="#bhXHhKnF8CRiHwPBpOFS_pad-15" x="1440" y="1370"/><use xlink:href="#bhXHhKnF8CRiHwPBpOFS_pad-15" x="1340" y="1370"/><use xlink:href="#bhXHhKnF8CRiHwPBpOFS_pad-15" x="1240" y="1370"/><use xlink:href="#bhXHhKnF8CRiHwPBpOFS_pad-15" x="830" y="1920"/><use xlink:href="#bhXHhKnF8CRiHwPBpOFS_pad-15" x="950" y="510"/><use xlink:href="#bhXHhKnF8CRiHwPBpOFS_pad-15" x="1050" y="510"/><use xlink:href="#bhXHhKnF8CRiHwPBpOFS_pad-15" x="1600" y="2860"/><use xlink:href="#bhXHhKnF8CRiHwPBpOFS_pad-15" x="1600" y="2760"/><use xlink:href="#bhXHhKnF8CRiHwPBpOFS_pad-15" x="1600" y="2660"/><use xlink:href="#bhXHhKnF8CRiHwPBpOFS_pad-15" x="1600" y="2560"/><use xlink:href="#bhXHhKnF8CRiHwPBpOFS_pad-15" x="1600" y="2460"/><use xlink:href="#bhXHhKnF8CRiHwPBpOFS_pad-15" x="1700" y="2260"/><use xlink:href="#bhXHhKnF8CRiHwPBpOFS_pad-15" x="1700" y="2160"/><use xlink:href="#bhXHhKnF8CRiHwPBpOFS_pad-15" x="1700" y="2060"/><use xlink:href="#bhXHhKnF8CRiHwPBpOFS_pad-15" x="1700" y="1960"/><use xlink:href="#bhXHhKnF8CRiHwPBpOFS_pad-15" x="1700" y="1860"/><use xlink:href="#bhXHhKnF8CRiHwPBpOFS_pad-15" x="1700" y="1760"/><use xlink:href="#bhXHhKnF8CRiHwPBpOFS_pad-15" x="1700" y="1660"/><use xlink:href="#bhXHhKnF8CRiHwPBpOFS_pad-15" x="1700" y="1560"/><use xlink:href="#bhXHhKnF8CRiHwPBpOFS_pad-15" x="1600" y="1560"/><use xlink:href="#bhXHhKnF8CRiHwPBpOFS_pad-15" x="1600" y="1660"/><use xlink:href="#bhXHhKnF8CRiHwPBpOFS_pad-15" x="1600" y="1760"/><use xlink:href="#bhXHhKnF8CRiHwPBpOFS_pad-15" x="1600" y="1860"/><use xlink:href="#bhXHhKnF8CRiHwPBpOFS_pad-15" x="1600" y="1960"/><use xlink:href="#bhXHhKnF8CRiHwPBpOFS_pad-15" x="1600" y="2060"/><use xlink:href="#bhXHhKnF8CRiHwPBpOFS_pad-15" x="1600" y="2160"/><use xlink:href="#bhXHhKnF8CRiHwPBpOFS_pad-15" x="1350" y="2630"/><use xlink:href="#bhXHhKnF8CRiHwPBpOFS_pad-15" x="1350" y="2230"/><use xlink:href="#bhXHhKnF8CRiHwPBpOFS_pad-15" x="1350" y="1830"/><use xlink:href="#bhXHhKnF8CRiHwPBpOFS_pad-15" x="1350" y="2830"/><use xlink:href="#bhXHhKnF8CRiHwPBpOFS_pad-15" x="1350" y="2730"/><use xlink:href="#bhXHhKnF8CRiHwPBpOFS_pad-15" x="1350" y="2430"/><use xlink:href="#bhXHhKnF8CRiHwPBpOFS_pad-15" x="1350" y="2330"/><use xlink:href="#bhXHhKnF8CRiHwPBpOFS_pad-15" x="1350" y="2130"/><use xlink:href="#bhXHhKnF8CRiHwPBpOFS_pad-15" x="1350" y="2030"/><use xlink:href="#bhXHhKnF8CRiHwPBpOFS_pad-15" x="1350" y="1730"/><use xlink:href="#bhXHhKnF8CRiHwPBpOFS_pad-15" x="1350" y="1630"/><use xlink:href="#bhXHhKnF8CRiHwPBpOFS_pad-15" x="1350" y="1530"/><use xlink:href="#bhXHhKnF8CRiHwPBpOFS_pad-15" x="1350" y="2530"/><use xlink:href="#bhXHhKnF8CRiHwPBpOFS_pad-15" x="1350" y="1930"/><use xlink:href="#bhXHhKnF8CRiHwPBpOFS_pad-15" x="1050" y="1530"/><use xlink:href="#bhXHhKnF8CRiHwPBpOFS_pad-15" x="1050" y="2730"/><use xlink:href="#bhXHhKnF8CRiHwPBpOFS_pad-15" x="1050" y="2630"/><use xlink:href="#bhXHhKnF8CRiHwPBpOFS_pad-15" x="1050" y="2530"/><use xlink:href="#bhXHhKnF8CRiHwPBpOFS_pad-15" x="1050" y="2430"/><use xlink:href="#bhXHhKnF8CRiHwPBpOFS_pad-15" x="1050" y="2330"/><use xlink:href="#bhXHhKnF8CRiHwPBpOFS_pad-15" x="1050" y="2230"/><use xlink:href="#bhXHhKnF8CRiHwPBpOFS_pad-15" x="1050" y="2130"/><use xlink:href="#bhXHhKnF8CRiHwPBpOFS_pad-15" x="1050" y="2030"/><use xlink:href="#bhXHhKnF8CRiHwPBpOFS_pad-15" x="1050" y="1930"/><use xlink:href="#bhXHhKnF8CRiHwPBpOFS_pad-15" x="1050" y="1830"/><use xlink:href="#bhXHhKnF8CRiHwPBpOFS_pad-15" x="1050" y="1730"/><use xlink:href="#bhXHhKnF8CRiHwPBpOFS_pad-15" x="1050" y="1630"/><use xlink:href="#bhXHhKnF8CRiHwPBpOFS_pad-15" x="410" y="360"/><use xlink:href="#bhXHhKnF8CRiHwPBpOFS_pad-15" x="410" y="260"/><use xlink:href="#bhXHhKnF8CRiHwPBpOFS_pad-15" x="910" y="700"/><use xlink:href="#bhXHhKnF8CRiHwPBpOFS_pad-15" x="780" y="700"/><use xlink:href="#bhXHhKnF8CRiHwPBpOFS_pad-15" x="150" y="730"/><use xlink:href="#bhXHhKnF8CRiHwPBpOFS_pad-15" x="150" y="1400"/><use xlink:href="#bhXHhKnF8CRiHwPBpOFS_pad-15" x="150" y="2070"/><use xlink:href="#bhXHhKnF8CRiHwPBpOFS_pad-15" x="150" y="2740"/><use xlink:href="#bhXHhKnF8CRiHwPBpOFS_pad-15" x="150" y="600"/><use xlink:href="#bhXHhKnF8CRiHwPBpOFS_pad-15" x="150" y="1270"/><use xlink:href="#bhXHhKnF8CRiHwPBpOFS_pad-15" x="150" y="1940"/><use xlink:href="#bhXHhKnF8CRiHwPBpOFS_pad-15" x="150" y="2610"/><use xlink:href="#bhXHhKnF8CRiHwPBpOFS_pad-15" x="1010" y="220"/><use xlink:href="#bhXHhKnF8CRiHwPBpOFS_pad-15" x="810" y="220"/><use xlink:href="#bhXHhKnF8CRiHwPBpOFS_pad-15" x="570" y="1100"/><use xlink:href="#bhXHhKnF8CRiHwPBpOFS_pad-15" x="570" y="1770"/><use xlink:href="#bhXHhKnF8CRiHwPBpOFS_pad-15" x="570" y="2440"/><use xlink:href="#bhXHhKnF8CRiHwPBpOFS_pad-15" x="570" y="3110"/><use xlink:href="#bhXHhKnF8CRiHwPBpOFS_pad-15" x="200" y="900"/><use xlink:href="#bhXHhKnF8CRiHwPBpOFS_pad-15" x="200" y="1570"/><use xlink:href="#bhXHhKnF8CRiHwPBpOFS_pad-15" x="200" y="2240"/><use xlink:href="#bhXHhKnF8CRiHwPBpOFS_pad-15" x="205" y="2910"/><use xlink:href="#bhXHhKnF8CRiHwPBpOFS_pad-15" x="1050" y="1190"/><use xlink:href="#bhXHhKnF8CRiHwPBpOFS_pad-15" x="1050" y="860"/><use xlink:href="#bhXHhKnF8CRiHwPBpOFS_pad-15" x="150" y="150"/><use xlink:href="#bhXHhKnF8CRiHwPBpOFS_pad-15" x="150" y="3350"/><use xlink:href="#bhXHhKnF8CRiHwPBpOFS_pad-15" x="1950" y="150"/><use xlink:href="#bhXHhKnF8CRiHwPBpOFS_pad-15" x="1950" y="3350"/><use xlink:href="#bhXHhKnF8CRiHwPBpOFS_pad-16" x="1240" y="370"/><use xlink:href="#bhXHhKnF8CRiHwPBpOFS_pad-16" x="850" y="510"/><use xlink:href="#bhXHhKnF8CRiHwPBpOFS_pad-16" x="650" y="730"/><use xlink:href="#bhXHhKnF8CRiHwPBpOFS_pad-16" x="650" y="1400"/><use xlink:href="#bhXHhKnF8CRiHwPBpOFS_pad-16" x="650" y="2070"/><use xlink:href="#bhXHhKnF8CRiHwPBpOFS_pad-16" x="650" y="2740"/><use xlink:href="#bhXHhKnF8CRiHwPBpOFS_pad-16" x="650" y="600"/><use xlink:href="#bhXHhKnF8CRiHwPBpOFS_pad-16" x="650" y="1270"/><use xlink:href="#bhXHhKnF8CRiHwPBpOFS_pad-16" x="650" y="1940"/><use xlink:href="#bhXHhKnF8CRiHwPBpOFS_pad-16" x="650" y="2610"/><use xlink:href="#bhXHhKnF8CRiHwPBpOFS_pad-16" x="610" y="220"/><use xlink:href="#bhXHhKnF8CRiHwPBpOFS_pad-17" x="830" y="2120"/><use xlink:href="#bhXHhKnF8CRiHwPBpOFS_pad-17" x="1600" y="2960"/><use xlink:href="#bhXHhKnF8CRiHwPBpOFS_pad-17" x="1600" y="2260"/><use xlink:href="#bhXHhKnF8CRiHwPBpOFS_pad-17" x="1050" y="2830"/><use xlink:href="#bhXHhKnF8CRiHwPBpOFS_pad-17" x="410" y="460"/><use xlink:href="#bhXHhKnF8CRiHwPBpOFS_pad-17" x="910" y="1200"/><use xlink:href="#bhXHhKnF8CRiHwPBpOFS_pad-17" x="780" y="1200"/><use xlink:href="#bhXHhKnF8CRiHwPBpOFS_pad-17" x="570" y="900"/><use xlink:href="#bhXHhKnF8CRiHwPBpOFS_pad-17" x="570" y="1570"/><use xlink:href="#bhXHhKnF8CRiHwPBpOFS_pad-17" x="570" y="2240"/><use xlink:href="#bhXHhKnF8CRiHwPBpOFS_pad-17" x="570" y="2910"/><use xlink:href="#bhXHhKnF8CRiHwPBpOFS_pad-17" x="200" y="1100"/><use xlink:href="#bhXHhKnF8CRiHwPBpOFS_pad-17" x="200" y="1770"/><use xlink:href="#bhXHhKnF8CRiHwPBpOFS_pad-17" x="200" y="2440"/><use xlink:href="#bhXHhKnF8CRiHwPBpOFS_pad-17" x="205" y="3110"/><use xlink:href="#bhXHhKnF8CRiHwPBpOFS_pad-17" x="1050" y="990"/><use xlink:href="#bhXHhKnF8CRiHwPBpOFS_pad-17" x="1050" y="660"/><use xlink:href="#bhXHhKnF8CRiHwPBpOFS_pad-18" x="550" y="2740"/><use xlink:href="#bhXHhKnF8CRiHwPBpOFS_pad-18" x="570" y="1400"/></g><g id="z4QeCu4L9m9IoNXxfRWU_bottom_drill1"><use xlink:href="#NoC4Ehkpld1aRqc7tfnv_pad-1" x="570" y="1400"/><use xlink:href="#NoC4Ehkpld1aRqc7tfnv_pad-1" x="550" y="2740"/><use xlink:href="#NoC4Ehkpld1aRqc7tfnv_pad-2" x="410" y="260"/><use xlink:href="#NoC4Ehkpld1aRqc7tfnv_pad-2" x="410" y="360"/><use xlink:href="#NoC4Ehkpld1aRqc7tfnv_pad-2" x="410" y="460"/><use xlink:href="#NoC4Ehkpld1aRqc7tfnv_pad-2" x="650" y="600"/><use xlink:href="#NoC4Ehkpld1aRqc7tfnv_pad-2" x="650" y="730"/><use xlink:href="#NoC4Ehkpld1aRqc7tfnv_pad-2" x="780" y="700"/><use xlink:href="#NoC4Ehkpld1aRqc7tfnv_pad-2" x="910" y="700"/><use xlink:href="#NoC4Ehkpld1aRqc7tfnv_pad-2" x="1050" y="660"/><use xlink:href="#NoC4Ehkpld1aRqc7tfnv_pad-2" x="1050" y="510"/><use xlink:href="#NoC4Ehkpld1aRqc7tfnv_pad-2" x="950" y="510"/><use xlink:href="#NoC4Ehkpld1aRqc7tfnv_pad-2" x="850" y="510"/><use xlink:href="#NoC4Ehkpld1aRqc7tfnv_pad-2" x="810" y="220"/><use xlink:href="#NoC4Ehkpld1aRqc7tfnv_pad-2" x="1010" y="220"/><use xlink:href="#NoC4Ehkpld1aRqc7tfnv_pad-2" x="1240" y="370"/><use xlink:href="#NoC4Ehkpld1aRqc7tfnv_pad-2" x="1340" y="370"/><use xlink:href="#NoC4Ehkpld1aRqc7tfnv_pad-2" x="1050" y="860"/><use xlink:href="#NoC4Ehkpld1aRqc7tfnv_pad-2" x="1050" y="990"/><use xlink:href="#NoC4Ehkpld1aRqc7tfnv_pad-2" x="1050" y="1190"/><use xlink:href="#NoC4Ehkpld1aRqc7tfnv_pad-2" x="910" y="1200"/><use xlink:href="#NoC4Ehkpld1aRqc7tfnv_pad-2" x="780" y="1200"/><use xlink:href="#NoC4Ehkpld1aRqc7tfnv_pad-2" x="650" y="1270"/><use xlink:href="#NoC4Ehkpld1aRqc7tfnv_pad-2" x="650" y="1400"/><use xlink:href="#NoC4Ehkpld1aRqc7tfnv_pad-2" x="570" y="1100"/><use xlink:href="#NoC4Ehkpld1aRqc7tfnv_pad-2" x="570" y="900"/><use xlink:href="#NoC4Ehkpld1aRqc7tfnv_pad-2" x="200" y="900"/><use xlink:href="#NoC4Ehkpld1aRqc7tfnv_pad-2" x="200" y="1100"/><use xlink:href="#NoC4Ehkpld1aRqc7tfnv_pad-2" x="150" y="1270"/><use xlink:href="#NoC4Ehkpld1aRqc7tfnv_pad-2" x="150" y="1400"/><use xlink:href="#NoC4Ehkpld1aRqc7tfnv_pad-2" x="150" y="730"/><use xlink:href="#NoC4Ehkpld1aRqc7tfnv_pad-2" x="150" y="600"/><use xlink:href="#NoC4Ehkpld1aRqc7tfnv_pad-2" x="610" y="220"/><use xlink:href="#NoC4Ehkpld1aRqc7tfnv_pad-2" x="1240" y="1370"/><use xlink:href="#NoC4Ehkpld1aRqc7tfnv_pad-2" x="1340" y="1370"/><use xlink:href="#NoC4Ehkpld1aRqc7tfnv_pad-2" x="1440" y="1370"/><use xlink:href="#NoC4Ehkpld1aRqc7tfnv_pad-2" x="1540" y="1370"/><use xlink:href="#NoC4Ehkpld1aRqc7tfnv_pad-2" x="1640" y="1370"/><use xlink:href="#NoC4Ehkpld1aRqc7tfnv_pad-2" x="1640" y="370"/><use xlink:href="#NoC4Ehkpld1aRqc7tfnv_pad-2" x="1740" y="370"/><use xlink:href="#NoC4Ehkpld1aRqc7tfnv_pad-2" x="1840" y="370"/><use xlink:href="#NoC4Ehkpld1aRqc7tfnv_pad-2" x="1940" y="370"/><use xlink:href="#NoC4Ehkpld1aRqc7tfnv_pad-2" x="2040" y="370"/><use xlink:href="#NoC4Ehkpld1aRqc7tfnv_pad-2" x="1540" y="370"/><use xlink:href="#NoC4Ehkpld1aRqc7tfnv_pad-2" x="1440" y="370"/><use xlink:href="#NoC4Ehkpld1aRqc7tfnv_pad-2" x="1600" y="1560"/><use xlink:href="#NoC4Ehkpld1aRqc7tfnv_pad-2" x="1700" y="1560"/><use xlink:href="#NoC4Ehkpld1aRqc7tfnv_pad-2" x="1700" y="1660"/><use xlink:href="#NoC4Ehkpld1aRqc7tfnv_pad-2" x="1700" y="1760"/><use xlink:href="#NoC4Ehkpld1aRqc7tfnv_pad-2" x="1700" y="1860"/><use xlink:href="#NoC4Ehkpld1aRqc7tfnv_pad-2" x="1700" y="1960"/><use xlink:href="#NoC4Ehkpld1aRqc7tfnv_pad-2" x="1700" y="2060"/><use xlink:href="#NoC4Ehkpld1aRqc7tfnv_pad-2" x="1700" y="2160"/><use xlink:href="#NoC4Ehkpld1aRqc7tfnv_pad-2" x="1700" y="2260"/><use xlink:href="#NoC4Ehkpld1aRqc7tfnv_pad-2" x="1600" y="2260"/><use xlink:href="#NoC4Ehkpld1aRqc7tfnv_pad-2" x="1600" y="2160"/><use xlink:href="#NoC4Ehkpld1aRqc7tfnv_pad-2" x="1600" y="2060"/><use xlink:href="#NoC4Ehkpld1aRqc7tfnv_pad-2" x="1600" y="1960"/><use xlink:href="#NoC4Ehkpld1aRqc7tfnv_pad-2" x="1600" y="1860"/><use xlink:href="#NoC4Ehkpld1aRqc7tfnv_pad-2" x="1600" y="1760"/><use xlink:href="#NoC4Ehkpld1aRqc7tfnv_pad-2" x="1600" y="1660"/><use xlink:href="#NoC4Ehkpld1aRqc7tfnv_pad-2" x="1600" y="2460"/><use xlink:href="#NoC4Ehkpld1aRqc7tfnv_pad-2" x="1600" y="2560"/><use xlink:href="#NoC4Ehkpld1aRqc7tfnv_pad-2" x="1600" y="2660"/><use xlink:href="#NoC4Ehkpld1aRqc7tfnv_pad-2" x="1600" y="2760"/><use xlink:href="#NoC4Ehkpld1aRqc7tfnv_pad-2" x="1600" y="2860"/><use xlink:href="#NoC4Ehkpld1aRqc7tfnv_pad-2" x="1600" y="2960"/><use xlink:href="#NoC4Ehkpld1aRqc7tfnv_pad-2" x="1350" y="2830"/><use xlink:href="#NoC4Ehkpld1aRqc7tfnv_pad-2" x="1350" y="2730"/><use xlink:href="#NoC4Ehkpld1aRqc7tfnv_pad-2" x="1350" y="2630"/><use xlink:href="#NoC4Ehkpld1aRqc7tfnv_pad-2" x="1350" y="2530"/><use xlink:href="#NoC4Ehkpld1aRqc7tfnv_pad-2" x="1350" y="2430"/><use xlink:href="#NoC4Ehkpld1aRqc7tfnv_pad-2" x="1350" y="2330"/><use xlink:href="#NoC4Ehkpld1aRqc7tfnv_pad-2" x="1350" y="2230"/><use xlink:href="#NoC4Ehkpld1aRqc7tfnv_pad-2" x="1350" y="2130"/><use xlink:href="#NoC4Ehkpld1aRqc7tfnv_pad-2" x="1350" y="2030"/><use xlink:href="#NoC4Ehkpld1aRqc7tfnv_pad-2" x="1350" y="1930"/><use xlink:href="#NoC4Ehkpld1aRqc7tfnv_pad-2" x="1350" y="1830"/><use xlink:href="#NoC4Ehkpld1aRqc7tfnv_pad-2" x="1350" y="1730"/><use xlink:href="#NoC4Ehkpld1aRqc7tfnv_pad-2" x="1350" y="1630"/><use xlink:href="#NoC4Ehkpld1aRqc7tfnv_pad-2" x="1350" y="1530"/><use xlink:href="#NoC4Ehkpld1aRqc7tfnv_pad-2" x="1050" y="1530"/><use xlink:href="#NoC4Ehkpld1aRqc7tfnv_pad-2" x="1050" y="1630"/><use xlink:href="#NoC4Ehkpld1aRqc7tfnv_pad-2" x="1050" y="1730"/><use xlink:href="#NoC4Ehkpld1aRqc7tfnv_pad-2" x="1050" y="1830"/><use xlink:href="#NoC4Ehkpld1aRqc7tfnv_pad-2" x="1050" y="1930"/><use xlink:href="#NoC4Ehkpld1aRqc7tfnv_pad-2" x="1050" y="2030"/><use xlink:href="#NoC4Ehkpld1aRqc7tfnv_pad-2" x="1050" y="2130"/><use xlink:href="#NoC4Ehkpld1aRqc7tfnv_pad-2" x="1050" y="2230"/><use xlink:href="#NoC4Ehkpld1aRqc7tfnv_pad-2" x="1050" y="2330"/><use xlink:href="#NoC4Ehkpld1aRqc7tfnv_pad-2" x="1050" y="2430"/><use xlink:href="#NoC4Ehkpld1aRqc7tfnv_pad-2" x="1050" y="2530"/><use xlink:href="#NoC4Ehkpld1aRqc7tfnv_pad-2" x="1050" y="2630"/><use xlink:href="#NoC4Ehkpld1aRqc7tfnv_pad-2" x="1050" y="2730"/><use xlink:href="#NoC4Ehkpld1aRqc7tfnv_pad-2" x="1050" y="2830"/><use xlink:href="#NoC4Ehkpld1aRqc7tfnv_pad-2" x="650" y="2740"/><use xlink:href="#NoC4Ehkpld1aRqc7tfnv_pad-2" x="650" y="2610"/><use xlink:href="#NoC4Ehkpld1aRqc7tfnv_pad-2" x="570" y="2440"/><use xlink:href="#NoC4Ehkpld1aRqc7tfnv_pad-2" x="570" y="2240"/><use xlink:href="#NoC4Ehkpld1aRqc7tfnv_pad-2" x="650" y="2070"/><use xlink:href="#NoC4Ehkpld1aRqc7tfnv_pad-2" x="650" y="1940"/><use xlink:href="#NoC4Ehkpld1aRqc7tfnv_pad-2" x="830" y="1920"/><use xlink:href="#NoC4Ehkpld1aRqc7tfnv_pad-2" x="830" y="2120"/><use xlink:href="#NoC4Ehkpld1aRqc7tfnv_pad-2" x="570" y="1770"/><use xlink:href="#NoC4Ehkpld1aRqc7tfnv_pad-2" x="570" y="1570"/><use xlink:href="#NoC4Ehkpld1aRqc7tfnv_pad-2" x="200" y="1570"/><use xlink:href="#NoC4Ehkpld1aRqc7tfnv_pad-2" x="200" y="1770"/><use xlink:href="#NoC4Ehkpld1aRqc7tfnv_pad-2" x="150" y="1940"/><use xlink:href="#NoC4Ehkpld1aRqc7tfnv_pad-2" x="150" y="2070"/><use xlink:href="#NoC4Ehkpld1aRqc7tfnv_pad-2" x="200" y="2240"/><use xlink:href="#NoC4Ehkpld1aRqc7tfnv_pad-2" x="200" y="2440"/><use xlink:href="#NoC4Ehkpld1aRqc7tfnv_pad-2" x="150" y="2610"/><use xlink:href="#NoC4Ehkpld1aRqc7tfnv_pad-2" x="150" y="2740"/><use xlink:href="#NoC4Ehkpld1aRqc7tfnv_pad-2" x="205" y="2910"/><use xlink:href="#NoC4Ehkpld1aRqc7tfnv_pad-2" x="570" y="2910"/><use xlink:href="#NoC4Ehkpld1aRqc7tfnv_pad-2" x="570" y="3110"/><use xlink:href="#NoC4Ehkpld1aRqc7tfnv_pad-2" x="205" y="3110"/><use xlink:href="#NoC4Ehkpld1aRqc7tfnv_pad-3" x="150" y="150"/><use xlink:href="#NoC4Ehkpld1aRqc7tfnv_pad-3" x="1950" y="150"/><use xlink:href="#NoC4Ehkpld1aRqc7tfnv_pad-3" x="150" y="3350"/><use xlink:href="#NoC4Ehkpld1aRqc7tfnv_pad-3" x="1950" y="3350"/></g><clipPath id="z4QeCu4L9m9IoNXxfRWU_bottom_outline"><path d="M 2150 3555 2150 -50 -50 -50 -50 3555 2150 3555" fill="none" stroke-width="10"/></clipPath><mask id="z4QeCu4L9m9IoNXxfRWU_bottom_mech-mask"><g fill="#000" stroke="#000"><rect x="-50" y="-50" width="2200" height="3605" fill="#fff"/><use xlink:href="#z4QeCu4L9m9IoNXxfRWU_bottom_drill1"/></g></mask><mask id="z4QeCu4L9m9IoNXxfRWU_bottom_cf-mask"><g fill="#fff" stroke="#fff"><use xlink:href="#z4QeCu4L9m9IoNXxfRWU_bottom_soldermask"/></g></mask><mask id="z4QeCu4L9m9IoNXxfRWU_bottom_sm-mask"><g fill="#000" stroke="#000"><rect x="-50" y="-50" width="2200" height="3605" fill="#fff"/><use xlink:href="#z4QeCu4L9m9IoNXxfRWU_bottom_soldermask"/></g></mask></defs><g transform="translate(0,3505) scale(1,-1)"><g mask="url(#z4QeCu4L9m9IoNXxfRWU_bottom_mech-mask)" clip-path="url(#z4QeCu4L9m9IoNXxfRWU_bottom_outline)" transform="translate(2100,0) scale(-1,1)"><rect x="-50" y="-50" width="2200" height="3605" fill="currentColor" class="z4QeCu4L9m9IoNXxfRWU_fr4"/><use xlink:href="#z4QeCu4L9m9IoNXxfRWU_bottom_copper" fill="currentColor" stroke="currentColor" class="z4QeCu4L9m9IoNXxfRWU_cu"/><use xlink:href="#z4QeCu4L9m9IoNXxfRWU_bottom_copper" fill="currentColor" stroke="currentColor" class="z4QeCu4L9m9IoNXxfRWU_cf" mask="url(#z4QeCu4L9m9IoNXxfRWU_bottom_cf-mask)"/><g mask="url(#z4QeCu4L9m9IoNXxfRWU_bottom_sm-mask)"><rect x="-50" y="-50" width="2200" height="3605" fill="currentColor" class="z4QeCu4L9m9IoNXxfRWU_sm"/></g></g></g></svg>