<svg version="1.1" xmlns="http://www.w3.org/2000/svg" xmlns:xlink="http://www.w3.org/1999/xlink" stroke-linecap="round" stroke-linejoin="round" stroke-width="0" fill-rule="evenodd" clip-rule="evenodd" id="F4OWIhjZmxZA0PGwbLoZ_bottom" viewBox="-50 -50 2210 1900" width="2.21in" height="1.9in" class="w-100 h-100"><defs><style>.F4OWIhjZmxZA0PGwbLoZ_fr4 {color: #666666;}
.F4OWIhjZmxZA0PGwbLoZ_cu {color: #cccccc;}
.F4OWIhjZmxZA0PGwbLoZ_cf {color: #cc9933;}
.F4OWIhjZmxZA0PGwbLoZ_sm {color: #004200; opacity: 0.75;}
.F4OWIhjZmxZA0PGwbLoZ_ss {color: #ffffff;}
.F4OWIhjZmxZA0PGwbLoZ_sp {color: #999999;}
.F4OWIhjZmxZA0PGwbLoZ_out {color: #000000;}</style><rect x="-34" y="-34" width="68" height="68" id="RsV2mR_eCgXu3eAr8bZ8_pad-11"/><circle cx="0" cy="0" r="34" id="RsV2mR_eCgXu3eAr8bZ8_pad-12"/><circle cx="0" cy="0" r="35" id="RsV2mR_eCgXu3eAr8bZ8_pad-13"/><rect x="-35" y="-35" width="70" height="70" id="RsV2mR_eCgXu3eAr8bZ8_pad-14"/><rect x="-35" y="-35" width="70" height="70" id="RsV2mR_eCgXu3eAr8bZ8_pad-15"/><circle cx="0" cy="0" r="44" id="RsV2mR_eCgXu3eAr8bZ8_pad-16"/><rect x="-44" y="-44" width="88" height="88" id="RsV2mR_eCgXu3eAr8bZ8_pad-17"/><circle cx="0" cy="0" r="29" id="RsV2mR_eCgXu3eAr8bZ8_pad-18"/><mask id="vVTXruYjWAcpGeZTYXqD_clear-1" fill="#000" stroke="#000"><g><rect x="-50" y="-50" width="2210" height="1900" fill="#fff"/><path d="M 225 1745 115 1745 115 1635 225 1635 225 1745"/><path d="M 2015 1785.36 2000.3 1783.92 1986.16 1779.63 1973.13 1772.66 1961.71 1763.29 1952.34 1751.87 1945.37 1738.84 1941.08 1724.7 1939.64 1710 1941.08 1695.3 1945.37 1681.16 1952.34 1668.13 1961.71 1656.71 1973.13 1647.34 1986.16 1640.37 2000.3 1636.09 2015 1634.64 2029.7 1636.09 2043.84 1640.37 2056.87 1647.34 2068.29 1656.71 2077.66 1668.13 2084.63 1681.16 2088.92 1695.3 2090.36 1710 2088.92 1724.7 2084.63 1738.84 2077.66 1751.87 2068.29 1763.29 2056.87 1772.66 2043.84 1779.63 2029.7 1783.92 2015 1785.36"/><path d="M 470 1785.36 455.3 1783.92 441.16 1779.63 428.13 1772.66 416.71 1763.29 407.34 1751.87 400.37 1738.84 396.08 1724.7 394.64 1710 396.08 1695.3 400.37 1681.16 407.34 1668.13 416.71 1656.71 428.13 1647.34 441.16 1640.37 455.3 1636.09 470 1634.64 484.7 1636.09 498.84 1640.37 511.87 1647.34 523.29 1656.71 532.66 1668.13 539.63 1681.16 543.91 1695.3 545.36 1710 543.91 1724.7 539.63 1738.84 532.66 1751.87 523.29 1763.29 511.87 1772.66 498.84 1779.63 484.7 1783.92 470 1785.36"/><path d="M 1640 1596.4 1627.99 1594.82 1616.8 1590.18 1607.19 1582.81 1599.82 1573.2 1595.18 1562.01 1593.6 1550 1595.18 1537.99 1599.82 1526.8 1607.19 1517.19 1616.8 1509.82 1627.99 1505.18 1640 1503.6 1652.01 1505.18 1663.2 1509.82 1672.81 1517.19 1680.18 1526.8 1684.82 1537.99 1686.4 1550 1684.82 1562.01 1680.18 1573.2 1672.81 1582.81 1663.2 1590.18 1652.01 1594.82 1640 1596.4"/><path d="M 1540 1596.4 1527.99 1594.82 1516.8 1590.18 1507.19 1582.81 1499.82 1573.2 1495.18 1562.01 1493.6 1550 1495.18 1537.99 1499.82 1526.8 1507.19 1517.19 1516.8 1509.82 1527.99 1505.18 1540 1503.6 1552.01 1505.18 1563.2 1509.82 1572.81 1517.19 1580.18 1526.8 1584.82 1537.99 1586.4 1550 1584.82 1562.01 1580.18 1573.2 1572.81 1582.81 1563.2 1590.18 1552.01 1594.82 1540 1596.4"/><path d="M 1440 1596.4 1427.99 1594.82 1416.8 1590.18 1407.19 1582.81 1399.82 1573.2 1395.18 1562.01 1393.6 1550 1395.18 1537.99 1399.82 1526.8 1407.19 1517.19 1416.8 1509.82 1427.99 1505.18 1440 1503.6 1452.01 1505.18 1463.2 1509.82 1472.81 1517.19 1480.18 1526.8 1484.82 1537.99 1486.4 1550 1484.82 1562.01 1480.18 1573.2 1472.81 1582.81 1463.2 1590.18 1452.01 1594.82 1440 1596.4"/><path d="M 1340 1596.4 1327.99 1594.82 1316.8 1590.18 1307.19 1582.81 1299.82 1573.2 1295.18 1562.01 1293.6 1550 1295.18 1537.99 1299.82 1526.8 1307.19 1517.19 1316.8 1509.82 1327.99 1505.18 1340 1503.6 1352.01 1505.18 1363.2 1509.82 1372.81 1517.19 1380.18 1526.8 1384.82 1537.99 1386.4 1550 1384.82 1562.01 1380.18 1573.2 1372.81 1582.81 1363.2 1590.18 1352.01 1594.82 1340 1596.4"/><path d="M 1240 1596.4 1227.99 1594.82 1216.8 1590.18 1207.19 1582.81 1199.82 1573.2 1195.18 1562.01 1193.6 1550 1195.18 1537.99 1199.82 1526.8 1207.19 1517.19 1216.8 1509.82 1227.99 1505.18 1240 1503.6 1252.01 1505.18 1263.2 1509.82 1272.81 1517.19 1280.18 1526.8 1284.82 1537.99 1286.4 1550 1284.82 1562.01 1280.18 1573.2 1272.81 1582.81 1263.2 1590.18 1252.01 1594.82 1240 1596.4"/><path d="M 905 1591.4 892.99 1589.82 881.8 1585.18 872.19 1577.81 864.82 1568.2 860.18 1557.01 858.6 1545 860.18 1532.99 864.82 1521.8 872.19 1512.19 881.8 1504.82 892.99 1500.18 905 1498.6 917.01 1500.18 928.2 1504.82 937.81 1512.19 945.18 1521.8 949.82 1532.99 951.4 1545 949.82 1557.01 945.18 1568.2 937.81 1577.81 928.2 1585.18 917.01 1589.82 905 1591.4"/><path d="M 605 1591.4 592.99 1589.82 581.8 1585.18 572.19 1577.81 564.82 1568.2 560.18 1557.01 558.6 1545 560.18 1532.99 564.82 1521.8 572.19 1512.19 581.8 1504.82 592.99 1500.18 605 1498.6 617.01 1500.18 628.2 1504.82 637.81 1512.19 645.18 1521.8 649.82 1532.99 651.4 1545 649.82 1557.01 645.18 1568.2 637.81 1577.81 628.2 1585.18 617.01 1589.82 605 1591.4"/><path d="M 170 1545.48 155.64 1543.58 142.26 1538.04 130.77 1529.23 121.96 1517.74 116.42 1504.36 114.52 1490 116.42 1475.64 121.96 1462.26 130.77 1450.77 142.26 1441.96 155.64 1436.42 170 1434.53 184.36 1436.42 197.74 1441.96 209.23 1450.77 218.04 1462.26 223.58 1475.64 225.47 1490 223.58 1504.36 218.04 1517.74 209.23 1529.23 197.74 1538.04 184.36 1543.58 170 1545.48"/><path d="M 905 1491.4 892.99 1489.82 881.8 1485.18 872.19 1477.81 864.82 1468.2 860.18 1457.01 858.6 1445 860.18 1432.99 864.82 1421.8 872.19 1412.19 881.8 1404.82 892.99 1400.18 905 1398.6 917.01 1400.18 928.2 1404.82 937.81 1412.19 945.18 1421.8 949.82 1432.99 951.4 1445 949.82 1457.01 945.18 1468.2 937.81 1477.81 928.2 1485.18 917.01 1489.82 905 1491.4"/><path d="M 605 1491.4 592.99 1489.82 581.8 1485.18 572.19 1477.81 564.82 1468.2 560.18 1457.01 558.6 1445 560.18 1432.99 564.82 1421.8 572.19 1412.19 581.8 1404.82 592.99 1400.18 605 1398.6 617.01 1400.18 628.2 1404.82 637.81 1412.19 645.18 1421.8 649.82 1432.99 651.4 1445 649.82 1457.01 645.18 1468.2 637.81 1477.81 628.2 1485.18 617.01 1489.82 605 1491.4"/><path d="M 905 1391.4 892.99 1389.82 881.8 1385.18 872.19 1377.81 864.82 1368.2 860.18 1357.01 858.6 1345 860.18 1332.99 864.82 1321.8 872.19 1312.19 881.8 1304.82 892.99 1300.18 905 1298.6 917.01 1300.18 928.2 1304.82 937.81 1312.19 945.18 1321.8 949.82 1332.99 951.4 1345 949.82 1357.01 945.18 1368.2 937.81 1377.81 928.2 1385.18 917.01 1389.82 905 1391.4"/><path d="M 605 1391.4 592.99 1389.82 581.8 1385.18 572.19 1377.81 564.82 1368.2 560.18 1357.01 558.6 1345 560.18 1332.99 564.82 1321.8 572.19 1312.19 581.8 1304.82 592.99 1300.18 605 1298.6 617.01 1300.18 628.2 1304.82 637.81 1312.19 645.18 1321.8 649.82 1332.99 651.4 1345 649.82 1357.01 645.18 1368.2 637.81 1377.81 628.2 1385.18 617.01 1389.82 605 1391.4"/><path d="M 170 1340.43 156.95 1338.71 144.78 1333.68 138.34 1328.73 170 1297.07 201.66 1328.73 195.22 1333.68 183.05 1338.71 170 1340.43"/><path d="M 208.73 1321.66 177.07 1290 208.73 1258.34 213.68 1264.78 218.71 1276.95 220.43 1290 218.71 1303.05 213.68 1315.22 208.73 1321.66"/><path d="M 131.27 1321.66 126.32 1315.22 121.29 1303.05 119.57 1290 121.29 1276.95 126.32 1264.78 131.27 1258.34 162.93 1290 131.27 1321.66"/><path d="M 170 1282.93 138.34 1251.27 144.78 1246.33 156.95 1241.29 170 1239.57 183.05 1241.29 195.22 1246.33 201.66 1251.27 170 1282.93"/><path d="M 905 1291.4 892.99 1289.82 881.8 1285.18 872.19 1277.81 864.82 1268.2 860.18 1257.01 858.6 1245 859.77 1236.14 855.03 1233.8 829.42 1259.42 822.8 1263.84 815 1265.39 646.34 1265.39 645.18 1268.2 637.81 1277.81 628.2 1285.18 617.01 1289.82 605 1291.4 592.99 1289.82 581.8 1285.18 572.19 1277.81 564.82 1268.2 560.18 1257.01 558.6 1245 560.18 1232.99 564.82 1221.8 572.19 1212.19 581.8 1204.82 592.99 1200.18 605 1198.6 617.01 1200.18 628.2 1204.82 637.81 1212.19 645.18 1221.8 646.34 1224.61 806.55 1224.61 850.58 1180.58 857.2 1176.16 863.64 1174.88 866.33 1170.16 864.82 1168.2 860.18 1157.01 858.6 1145 860.18 1132.99 864.82 1121.8 866.3 1119.88 864.09 1115.39 843.45 1115.39 799.42 1159.42 792.8 1163.84 785 1165.39 646.34 1165.39 645.18 1168.2 637.81 1177.81 628.2 1185.18 617.01 1189.82 605 1191.4 592.99 1189.82 581.8 1185.18 572.19 1177.81 564.82 1168.2 560.18 1157.01 558.6 1145 560.18 1132.99 564.82 1121.8 572.19 1112.19 581.8 1104.82 592.99 1100.18 605 1098.6 617.01 1100.18 628.2 1104.82 637.81 1112.19 645.18 1121.8 646.34 1124.61 776.55 1124.61 820.58 1080.58 827.2 1076.16 835 1074.61 864.09 1074.61 866.3 1070.12 864.82 1068.2 860.18 1057.01 858.6 1045 860.18 1032.99 864.82 1021.8 872.19 1012.19 881.8 1004.82 892.99 1000.18 905 998.6 917.01 1000.18 928.2 1004.82 937.81 1012.19 945.18 1021.8 949.82 1032.99 951.4 1045 949.82 1057.01 945.18 1068.2 943.7 1070.12 945.91 1074.61 1067.04 1074.61 1068.03 1069.61 1067.31 1069.31 1057.91 1062.09 1050.69 1052.69 1046.16 1041.75 1044.61 1030 1046.16 1018.25 1050.69 1007.31 1057.91 997.91 1067.31 990.69 1078.25 986.16 1090 984.61 1101.75 986.16 1112.69 990.69 1122.09 997.91 1129.31 1007.31 1133.84 1018.25 1135.39 1030 1133.84 1041.75 1129.31 1052.69 1122.09 1062.09 1112.69 1069.31 1111.97 1069.61 1112.96 1074.61 1196.55 1074.61 1619.61 651.55 1619.61 591.34 1616.8 590.18 1607.19 582.81 1599.82 573.2 1595.18 562.01 1593.6 550 1595.18 537.99 1596.35 535.18 1581.6 520.44 1577.83 523.75 1580.18 526.8 1584.82 537.99 1586.4 550 1584.82 562.01 1580.18 573.2 1572.81 582.81 1563.2 590.18 1552.01 594.82 1540 596.4 1527.99 594.82 1525.18 593.65 1459.42 659.42 1452.8 663.84 1445 665.39 946.34 665.39 945.18 668.2 937.81 677.81 928.2 685.18 917.01 689.82 905 691.4 892.99 689.82 881.8 685.18 878.75 682.83 875.44 686.6 890.18 701.35 892.99 700.18 905 698.6 917.01 700.18 928.2 704.82 937.81 712.19 945.18 721.8 949.82 732.99 951.4 745 949.82 757.01 945.18 768.2 937.81 777.81 928.2 785.18 917.01 789.82 905 791.4 892.99 789.82 881.8 785.18 872.19 777.81 864.82 768.2 860.18 757.01 858.6 745 860.18 732.99 861.35 730.18 805.58 674.42 801.16 667.8 799.61 660 799.61 374.77 791.47 368.53 785.06 360.17 781.03 350.44 779.65 340 781.03 329.56 785.06 319.83 791.47 311.47 799.83 305.06 809.56 301.03 820 299.65 830.44 301.03 840.17 305.06 848.53 311.47 854.94 319.83 857.58 326.21 862.99 326.21 864.82 321.8 872.19 312.19 881.8 304.82 892.99 300.18 905 298.6 917.01 300.18 928.2 304.82 937.81 312.19 945.18 321.8 949.82 332.99 951.4 345 949.82 357.01 945.18 368.2 937.81 377.81 928.2 385.18 917.01 389.82 905 391.4 892.99 389.82 881.8 385.18 872.19 377.81 864.82 368.2 860.92 358.79 855.57 358.66 854.94 360.17 848.53 368.53 840.39 374.77 840.39 651.55 863.4 674.56 867.17 671.25 864.82 668.2 860.18 657.01 858.6 645 860.18 632.99 864.82 621.8 872.19 612.19 881.8 604.82 892.99 600.18 905 598.6 917.01 600.18 928.2 604.82 937.81 612.19 945.18 621.8 946.34 624.61 1436.55 624.61 1469.56 591.6 1466.25 587.84 1463.2 590.18 1452.01 594.82 1440 596.4 1427.99 594.82 1416.8 590.18 1407.19 582.81 1399.82 573.2 1395.18 562.01 1393.6 550 1395.18 537.99 1399.82 526.8 1407.19 517.19 1416.8 509.82 1427.99 505.18 1440 503.6 1452.01 505.18 1463.2 509.82 1472.81 517.19 1480.18 526.8 1484.82 537.99 1486.4 550 1484.82 562.01 1480.18 573.2 1477.84 576.26 1481.6 579.56 1496.35 564.81 1495.18 562.01 1493.6 550 1495.18 537.99 1499.82 526.8 1507.19 517.19 1516.8 509.82 1527.99 505.18 1540 503.6 1552.01 505.18 1563.2 509.82 1569.96 515.01 1573.66 511.54 1571.16 507.8 1569.61 500 1569.61 441.34 1566.8 440.18 1557.19 432.81 1549.82 423.2 1545.18 412.01 1543.6 400 1545.18 387.99 1549.82 376.8 1557.19 367.19 1566.8 359.82 1577.99 355.18 1590 353.6 1602.01 355.18 1613.2 359.82 1622.81 367.19 1630.18 376.8 1634.82 387.99 1636.4 400 1634.82 412.01 1630.18 423.2 1622.81 432.81 1613.2 440.18 1610.39 441.34 1610.39 491.55 1625.19 506.35 1627.99 505.18 1640 503.6 1652.01 505.18 1663.2 509.82 1672.81 517.19 1680.18 526.8 1684.82 537.99 1686.4 550 1684.82 562.01 1680.18 573.2 1672.81 582.81 1663.2 590.18 1660.39 591.34 1660.39 660 1658.84 667.8 1654.42 674.42 1219.42 1109.42 1212.8 1113.84 1205 1115.39 945.91 1115.39 943.7 1119.88 945.18 1121.8 949.82 1132.99 951.4 1145 949.82 1157.01 945.18 1168.2 943.7 1170.12 945.91 1174.61 1201.55 1174.61 1722.11 654.05 1722.11 592.38 1716.8 590.18 1707.19 582.81 1699.82 573.2 1695.18 562.01 1693.6 550 1695.18 537.99 1699.82 526.8 1707.19 517.19 1716.8 509.82 1727.99 505.18 1740 503.6 1752.01 505.18 1763.2 509.82 1772.81 517.19 1780.18 526.8 1784.82 537.99 1786.4 550 1784.82 562.01 1780.18 573.2 1772.81 582.81 1763.2 590.18 1762.89 590.31 1762.89 662.5 1761.34 670.3 1756.92 676.92 1224.42 1209.42 1217.8 1213.84 1210 1215.39 945.91 1215.39 943.7 1219.88 945.18 1221.8 949.82 1232.99 951.4 1245 949.82 1257.01 945.18 1268.2 937.81 1277.81 928.2 1285.18 917.01 1289.82 905 1291.4"/><path d="M 445 1090 355 1090 355 1000 445 1000 445 1090"/><path d="M 225 1085 115 1085 115 975 225 975 225 1085"/><path d="M 905 986.35 894.3 984.94 884.32 980.81 879.76 977.31 905 952.07 930.24 977.31 925.68 980.81 915.7 984.94 905 986.35"/><path d="M 872.69 970.24 869.19 965.68 865.06 955.7 863.65 945 865.06 934.3 869.19 924.32 872.69 919.76 897.93 945 872.69 970.24"/><path d="M 937.31 970.24 912.07 945 937.31 919.76 940.81 924.32 944.94 934.3 946.35 945 944.94 955.7 940.81 965.68 937.31 970.24"/><path d="M 905 937.93 879.76 912.69 884.32 909.19 894.3 905.05 905 903.65 915.7 905.05 925.68 909.19 930.24 912.69 905 937.93"/><path d="M 605 991.4 592.99 989.82 581.8 985.18 572.19 977.81 564.82 968.2 560.18 957.01 558.6 945 560.18 932.99 564.82 921.8 572.19 912.19 581.8 904.82 592.99 900.18 605 898.6 617.01 900.18 628.2 904.82 637.81 912.19 645.18 921.8 649.82 932.99 651.4 945 649.82 957.01 645.18 968.2 637.81 977.81 628.2 985.18 617.01 989.82 605 991.4"/><path d="M 605 886.35 594.3 884.94 584.32 880.81 579.76 877.31 605 852.07 630.24 877.31 625.68 880.81 615.7 884.94 605 886.35"/><path d="M 400 885.34 389.56 883.97 379.83 879.94 375.47 876.6 400 852.07 424.53 876.6 420.17 879.94 410.44 883.97 400 885.34"/><path d="M 170 880.43 156.95 878.71 144.78 873.67 138.34 868.73 170 837.07 201.66 868.73 195.22 873.67 183.05 878.71 170 880.43"/><path d="M 431.6 869.53 407.07 845 431.6 820.47 434.94 824.83 438.97 834.56 440.34 845 438.97 855.44 434.94 865.17 431.6 869.53"/><path d="M 368.4 869.53 365.06 865.17 361.03 855.44 359.65 845 361.03 834.56 365.06 824.83 368.4 820.47 392.93 845 368.4 869.53"/><path d="M 572.69 870.24 569.19 865.68 565.06 855.7 563.65 845 565.06 834.3 569.19 824.32 572.69 819.76 597.93 845 572.69 870.24"/><path d="M 637.31 870.24 612.07 845 637.31 819.76 640.81 824.32 644.95 834.3 646.35 845 644.95 855.7 640.81 865.68 637.31 870.24"/><path d="M 400 837.93 375.47 813.4 379.83 810.06 389.56 806.03 400 804.66 410.44 806.03 420.17 810.06 424.53 813.4 400 837.93"/><path d="M 605 837.93 579.76 812.69 584.32 809.19 594.3 805.06 605 803.65 615.7 805.06 625.68 809.19 630.24 812.69 605 837.93"/><path d="M 605 1091.4 592.99 1089.82 581.8 1085.18 572.19 1077.81 564.82 1068.2 560.18 1057.01 558.6 1045 560.18 1032.99 564.82 1021.8 572.19 1012.19 581.8 1004.82 592.99 1000.18 605 998.6 617.01 1000.18 628.2 1004.82 637.81 1012.19 645.18 1021.8 646.34 1024.61 696.55 1024.61 861.35 859.82 860.18 857.01 858.6 845 860.18 832.99 864.82 821.8 872.19 812.19 881.8 804.82 892.99 800.18 905 798.6 917.01 800.18 928.2 804.82 937.81 812.19 945.18 821.8 949.82 832.99 951.4 845 949.82 857.01 945.18 868.2 937.81 877.81 928.2 885.18 917.01 889.82 905 891.4 892.99 889.82 890.18 888.65 719.42 1059.42 712.8 1063.84 705 1065.39 646.34 1065.39 645.18 1068.2 637.81 1077.81 628.2 1085.18 617.01 1089.82 605 1091.4"/><path d="M 208.73 861.66 177.07 830 208.73 798.34 213.68 804.78 218.71 816.95 220.43 830 218.71 843.05 213.68 855.22 208.73 861.66"/><path d="M 131.27 861.66 126.32 855.22 121.29 843.05 119.57 830 121.29 816.95 126.32 804.78 131.27 798.34 162.93 830 131.27 861.66"/><path d="M 1135 875 1045 875 1045 785 1135 785 1135 875"/><path d="M 170 822.93 138.34 791.27 144.78 786.32 156.95 781.29 170 779.57 183.05 781.29 195.22 786.32 201.66 791.27 170 822.93"/><path d="M 605 791.4 592.99 789.82 581.8 785.18 572.19 777.81 564.82 768.2 560.18 757.01 558.6 745 560.18 732.99 564.82 721.8 572.19 712.19 581.8 704.82 592.99 700.18 605 698.6 617.01 700.18 628.2 704.82 637.81 712.19 645.18 721.8 649.82 732.99 651.4 745 649.82 757.01 645.18 768.2 637.81 777.81 628.2 785.18 617.01 789.82 605 791.4"/><path d="M 110 676.35 99.3 674.94 89.32 670.81 84.76 667.31 110 642.07 135.24 667.31 130.68 670.81 120.7 674.94 110 676.35"/><path d="M 77.69 660.24 74.19 655.68 70.06 645.7 68.65 635 70.06 624.3 74.19 614.32 77.69 609.76 102.93 635 77.69 660.24"/><path d="M 142.31 660.24 117.07 635 142.31 609.76 145.81 614.32 149.95 624.3 151.35 635 149.95 645.7 145.81 655.68 142.31 660.24"/><path d="M 605 691.4 592.99 689.82 581.8 685.18 572.19 677.81 564.82 668.2 560.18 657.01 558.6 645 560.18 632.99 564.82 621.8 572.19 612.19 581.8 604.82 592.99 600.18 605 598.6 617.01 600.18 628.2 604.82 637.81 612.19 645.18 621.8 649.82 632.99 651.4 645 649.82 657.01 645.18 668.2 637.81 677.81 628.2 685.18 617.01 689.82 605 691.4"/><path d="M 110 627.93 84.76 602.69 89.32 599.19 99.3 595.05 110 593.65 120.7 595.05 130.68 599.19 135.24 602.69 110 627.93"/><path d="M 1340 591.35 1329.3 589.95 1319.32 585.81 1314.76 582.31 1340 557.07 1365.24 582.31 1360.68 585.81 1350.7 589.95 1340 591.35"/><path d="M 1372.31 575.24 1347.07 550 1372.31 524.76 1375.81 529.32 1379.95 539.3 1381.35 550 1379.95 560.7 1375.81 570.68 1372.31 575.24"/><path d="M 1307.69 575.24 1304.19 570.68 1300.06 560.7 1298.65 550 1300.06 539.3 1304.19 529.32 1307.69 524.76 1332.93 550 1307.69 575.24"/><path d="M 1340 542.93 1314.76 517.69 1319.32 514.19 1329.3 510.06 1340 508.65 1350.7 510.06 1360.68 514.19 1365.24 517.69 1340 542.93"/><path d="M 1286 596 1194 596 1194 504 1286 504 1286 596"/><path d="M 2040 596.4 2027.99 594.82 2016.8 590.18 2007.19 582.81 1999.82 573.2 1995.18 562.01 1993.6 550 1995.18 537.99 1999.82 526.8 2007.19 517.19 2016.8 509.82 2027.99 505.18 2040 503.6 2052.01 505.18 2063.2 509.82 2072.81 517.19 2080.18 526.8 2084.82 537.99 2086.4 550 2084.82 562.01 2080.18 573.2 2072.81 582.81 2063.2 590.18 2052.01 594.82 2040 596.4"/><path d="M 1940 596.4 1927.99 594.82 1916.8 590.18 1907.19 582.81 1899.82 573.2 1895.18 562.01 1893.6 550 1895.18 537.99 1899.82 526.8 1907.19 517.19 1916.8 509.82 1927.99 505.18 1940 503.6 1952.01 505.18 1963.2 509.82 1972.81 517.19 1980.18 526.8 1984.82 537.99 1986.4 550 1984.82 562.01 1980.18 573.2 1972.81 582.81 1963.2 590.18 1952.01 594.82 1940 596.4"/><path d="M 1840 596.4 1827.99 594.82 1816.8 590.18 1807.19 582.81 1799.82 573.2 1795.18 562.01 1793.6 550 1795.18 537.99 1799.82 526.8 1807.19 517.19 1816.8 509.82 1827.99 505.18 1840 503.6 1852.01 505.18 1863.2 509.82 1872.81 517.19 1880.18 526.8 1884.82 537.99 1886.4 550 1884.82 562.01 1880.18 573.2 1872.81 582.81 1863.2 590.18 1852.01 594.82 1840 596.4"/><path d="M 905 591.4 892.99 589.82 881.8 585.18 872.19 577.81 864.82 568.2 860.18 557.01 858.6 545 860.18 532.99 864.82 521.8 872.19 512.19 881.8 504.82 892.99 500.18 905 498.6 917.01 500.18 928.2 504.82 937.81 512.19 945.18 521.8 949.82 532.99 951.4 545 949.82 557.01 945.18 568.2 937.81 577.81 928.2 585.18 917.01 589.82 905 591.4"/><path d="M 605 591.4 592.99 589.82 581.8 585.18 572.19 577.81 564.82 568.2 560.18 557.01 558.6 545 560.18 532.99 564.82 521.8 572.19 512.19 581.8 504.82 592.99 500.18 605 498.6 617.01 500.18 628.2 504.82 637.81 512.19 645.18 521.8 649.82 532.99 651.4 545 649.82 557.01 645.18 568.2 637.81 577.81 628.2 585.18 617.01 589.82 605 591.4"/><path d="M 110 581.4 97.99 579.82 86.8 575.18 77.19 567.81 69.82 558.2 65.18 547.01 63.6 535 65.18 522.99 69.82 511.8 77.19 502.19 86.8 494.82 97.99 490.18 110 488.6 122.01 490.18 133.2 494.82 142.81 502.19 150.18 511.8 154.82 522.99 156.4 535 154.82 547.01 150.18 558.2 142.81 567.81 133.2 575.18 122.01 579.82 110 581.4"/><path d="M 905 491.4 892.99 489.82 881.8 485.18 872.19 477.81 864.82 468.2 860.18 457.01 858.6 445 860.18 432.99 864.82 421.8 872.19 412.19 881.8 404.82 892.99 400.18 905 398.6 917.01 400.18 928.2 404.82 937.81 412.19 945.18 421.8 949.82 432.99 951.4 445 949.82 457.01 945.18 468.2 937.81 477.81 928.2 485.18 917.01 489.82 905 491.4"/><path d="M 605 491.4 592.99 489.82 581.8 485.18 572.19 477.81 564.82 468.2 560.18 457.01 558.6 445 560.18 432.99 564.82 421.8 572.19 412.19 581.8 404.82 592.99 400.18 605 398.6 617.01 400.18 628.2 404.82 637.81 412.19 645.18 421.8 649.82 432.99 651.4 445 649.82 457.01 645.18 468.2 637.81 477.81 628.2 485.18 617.01 489.82 605 491.4"/><path d="M 110 481.4 97.99 479.82 86.8 475.18 77.19 467.81 69.82 458.2 65.18 447.01 63.6 435 65.18 422.99 69.82 411.8 77.19 402.19 86.8 394.82 97.99 390.18 110 388.6 122.01 390.18 133.2 394.82 142.81 402.19 150.18 411.8 154.82 422.99 156.4 435 154.82 447.01 150.18 458.2 142.81 467.81 133.2 475.18 122.01 479.82 110 481.4"/><path d="M 1990 446.4 1977.99 444.82 1966.8 440.18 1957.19 432.81 1949.82 423.2 1945.18 412.01 1943.6 400 1945.18 387.99 1949.82 376.8 1957.19 367.19 1966.8 359.82 1977.99 355.18 1990 353.6 2002.01 355.18 2013.2 359.82 2022.81 367.19 2030.18 376.8 2034.82 387.99 2036.4 400 2034.82 412.01 2030.18 423.2 2022.81 432.81 2013.2 440.18 2002.01 444.82 1990 446.4"/><path d="M 1890 446.4 1877.99 444.82 1866.8 440.18 1857.19 432.81 1849.82 423.2 1845.18 412.01 1843.6 400 1845.18 387.99 1849.82 376.8 1857.19 367.19 1866.8 359.82 1877.99 355.18 1890 353.6 1902.01 355.18 1913.2 359.82 1922.81 367.19 1930.18 376.8 1934.82 387.99 1936.4 400 1934.82 412.01 1930.18 423.2 1922.81 432.81 1913.2 440.18 1902.01 444.82 1890 446.4"/><path d="M 1790 446.4 1777.99 444.82 1766.8 440.18 1757.19 432.81 1749.82 423.2 1745.18 412.01 1743.6 400 1745.18 387.99 1749.82 376.8 1757.19 367.19 1766.8 359.82 1777.99 355.18 1790 353.6 1802.01 355.18 1813.2 359.82 1822.81 367.19 1830.18 376.8 1834.82 387.99 1836.4 400 1834.82 412.01 1830.18 423.2 1822.81 432.81 1813.2 440.18 1802.01 444.82 1790 446.4"/><path d="M 1690 446.4 1677.99 444.82 1666.8 440.18 1657.19 432.81 1649.82 423.2 1645.18 412.01 1643.6 400 1645.18 387.99 1649.82 376.8 1657.19 367.19 1666.8 359.82 1677.99 355.18 1690 353.6 1702.01 355.18 1713.2 359.82 1722.81 367.19 1730.18 376.8 1734.82 387.99 1736.4 400 1734.82 412.01 1730.18 423.2 1722.81 432.81 1713.2 440.18 1702.01 444.82 1690 446.4"/><path d="M 1490 446.4 1477.99 444.82 1466.8 440.18 1457.19 432.81 1449.82 423.2 1445.18 412.01 1443.6 400 1445.18 387.99 1449.82 376.8 1457.19 367.19 1466.8 359.82 1477.99 355.18 1490 353.6 1502.01 355.18 1513.2 359.82 1522.81 367.19 1530.18 376.8 1534.82 387.99 1536.4 400 1534.82 412.01 1530.18 423.2 1522.81 432.81 1513.2 440.18 1502.01 444.82 1490 446.4"/><path d="M 1390 446.4 1377.99 444.82 1366.8 440.18 1357.19 432.81 1349.82 423.2 1345.18 412.01 1343.6 400 1345.18 387.99 1349.82 376.8 1357.19 367.19 1366.8 359.82 1377.99 355.18 1390 353.6 1402.01 355.18 1413.2 359.82 1422.81 367.19 1430.18 376.8 1434.82 387.99 1436.4 400 1434.82 412.01 1430.18 423.2 1422.81 432.81 1413.2 440.18 1402.01 444.82 1390 446.4"/><path d="M 1290 446.4 1277.99 444.82 1266.8 440.18 1257.19 432.81 1249.82 423.2 1245.18 412.01 1243.6 400 1245.18 387.99 1249.82 376.8 1257.19 367.19 1266.8 359.82 1277.99 355.18 1290 353.6 1302.01 355.18 1313.2 359.82 1322.81 367.19 1330.18 376.8 1334.82 387.99 1336.4 400 1334.82 412.01 1330.18 423.2 1322.81 432.81 1313.2 440.18 1302.01 444.82 1290 446.4"/><path d="M 1990 341.35 1979.3 339.94 1969.32 335.81 1964.76 332.31 1990 307.07 2015.24 332.31 2010.68 335.81 2000.7 339.94 1990 341.35"/><path d="M 1890 341.35 1879.3 339.94 1869.32 335.81 1864.76 332.31 1890 307.07 1915.24 332.31 1910.68 335.81 1900.7 339.94 1890 341.35"/><path d="M 1790 341.35 1779.3 339.94 1769.32 335.81 1764.76 332.31 1790 307.07 1815.24 332.31 1810.68 335.81 1800.7 339.94 1790 341.35"/><path d="M 1590 341.35 1579.3 339.94 1569.32 335.81 1564.76 332.31 1590 307.07 1615.24 332.31 1610.68 335.81 1600.7 339.94 1590 341.35"/><path d="M 1390 341.35 1379.3 339.94 1369.32 335.81 1364.76 332.31 1390 307.07 1415.24 332.31 1410.68 335.81 1400.7 339.94 1390 341.35"/><path d="M 1690 341.35 1679.3 339.94 1669.32 335.81 1664.76 332.31 1690 307.07 1715.24 332.31 1710.68 335.81 1700.7 339.94 1690 341.35"/><path d="M 1490 341.35 1479.3 339.94 1469.32 335.81 1464.76 332.31 1490 307.07 1515.24 332.31 1510.68 335.81 1500.7 339.94 1490 341.35"/><path d="M 605 391.4 592.99 389.82 581.8 385.18 572.19 377.81 564.82 368.2 560.18 357.01 558.6 345 560.18 332.99 564.82 321.8 572.19 312.19 581.8 304.82 592.99 300.18 605 298.6 617.01 300.18 628.2 304.82 637.81 312.19 645.18 321.8 649.82 332.99 651.4 345 649.82 357.01 645.18 368.2 637.81 377.81 628.2 385.18 617.01 389.82 605 391.4"/><path d="M 110 381.4 97.99 379.82 86.8 375.18 77.19 367.81 69.82 358.2 65.18 347.01 63.6 335 65.18 322.99 69.82 311.8 77.19 302.19 86.8 294.82 97.99 290.18 110 288.6 122.01 290.18 133.2 294.82 142.81 302.19 150.18 311.8 154.82 322.99 156.4 335 154.82 347.01 150.18 358.2 142.81 367.81 133.2 375.18 122.01 379.82 110 381.4"/><path d="M 2022.31 325.24 1997.07 300 2022.31 274.76 2025.81 279.32 2029.94 289.3 2031.35 300 2029.94 310.7 2025.81 320.68 2022.31 325.24"/><path d="M 1922.31 325.24 1897.07 300 1922.31 274.76 1925.81 279.32 1929.94 289.3 1931.35 300 1929.94 310.7 1925.81 320.68 1922.31 325.24"/><path d="M 1822.31 325.24 1797.07 300 1822.31 274.76 1825.81 279.32 1829.94 289.3 1831.35 300 1829.94 310.7 1825.81 320.68 1822.31 325.24"/><path d="M 1722.31 325.24 1697.07 300 1722.31 274.76 1725.81 279.32 1729.94 289.3 1731.35 300 1729.94 310.7 1725.81 320.68 1722.31 325.24"/><path d="M 1622.31 325.24 1597.07 300 1622.31 274.76 1625.81 279.32 1629.95 289.3 1631.35 300 1629.95 310.7 1625.81 320.68 1622.31 325.24"/><path d="M 1522.31 325.24 1497.07 300 1522.31 274.76 1525.81 279.32 1529.95 289.3 1531.35 300 1529.95 310.7 1525.81 320.68 1522.31 325.24"/><path d="M 1422.31 325.24 1397.07 300 1422.31 274.76 1425.81 279.32 1429.94 289.3 1431.35 300 1429.94 310.7 1425.81 320.68 1422.31 325.24"/><path d="M 1957.69 325.24 1954.19 320.68 1950.06 310.7 1948.65 300 1950.06 289.3 1954.19 279.32 1957.69 274.76 1982.93 300 1957.69 325.24"/><path d="M 1857.69 325.24 1854.19 320.68 1850.05 310.7 1848.65 300 1850.05 289.3 1854.19 279.32 1857.69 274.76 1882.93 300 1857.69 325.24"/><path d="M 1757.69 325.24 1754.19 320.68 1750.05 310.7 1748.65 300 1750.05 289.3 1754.19 279.32 1757.69 274.76 1782.93 300 1757.69 325.24"/><path d="M 1657.69 325.24 1654.19 320.68 1650.06 310.7 1648.65 300 1650.06 289.3 1654.19 279.32 1657.69 274.76 1682.93 300 1657.69 325.24"/><path d="M 1557.69 325.24 1554.19 320.68 1550.06 310.7 1548.65 300 1550.06 289.3 1554.19 279.32 1557.69 274.76 1582.93 300 1557.69 325.24"/><path d="M 1457.69 325.24 1454.19 320.68 1450.06 310.7 1448.65 300 1450.06 289.3 1454.19 279.32 1457.69 274.76 1482.93 300 1457.69 325.24"/><path d="M 1357.69 325.24 1354.19 320.68 1350.05 310.7 1348.65 300 1350.05 289.3 1354.19 279.32 1357.69 274.76 1382.93 300 1357.69 325.24"/><path d="M 1990 292.93 1964.76 267.69 1969.32 264.19 1979.3 260.06 1990 258.65 2000.7 260.06 2010.68 264.19 2015.24 267.69 1990 292.93"/><path d="M 1890 292.93 1864.76 267.69 1869.32 264.19 1879.3 260.06 1890 258.65 1900.7 260.06 1910.68 264.19 1915.24 267.69 1890 292.93"/><path d="M 1790 292.93 1764.76 267.69 1769.32 264.19 1779.3 260.06 1790 258.65 1800.7 260.06 1810.68 264.19 1815.24 267.69 1790 292.93"/><path d="M 1690 292.93 1664.76 267.69 1669.32 264.19 1679.3 260.06 1690 258.65 1700.7 260.06 1710.68 264.19 1715.24 267.69 1690 292.93"/><path d="M 1590 292.93 1564.76 267.69 1569.32 264.19 1579.3 260.06 1590 258.65 1600.7 260.06 1610.68 264.19 1615.24 267.69 1590 292.93"/><path d="M 1490 292.93 1464.76 267.69 1469.32 264.19 1479.3 260.06 1490 258.65 1500.7 260.06 1510.68 264.19 1515.24 267.69 1490 292.93"/><path d="M 1390 292.93 1364.76 267.69 1369.32 264.19 1379.3 260.06 1390 258.65 1400.7 260.06 1410.68 264.19 1415.24 267.69 1390 292.93"/><path d="M 1336 346 1244 346 1244 254 1336 254 1336 346"/><path d="M 951 291 859 291 859 199 951 199 951 291"/><path d="M 605 291.4 592.99 289.82 581.8 285.18 572.19 277.81 564.82 268.2 560.18 257.01 558.6 245 560.18 232.99 564.82 221.8 572.19 212.19 581.8 204.82 592.99 200.18 605 198.6 617.01 200.18 628.2 204.82 637.81 212.19 645.18 221.8 649.82 232.99 651.4 245 649.82 257.01 645.18 268.2 637.81 277.81 628.2 285.18 617.01 289.82 605 291.4"/><path d="M 110 281.4 97.99 279.82 86.8 275.18 77.19 267.81 69.82 258.2 65.18 247.01 63.6 235 65.18 222.99 69.82 211.8 77.19 202.19 86.8 194.82 97.99 190.18 110 188.6 122.01 190.18 133.2 194.82 142.81 202.19 150.18 211.8 154.82 222.99 156.4 235 154.82 247.01 150.18 258.2 142.81 267.81 133.2 275.18 122.01 279.82 110 281.4"/><path d="M 156 181 64 181 64 89 156 89 156 181"/><path d="M 2015 165.36 2000.3 163.91 1986.16 159.63 1973.13 152.66 1961.71 143.29 1952.34 131.87 1945.37 118.84 1941.08 104.7 1939.64 90 1941.08 75.3 1945.37 61.16 1952.34 48.13 1961.71 36.71 1973.13 27.34 1986.16 20.37 2000.3 16.09 2015 14.64 2029.7 16.09 2043.84 20.37 2056.87 27.34 2068.29 36.71 2077.66 48.13 2084.63 61.16 2088.92 75.3 2090.36 90 2088.92 104.7 2084.63 118.84 2077.66 131.87 2068.29 143.29 2056.87 152.66 2043.84 159.63 2029.7 163.91 2015 165.36"/><path d="M 460 165.36 445.3 163.91 431.16 159.63 418.13 152.66 406.71 143.29 397.34 131.87 390.37 118.84 386.09 104.7 384.64 90 386.09 75.3 390.37 61.16 397.34 48.13 406.71 36.71 418.13 27.34 431.16 20.37 445.3 16.09 460 14.64 474.7 16.09 488.84 20.37 501.87 27.34 513.29 36.71 522.66 48.13 529.63 61.16 533.91 75.3 535.36 90 533.91 104.7 529.63 118.84 522.66 131.87 513.29 143.29 501.87 152.66 488.84 159.63 474.7 163.91 460 165.36"/></g></mask><rect x="-30" y="-30" width="60" height="60" id="vVTXruYjWAcpGeZTYXqD_pad-19"/><circle cx="0" cy="0" r="30" id="vVTXruYjWAcpGeZTYXqD_pad-20"/><circle cx="0" cy="0" r="31" id="vVTXruYjWAcpGeZTYXqD_pad-21"/><rect x="-31" y="-31" width="62" height="62" id="vVTXruYjWAcpGeZTYXqD_pad-22"/><rect x="-31" y="-31" width="62" height="62" id="vVTXruYjWAcpGeZTYXqD_pad-23"/><circle cx="0" cy="0" r="40" id="vVTXruYjWAcpGeZTYXqD_pad-24"/><rect x="-40" y="-40" width="80" height="80" id="vVTXruYjWAcpGeZTYXqD_pad-25"/><circle cx="0" cy="0" r="25" id="vVTXruYjWAcpGeZTYXqD_pad-26"/><circle cx="0" cy="0" r="14" id="_BBodhisH0cuvPIAtKmR_pad-1"/><circle cx="0" cy="0" r="15" id="_BBodhisH0cuvPIAtKmR_pad-2"/><circle cx="0" cy="0" r="20" id="_BBodhisH0cuvPIAtKmR_pad-3"/><circle cx="0" cy="0" r="28.5" id="_BBodhisH0cuvPIAtKmR_pad-4"/><circle cx="0" cy="0" r="60" id="_BBodhisH0cuvPIAtKmR_pad-5"/><g id="F4OWIhjZmxZA0PGwbLoZ_bottom_soldermask"><use xlink:href="#RsV2mR_eCgXu3eAr8bZ8_pad-11" x="1090" y="830"/><use xlink:href="#RsV2mR_eCgXu3eAr8bZ8_pad-11" x="400" y="1045"/><use xlink:href="#RsV2mR_eCgXu3eAr8bZ8_pad-12" x="1090" y="1030"/><use xlink:href="#RsV2mR_eCgXu3eAr8bZ8_pad-12" x="400" y="845"/><use xlink:href="#RsV2mR_eCgXu3eAr8bZ8_pad-12" x="460" y="90"/><use xlink:href="#RsV2mR_eCgXu3eAr8bZ8_pad-12" x="470" y="1710"/><use xlink:href="#RsV2mR_eCgXu3eAr8bZ8_pad-12" x="2015" y="90"/><use xlink:href="#RsV2mR_eCgXu3eAr8bZ8_pad-12" x="2015" y="1710"/><use xlink:href="#RsV2mR_eCgXu3eAr8bZ8_pad-13" x="605" y="445"/><use xlink:href="#RsV2mR_eCgXu3eAr8bZ8_pad-13" x="605" y="845"/><use xlink:href="#RsV2mR_eCgXu3eAr8bZ8_pad-13" x="605" y="1245"/><use xlink:href="#RsV2mR_eCgXu3eAr8bZ8_pad-13" x="605" y="245"/><use xlink:href="#RsV2mR_eCgXu3eAr8bZ8_pad-13" x="605" y="345"/><use xlink:href="#RsV2mR_eCgXu3eAr8bZ8_pad-13" x="605" y="645"/><use xlink:href="#RsV2mR_eCgXu3eAr8bZ8_pad-13" x="605" y="745"/><use xlink:href="#RsV2mR_eCgXu3eAr8bZ8_pad-13" x="605" y="945"/><use xlink:href="#RsV2mR_eCgXu3eAr8bZ8_pad-13" x="605" y="1045"/><use xlink:href="#RsV2mR_eCgXu3eAr8bZ8_pad-13" x="605" y="1345"/><use xlink:href="#RsV2mR_eCgXu3eAr8bZ8_pad-13" x="605" y="1445"/><use xlink:href="#RsV2mR_eCgXu3eAr8bZ8_pad-13" x="605" y="1545"/><use xlink:href="#RsV2mR_eCgXu3eAr8bZ8_pad-13" x="605" y="545"/><use xlink:href="#RsV2mR_eCgXu3eAr8bZ8_pad-13" x="605" y="1145"/><use xlink:href="#RsV2mR_eCgXu3eAr8bZ8_pad-13" x="905" y="1545"/><use xlink:href="#RsV2mR_eCgXu3eAr8bZ8_pad-13" x="905" y="345"/><use xlink:href="#RsV2mR_eCgXu3eAr8bZ8_pad-13" x="905" y="445"/><use xlink:href="#RsV2mR_eCgXu3eAr8bZ8_pad-13" x="905" y="545"/><use xlink:href="#RsV2mR_eCgXu3eAr8bZ8_pad-13" x="905" y="645"/><use xlink:href="#RsV2mR_eCgXu3eAr8bZ8_pad-13" x="905" y="745"/><use xlink:href="#RsV2mR_eCgXu3eAr8bZ8_pad-13" x="905" y="845"/><use xlink:href="#RsV2mR_eCgXu3eAr8bZ8_pad-13" x="905" y="945"/><use xlink:href="#RsV2mR_eCgXu3eAr8bZ8_pad-13" x="905" y="1045"/><use xlink:href="#RsV2mR_eCgXu3eAr8bZ8_pad-13" x="905" y="1145"/><use xlink:href="#RsV2mR_eCgXu3eAr8bZ8_pad-13" x="905" y="1245"/><use xlink:href="#RsV2mR_eCgXu3eAr8bZ8_pad-13" x="905" y="1345"/><use xlink:href="#RsV2mR_eCgXu3eAr8bZ8_pad-13" x="905" y="1445"/><use xlink:href="#RsV2mR_eCgXu3eAr8bZ8_pad-13" x="110" y="635"/><use xlink:href="#RsV2mR_eCgXu3eAr8bZ8_pad-13" x="110" y="535"/><use xlink:href="#RsV2mR_eCgXu3eAr8bZ8_pad-13" x="110" y="435"/><use xlink:href="#RsV2mR_eCgXu3eAr8bZ8_pad-13" x="110" y="335"/><use xlink:href="#RsV2mR_eCgXu3eAr8bZ8_pad-13" x="110" y="235"/><use xlink:href="#RsV2mR_eCgXu3eAr8bZ8_pad-13" x="1240" y="1550"/><use xlink:href="#RsV2mR_eCgXu3eAr8bZ8_pad-13" x="1340" y="1550"/><use xlink:href="#RsV2mR_eCgXu3eAr8bZ8_pad-13" x="1440" y="1550"/><use xlink:href="#RsV2mR_eCgXu3eAr8bZ8_pad-13" x="1540" y="1550"/><use xlink:href="#RsV2mR_eCgXu3eAr8bZ8_pad-13" x="1640" y="1550"/><use xlink:href="#RsV2mR_eCgXu3eAr8bZ8_pad-13" x="1340" y="550"/><use xlink:href="#RsV2mR_eCgXu3eAr8bZ8_pad-13" x="1440" y="550"/><use xlink:href="#RsV2mR_eCgXu3eAr8bZ8_pad-13" x="1540" y="550"/><use xlink:href="#RsV2mR_eCgXu3eAr8bZ8_pad-13" x="1640" y="550"/><use xlink:href="#RsV2mR_eCgXu3eAr8bZ8_pad-13" x="1740" y="550"/><use xlink:href="#RsV2mR_eCgXu3eAr8bZ8_pad-13" x="1840" y="550"/><use xlink:href="#RsV2mR_eCgXu3eAr8bZ8_pad-13" x="1940" y="550"/><use xlink:href="#RsV2mR_eCgXu3eAr8bZ8_pad-13" x="2040" y="550"/><use xlink:href="#RsV2mR_eCgXu3eAr8bZ8_pad-13" x="1390" y="300"/><use xlink:href="#RsV2mR_eCgXu3eAr8bZ8_pad-13" x="1490" y="300"/><use xlink:href="#RsV2mR_eCgXu3eAr8bZ8_pad-13" x="1590" y="300"/><use xlink:href="#RsV2mR_eCgXu3eAr8bZ8_pad-13" x="1690" y="300"/><use xlink:href="#RsV2mR_eCgXu3eAr8bZ8_pad-13" x="1790" y="300"/><use xlink:href="#RsV2mR_eCgXu3eAr8bZ8_pad-13" x="1890" y="300"/><use xlink:href="#RsV2mR_eCgXu3eAr8bZ8_pad-13" x="1990" y="300"/><use xlink:href="#RsV2mR_eCgXu3eAr8bZ8_pad-13" x="1990" y="400"/><use xlink:href="#RsV2mR_eCgXu3eAr8bZ8_pad-13" x="1890" y="400"/><use xlink:href="#RsV2mR_eCgXu3eAr8bZ8_pad-13" x="1790" y="400"/><use xlink:href="#RsV2mR_eCgXu3eAr8bZ8_pad-13" x="1690" y="400"/><use xlink:href="#RsV2mR_eCgXu3eAr8bZ8_pad-13" x="1590" y="400"/><use xlink:href="#RsV2mR_eCgXu3eAr8bZ8_pad-13" x="1490" y="400"/><use xlink:href="#RsV2mR_eCgXu3eAr8bZ8_pad-13" x="1390" y="400"/><use xlink:href="#RsV2mR_eCgXu3eAr8bZ8_pad-13" x="1290" y="400"/><use xlink:href="#RsV2mR_eCgXu3eAr8bZ8_pad-14" x="905" y="245"/><use xlink:href="#RsV2mR_eCgXu3eAr8bZ8_pad-14" x="110" y="135"/><use xlink:href="#RsV2mR_eCgXu3eAr8bZ8_pad-15" x="1240" y="550"/><use xlink:href="#RsV2mR_eCgXu3eAr8bZ8_pad-15" x="1290" y="300"/><use xlink:href="#RsV2mR_eCgXu3eAr8bZ8_pad-16" x="170" y="1290"/><use xlink:href="#RsV2mR_eCgXu3eAr8bZ8_pad-16" x="170" y="1490"/><use xlink:href="#RsV2mR_eCgXu3eAr8bZ8_pad-16" x="170" y="830"/><use xlink:href="#RsV2mR_eCgXu3eAr8bZ8_pad-17" x="170" y="1690"/><use xlink:href="#RsV2mR_eCgXu3eAr8bZ8_pad-17" x="170" y="1030"/><use xlink:href="#RsV2mR_eCgXu3eAr8bZ8_pad-18" x="820" y="340"/></g><g id="F4OWIhjZmxZA0PGwbLoZ_bottom_copper"><g mask="url(#vVTXruYjWAcpGeZTYXqD_clear-1)"><path d="M 2160 -50 -50 -50 -50 1850 2160 1850 2160 -50"/></g><path d="M 1210 1195 1742.5 662.5 M 865 1195 1210 1195 M 1742.5 552.5 1742.5 662.5 M 815 1245 865 1195 M 605 1245 815 1245 M 605 1145 785 1145 M 835 1095 1205 1095 M 785 1145 835 1095 M 1740 550 1742.5 552.5 M 820 340 820 660 905 745 M 1640 550 1640 660 M 1205 1095 1640 660 M 605 1045 705 1045 905 845 M 1445 645 1540 550 M 905 645 1445 645 M 1590 500 1640 550 M 1590 410 1590 500 M 1335 535.87 1335.43 535.43" fill="none" stroke-width="10"/><use xlink:href="#vVTXruYjWAcpGeZTYXqD_pad-19" x="1090" y="830"/><use xlink:href="#vVTXruYjWAcpGeZTYXqD_pad-19" x="400" y="1045"/><use xlink:href="#vVTXruYjWAcpGeZTYXqD_pad-20" x="1090" y="1030"/><use xlink:href="#vVTXruYjWAcpGeZTYXqD_pad-20" x="400" y="845"/><use xlink:href="#vVTXruYjWAcpGeZTYXqD_pad-20" x="460" y="90"/><use xlink:href="#vVTXruYjWAcpGeZTYXqD_pad-20" x="470" y="1710"/><use xlink:href="#vVTXruYjWAcpGeZTYXqD_pad-20" x="2015" y="90"/><use xlink:href="#vVTXruYjWAcpGeZTYXqD_pad-20" x="2015" y="1710"/><use xlink:href="#vVTXruYjWAcpGeZTYXqD_pad-21" x="605" y="445"/><use xlink:href="#vVTXruYjWAcpGeZTYXqD_pad-21" x="605" y="845"/><use xlink:href="#vVTXruYjWAcpGeZTYXqD_pad-21" x="605" y="1245"/><use xlink:href="#vVTXruYjWAcpGeZTYXqD_pad-21" x="605" y="245"/><use xlink:href="#vVTXruYjWAcpGeZTYXqD_pad-21" x="605" y="345"/><use xlink:href="#vVTXruYjWAcpGeZTYXqD_pad-21" x="605" y="645"/><use xlink:href="#vVTXruYjWAcpGeZTYXqD_pad-21" x="605" y="745"/><use xlink:href="#vVTXruYjWAcpGeZTYXqD_pad-21" x="605" y="945"/><use xlink:href="#vVTXruYjWAcpGeZTYXqD_pad-21" x="605" y="1045"/><use xlink:href="#vVTXruYjWAcpGeZTYXqD_pad-21" x="605" y="1345"/><use xlink:href="#vVTXruYjWAcpGeZTYXqD_pad-21" x="605" y="1445"/><use xlink:href="#vVTXruYjWAcpGeZTYXqD_pad-21" x="605" y="1545"/><use xlink:href="#vVTXruYjWAcpGeZTYXqD_pad-21" x="605" y="545"/><use xlink:href="#vVTXruYjWAcpGeZTYXqD_pad-21" x="605" y="1145"/><use xlink:href="#vVTXruYjWAcpGeZTYXqD_pad-21" x="905" y="1545"/><use xlink:href="#vVTXruYjWAcpGeZTYXqD_pad-21" x="905" y="345"/><use xlink:href="#vVTXruYjWAcpGeZTYXqD_pad-21" x="905" y="445"/><use xlink:href="#vVTXruYjWAcpGeZTYXqD_pad-21" x="905" y="545"/><use xlink:href="#vVTXruYjWAcpGeZTYXqD_pad-21" x="905" y="645"/><use xlink:href="#vVTXruYjWAcpGeZTYXqD_pad-21" x="905" y="745"/><use xlink:href="#vVTXruYjWAcpGeZTYXqD_pad-21" x="905" y="845"/><use xlink:href="#vVTXruYjWAcpGeZTYXqD_pad-21" x="905" y="945"/><use xlink:href="#vVTXruYjWAcpGeZTYXqD_pad-21" x="905" y="1045"/><use xlink:href="#vVTXruYjWAcpGeZTYXqD_pad-21" x="905" y="1145"/><use xlink:href="#vVTXruYjWAcpGeZTYXqD_pad-21" x="905" y="1245"/><use xlink:href="#vVTXruYjWAcpGeZTYXqD_pad-21" x="905" y="1345"/><use xlink:href="#vVTXruYjWAcpGeZTYXqD_pad-21" x="905" y="1445"/><use xlink:href="#vVTXruYjWAcpGeZTYXqD_pad-21" x="110" y="635"/><use xlink:href="#vVTXruYjWAcpGeZTYXqD_pad-21" x="110" y="535"/><use xlink:href="#vVTXruYjWAcpGeZTYXqD_pad-21" x="110" y="435"/><use xlink:href="#vVTXruYjWAcpGeZTYXqD_pad-21" x="110" y="335"/><use xlink:href="#vVTXruYjWAcpGeZTYXqD_pad-21" x="110" y="235"/><use xlink:href="#vVTXruYjWAcpGeZTYXqD_pad-21" x="1240" y="1550"/><use xlink:href="#vVTXruYjWAcpGeZTYXqD_pad-21" x="1340" y="1550"/><use xlink:href="#vVTXruYjWAcpGeZTYXqD_pad-21" x="1440" y="1550"/><use xlink:href="#vVTXruYjWAcpGeZTYXqD_pad-21" x="1540" y="1550"/><use xlink:href="#vVTXruYjWAcpGeZTYXqD_pad-21" x="1640" y="1550"/><use xlink:href="#vVTXruYjWAcpGeZTYXqD_pad-21" x="1340" y="550"/><use xlink:href="#vVTXruYjWAcpGeZTYXqD_pad-21" x="1440" y="550"/><use xlink:href="#vVTXruYjWAcpGeZTYXqD_pad-21" x="1540" y="550"/><use xlink:href="#vVTXruYjWAcpGeZTYXqD_pad-21" x="1640" y="550"/><use xlink:href="#vVTXruYjWAcpGeZTYXqD_pad-21" x="1740" y="550"/><use xlink:href="#vVTXruYjWAcpGeZTYXqD_pad-21" x="1840" y="550"/><use xlink:href="#vVTXruYjWAcpGeZTYXqD_pad-21" x="1940" y="550"/><use xlink:href="#vVTXruYjWAcpGeZTYXqD_pad-21" x="2040" y="550"/><use xlink:href="#vVTXruYjWAcpGeZTYXqD_pad-21" x="1390" y="300"/><use xlink:href="#vVTXruYjWAcpGeZTYXqD_pad-21" x="1490" y="300"/><use xlink:href="#vVTXruYjWAcpGeZTYXqD_pad-21" x="1590" y="300"/><use xlink:href="#vVTXruYjWAcpGeZTYXqD_pad-21" x="1690" y="300"/><use xlink:href="#vVTXruYjWAcpGeZTYXqD_pad-21" x="1790" y="300"/><use xlink:href="#vVTXruYjWAcpGeZTYXqD_pad-21" x="1890" y="300"/><use xlink:href="#vVTXruYjWAcpGeZTYXqD_pad-21" x="1990" y="300"/><use xlink:href="#vVTXruYjWAcpGeZTYXqD_pad-21" x="1990" y="400"/><use xlink:href="#vVTXruYjWAcpGeZTYXqD_pad-21" x="1890" y="400"/><use xlink:href="#vVTXruYjWAcpGeZTYXqD_pad-21" x="1790" y="400"/><use xlink:href="#vVTXruYjWAcpGeZTYXqD_pad-21" x="1690" y="400"/><use xlink:href="#vVTXruYjWAcpGeZTYXqD_pad-21" x="1590" y="400"/><use xlink:href="#vVTXruYjWAcpGeZTYXqD_pad-21" x="1490" y="400"/><use xlink:href="#vVTXruYjWAcpGeZTYXqD_pad-21" x="1390" y="400"/><use xlink:href="#vVTXruYjWAcpGeZTYXqD_pad-21" x="1290" y="400"/><use xlink:href="#vVTXruYjWAcpGeZTYXqD_pad-22" x="905" y="245"/><use xlink:href="#vVTXruYjWAcpGeZTYXqD_pad-22" x="110" y="135"/><use xlink:href="#vVTXruYjWAcpGeZTYXqD_pad-23" x="1240" y="550"/><use xlink:href="#vVTXruYjWAcpGeZTYXqD_pad-23" x="1290" y="300"/><use xlink:href="#vVTXruYjWAcpGeZTYXqD_pad-24" x="170" y="1290"/><use xlink:href="#vVTXruYjWAcpGeZTYXqD_pad-24" x="170" y="1490"/><use xlink:href="#vVTXruYjWAcpGeZTYXqD_pad-24" x="170" y="830"/><use xlink:href="#vVTXruYjWAcpGeZTYXqD_pad-25" x="170" y="1690"/><use xlink:href="#vVTXruYjWAcpGeZTYXqD_pad-25" x="170" y="1030"/><use xlink:href="#vVTXruYjWAcpGeZTYXqD_pad-26" x="820" y="340"/></g><g id="F4OWIhjZmxZA0PGwbLoZ_bottom_drill1"><use xlink:href="#_BBodhisH0cuvPIAtKmR_pad-1" x="820" y="340"/><use xlink:href="#_BBodhisH0cuvPIAtKmR_pad-2" x="1090" y="830"/><use xlink:href="#_BBodhisH0cuvPIAtKmR_pad-2" x="1090" y="1030"/><use xlink:href="#_BBodhisH0cuvPIAtKmR_pad-2" x="400" y="1045"/><use xlink:href="#_BBodhisH0cuvPIAtKmR_pad-2" x="400" y="845"/><use xlink:href="#_BBodhisH0cuvPIAtKmR_pad-3" x="605" y="245"/><use xlink:href="#_BBodhisH0cuvPIAtKmR_pad-3" x="605" y="345"/><use xlink:href="#_BBodhisH0cuvPIAtKmR_pad-3" x="605" y="445"/><use xlink:href="#_BBodhisH0cuvPIAtKmR_pad-3" x="605" y="545"/><use xlink:href="#_BBodhisH0cuvPIAtKmR_pad-3" x="605" y="645"/><use xlink:href="#_BBodhisH0cuvPIAtKmR_pad-3" x="605" y="745"/><use xlink:href="#_BBodhisH0cuvPIAtKmR_pad-3" x="605" y="845"/><use xlink:href="#_BBodhisH0cuvPIAtKmR_pad-3" x="605" y="945"/><use xlink:href="#_BBodhisH0cuvPIAtKmR_pad-3" x="605" y="1045"/><use xlink:href="#_BBodhisH0cuvPIAtKmR_pad-3" x="905" y="1045"/><use xlink:href="#_BBodhisH0cuvPIAtKmR_pad-3" x="905" y="945"/><use xlink:href="#_BBodhisH0cuvPIAtKmR_pad-3" x="905" y="845"/><use xlink:href="#_BBodhisH0cuvPIAtKmR_pad-3" x="905" y="745"/><use xlink:href="#_BBodhisH0cuvPIAtKmR_pad-3" x="905" y="645"/><use xlink:href="#_BBodhisH0cuvPIAtKmR_pad-3" x="905" y="545"/><use xlink:href="#_BBodhisH0cuvPIAtKmR_pad-3" x="905" y="445"/><use xlink:href="#_BBodhisH0cuvPIAtKmR_pad-3" x="905" y="345"/><use xlink:href="#_BBodhisH0cuvPIAtKmR_pad-3" x="905" y="245"/><use xlink:href="#_BBodhisH0cuvPIAtKmR_pad-3" x="1290" y="300"/><use xlink:href="#_BBodhisH0cuvPIAtKmR_pad-3" x="1390" y="300"/><use xlink:href="#_BBodhisH0cuvPIAtKmR_pad-3" x="1490" y="300"/><use xlink:href="#_BBodhisH0cuvPIAtKmR_pad-3" x="1590" y="300"/><use xlink:href="#_BBodhisH0cuvPIAtKmR_pad-3" x="1690" y="300"/><use xlink:href="#_BBodhisH0cuvPIAtKmR_pad-3" x="1790" y="300"/><use xlink:href="#_BBodhisH0cuvPIAtKmR_pad-3" x="1890" y="300"/><use xlink:href="#_BBodhisH0cuvPIAtKmR_pad-3" x="1990" y="300"/><use xlink:href="#_BBodhisH0cuvPIAtKmR_pad-3" x="1990" y="400"/><use xlink:href="#_BBodhisH0cuvPIAtKmR_pad-3" x="1890" y="400"/><use xlink:href="#_BBodhisH0cuvPIAtKmR_pad-3" x="1790" y="400"/><use xlink:href="#_BBodhisH0cuvPIAtKmR_pad-3" x="1690" y="400"/><use xlink:href="#_BBodhisH0cuvPIAtKmR_pad-3" x="1590" y="400"/><use xlink:href="#_BBodhisH0cuvPIAtKmR_pad-3" x="1490" y="400"/><use xlink:href="#_BBodhisH0cuvPIAtKmR_pad-3" x="1390" y="400"/><use xlink:href="#_BBodhisH0cuvPIAtKmR_pad-3" x="1290" y="400"/><use xlink:href="#_BBodhisH0cuvPIAtKmR_pad-3" x="1240" y="550"/><use xlink:href="#_BBodhisH0cuvPIAtKmR_pad-3" x="1340" y="550"/><use xlink:href="#_BBodhisH0cuvPIAtKmR_pad-3" x="1440" y="550"/><use xlink:href="#_BBodhisH0cuvPIAtKmR_pad-3" x="1540" y="550"/><use xlink:href="#_BBodhisH0cuvPIAtKmR_pad-3" x="1640" y="550"/><use xlink:href="#_BBodhisH0cuvPIAtKmR_pad-3" x="1740" y="550"/><use xlink:href="#_BBodhisH0cuvPIAtKmR_pad-3" x="1840" y="550"/><use xlink:href="#_BBodhisH0cuvPIAtKmR_pad-3" x="1940" y="550"/><use xlink:href="#_BBodhisH0cuvPIAtKmR_pad-3" x="2040" y="550"/><use xlink:href="#_BBodhisH0cuvPIAtKmR_pad-3" x="110" y="535"/><use xlink:href="#_BBodhisH0cuvPIAtKmR_pad-3" x="110" y="635"/><use xlink:href="#_BBodhisH0cuvPIAtKmR_pad-3" x="110" y="435"/><use xlink:href="#_BBodhisH0cuvPIAtKmR_pad-3" x="110" y="335"/><use xlink:href="#_BBodhisH0cuvPIAtKmR_pad-3" x="110" y="235"/><use xlink:href="#_BBodhisH0cuvPIAtKmR_pad-3" x="110" y="135"/><use xlink:href="#_BBodhisH0cuvPIAtKmR_pad-3" x="605" y="1145"/><use xlink:href="#_BBodhisH0cuvPIAtKmR_pad-3" x="605" y="1245"/><use xlink:href="#_BBodhisH0cuvPIAtKmR_pad-3" x="605" y="1345"/><use xlink:href="#_BBodhisH0cuvPIAtKmR_pad-3" x="605" y="1445"/><use xlink:href="#_BBodhisH0cuvPIAtKmR_pad-3" x="605" y="1545"/><use xlink:href="#_BBodhisH0cuvPIAtKmR_pad-3" x="905" y="1545"/><use xlink:href="#_BBodhisH0cuvPIAtKmR_pad-3" x="905" y="1445"/><use xlink:href="#_BBodhisH0cuvPIAtKmR_pad-3" x="905" y="1345"/><use xlink:href="#_BBodhisH0cuvPIAtKmR_pad-3" x="905" y="1245"/><use xlink:href="#_BBodhisH0cuvPIAtKmR_pad-3" x="905" y="1145"/><use xlink:href="#_BBodhisH0cuvPIAtKmR_pad-3" x="1240" y="1550"/><use xlink:href="#_BBodhisH0cuvPIAtKmR_pad-3" x="1340" y="1550"/><use xlink:href="#_BBodhisH0cuvPIAtKmR_pad-3" x="1440" y="1550"/><use xlink:href="#_BBodhisH0cuvPIAtKmR_pad-3" x="1540" y="1550"/><use xlink:href="#_BBodhisH0cuvPIAtKmR_pad-3" x="1640" y="1550"/><use xlink:href="#_BBodhisH0cuvPIAtKmR_pad-4" x="170" y="830"/><use xlink:href="#_BBodhisH0cuvPIAtKmR_pad-4" x="170" y="1030"/><use xlink:href="#_BBodhisH0cuvPIAtKmR_pad-4" x="170" y="1290"/><use xlink:href="#_BBodhisH0cuvPIAtKmR_pad-4" x="170" y="1490"/><use xlink:href="#_BBodhisH0cuvPIAtKmR_pad-4" x="170" y="1690"/><use xlink:href="#_BBodhisH0cuvPIAtKmR_pad-5" x="2015" y="90"/><use xlink:href="#_BBodhisH0cuvPIAtKmR_pad-5" x="460" y="90"/><use xlink:href="#_BBodhisH0cuvPIAtKmR_pad-5" x="470" y="1710"/><use xlink:href="#_BBodhisH0cuvPIAtKmR_pad-5" x="2015" y="1710"/></g><clipPath id="F4OWIhjZmxZA0PGwbLoZ_bottom_outline"><path d="M -50 1850 -50 -50 2160 -50 2160 1850 -50 1850" fill="none" stroke-width="20"/></clipPath><mask id="F4OWIhjZmxZA0PGwbLoZ_bottom_mech-mask"><g fill="#000" stroke="#000"><rect x="-50" y="-50" width="2210" height="1900" fill="#fff"/><use xlink:href="#F4OWIhjZmxZA0PGwbLoZ_bottom_drill1"/></g></mask><mask id="F4OWIhjZmxZA0PGwbLoZ_bottom_cf-mask"><g fill="#fff" stroke="#fff"><use xlink:href="#F4OWIhjZmxZA0PGwbLoZ_bottom_soldermask"/></g></mask><mask id="F4OWIhjZmxZA0PGwbLoZ_bottom_sm-mask"><g fill="#000" stroke="#000"><rect x="-50" y="-50" width="2210" height="1900" fill="#fff"/><use xlink:href="#F4OWIhjZmxZA0PGwbLoZ_bottom_soldermask"/></g></mask></defs><g transform="translate(0,1800) scale(1,-1)"><g mask="url(#F4OWIhjZmxZA0PGwbLoZ_bottom_mech-mask)" clip-path="url(#F4OWIhjZmxZA0PGwbLoZ_bottom_outline)" transform="translate(2110,0) scale(-1,1)"><rect x="-50" y="-50" width="2210" height="1900" fill="currentColor" class="F4OWIhjZmxZA0PGwbLoZ_fr4"/><use xlink:href="#F4OWIhjZmxZA0PGwbLoZ_bottom_copper" fill="currentColor" stroke="currentColor" class="F4OWIhjZmxZA0PGwbLoZ_cu"/><use xlink:href="#F4OWIhjZmxZA0PGwbLoZ_bottom_copper" fill="currentColor" stroke="currentColor" class="F4OWIhjZmxZA0PGwbLoZ_cf" mask="url(#F4OWIhjZmxZA0PGwbLoZ_bottom_cf-mask)"/><g mask="url(#F4OWIhjZmxZA0PGwbLoZ_bottom_sm-mask)"><rect x="-50" y="-50" width="2210" height="1900" fill="currentColor" class="F4OWIhjZmxZA0PGwbLoZ_sm"/></g></g></g></svg>