<svg version="1.1" xmlns="http://www.w3.org/2000/svg" xmlns:xlink="http://www.w3.org/1999/xlink" stroke-linecap="round" stroke-linejoin="round" stroke-width="0" fill-rule="evenodd" clip-rule="evenodd" id="F4OWIhjZmxZA0PGwbLoZ_top" viewBox="-50 -50 2210 1900" width="2.21in" height="1.9in" class="w-100 h-100"><defs><style>.F4OWIhjZmxZA0PGwbLoZ_fr4 {color: #666666;}
.F4OWIhjZmxZA0PGwbLoZ_cu {color: #cccccc;}
.F4OWIhjZmxZA0PGwbLoZ_cf {color: #cc9933;}
.F4OWIhjZmxZA0PGwbLoZ_sm {color: #004200; opacity: 0.75;}
.F4OWIhjZmxZA0PGwbLoZ_ss {color: #ffffff;}
.F4OWIhjZmxZA0PGwbLoZ_sp {color: #999999;}
.F4OWIhjZmxZA0PGwbLoZ_out {color: #000000;}</style><rect x="-34" y="-34" width="68" height="68" id="UbMFJKrhb5MWeVKpHUst_pad-11"/><circle cx="0" cy="0" r="34" id="UbMFJKrhb5MWeVKpHUst_pad-12"/><circle cx="0" cy="0" r="35" id="UbMFJKrhb5MWeVKpHUst_pad-13"/><rect x="-35" y="-35" width="70" height="70" id="UbMFJKrhb5MWeVKpHUst_pad-14"/><rect x="-35" y="-35" width="70" height="70" id="UbMFJKrhb5MWeVKpHUst_pad-15"/><circle cx="0" cy="0" r="44" id="UbMFJKrhb5MWeVKpHUst_pad-16"/><rect x="-44" y="-44" width="88" height="88" id="UbMFJKrhb5MWeVKpHUst_pad-17"/><circle cx="0" cy="0" r="29" id="UbMFJKrhb5MWeVKpHUst_pad-18"/><rect x="-30" y="-30" width="60" height="60" id="tPHzXQrTtV81cvFA2Dsv_pad-19"/><circle cx="0" cy="0" r="30" id="tPHzXQrTtV81cvFA2Dsv_pad-20"/><circle cx="0" cy="0" r="31" id="tPHzXQrTtV81cvFA2Dsv_pad-21"/><rect x="-31" y="-31" width="62" height="62" id="tPHzXQrTtV81cvFA2Dsv_pad-22"/><rect x="-31" y="-31" width="62" height="62" id="tPHzXQrTtV81cvFA2Dsv_pad-23"/><circle cx="0" cy="0" r="40" id="tPHzXQrTtV81cvFA2Dsv_pad-24"/><rect x="-40" y="-40" width="80" height="80" id="tPHzXQrTtV81cvFA2Dsv_pad-25"/><circle cx="0" cy="0" r="25" id="tPHzXQrTtV81cvFA2Dsv_pad-26"/><circle cx="0" cy="0" r="14" id="_BBodhisH0cuvPIAtKmR_pad-1"/><circle cx="0" cy="0" r="15" id="_BBodhisH0cuvPIAtKmR_pad-2"/><circle cx="0" cy="0" r="20" id="_BBodhisH0cuvPIAtKmR_pad-3"/><circle cx="0" cy="0" r="28.5" id="_BBodhisH0cuvPIAtKmR_pad-4"/><circle cx="0" cy="0" r="60" id="_BBodhisH0cuvPIAtKmR_pad-5"/><g id="F4OWIhjZmxZA0PGwbLoZ_top_silkscreen"><path d="M 1000 805 A 90 90 0 0 1 1180 805 M 1180 1055.21 A 90 90 0 0 1 1000 1055.21 M 785 195 A 30 30 0 0 1 725 195 M 1000 805 1000 1055.21 M 1180 805 1180 1055.47 M 785 195 955 195 M 555 195 725 195 M 555 1595 955 1595 M 955 195 955 1595 M 555 195 555 1595 M 60 85 160 85 160 655 M 60 685 130 685 M 60 85 60 685 M 130 685 160 655 M 1190 1600 2090 1600 M 1190 500 1190 1600 M 2090 500 2090 1600 M 1190 500 2090 500 M 320 1195 320 1785 M 45 1785 320 1785 M 45 1245 45 1785 M 45 1245 95 1195 320 1195 M 95 735 320 735 M 45 785 95 735 M 45 785 45 1125 M 320 735 320 1125 M 45 1125 320 1125 M 2040 270 2040 450 M 2020 250 2040 270 M 1240 250 2020 250 M 1240 450 2040 450 M 1240 250 1240 450 M 350 815 350 1095 M 350 815 370 795 450 795 M 350 1095 450 1095 M 450 795 450 1095 M 2060.02 270 2120 270 2120 299.99 2110 309.99 2070.02 309.99 2060.02 299.99 2060.02 270 M 2120 329.98 2060.02 329.98 2080.01 349.97 2060.02 369.97 2120 369.97 M 2060.02 389.96 2120 389.96 2120 419.95 2110 429.95 2070.02 429.95 2060.02 419.95 2060.02 389.96 M 651.66 1743.31 615 1743.31 615 1688.33 651.66 1688.33 M 615 1715.82 633.33 1715.82 M 706.64 1734.15 697.47 1743.31 679.15 1743.31 669.98 1734.15 669.98 1697.49 679.15 1688.33 697.47 1688.33 706.64 1697.49 706.64 1715.82 688.31 1715.82 M 724.96 1743.31 724.96 1688.33 724.96 1715.82 761.62 1715.82 761.62 1743.31 761.62 1688.33 M 807.44 1688.33 807.44 1743.31 779.95 1715.82 816.6 1715.82 M 834.93 1734.15 844.09 1743.31 862.42 1743.31 871.58 1734.15 871.58 1697.49 862.42 1688.33 844.09 1688.33 834.93 1697.49 834.93 1734.15 M 889.91 1734.15 899.07 1743.31 917.4 1743.31 926.57 1734.15 926.57 1697.49 917.4 1688.33 899.07 1688.33 889.91 1697.49 889.91 1734.15 M 999.88 1743.31 999.88 1688.33 1027.37 1688.33 1036.53 1697.49 1036.53 1734.15 1027.37 1743.31 999.88 1743.31 M 1054.86 1688.33 1073.18 1688.33 1064.02 1688.33 1064.02 1724.98 1054.86 1724.98 M 1100.68 1688.33 1128.17 1688.33 1137.33 1697.49 1128.17 1706.66 1109.84 1706.66 1100.68 1715.82 1109.84 1724.98 1137.33 1724.98 M 1155.66 1670 1155.66 1724.98 1183.15 1724.98 1192.31 1715.82 1192.31 1697.49 1183.15 1688.33 1155.66 1688.33 M 1210.64 1688.33 1228.97 1688.33 1219.8 1688.33 1219.8 1743.31 1210.64 1743.31 M 1265.62 1724.98 1283.95 1724.98 1293.11 1715.82 1293.11 1688.33 1265.62 1688.33 1256.46 1697.49 1265.62 1706.66 1293.11 1706.66 M 1311.44 1724.98 1311.44 1697.49 1320.61 1688.33 1348.1 1688.33 1348.1 1679.16 1338.93 1670 1329.77 1670 M 1348.1 1688.33 1348.1 1724.98 M 1421.41 1743.31 1421.41 1688.33 1448.9 1688.33 1458.06 1697.49 1458.06 1706.66 1448.9 1715.82 1421.41 1715.82 1448.9 1715.82 1458.06 1724.98 1458.06 1734.15 1448.9 1743.31 1421.41 1743.31 M 1485.55 1688.33 1503.88 1688.33 1513.04 1697.49 1513.04 1715.82 1503.88 1724.98 1485.55 1724.98 1476.39 1715.82 1476.39 1697.49 1485.55 1688.33 M 1540.53 1724.98 1558.86 1724.98 1568.02 1715.82 1568.02 1688.33 1540.53 1688.33 1531.37 1697.49 1540.53 1706.66 1568.02 1706.66 M 1586.35 1724.98 1586.35 1688.33 1586.35 1706.66 1595.52 1715.82 1604.68 1724.98 1613.84 1724.98 M 1677.99 1743.31 1677.99 1688.33 1650.5 1688.33 1641.33 1697.49 1641.33 1715.82 1650.5 1724.98 1677.99 1724.98 M 1751.3 1688.33 1769.63 1688.33 1760.46 1688.33 1760.46 1743.31 1751.3 1734.15 M 1797.12 1688.33 1797.12 1697.49 1806.28 1697.49 1806.28 1688.33 1797.12 1688.33 M 1842.94 1688.33 1861.26 1688.33 1852.1 1688.33 1852.1 1743.31 1842.94 1734.15 M 775.01 605.09 735.02 605.09 715.03 625.09 735.02 645.08 775.01 645.08 745.02 645.08 745.02 605.09 M 715.03 665.07 715.03 705.06 715.03 685.07 775.01 685.07 M 775.01 725.05 735.02 725.05 735.02 735.05 745.02 745.05 775.01 745.05 745.02 745.05 735.02 755.04 745.02 765.04 775.01 765.04 M 775.01 815.03 775.01 795.03 765.01 785.04 745.02 785.04 735.02 795.03 735.02 815.03 745.02 825.02 755.01 825.02 755.01 785.04 M 795 865.01 795 875.01 785 885 735.02 885 735.02 855.01 745.02 845.02 765.01 845.02 775.01 855.01 775.01 885 M 735.02 914.99 735.02 934.99 745.02 944.98 775.01 944.98 775.01 914.99 765.01 905 755.01 914.99 755.01 944.98 M 725.02 964.98 715.03 974.97 715.03 994.97 725.02 1004.96 735.02 1004.96 745.02 994.97 745.02 984.97 745.02 994.97 755.01 1004.96 765.01 1004.96 775.01 994.97 775.01 974.97 765.01 964.98 M 775.01 1064.94 775.01 1024.96 735.02 1064.94 725.02 1064.94 715.03 1054.95 715.03 1034.96 725.02 1024.96 M 725.02 1084.94 715.03 1094.94 715.03 1114.93 725.02 1124.93 735.02 1124.93 745.02 1114.93 755.01 1124.93 765.01 1124.93 775.01 1114.93 775.01 1094.94 765.01 1084.94 755.01 1084.94 745.02 1094.94 735.02 1084.94 725.02 1084.94 M 745.02 1094.94 745.02 1114.93 M 775.01 1144.92 715.03 1144.92 715.03 1174.91 725.02 1184.91 745.02 1184.91 755.01 1174.91 755.01 1144.92 M 1470.05 1030 1470.05 1089.98 1500.04 1089.98 1510.04 1079.98 1510.04 1059.99 1500.04 1049.99 1470.05 1049.99 M 1490.05 1049.99 1510.04 1030 M 1570.02 1089.98 1530.04 1089.98 1530.04 1059.99 1550.03 1059.99 1530.04 1059.99 1530.04 1030 M 1590.02 1030 1590.02 1089.98 1610.01 1069.99 1630 1089.98 1630 1030 M 1650 1040 1659.99 1030 1679.99 1030 1689.98 1040 1689.98 1079.98 1679.99 1089.98 1659.99 1089.98 1650 1079.98 1650 1069.99 1659.99 1059.99 1689.98 1059.99 M 1749.96 1089.98 1729.97 1079.98 1709.98 1059.99 1709.98 1040 1719.97 1030 1739.97 1030 1749.96 1040 1749.96 1049.99 1739.97 1059.99 1709.98 1059.99 M 1769.96 1089.98 1769.96 1030 1789.95 1049.99 1809.94 1030 1809.94 1089.98 M 24.99 1085 -1.67 1085 -15 1071.67 -1.67 1058.34 24.99 1058.34 M -15 1045.01 -15 1031.68 -15 1038.35 11.66 1038.35 11.66 1045.01 M -15 1011.69 11.66 1011.69 11.66 991.7 4.99 985.03 -15 985.03 M 18.32 868.34 24.99 875.01 24.99 888.34 18.32 895 -8.33 895 -15 888.34 -15 875.01 -8.33 868.34 4.99 868.34 4.99 881.67 M -15 855.01 24.99 855.01 -15 828.36 24.99 828.36 M 24.99 815.03 -15 815.03 -15 795.03 -8.33 788.37 18.32 788.37 24.99 795.03 24.99 815.03 M -15 1750 24.99 1750 24.99 1730.01 18.32 1723.34 4.99 1723.34 -1.67 1730.01 -1.67 1750 M 24.99 1690.02 24.99 1703.35 18.32 1710.01 -8.33 1710.01 -15 1703.35 -15 1690.02 -8.33 1683.35 18.32 1683.35 24.99 1690.02 M 24.99 1670.03 24.99 1643.37 24.99 1656.7 -15 1656.7 M 18.32 1543.34 24.99 1550.01 24.99 1563.33 18.32 1570 11.66 1570 4.99 1563.33 4.99 1550.01 -1.67 1543.34 -8.33 1543.34 -15 1550.01 -15 1563.33 -8.33 1570 M 24.99 1530.01 18.32 1530.01 4.99 1516.68 18.32 1503.36 24.99 1503.36 M 4.99 1516.68 -15 1516.68 M -15 1490.03 24.99 1490.03 -15 1463.37 24.99 1463.37 M 18.32 1423.38 24.99 1430.05 24.99 1443.37 18.32 1450.04 -8.33 1450.04 -15 1443.37 -15 1430.05 -8.33 1423.38 M 18.32 1328.34 24.99 1335.01 24.99 1348.34 18.32 1355 -8.33 1355 -15 1348.34 -15 1335.01 -8.33 1328.34 4.99 1328.34 4.99 1341.67 M -15 1315.01 24.99 1315.01 -15 1288.35 24.99 1288.35 M 24.99 1275.03 -15 1275.03 -15 1255.03 -8.33 1248.37 18.32 1248.37 24.99 1255.03 24.99 1275.03 M 180.02 210 240 210 240 239.99 230 249.99 190.02 249.99 180.02 239.99 180.02 210 M 190.02 309.97 180.02 299.97 180.02 279.98 190.02 269.98 200.01 269.98 210.01 279.98 210.01 299.97 220.01 309.97 230 309.97 240 299.97 240 279.98 230 269.98 M 190.02 329.96 180.02 339.96 180.02 359.95 190.02 369.95 200.01 369.95 210.01 359.95 210.01 349.95 210.01 359.95 220.01 369.95 230 369.95 240 359.95 240 339.96 230 329.96 M 240 429.93 240 389.94 200.01 429.93 190.02 429.93 180.02 419.93 180.02 399.94 190.02 389.94 M 190.02 449.92 180.02 459.92 180.02 479.91 190.02 489.91 200.01 489.91 210.01 479.91 210.01 469.92 210.01 479.91 220.01 489.91 230 489.91 240 479.91 240 459.92 230 449.92 M 240 509.9 240 529.9 240 519.9 180.02 519.9 190.02 509.9 M 760 63.33 760 118.31 796.65 63.33 796.65 118.31 M 814.98 63.33 814.98 72.49 824.15 72.49 824.15 63.33 814.98 63.33 M 952.44 118.31 952.44 63.33 924.95 63.33 915.78 72.49 915.78 90.82 924.95 99.98 952.44 99.98 M 970.76 63.33 970.76 118.31 998.26 118.31 1007.42 109.15 1007.42 90.82 998.26 81.66 970.76 81.66 M 1034.91 54.16 1044.08 63.33 1044.08 72.49 1034.91 72.49 1034.91 63.33 1044.08 63.33 1034.91 54.16 1025.75 45 M 1135.71 118.31 1135.71 63.33 1163.2 63.33 1172.37 72.49 1172.37 81.66 1163.2 90.82 1135.71 90.82 1163.2 90.82 1172.37 99.98 1172.37 109.15 1163.2 118.31 1135.71 118.31 M 1190.69 63.33 1190.69 72.49 1199.86 72.49 1199.86 63.33 1190.69 63.33 M 1291.49 63.33 1291.49 118.31 1318.99 118.31 1328.15 109.15 1328.15 90.82 1318.99 81.66 1291.49 81.66 M 1355.64 54.16 1364.8 63.33 1364.8 72.49 1355.64 72.49 1355.64 63.33 1364.8 63.33 1355.64 54.16 1346.48 45 M 1493.1 109.15 1483.93 118.31 1465.61 118.31 1456.44 109.15 1456.44 72.49 1465.61 63.33 1483.93 63.33 1493.1 72.49 M 1511.42 63.33 1511.42 72.49 1520.59 72.49 1520.59 63.33 1511.42 63.33 M 1612.22 63.33 1612.22 118.31 1630.55 99.98 1648.88 118.31 1648.88 63.33 M 412.5 896.26 412.5 904.6 412.5 900.43 387.5 900.43 391.67 896.26 M 391.67 917.09 387.5 921.26 387.5 929.59 391.67 933.75 408.33 933.75 412.5 929.59 412.5 921.26 408.33 917.09 391.67 917.09 M 391.67 942.08 387.5 946.25 387.5 954.58 391.67 958.74 408.33 958.74 412.5 954.58 412.5 946.25 408.33 942.08 391.67 942.08 M 412.5 967.07 395.84 967.07 395.84 979.57 400 983.74 412.5 983.74" fill="none" stroke-width="10"/></g><g id="F4OWIhjZmxZA0PGwbLoZ_top_soldermask"><use xlink:href="#UbMFJKrhb5MWeVKpHUst_pad-11" x="1090" y="830"/><use xlink:href="#UbMFJKrhb5MWeVKpHUst_pad-11" x="400" y="1045"/><use xlink:href="#UbMFJKrhb5MWeVKpHUst_pad-12" x="1090" y="1030"/><use xlink:href="#UbMFJKrhb5MWeVKpHUst_pad-12" x="400" y="845"/><use xlink:href="#UbMFJKrhb5MWeVKpHUst_pad-12" x="460" y="90"/><use xlink:href="#UbMFJKrhb5MWeVKpHUst_pad-12" x="470" y="1710"/><use xlink:href="#UbMFJKrhb5MWeVKpHUst_pad-12" x="2015" y="90"/><use xlink:href="#UbMFJKrhb5MWeVKpHUst_pad-12" x="2015" y="1710"/><use xlink:href="#UbMFJKrhb5MWeVKpHUst_pad-13" x="605" y="445"/><use xlink:href="#UbMFJKrhb5MWeVKpHUst_pad-13" x="605" y="845"/><use xlink:href="#UbMFJKrhb5MWeVKpHUst_pad-13" x="605" y="1245"/><use xlink:href="#UbMFJKrhb5MWeVKpHUst_pad-13" x="605" y="245"/><use xlink:href="#UbMFJKrhb5MWeVKpHUst_pad-13" x="605" y="345"/><use xlink:href="#UbMFJKrhb5MWeVKpHUst_pad-13" x="605" y="645"/><use xlink:href="#UbMFJKrhb5MWeVKpHUst_pad-13" x="605" y="745"/><use xlink:href="#UbMFJKrhb5MWeVKpHUst_pad-13" x="605" y="945"/><use xlink:href="#UbMFJKrhb5MWeVKpHUst_pad-13" x="605" y="1045"/><use xlink:href="#UbMFJKrhb5MWeVKpHUst_pad-13" x="605" y="1345"/><use xlink:href="#UbMFJKrhb5MWeVKpHUst_pad-13" x="605" y="1445"/><use xlink:href="#UbMFJKrhb5MWeVKpHUst_pad-13" x="605" y="1545"/><use xlink:href="#UbMFJKrhb5MWeVKpHUst_pad-13" x="605" y="545"/><use xlink:href="#UbMFJKrhb5MWeVKpHUst_pad-13" x="605" y="1145"/><use xlink:href="#UbMFJKrhb5MWeVKpHUst_pad-13" x="905" y="1545"/><use xlink:href="#UbMFJKrhb5MWeVKpHUst_pad-13" x="905" y="345"/><use xlink:href="#UbMFJKrhb5MWeVKpHUst_pad-13" x="905" y="445"/><use xlink:href="#UbMFJKrhb5MWeVKpHUst_pad-13" x="905" y="545"/><use xlink:href="#UbMFJKrhb5MWeVKpHUst_pad-13" x="905" y="645"/><use xlink:href="#UbMFJKrhb5MWeVKpHUst_pad-13" x="905" y="745"/><use xlink:href="#UbMFJKrhb5MWeVKpHUst_pad-13" x="905" y="845"/><use xlink:href="#UbMFJKrhb5MWeVKpHUst_pad-13" x="905" y="945"/><use xlink:href="#UbMFJKrhb5MWeVKpHUst_pad-13" x="905" y="1045"/><use xlink:href="#UbMFJKrhb5MWeVKpHUst_pad-13" x="905" y="1145"/><use xlink:href="#UbMFJKrhb5MWeVKpHUst_pad-13" x="905" y="1245"/><use xlink:href="#UbMFJKrhb5MWeVKpHUst_pad-13" x="905" y="1345"/><use xlink:href="#UbMFJKrhb5MWeVKpHUst_pad-13" x="905" y="1445"/><use xlink:href="#UbMFJKrhb5MWeVKpHUst_pad-13" x="110" y="635"/><use xlink:href="#UbMFJKrhb5MWeVKpHUst_pad-13" x="110" y="535"/><use xlink:href="#UbMFJKrhb5MWeVKpHUst_pad-13" x="110" y="435"/><use xlink:href="#UbMFJKrhb5MWeVKpHUst_pad-13" x="110" y="335"/><use xlink:href="#UbMFJKrhb5MWeVKpHUst_pad-13" x="110" y="235"/><use xlink:href="#UbMFJKrhb5MWeVKpHUst_pad-13" x="1240" y="1550"/><use xlink:href="#UbMFJKrhb5MWeVKpHUst_pad-13" x="1340" y="1550"/><use xlink:href="#UbMFJKrhb5MWeVKpHUst_pad-13" x="1440" y="1550"/><use xlink:href="#UbMFJKrhb5MWeVKpHUst_pad-13" x="1540" y="1550"/><use xlink:href="#UbMFJKrhb5MWeVKpHUst_pad-13" x="1640" y="1550"/><use xlink:href="#UbMFJKrhb5MWeVKpHUst_pad-13" x="1340" y="550"/><use xlink:href="#UbMFJKrhb5MWeVKpHUst_pad-13" x="1440" y="550"/><use xlink:href="#UbMFJKrhb5MWeVKpHUst_pad-13" x="1540" y="550"/><use xlink:href="#UbMFJKrhb5MWeVKpHUst_pad-13" x="1640" y="550"/><use xlink:href="#UbMFJKrhb5MWeVKpHUst_pad-13" x="1740" y="550"/><use xlink:href="#UbMFJKrhb5MWeVKpHUst_pad-13" x="1840" y="550"/><use xlink:href="#UbMFJKrhb5MWeVKpHUst_pad-13" x="1940" y="550"/><use xlink:href="#UbMFJKrhb5MWeVKpHUst_pad-13" x="2040" y="550"/><use xlink:href="#UbMFJKrhb5MWeVKpHUst_pad-13" x="1390" y="300"/><use xlink:href="#UbMFJKrhb5MWeVKpHUst_pad-13" x="1490" y="300"/><use xlink:href="#UbMFJKrhb5MWeVKpHUst_pad-13" x="1590" y="300"/><use xlink:href="#UbMFJKrhb5MWeVKpHUst_pad-13" x="1690" y="300"/><use xlink:href="#UbMFJKrhb5MWeVKpHUst_pad-13" x="1790" y="300"/><use xlink:href="#UbMFJKrhb5MWeVKpHUst_pad-13" x="1890" y="300"/><use xlink:href="#UbMFJKrhb5MWeVKpHUst_pad-13" x="1990" y="300"/><use xlink:href="#UbMFJKrhb5MWeVKpHUst_pad-13" x="1990" y="400"/><use xlink:href="#UbMFJKrhb5MWeVKpHUst_pad-13" x="1890" y="400"/><use xlink:href="#UbMFJKrhb5MWeVKpHUst_pad-13" x="1790" y="400"/><use xlink:href="#UbMFJKrhb5MWeVKpHUst_pad-13" x="1690" y="400"/><use xlink:href="#UbMFJKrhb5MWeVKpHUst_pad-13" x="1590" y="400"/><use xlink:href="#UbMFJKrhb5MWeVKpHUst_pad-13" x="1490" y="400"/><use xlink:href="#UbMFJKrhb5MWeVKpHUst_pad-13" x="1390" y="400"/><use xlink:href="#UbMFJKrhb5MWeVKpHUst_pad-13" x="1290" y="400"/><use xlink:href="#UbMFJKrhb5MWeVKpHUst_pad-14" x="905" y="245"/><use xlink:href="#UbMFJKrhb5MWeVKpHUst_pad-14" x="110" y="135"/><use xlink:href="#UbMFJKrhb5MWeVKpHUst_pad-15" x="1240" y="550"/><use xlink:href="#UbMFJKrhb5MWeVKpHUst_pad-15" x="1290" y="300"/><use xlink:href="#UbMFJKrhb5MWeVKpHUst_pad-16" x="170" y="1290"/><use xlink:href="#UbMFJKrhb5MWeVKpHUst_pad-16" x="170" y="1490"/><use xlink:href="#UbMFJKrhb5MWeVKpHUst_pad-16" x="170" y="830"/><use xlink:href="#UbMFJKrhb5MWeVKpHUst_pad-17" x="170" y="1690"/><use xlink:href="#UbMFJKrhb5MWeVKpHUst_pad-17" x="170" y="1030"/><use xlink:href="#UbMFJKrhb5MWeVKpHUst_pad-18" x="820" y="340"/></g><g id="F4OWIhjZmxZA0PGwbLoZ_top_copper"><path d="M 1183.75 416.25 1183.75 451.25 M 1250 350 1730 350 M 1183.75 416.25 1250 350 M 845 695 940 695 1183.75 451.25 M 1730 350 1788.94 408.94 M 550 1390 601.58 1338.43 M 1292 402 1292 974 M 905 1345 919.07 1345 M 935.53 1330.47 1292 974 M 919.07 1345 933.6 1330.47 935.53 1330.47 M 905 1445 1388 962 M 1388 402 1390 400 M 1388 402 1388 962 M 1290 400 1292 402 M 170 1000 170 1060 M 280 1480 565 1195 M 654.14 1195 700 1149.14 M 565 1195 654.14 1195 M 925 595 1220 300 M 740 695 840 595 925 595 M 182.92 1467.08 555 1095 M 625 1095 660 1060 M 555 1095 625 1095 M 280 1480 280 1550 M 40 605 110 535 M 40 605 40 900 170 1030 M 820 230 880 170 1980 170 M 820 230 820 340 M 1980 170 2040 230 2040 550 M 650 180 660 190 M 660 290 905 535 M 660 190 660 290 M 790 750 790 1440 M 790 750 845 695 M 1220 300 1290 300 M 660 600 660 1060 M 605 545 660 600 M 610 450 700 540 700 1149.14 M 605 1536.27 740 1401.27 M 740 695 740 1401.27 M 840 1310 905 1245 M 840 1555 880 1595 M 840 1310 840 1555 M 630 1600 790 1440 M 905 1145 915 1145 1030 1030 1090 1030 M 170 1660 280 1550 M 605 1045 606.12 1045 M 400 1045 605 1045 M 170 1045 400 1045 M 1285.86 314.14 1290 310 M 550 1580 570 1600 M 550 1390 550 1580 M 570 1600 630 1600 M 605 1536.27 605 1545 M 175 180 650 180 M 905 535 905 545 M 1790 410 1790 500 1840 550 M 200 245 605 245 M 915 1045 1090 870 M 1090 830 1090 870 M 110 235 120 235 175 180 M 110 335 200 245 M 200 345 605 345 M 110 435 200 345 M 905 1045 915 1045 M 1940 550 1940 590 M 935 1595 1940 590 M 880 1595 935 1595 M 905 1545 1690 760 M 1690 410 1690 760 M 905 845 910 845 M 1200.86 554.14 1235.86 554.14 M 910 845 1200.86 554.14" fill="none" stroke-width="10"/><use xlink:href="#tPHzXQrTtV81cvFA2Dsv_pad-19" x="1090" y="830"/><use xlink:href="#tPHzXQrTtV81cvFA2Dsv_pad-19" x="400" y="1045"/><use xlink:href="#tPHzXQrTtV81cvFA2Dsv_pad-20" x="1090" y="1030"/><use xlink:href="#tPHzXQrTtV81cvFA2Dsv_pad-20" x="400" y="845"/><use xlink:href="#tPHzXQrTtV81cvFA2Dsv_pad-20" x="460" y="90"/><use xlink:href="#tPHzXQrTtV81cvFA2Dsv_pad-20" x="470" y="1710"/><use xlink:href="#tPHzXQrTtV81cvFA2Dsv_pad-20" x="2015" y="90"/><use xlink:href="#tPHzXQrTtV81cvFA2Dsv_pad-20" x="2015" y="1710"/><use xlink:href="#tPHzXQrTtV81cvFA2Dsv_pad-21" x="605" y="445"/><use xlink:href="#tPHzXQrTtV81cvFA2Dsv_pad-21" x="605" y="845"/><use xlink:href="#tPHzXQrTtV81cvFA2Dsv_pad-21" x="605" y="1245"/><use xlink:href="#tPHzXQrTtV81cvFA2Dsv_pad-21" x="605" y="245"/><use xlink:href="#tPHzXQrTtV81cvFA2Dsv_pad-21" x="605" y="345"/><use xlink:href="#tPHzXQrTtV81cvFA2Dsv_pad-21" x="605" y="645"/><use xlink:href="#tPHzXQrTtV81cvFA2Dsv_pad-21" x="605" y="745"/><use xlink:href="#tPHzXQrTtV81cvFA2Dsv_pad-21" x="605" y="945"/><use xlink:href="#tPHzXQrTtV81cvFA2Dsv_pad-21" x="605" y="1045"/><use xlink:href="#tPHzXQrTtV81cvFA2Dsv_pad-21" x="605" y="1345"/><use xlink:href="#tPHzXQrTtV81cvFA2Dsv_pad-21" x="605" y="1445"/><use xlink:href="#tPHzXQrTtV81cvFA2Dsv_pad-21" x="605" y="1545"/><use xlink:href="#tPHzXQrTtV81cvFA2Dsv_pad-21" x="605" y="545"/><use xlink:href="#tPHzXQrTtV81cvFA2Dsv_pad-21" x="605" y="1145"/><use xlink:href="#tPHzXQrTtV81cvFA2Dsv_pad-21" x="905" y="1545"/><use xlink:href="#tPHzXQrTtV81cvFA2Dsv_pad-21" x="905" y="345"/><use xlink:href="#tPHzXQrTtV81cvFA2Dsv_pad-21" x="905" y="445"/><use xlink:href="#tPHzXQrTtV81cvFA2Dsv_pad-21" x="905" y="545"/><use xlink:href="#tPHzXQrTtV81cvFA2Dsv_pad-21" x="905" y="645"/><use xlink:href="#tPHzXQrTtV81cvFA2Dsv_pad-21" x="905" y="745"/><use xlink:href="#tPHzXQrTtV81cvFA2Dsv_pad-21" x="905" y="845"/><use xlink:href="#tPHzXQrTtV81cvFA2Dsv_pad-21" x="905" y="945"/><use xlink:href="#tPHzXQrTtV81cvFA2Dsv_pad-21" x="905" y="1045"/><use xlink:href="#tPHzXQrTtV81cvFA2Dsv_pad-21" x="905" y="1145"/><use xlink:href="#tPHzXQrTtV81cvFA2Dsv_pad-21" x="905" y="1245"/><use xlink:href="#tPHzXQrTtV81cvFA2Dsv_pad-21" x="905" y="1345"/><use xlink:href="#tPHzXQrTtV81cvFA2Dsv_pad-21" x="905" y="1445"/><use xlink:href="#tPHzXQrTtV81cvFA2Dsv_pad-21" x="110" y="635"/><use xlink:href="#tPHzXQrTtV81cvFA2Dsv_pad-21" x="110" y="535"/><use xlink:href="#tPHzXQrTtV81cvFA2Dsv_pad-21" x="110" y="435"/><use xlink:href="#tPHzXQrTtV81cvFA2Dsv_pad-21" x="110" y="335"/><use xlink:href="#tPHzXQrTtV81cvFA2Dsv_pad-21" x="110" y="235"/><use xlink:href="#tPHzXQrTtV81cvFA2Dsv_pad-21" x="1240" y="1550"/><use xlink:href="#tPHzXQrTtV81cvFA2Dsv_pad-21" x="1340" y="1550"/><use xlink:href="#tPHzXQrTtV81cvFA2Dsv_pad-21" x="1440" y="1550"/><use xlink:href="#tPHzXQrTtV81cvFA2Dsv_pad-21" x="1540" y="1550"/><use xlink:href="#tPHzXQrTtV81cvFA2Dsv_pad-21" x="1640" y="1550"/><use xlink:href="#tPHzXQrTtV81cvFA2Dsv_pad-21" x="1340" y="550"/><use xlink:href="#tPHzXQrTtV81cvFA2Dsv_pad-21" x="1440" y="550"/><use xlink:href="#tPHzXQrTtV81cvFA2Dsv_pad-21" x="1540" y="550"/><use xlink:href="#tPHzXQrTtV81cvFA2Dsv_pad-21" x="1640" y="550"/><use xlink:href="#tPHzXQrTtV81cvFA2Dsv_pad-21" x="1740" y="550"/><use xlink:href="#tPHzXQrTtV81cvFA2Dsv_pad-21" x="1840" y="550"/><use xlink:href="#tPHzXQrTtV81cvFA2Dsv_pad-21" x="1940" y="550"/><use xlink:href="#tPHzXQrTtV81cvFA2Dsv_pad-21" x="2040" y="550"/><use xlink:href="#tPHzXQrTtV81cvFA2Dsv_pad-21" x="1390" y="300"/><use xlink:href="#tPHzXQrTtV81cvFA2Dsv_pad-21" x="1490" y="300"/><use xlink:href="#tPHzXQrTtV81cvFA2Dsv_pad-21" x="1590" y="300"/><use xlink:href="#tPHzXQrTtV81cvFA2Dsv_pad-21" x="1690" y="300"/><use xlink:href="#tPHzXQrTtV81cvFA2Dsv_pad-21" x="1790" y="300"/><use xlink:href="#tPHzXQrTtV81cvFA2Dsv_pad-21" x="1890" y="300"/><use xlink:href="#tPHzXQrTtV81cvFA2Dsv_pad-21" x="1990" y="300"/><use xlink:href="#tPHzXQrTtV81cvFA2Dsv_pad-21" x="1990" y="400"/><use xlink:href="#tPHzXQrTtV81cvFA2Dsv_pad-21" x="1890" y="400"/><use xlink:href="#tPHzXQrTtV81cvFA2Dsv_pad-21" x="1790" y="400"/><use xlink:href="#tPHzXQrTtV81cvFA2Dsv_pad-21" x="1690" y="400"/><use xlink:href="#tPHzXQrTtV81cvFA2Dsv_pad-21" x="1590" y="400"/><use xlink:href="#tPHzXQrTtV81cvFA2Dsv_pad-21" x="1490" y="400"/><use xlink:href="#tPHzXQrTtV81cvFA2Dsv_pad-21" x="1390" y="400"/><use xlink:href="#tPHzXQrTtV81cvFA2Dsv_pad-21" x="1290" y="400"/><use xlink:href="#tPHzXQrTtV81cvFA2Dsv_pad-22" x="905" y="245"/><use xlink:href="#tPHzXQrTtV81cvFA2Dsv_pad-22" x="110" y="135"/><use xlink:href="#tPHzXQrTtV81cvFA2Dsv_pad-23" x="1240" y="550"/><use xlink:href="#tPHzXQrTtV81cvFA2Dsv_pad-23" x="1290" y="300"/><use xlink:href="#tPHzXQrTtV81cvFA2Dsv_pad-24" x="170" y="1290"/><use xlink:href="#tPHzXQrTtV81cvFA2Dsv_pad-24" x="170" y="1490"/><use xlink:href="#tPHzXQrTtV81cvFA2Dsv_pad-24" x="170" y="830"/><use xlink:href="#tPHzXQrTtV81cvFA2Dsv_pad-25" x="170" y="1690"/><use xlink:href="#tPHzXQrTtV81cvFA2Dsv_pad-25" x="170" y="1030"/><use xlink:href="#tPHzXQrTtV81cvFA2Dsv_pad-26" x="820" y="340"/></g><g id="F4OWIhjZmxZA0PGwbLoZ_top_drill1"><use xlink:href="#_BBodhisH0cuvPIAtKmR_pad-1" x="820" y="340"/><use xlink:href="#_BBodhisH0cuvPIAtKmR_pad-2" x="1090" y="830"/><use xlink:href="#_BBodhisH0cuvPIAtKmR_pad-2" x="1090" y="1030"/><use xlink:href="#_BBodhisH0cuvPIAtKmR_pad-2" x="400" y="1045"/><use xlink:href="#_BBodhisH0cuvPIAtKmR_pad-2" x="400" y="845"/><use xlink:href="#_BBodhisH0cuvPIAtKmR_pad-3" x="605" y="245"/><use xlink:href="#_BBodhisH0cuvPIAtKmR_pad-3" x="605" y="345"/><use xlink:href="#_BBodhisH0cuvPIAtKmR_pad-3" x="605" y="445"/><use xlink:href="#_BBodhisH0cuvPIAtKmR_pad-3" x="605" y="545"/><use xlink:href="#_BBodhisH0cuvPIAtKmR_pad-3" x="605" y="645"/><use xlink:href="#_BBodhisH0cuvPIAtKmR_pad-3" x="605" y="745"/><use xlink:href="#_BBodhisH0cuvPIAtKmR_pad-3" x="605" y="845"/><use xlink:href="#_BBodhisH0cuvPIAtKmR_pad-3" x="605" y="945"/><use xlink:href="#_BBodhisH0cuvPIAtKmR_pad-3" x="605" y="1045"/><use xlink:href="#_BBodhisH0cuvPIAtKmR_pad-3" x="905" y="1045"/><use xlink:href="#_BBodhisH0cuvPIAtKmR_pad-3" x="905" y="945"/><use xlink:href="#_BBodhisH0cuvPIAtKmR_pad-3" x="905" y="845"/><use xlink:href="#_BBodhisH0cuvPIAtKmR_pad-3" x="905" y="745"/><use xlink:href="#_BBodhisH0cuvPIAtKmR_pad-3" x="905" y="645"/><use xlink:href="#_BBodhisH0cuvPIAtKmR_pad-3" x="905" y="545"/><use xlink:href="#_BBodhisH0cuvPIAtKmR_pad-3" x="905" y="445"/><use xlink:href="#_BBodhisH0cuvPIAtKmR_pad-3" x="905" y="345"/><use xlink:href="#_BBodhisH0cuvPIAtKmR_pad-3" x="905" y="245"/><use xlink:href="#_BBodhisH0cuvPIAtKmR_pad-3" x="1290" y="300"/><use xlink:href="#_BBodhisH0cuvPIAtKmR_pad-3" x="1390" y="300"/><use xlink:href="#_BBodhisH0cuvPIAtKmR_pad-3" x="1490" y="300"/><use xlink:href="#_BBodhisH0cuvPIAtKmR_pad-3" x="1590" y="300"/><use xlink:href="#_BBodhisH0cuvPIAtKmR_pad-3" x="1690" y="300"/><use xlink:href="#_BBodhisH0cuvPIAtKmR_pad-3" x="1790" y="300"/><use xlink:href="#_BBodhisH0cuvPIAtKmR_pad-3" x="1890" y="300"/><use xlink:href="#_BBodhisH0cuvPIAtKmR_pad-3" x="1990" y="300"/><use xlink:href="#_BBodhisH0cuvPIAtKmR_pad-3" x="1990" y="400"/><use xlink:href="#_BBodhisH0cuvPIAtKmR_pad-3" x="1890" y="400"/><use xlink:href="#_BBodhisH0cuvPIAtKmR_pad-3" x="1790" y="400"/><use xlink:href="#_BBodhisH0cuvPIAtKmR_pad-3" x="1690" y="400"/><use xlink:href="#_BBodhisH0cuvPIAtKmR_pad-3" x="1590" y="400"/><use xlink:href="#_BBodhisH0cuvPIAtKmR_pad-3" x="1490" y="400"/><use xlink:href="#_BBodhisH0cuvPIAtKmR_pad-3" x="1390" y="400"/><use xlink:href="#_BBodhisH0cuvPIAtKmR_pad-3" x="1290" y="400"/><use xlink:href="#_BBodhisH0cuvPIAtKmR_pad-3" x="1240" y="550"/><use xlink:href="#_BBodhisH0cuvPIAtKmR_pad-3" x="1340" y="550"/><use xlink:href="#_BBodhisH0cuvPIAtKmR_pad-3" x="1440" y="550"/><use xlink:href="#_BBodhisH0cuvPIAtKmR_pad-3" x="1540" y="550"/><use xlink:href="#_BBodhisH0cuvPIAtKmR_pad-3" x="1640" y="550"/><use xlink:href="#_BBodhisH0cuvPIAtKmR_pad-3" x="1740" y="550"/><use xlink:href="#_BBodhisH0cuvPIAtKmR_pad-3" x="1840" y="550"/><use xlink:href="#_BBodhisH0cuvPIAtKmR_pad-3" x="1940" y="550"/><use xlink:href="#_BBodhisH0cuvPIAtKmR_pad-3" x="2040" y="550"/><use xlink:href="#_BBodhisH0cuvPIAtKmR_pad-3" x="110" y="535"/><use xlink:href="#_BBodhisH0cuvPIAtKmR_pad-3" x="110" y="635"/><use xlink:href="#_BBodhisH0cuvPIAtKmR_pad-3" x="110" y="435"/><use xlink:href="#_BBodhisH0cuvPIAtKmR_pad-3" x="110" y="335"/><use xlink:href="#_BBodhisH0cuvPIAtKmR_pad-3" x="110" y="235"/><use xlink:href="#_BBodhisH0cuvPIAtKmR_pad-3" x="110" y="135"/><use xlink:href="#_BBodhisH0cuvPIAtKmR_pad-3" x="605" y="1145"/><use xlink:href="#_BBodhisH0cuvPIAtKmR_pad-3" x="605" y="1245"/><use xlink:href="#_BBodhisH0cuvPIAtKmR_pad-3" x="605" y="1345"/><use xlink:href="#_BBodhisH0cuvPIAtKmR_pad-3" x="605" y="1445"/><use xlink:href="#_BBodhisH0cuvPIAtKmR_pad-3" x="605" y="1545"/><use xlink:href="#_BBodhisH0cuvPIAtKmR_pad-3" x="905" y="1545"/><use xlink:href="#_BBodhisH0cuvPIAtKmR_pad-3" x="905" y="1445"/><use xlink:href="#_BBodhisH0cuvPIAtKmR_pad-3" x="905" y="1345"/><use xlink:href="#_BBodhisH0cuvPIAtKmR_pad-3" x="905" y="1245"/><use xlink:href="#_BBodhisH0cuvPIAtKmR_pad-3" x="905" y="1145"/><use xlink:href="#_BBodhisH0cuvPIAtKmR_pad-3" x="1240" y="1550"/><use xlink:href="#_BBodhisH0cuvPIAtKmR_pad-3" x="1340" y="1550"/><use xlink:href="#_BBodhisH0cuvPIAtKmR_pad-3" x="1440" y="1550"/><use xlink:href="#_BBodhisH0cuvPIAtKmR_pad-3" x="1540" y="1550"/><use xlink:href="#_BBodhisH0cuvPIAtKmR_pad-3" x="1640" y="1550"/><use xlink:href="#_BBodhisH0cuvPIAtKmR_pad-4" x="170" y="830"/><use xlink:href="#_BBodhisH0cuvPIAtKmR_pad-4" x="170" y="1030"/><use xlink:href="#_BBodhisH0cuvPIAtKmR_pad-4" x="170" y="1290"/><use xlink:href="#_BBodhisH0cuvPIAtKmR_pad-4" x="170" y="1490"/><use xlink:href="#_BBodhisH0cuvPIAtKmR_pad-4" x="170" y="1690"/><use xlink:href="#_BBodhisH0cuvPIAtKmR_pad-5" x="2015" y="90"/><use xlink:href="#_BBodhisH0cuvPIAtKmR_pad-5" x="460" y="90"/><use xlink:href="#_BBodhisH0cuvPIAtKmR_pad-5" x="470" y="1710"/><use xlink:href="#_BBodhisH0cuvPIAtKmR_pad-5" x="2015" y="1710"/></g><clipPath id="F4OWIhjZmxZA0PGwbLoZ_top_outline"><path d="M -50 1850 -50 -50 2160 -50 2160 1850 -50 1850" fill="none" stroke-width="20"/></clipPath><mask id="F4OWIhjZmxZA0PGwbLoZ_top_mech-mask"><g fill="#000" stroke="#000"><rect x="-50" y="-50" width="2210" height="1900" fill="#fff"/><use xlink:href="#F4OWIhjZmxZA0PGwbLoZ_top_drill1"/></g></mask><mask id="F4OWIhjZmxZA0PGwbLoZ_top_cf-mask"><g fill="#fff" stroke="#fff"><use xlink:href="#F4OWIhjZmxZA0PGwbLoZ_top_soldermask"/></g></mask><mask id="F4OWIhjZmxZA0PGwbLoZ_top_sm-mask"><g fill="#000" stroke="#000"><rect x="-50" y="-50" width="2210" height="1900" fill="#fff"/><use xlink:href="#F4OWIhjZmxZA0PGwbLoZ_top_soldermask"/></g></mask></defs><g transform="translate(0,1800) scale(1,-1)"><g mask="url(#F4OWIhjZmxZA0PGwbLoZ_top_mech-mask)" clip-path="url(#F4OWIhjZmxZA0PGwbLoZ_top_outline)"><rect x="-50" y="-50" width="2210" height="1900" fill="currentColor" class="F4OWIhjZmxZA0PGwbLoZ_fr4"/><use xlink:href="#F4OWIhjZmxZA0PGwbLoZ_top_copper" fill="currentColor" stroke="currentColor" class="F4OWIhjZmxZA0PGwbLoZ_cu"/><use xlink:href="#F4OWIhjZmxZA0PGwbLoZ_top_copper" fill="currentColor" stroke="currentColor" class="F4OWIhjZmxZA0PGwbLoZ_cf" mask="url(#F4OWIhjZmxZA0PGwbLoZ_top_cf-mask)"/><g mask="url(#F4OWIhjZmxZA0PGwbLoZ_top_sm-mask)"><rect x="-50" y="-50" width="2210" height="1900" fill="currentColor" class="F4OWIhjZmxZA0PGwbLoZ_sm"/><use xlink:href="#F4OWIhjZmxZA0PGwbLoZ_top_silkscreen" fill="currentColor" stroke="currentColor" class="F4OWIhjZmxZA0PGwbLoZ_ss"/></g></g></g></svg>