<svg version="1.1" xmlns="http://www.w3.org/2000/svg" xmlns:xlink="http://www.w3.org/1999/xlink" stroke-linecap="round" stroke-linejoin="round" stroke-width="0" fill-rule="evenodd" clip-rule="evenodd" id="m-f1ntC48_gNF52rjwq6_top" viewBox="-50 -50 2100 2670" width="2.1in" height="2.67in" class="w-100 h-100"><defs><style>.m-f1ntC48_gNF52rjwq6_fr4 {color: #666666;}
.m-f1ntC48_gNF52rjwq6_cu {color: #cccccc;}
.m-f1ntC48_gNF52rjwq6_cf {color: #cc9933;}
.m-f1ntC48_gNF52rjwq6_sm {color: #004200; opacity: 0.75;}
.m-f1ntC48_gNF52rjwq6_ss {color: #ffffff;}
.m-f1ntC48_gNF52rjwq6_sp {color: #999999;}
.m-f1ntC48_gNF52rjwq6_out {color: #000000;}</style><rect x="-30" y="-30" width="60" height="60" id="TOK8sdgKFlBVZmSsa7Vw_pad-19"/><circle cx="0" cy="0" r="30" id="TOK8sdgKFlBVZmSsa7Vw_pad-20"/><rect x="-31" y="-31" width="62" height="62" id="TOK8sdgKFlBVZmSsa7Vw_pad-21"/><circle cx="0" cy="0" r="31" id="TOK8sdgKFlBVZmSsa7Vw_pad-22"/><rect x="-30" y="-30" width="60" height="60" id="TOK8sdgKFlBVZmSsa7Vw_pad-23"/><rect x="-40" y="-40" width="80" height="80" id="TOK8sdgKFlBVZmSsa7Vw_pad-24"/><circle cx="0" cy="0" r="40" id="TOK8sdgKFlBVZmSsa7Vw_pad-25"/><rect x="-40" y="-40" width="80" height="80" id="TOK8sdgKFlBVZmSsa7Vw_pad-26"/><rect x="-34" y="-34" width="68" height="68" id="s2kCEZwc0hIYKyAR1hK1_pad-11"/><circle cx="0" cy="0" r="34" id="s2kCEZwc0hIYKyAR1hK1_pad-12"/><rect x="-35" y="-35" width="70" height="70" id="s2kCEZwc0hIYKyAR1hK1_pad-13"/><circle cx="0" cy="0" r="35" id="s2kCEZwc0hIYKyAR1hK1_pad-14"/><rect x="-34" y="-34" width="68" height="68" id="s2kCEZwc0hIYKyAR1hK1_pad-15"/><rect x="-44" y="-44" width="88" height="88" id="s2kCEZwc0hIYKyAR1hK1_pad-16"/><circle cx="0" cy="0" r="44" id="s2kCEZwc0hIYKyAR1hK1_pad-17"/><rect x="-44" y="-44" width="88" height="88" id="s2kCEZwc0hIYKyAR1hK1_pad-18"/><circle cx="0" cy="0" r="15" id="P88hz_Ob-fGhGXpl3NrJ_pad-1"/><circle cx="0" cy="0" r="20" id="P88hz_Ob-fGhGXpl3NrJ_pad-2"/><circle cx="0" cy="0" r="28.5" id="P88hz_Ob-fGhGXpl3NrJ_pad-3"/><circle cx="0" cy="0" r="60" id="P88hz_Ob-fGhGXpl3NrJ_pad-4"/><g id="m-f1ntC48_gNF52rjwq6_top_silkscreen"><path d="M 1285 790 A 90 90 0 0 1 1285 610 M 1535.21 610 A 90 90 0 0 1 1535.21 790 M 390 1010 A 30 30 0 0 1 390 1070 M 1285 790 1535.21 790 M 1285 610 1535.47 610 M 1335 400 1635 400 M 1335 585 1635 585 M 1335 400 1335 585 M 1635 400 1635 585 M 890 2510 1790 2510 M 890 1410 890 2510 M 1790 1410 1790 2510 M 890 1410 1790 1410 M 800 2220 830 2190 M 30 2220 800 2220 M 830 1440 830 2190 M 800 1410 830 1440 M 30 1410 800 1410 M 30 1410 30 2220 M 390 840 390 1010 M 390 1070 390 1240 M 1790 840 1790 1240 M 390 840 1790 840 M 390 1240 1790 1240 M 720 105 880 105 880 470 M 855 495 880 470 M 720 495 855 495 M 720 105 720 495 M 530 105 690 105 690 470 M 665 495 690 470 M 530 495 665 495 M 530 105 530 495 M 990 110 1010 130 1010 710 M 910 710 1010 710 M 935 110 990 110 M 910 135 935 110 M 910 135 910 710 M 1130 110 1150 130 1150 710 M 1050 710 1150 710 M 1075 110 1130 110 M 1050 135 1075 110 M 1050 135 1050 710 M 1775 145 1775 370 M 1725 95 1775 145 M 1385 95 1725 95 M 1385 370 1775 370 M 1385 95 1385 370 M 275 105 500 105 M 225 155 275 105 M 225 155 225 495 M 500 105 500 495 M 225 495 500 495 M 1200 245 1200 525 M 1200 245 1220 225 1300 225 M 1200 525 1300 525 M 1300 225 1300 525 M 1770 410 1770 690 M 1750 710 1770 690 M 1670 710 1750 710 M 1670 410 1770 410 M 1670 410 1670 710 M 1420 74.99 1420 48.33 1433.33 35 1446.66 48.33 1446.66 74.99 M 1459.99 35 1473.32 35 1466.65 35 1466.65 61.66 1459.99 61.66 M 1493.31 35 1493.31 61.66 1513.3 61.66 1519.97 54.99 1519.97 35 M 1170.06 1940 1170.06 1999.98 1200.04 1999.98 1210.04 1989.98 1210.04 1969.99 1200.04 1959.99 1170.06 1959.99 M 1190.05 1959.99 1210.04 1940 M 1270.02 1999.98 1230.04 1999.98 1230.04 1969.99 1250.03 1969.99 1230.04 1969.99 1230.04 1940 M 1290.02 1940 1290.02 1999.98 1310.01 1979.99 1330 1999.98 1330 1940 M 1350 1950 1359.99 1940 1379.99 1940 1389.98 1950 1389.98 1989.98 1379.99 1999.98 1359.99 1999.98 1350 1989.98 1350 1979.99 1359.99 1969.99 1389.98 1969.99 M 1449.97 1999.98 1429.97 1989.98 1409.98 1969.99 1409.98 1950 1419.97 1940 1439.97 1940 1449.97 1950 1449.97 1959.99 1439.97 1969.99 1409.98 1969.99 M 1469.96 1999.98 1469.96 1940 1489.95 1959.99 1509.95 1940 1509.95 1999.98 M 800.09 1019.99 800.09 1059.98 820.09 1079.97 840.08 1059.98 840.08 1019.99 840.08 1049.98 800.09 1049.98 M 860.07 1079.97 900.06 1079.97 880.07 1079.97 880.07 1019.99 M 920.05 1019.99 920.05 1059.98 930.05 1059.98 940.05 1049.98 940.05 1019.99 940.05 1049.98 950.04 1059.98 960.04 1049.98 960.04 1019.99 M 1010.03 1019.99 990.03 1019.99 980.04 1029.99 980.04 1049.98 990.03 1059.98 1010.03 1059.98 1020.02 1049.98 1020.02 1039.99 980.04 1039.99 M 1060.01 1000 1070.01 1000 1080 1010 1080 1059.98 1050.01 1059.98 1040.02 1049.98 1040.02 1029.99 1050.01 1019.99 1080 1019.99 M 1109.99 1059.98 1129.99 1059.98 1139.98 1049.98 1139.98 1019.99 1109.99 1019.99 1100 1029.99 1109.99 1039.99 1139.98 1039.99 M 1159.98 1069.98 1169.97 1079.97 1189.97 1079.97 1199.97 1069.98 1199.97 1059.98 1189.97 1049.98 1179.97 1049.98 1189.97 1049.98 1199.97 1039.99 1199.97 1029.99 1189.97 1019.99 1169.97 1019.99 1159.98 1029.99 M 1259.95 1019.99 1219.96 1019.99 1259.95 1059.98 1259.95 1069.98 1249.95 1079.97 1229.95 1079.97 1219.96 1069.98 M 1279.94 1069.98 1289.93 1079.97 1309.93 1079.97 1319.93 1069.98 1319.93 1059.98 1309.93 1049.98 1319.93 1039.99 1319.93 1029.99 1309.93 1019.99 1289.93 1019.99 1279.94 1029.99 1279.94 1039.99 1289.93 1049.98 1279.94 1059.98 1279.94 1069.98 M 1289.93 1049.98 1309.93 1049.98 M 1339.92 1019.99 1339.92 1079.97 1369.91 1079.97 1379.91 1069.98 1379.91 1049.98 1369.91 1039.99 1339.92 1039.99 M 193.32 433.34 199.99 440.01 199.99 453.34 193.32 460 186.66 460 179.99 453.34 179.99 440.01 173.33 433.34 166.67 433.34 160 440.01 160 453.34 166.67 460 M 160 420.01 199.99 420.01 199.99 400.02 193.32 393.36 179.99 393.36 173.33 400.02 173.33 420.01 M 179.99 380.03 179.99 353.37 M 193.32 366.7 166.67 366.7 M 193.32 233.34 199.99 240.01 199.99 253.33 193.32 260 186.66 260 179.99 253.33 179.99 240.01 173.33 233.34 166.67 233.34 160 240.01 160 253.33 166.67 260 M 160 220.01 199.99 220.01 199.99 200.02 193.32 193.35 179.99 193.35 173.33 200.02 173.33 220.01 M 179.99 180.03 179.99 153.37 M 1656.66 68.32 1649.99 74.99 1636.66 74.99 1630 68.32 1630 41.66 1636.66 35 1649.99 35 1656.66 41.66 1656.66 54.99 1643.33 54.99 M 1669.99 35 1669.99 74.99 1696.65 35 1696.65 74.99 M 1709.97 74.99 1709.97 35 1729.97 35 1736.63 41.66 1736.63 68.32 1729.97 74.99 1709.97 74.99 M 1876.69 636.65 1876.69 600 1931.67 600 1931.67 636.65 M 1904.18 600 1904.18 618.33 M 1885.85 691.64 1876.69 682.47 1876.69 664.15 1885.85 654.98 1922.51 654.98 1931.67 664.15 1931.67 682.47 1922.51 691.64 1904.18 691.64 1904.18 673.31 M 1876.69 709.96 1931.67 709.96 1904.18 709.96 1904.18 746.62 1876.69 746.62 1931.67 746.62 M 1931.67 792.44 1876.69 792.44 1904.18 764.95 1904.18 801.6 M 1885.85 819.93 1876.69 829.09 1876.69 847.42 1885.85 856.58 1922.51 856.58 1931.67 847.42 1931.67 829.09 1922.51 819.93 1885.85 819.93 M 1885.85 874.91 1876.69 884.07 1876.69 902.4 1885.85 911.57 1922.51 911.57 1931.67 902.4 1931.67 884.07 1922.51 874.91 1885.85 874.91 M 1885.85 1021.53 1876.69 1012.37 1876.69 994.04 1885.85 984.88 1895.02 984.88 1904.18 994.04 1904.18 1012.37 1913.34 1021.53 1922.51 1021.53 1931.67 1012.37 1931.67 994.04 1922.51 984.88 M 1950 1039.86 1895.02 1039.86 1895.02 1067.35 1904.18 1076.51 1922.51 1076.51 1931.67 1067.35 1931.67 1039.86 M 1931.67 1122.33 1931.67 1104 1922.51 1094.84 1904.18 1094.84 1895.02 1104 1895.02 1122.33 1904.18 1131.49 1913.34 1131.49 1913.34 1094.84 M 1895.02 1158.99 1895.02 1177.31 1904.18 1186.48 1931.67 1186.48 1931.67 1158.99 1922.51 1149.82 1913.34 1158.99 1913.34 1186.48 M 1931.67 1204.8 1876.69 1204.8 M 1913.34 1204.8 1895.02 1232.3 M 1913.34 1204.8 1931.67 1232.3 M 1931.67 1287.28 1931.67 1268.95 1922.51 1259.79 1904.18 1259.79 1895.02 1268.95 1895.02 1287.28 1904.18 1296.44 1913.34 1296.44 1913.34 1259.79 M 1895.02 1314.77 1931.67 1314.77 1913.34 1314.77 1904.18 1323.93 1895.02 1333.1 1895.02 1342.26 M 1885.85 1461.39 1876.69 1452.22 1876.69 1433.9 1885.85 1424.73 1895.02 1424.73 1904.18 1433.9 1904.18 1452.22 1913.34 1461.39 1922.51 1461.39 1931.67 1452.22 1931.67 1433.9 1922.51 1424.73 M 1895.02 1479.71 1922.51 1479.71 1931.67 1488.88 1931.67 1516.37 1940.84 1516.37 1950 1507.21 1950 1498.04 M 1931.67 1516.37 1895.02 1516.37 M 1931.67 1534.7 1931.67 1562.19 1922.51 1571.35 1913.34 1562.19 1913.34 1543.86 1904.18 1534.7 1895.02 1543.86 1895.02 1571.35 M 1885.85 1598.84 1895.02 1598.84 1895.02 1589.68 1895.02 1608.01 1895.02 1598.84 1922.51 1598.84 1931.67 1608.01 M 1931.67 1662.99 1931.67 1644.66 1922.51 1635.5 1904.18 1635.5 1895.02 1644.66 1895.02 1662.99 1904.18 1672.15 1913.34 1672.15 1913.34 1635.5 M 1931.67 1690.48 1895.02 1690.48 1895.02 1699.64 1904.18 1708.81 1931.67 1708.81 1904.18 1708.81 1895.02 1717.97 1904.18 1727.13 1931.67 1727.13 M 1931.67 1800.44 1931.67 1818.77 1931.67 1809.61 1876.69 1809.61 1885.85 1800.44 M 1931.67 1846.26 1922.51 1846.26 1922.51 1855.43 1931.67 1855.43 1931.67 1846.26 M 1931.67 1892.08 1931.67 1910.41 1931.67 1901.24 1876.69 1901.24 1885.85 1892.08 M 116.67 320 61.69 320 116.67 356.66 61.69 356.66 M 116.67 374.98 107.51 374.98 107.51 384.15 116.67 384.15 116.67 374.98 M 61.69 512.44 116.67 512.44 116.67 484.95 107.51 475.78 89.18 475.78 80.02 484.95 80.02 512.44 M 116.67 530.76 61.69 530.76 61.69 558.26 70.85 567.42 89.18 567.42 98.34 558.26 98.34 530.76 M 125.84 594.91 116.67 604.08 107.51 604.08 107.51 594.91 116.67 594.91 116.67 604.08 125.84 594.91 135 585.75 M 61.69 695.71 116.67 695.71 116.67 723.2 107.51 732.37 98.34 732.37 89.18 723.2 89.18 695.71 89.18 723.2 80.02 732.37 70.85 732.37 61.69 723.2 61.69 695.71 M 116.67 750.69 107.51 750.69 107.51 759.86 116.67 759.86 116.67 750.69 M 116.67 851.5 61.69 851.5 61.69 878.99 70.85 888.15 89.18 888.15 98.34 878.99 98.34 851.5 M 125.84 915.64 116.67 924.8 107.51 924.8 107.51 915.64 116.67 915.64 116.67 924.8 125.84 915.64 135 906.48 M 70.85 1053.1 61.69 1043.93 61.69 1025.6 70.85 1016.44 107.51 1016.44 116.67 1025.6 116.67 1043.93 107.51 1053.1 M 116.67 1071.42 107.51 1071.42 107.51 1080.59 116.67 1080.59 116.67 1071.42 M 116.67 1172.22 61.69 1172.22 80.02 1190.55 61.69 1208.88 116.67 1208.88 M 240 1879.97 240 1819.99 269.99 1819.99 279.99 1829.99 279.99 1869.98 269.99 1879.97 240 1879.97 M 339.97 1879.97 299.98 1879.97 299.98 1849.98 319.97 1849.98 299.98 1849.98 299.98 1819.99 M 359.96 1819.99 359.96 1879.97 389.95 1879.97 399.95 1869.98 399.95 1849.98 389.95 1839.99 359.96 1839.99 M 419.94 1819.99 439.93 1819.99 429.94 1819.99 429.94 1879.97 419.94 1879.97 M 479.92 1859.98 499.92 1859.98 509.91 1849.98 509.91 1819.99 479.92 1819.99 469.93 1829.99 479.92 1839.99 509.91 1839.99 M 529.91 1859.98 529.91 1829.99 539.9 1819.99 569.89 1819.99 569.89 1810 559.9 1800 549.9 1800 M 569.89 1819.99 569.89 1859.98 M 619.88 1819.99 599.88 1819.99 589.89 1829.99 589.89 1849.98 599.88 1859.98 619.88 1859.98 629.87 1849.98 629.87 1839.99 589.89 1839.99 M 649.87 1859.98 649.87 1819.99 649.87 1839.99 659.86 1849.98 669.86 1859.98 679.86 1859.98 M 979.99 353.35 979.99 366.68 979.99 360.01 940.01 360.01 946.67 353.35 M 946.67 386.67 940.01 393.34 940.01 406.66 946.67 413.33 973.33 413.33 979.99 406.66 979.99 393.34 973.33 386.67 946.67 386.67 M 979.99 426.66 940.01 426.66 M 966.66 426.66 953.34 446.65 M 966.66 426.66 979.99 446.65 M 1119.99 343.35 1119.99 356.68 1119.99 350.01 1080.01 350.01 1086.67 343.35 M 1086.67 376.67 1080.01 383.34 1080.01 396.66 1086.67 403.33 1113.33 403.33 1119.99 396.66 1119.99 383.34 1113.33 376.67 1086.67 376.67 M 1119.99 416.66 1080.01 416.66 M 1106.67 416.66 1093.34 436.65 M 1106.67 416.66 1119.99 436.65 M 1262.5 326.26 1262.5 334.59 1262.5 330.43 1237.5 330.43 1241.67 326.26 M 1241.67 347.09 1237.5 351.26 1237.5 359.59 1241.67 363.75 1258.33 363.75 1262.5 359.59 1262.5 351.26 1258.33 347.09 1241.67 347.09 M 1241.67 372.08 1237.5 376.25 1237.5 384.58 1241.67 388.74 1258.33 388.74 1262.5 384.58 1262.5 376.25 1258.33 372.08 1241.67 372.08 M 1262.5 397.07 1245.83 397.07 1245.83 409.57 1250 413.74 1262.5 413.74 M 1711.67 514.18 1707.5 518.35 1707.5 526.68 1711.67 530.84 1715.83 530.84 1720 526.68 1720 522.51 1720 526.68 1724.16 530.84 1728.33 530.84 1732.5 526.68 1732.5 518.35 1728.33 514.18 M 1711.67 539.17 1707.5 543.34 1707.5 551.67 1711.67 555.84 1715.83 555.84 1720 551.67 1720 547.5 1720 551.67 1724.16 555.84 1728.33 555.84 1732.5 551.67 1732.5 543.34 1728.33 539.17 M 1711.67 564.16 1707.5 568.33 1707.5 576.66 1711.67 580.83 1728.33 580.83 1732.5 576.66 1732.5 568.33 1728.33 564.16 1711.67 564.16 M 1732.5 589.16 1715.83 589.16 1715.83 601.65 1720 605.82 1732.5 605.82" fill="none" stroke-width="10"/></g><g id="m-f1ntC48_gNF52rjwq6_top_copper"><path d="M 610 200 670 140 850 140 M 350 200 400 250 655.74 250 705.74 300 M 510 400 610 300 M 350 400 510 400 M 705.74 300 800 300 M 350 400 350 430 M 350 370 350 400 M 1480 220 1510 220 M 1450 220 1480 220 1480 370 1585 475 M 89.82 1469.82 150 1530 870 1530 940 1460 M 1490 1130 1490 1510 M 1640 890 1640 980 M 1490 1130 1640 980 M 850 140 1100 390 M 890.46 1859.54 1140.46 1859.54 M 580 2170 890.46 1859.54 M 380 810 380 1360 480 1460 M 320 700 320 1400 380 1460 M 1345 860 1505 700 M 1340 890 1345 885 M 1345 860 1345 885 M 740 890 740 900 M 990 1150 990 1210 M 740 900 990 1150 M 1250 475 1250 670 M 1050 870 1250 670 M 1240 1190 1240 1260 M 1040 890 1240 1090 1240 1190 M 990 1210 1240 1460 M 1240 850 1240 890 M 1310 700 1310 780 M 1240 850 1310 780 M 1250 475 1385 475 M 1505 700 1510 700 M 1585 475 1600 460 M 1140.46 1859.54 1490 1510 M 1010 1530 1250 1530 M 1290 1426.76 1290 1490 M 1250 1530 1290 1490 M 1240 1376.77 1290 1426.76 M 320 700 610 410 M 380 810 790 400 M 1240 1260 1240 1376.77 M 940 1460 1010 1530 M 1340 1190 1340 1460 M 1440 1190 1440 1460 M 1540 1190 1540 1460 M 1640 1190 1640 1460 M 1740 1190 1740 1460 M 1600 460 1720 460 M 960 360 960 660 M 800 200 960 360 M 1100 390 1100 660 M 790 400 800 400 M 610 400 610 410" fill="none" stroke-width="10"/><use xlink:href="#TOK8sdgKFlBVZmSsa7Vw_pad-19" x="1310" y="700"/><use xlink:href="#TOK8sdgKFlBVZmSsa7Vw_pad-20" x="1510" y="700"/><use xlink:href="#TOK8sdgKFlBVZmSsa7Vw_pad-20" x="800" y="300"/><use xlink:href="#TOK8sdgKFlBVZmSsa7Vw_pad-20" x="800" y="400"/><use xlink:href="#TOK8sdgKFlBVZmSsa7Vw_pad-20" x="610" y="300"/><use xlink:href="#TOK8sdgKFlBVZmSsa7Vw_pad-20" x="610" y="400"/><use xlink:href="#TOK8sdgKFlBVZmSsa7Vw_pad-20" x="960" y="160"/><use xlink:href="#TOK8sdgKFlBVZmSsa7Vw_pad-20" x="1100" y="160"/><use xlink:href="#TOK8sdgKFlBVZmSsa7Vw_pad-20" x="1250" y="275"/><use xlink:href="#TOK8sdgKFlBVZmSsa7Vw_pad-20" x="1720" y="660"/><use xlink:href="#TOK8sdgKFlBVZmSsa7Vw_pad-20" x="90" y="2480"/><use xlink:href="#TOK8sdgKFlBVZmSsa7Vw_pad-20" x="90" y="90"/><use xlink:href="#TOK8sdgKFlBVZmSsa7Vw_pad-20" x="1910" y="90"/><use xlink:href="#TOK8sdgKFlBVZmSsa7Vw_pad-20" x="1910" y="2480"/><use xlink:href="#TOK8sdgKFlBVZmSsa7Vw_pad-21" x="1585" y="475"/><use xlink:href="#TOK8sdgKFlBVZmSsa7Vw_pad-21" x="940" y="1460"/><use xlink:href="#TOK8sdgKFlBVZmSsa7Vw_pad-21" x="80" y="1460"/><use xlink:href="#TOK8sdgKFlBVZmSsa7Vw_pad-21" x="440" y="890"/><use xlink:href="#TOK8sdgKFlBVZmSsa7Vw_pad-22" x="1485" y="475"/><use xlink:href="#TOK8sdgKFlBVZmSsa7Vw_pad-22" x="1385" y="475"/><use xlink:href="#TOK8sdgKFlBVZmSsa7Vw_pad-22" x="940" y="2460"/><use xlink:href="#TOK8sdgKFlBVZmSsa7Vw_pad-22" x="1040" y="2460"/><use xlink:href="#TOK8sdgKFlBVZmSsa7Vw_pad-22" x="1140" y="2460"/><use xlink:href="#TOK8sdgKFlBVZmSsa7Vw_pad-22" x="1240" y="2460"/><use xlink:href="#TOK8sdgKFlBVZmSsa7Vw_pad-22" x="1340" y="2460"/><use xlink:href="#TOK8sdgKFlBVZmSsa7Vw_pad-22" x="1040" y="1460"/><use xlink:href="#TOK8sdgKFlBVZmSsa7Vw_pad-22" x="1140" y="1460"/><use xlink:href="#TOK8sdgKFlBVZmSsa7Vw_pad-22" x="1240" y="1460"/><use xlink:href="#TOK8sdgKFlBVZmSsa7Vw_pad-22" x="1340" y="1460"/><use xlink:href="#TOK8sdgKFlBVZmSsa7Vw_pad-22" x="1440" y="1460"/><use xlink:href="#TOK8sdgKFlBVZmSsa7Vw_pad-22" x="1540" y="1460"/><use xlink:href="#TOK8sdgKFlBVZmSsa7Vw_pad-22" x="1640" y="1460"/><use xlink:href="#TOK8sdgKFlBVZmSsa7Vw_pad-22" x="1740" y="1460"/><use xlink:href="#TOK8sdgKFlBVZmSsa7Vw_pad-22" x="680" y="2170"/><use xlink:href="#TOK8sdgKFlBVZmSsa7Vw_pad-22" x="680" y="1460"/><use xlink:href="#TOK8sdgKFlBVZmSsa7Vw_pad-22" x="80" y="2170"/><use xlink:href="#TOK8sdgKFlBVZmSsa7Vw_pad-22" x="180" y="2170"/><use xlink:href="#TOK8sdgKFlBVZmSsa7Vw_pad-22" x="280" y="2170"/><use xlink:href="#TOK8sdgKFlBVZmSsa7Vw_pad-22" x="380" y="2170"/><use xlink:href="#TOK8sdgKFlBVZmSsa7Vw_pad-22" x="480" y="2170"/><use xlink:href="#TOK8sdgKFlBVZmSsa7Vw_pad-22" x="580" y="2170"/><use xlink:href="#TOK8sdgKFlBVZmSsa7Vw_pad-22" x="780" y="2170"/><use xlink:href="#TOK8sdgKFlBVZmSsa7Vw_pad-22" x="780" y="1460"/><use xlink:href="#TOK8sdgKFlBVZmSsa7Vw_pad-22" x="580" y="1460"/><use xlink:href="#TOK8sdgKFlBVZmSsa7Vw_pad-22" x="480" y="1460"/><use xlink:href="#TOK8sdgKFlBVZmSsa7Vw_pad-22" x="380" y="1460"/><use xlink:href="#TOK8sdgKFlBVZmSsa7Vw_pad-22" x="280" y="1460"/><use xlink:href="#TOK8sdgKFlBVZmSsa7Vw_pad-22" x="180" y="1460"/><use xlink:href="#TOK8sdgKFlBVZmSsa7Vw_pad-22" x="640" y="1190"/><use xlink:href="#TOK8sdgKFlBVZmSsa7Vw_pad-22" x="1040" y="1190"/><use xlink:href="#TOK8sdgKFlBVZmSsa7Vw_pad-22" x="1440" y="1190"/><use xlink:href="#TOK8sdgKFlBVZmSsa7Vw_pad-22" x="440" y="1190"/><use xlink:href="#TOK8sdgKFlBVZmSsa7Vw_pad-22" x="540" y="1190"/><use xlink:href="#TOK8sdgKFlBVZmSsa7Vw_pad-22" x="840" y="1190"/><use xlink:href="#TOK8sdgKFlBVZmSsa7Vw_pad-22" x="940" y="1190"/><use xlink:href="#TOK8sdgKFlBVZmSsa7Vw_pad-22" x="1140" y="1190"/><use xlink:href="#TOK8sdgKFlBVZmSsa7Vw_pad-22" x="1240" y="1190"/><use xlink:href="#TOK8sdgKFlBVZmSsa7Vw_pad-22" x="1540" y="1190"/><use xlink:href="#TOK8sdgKFlBVZmSsa7Vw_pad-22" x="1640" y="1190"/><use xlink:href="#TOK8sdgKFlBVZmSsa7Vw_pad-22" x="1740" y="1190"/><use xlink:href="#TOK8sdgKFlBVZmSsa7Vw_pad-22" x="740" y="1190"/><use xlink:href="#TOK8sdgKFlBVZmSsa7Vw_pad-22" x="1340" y="1190"/><use xlink:href="#TOK8sdgKFlBVZmSsa7Vw_pad-22" x="1740" y="890"/><use xlink:href="#TOK8sdgKFlBVZmSsa7Vw_pad-22" x="540" y="890"/><use xlink:href="#TOK8sdgKFlBVZmSsa7Vw_pad-22" x="640" y="890"/><use xlink:href="#TOK8sdgKFlBVZmSsa7Vw_pad-22" x="740" y="890"/><use xlink:href="#TOK8sdgKFlBVZmSsa7Vw_pad-22" x="840" y="890"/><use xlink:href="#TOK8sdgKFlBVZmSsa7Vw_pad-22" x="940" y="890"/><use xlink:href="#TOK8sdgKFlBVZmSsa7Vw_pad-22" x="1040" y="890"/><use xlink:href="#TOK8sdgKFlBVZmSsa7Vw_pad-22" x="1140" y="890"/><use xlink:href="#TOK8sdgKFlBVZmSsa7Vw_pad-22" x="1240" y="890"/><use xlink:href="#TOK8sdgKFlBVZmSsa7Vw_pad-22" x="1340" y="890"/><use xlink:href="#TOK8sdgKFlBVZmSsa7Vw_pad-22" x="1440" y="890"/><use xlink:href="#TOK8sdgKFlBVZmSsa7Vw_pad-22" x="1540" y="890"/><use xlink:href="#TOK8sdgKFlBVZmSsa7Vw_pad-22" x="1640" y="890"/><use xlink:href="#TOK8sdgKFlBVZmSsa7Vw_pad-23" x="800" y="200"/><use xlink:href="#TOK8sdgKFlBVZmSsa7Vw_pad-23" x="610" y="200"/><use xlink:href="#TOK8sdgKFlBVZmSsa7Vw_pad-23" x="960" y="660"/><use xlink:href="#TOK8sdgKFlBVZmSsa7Vw_pad-23" x="1100" y="660"/><use xlink:href="#TOK8sdgKFlBVZmSsa7Vw_pad-23" x="1250" y="475"/><use xlink:href="#TOK8sdgKFlBVZmSsa7Vw_pad-23" x="1720" y="460"/><use xlink:href="#TOK8sdgKFlBVZmSsa7Vw_pad-24" x="1480" y="220"/><use xlink:href="#TOK8sdgKFlBVZmSsa7Vw_pad-25" x="1680" y="220"/><use xlink:href="#TOK8sdgKFlBVZmSsa7Vw_pad-25" x="350" y="200"/><use xlink:href="#TOK8sdgKFlBVZmSsa7Vw_pad-26" x="350" y="400"/></g><g id="m-f1ntC48_gNF52rjwq6_top_soldermask"><use xlink:href="#s2kCEZwc0hIYKyAR1hK1_pad-11" x="1310" y="700"/><use xlink:href="#s2kCEZwc0hIYKyAR1hK1_pad-12" x="1510" y="700"/><use xlink:href="#s2kCEZwc0hIYKyAR1hK1_pad-12" x="800" y="300"/><use xlink:href="#s2kCEZwc0hIYKyAR1hK1_pad-12" x="800" y="400"/><use xlink:href="#s2kCEZwc0hIYKyAR1hK1_pad-12" x="610" y="300"/><use xlink:href="#s2kCEZwc0hIYKyAR1hK1_pad-12" x="610" y="400"/><use xlink:href="#s2kCEZwc0hIYKyAR1hK1_pad-12" x="960" y="160"/><use xlink:href="#s2kCEZwc0hIYKyAR1hK1_pad-12" x="1100" y="160"/><use xlink:href="#s2kCEZwc0hIYKyAR1hK1_pad-12" x="1250" y="275"/><use xlink:href="#s2kCEZwc0hIYKyAR1hK1_pad-12" x="1720" y="660"/><use xlink:href="#s2kCEZwc0hIYKyAR1hK1_pad-12" x="90" y="2480"/><use xlink:href="#s2kCEZwc0hIYKyAR1hK1_pad-12" x="90" y="90"/><use xlink:href="#s2kCEZwc0hIYKyAR1hK1_pad-12" x="1910" y="90"/><use xlink:href="#s2kCEZwc0hIYKyAR1hK1_pad-12" x="1910" y="2480"/><use xlink:href="#s2kCEZwc0hIYKyAR1hK1_pad-13" x="1585" y="475"/><use xlink:href="#s2kCEZwc0hIYKyAR1hK1_pad-13" x="940" y="1460"/><use xlink:href="#s2kCEZwc0hIYKyAR1hK1_pad-13" x="80" y="1460"/><use xlink:href="#s2kCEZwc0hIYKyAR1hK1_pad-13" x="440" y="890"/><use xlink:href="#s2kCEZwc0hIYKyAR1hK1_pad-14" x="1485" y="475"/><use xlink:href="#s2kCEZwc0hIYKyAR1hK1_pad-14" x="1385" y="475"/><use xlink:href="#s2kCEZwc0hIYKyAR1hK1_pad-14" x="940" y="2460"/><use xlink:href="#s2kCEZwc0hIYKyAR1hK1_pad-14" x="1040" y="2460"/><use xlink:href="#s2kCEZwc0hIYKyAR1hK1_pad-14" x="1140" y="2460"/><use xlink:href="#s2kCEZwc0hIYKyAR1hK1_pad-14" x="1240" y="2460"/><use xlink:href="#s2kCEZwc0hIYKyAR1hK1_pad-14" x="1340" y="2460"/><use xlink:href="#s2kCEZwc0hIYKyAR1hK1_pad-14" x="1040" y="1460"/><use xlink:href="#s2kCEZwc0hIYKyAR1hK1_pad-14" x="1140" y="1460"/><use xlink:href="#s2kCEZwc0hIYKyAR1hK1_pad-14" x="1240" y="1460"/><use xlink:href="#s2kCEZwc0hIYKyAR1hK1_pad-14" x="1340" y="1460"/><use xlink:href="#s2kCEZwc0hIYKyAR1hK1_pad-14" x="1440" y="1460"/><use xlink:href="#s2kCEZwc0hIYKyAR1hK1_pad-14" x="1540" y="1460"/><use xlink:href="#s2kCEZwc0hIYKyAR1hK1_pad-14" x="1640" y="1460"/><use xlink:href="#s2kCEZwc0hIYKyAR1hK1_pad-14" x="1740" y="1460"/><use xlink:href="#s2kCEZwc0hIYKyAR1hK1_pad-14" x="680" y="2170"/><use xlink:href="#s2kCEZwc0hIYKyAR1hK1_pad-14" x="680" y="1460"/><use xlink:href="#s2kCEZwc0hIYKyAR1hK1_pad-14" x="80" y="2170"/><use xlink:href="#s2kCEZwc0hIYKyAR1hK1_pad-14" x="180" y="2170"/><use xlink:href="#s2kCEZwc0hIYKyAR1hK1_pad-14" x="280" y="2170"/><use xlink:href="#s2kCEZwc0hIYKyAR1hK1_pad-14" x="380" y="2170"/><use xlink:href="#s2kCEZwc0hIYKyAR1hK1_pad-14" x="480" y="2170"/><use xlink:href="#s2kCEZwc0hIYKyAR1hK1_pad-14" x="580" y="2170"/><use xlink:href="#s2kCEZwc0hIYKyAR1hK1_pad-14" x="780" y="2170"/><use xlink:href="#s2kCEZwc0hIYKyAR1hK1_pad-14" x="780" y="1460"/><use xlink:href="#s2kCEZwc0hIYKyAR1hK1_pad-14" x="580" y="1460"/><use xlink:href="#s2kCEZwc0hIYKyAR1hK1_pad-14" x="480" y="1460"/><use xlink:href="#s2kCEZwc0hIYKyAR1hK1_pad-14" x="380" y="1460"/><use xlink:href="#s2kCEZwc0hIYKyAR1hK1_pad-14" x="280" y="1460"/><use xlink:href="#s2kCEZwc0hIYKyAR1hK1_pad-14" x="180" y="1460"/><use xlink:href="#s2kCEZwc0hIYKyAR1hK1_pad-14" x="640" y="1190"/><use xlink:href="#s2kCEZwc0hIYKyAR1hK1_pad-14" x="1040" y="1190"/><use xlink:href="#s2kCEZwc0hIYKyAR1hK1_pad-14" x="1440" y="1190"/><use xlink:href="#s2kCEZwc0hIYKyAR1hK1_pad-14" x="440" y="1190"/><use xlink:href="#s2kCEZwc0hIYKyAR1hK1_pad-14" x="540" y="1190"/><use xlink:href="#s2kCEZwc0hIYKyAR1hK1_pad-14" x="840" y="1190"/><use xlink:href="#s2kCEZwc0hIYKyAR1hK1_pad-14" x="940" y="1190"/><use xlink:href="#s2kCEZwc0hIYKyAR1hK1_pad-14" x="1140" y="1190"/><use xlink:href="#s2kCEZwc0hIYKyAR1hK1_pad-14" x="1240" y="1190"/><use xlink:href="#s2kCEZwc0hIYKyAR1hK1_pad-14" x="1540" y="1190"/><use xlink:href="#s2kCEZwc0hIYKyAR1hK1_pad-14" x="1640" y="1190"/><use xlink:href="#s2kCEZwc0hIYKyAR1hK1_pad-14" x="1740" y="1190"/><use xlink:href="#s2kCEZwc0hIYKyAR1hK1_pad-14" x="740" y="1190"/><use xlink:href="#s2kCEZwc0hIYKyAR1hK1_pad-14" x="1340" y="1190"/><use xlink:href="#s2kCEZwc0hIYKyAR1hK1_pad-14" x="1740" y="890"/><use xlink:href="#s2kCEZwc0hIYKyAR1hK1_pad-14" x="540" y="890"/><use xlink:href="#s2kCEZwc0hIYKyAR1hK1_pad-14" x="640" y="890"/><use xlink:href="#s2kCEZwc0hIYKyAR1hK1_pad-14" x="740" y="890"/><use xlink:href="#s2kCEZwc0hIYKyAR1hK1_pad-14" x="840" y="890"/><use xlink:href="#s2kCEZwc0hIYKyAR1hK1_pad-14" x="940" y="890"/><use xlink:href="#s2kCEZwc0hIYKyAR1hK1_pad-14" x="1040" y="890"/><use xlink:href="#s2kCEZwc0hIYKyAR1hK1_pad-14" x="1140" y="890"/><use xlink:href="#s2kCEZwc0hIYKyAR1hK1_pad-14" x="1240" y="890"/><use xlink:href="#s2kCEZwc0hIYKyAR1hK1_pad-14" x="1340" y="890"/><use xlink:href="#s2kCEZwc0hIYKyAR1hK1_pad-14" x="1440" y="890"/><use xlink:href="#s2kCEZwc0hIYKyAR1hK1_pad-14" x="1540" y="890"/><use xlink:href="#s2kCEZwc0hIYKyAR1hK1_pad-14" x="1640" y="890"/><use xlink:href="#s2kCEZwc0hIYKyAR1hK1_pad-15" x="800" y="200"/><use xlink:href="#s2kCEZwc0hIYKyAR1hK1_pad-15" x="610" y="200"/><use xlink:href="#s2kCEZwc0hIYKyAR1hK1_pad-15" x="960" y="660"/><use xlink:href="#s2kCEZwc0hIYKyAR1hK1_pad-15" x="1100" y="660"/><use xlink:href="#s2kCEZwc0hIYKyAR1hK1_pad-15" x="1250" y="475"/><use xlink:href="#s2kCEZwc0hIYKyAR1hK1_pad-15" x="1720" y="460"/><use xlink:href="#s2kCEZwc0hIYKyAR1hK1_pad-16" x="1480" y="220"/><use xlink:href="#s2kCEZwc0hIYKyAR1hK1_pad-17" x="1680" y="220"/><use xlink:href="#s2kCEZwc0hIYKyAR1hK1_pad-17" x="350" y="200"/><use xlink:href="#s2kCEZwc0hIYKyAR1hK1_pad-18" x="350" y="400"/></g><g id="m-f1ntC48_gNF52rjwq6_top_drill1"><use xlink:href="#P88hz_Ob-fGhGXpl3NrJ_pad-1" x="610" y="200"/><use xlink:href="#P88hz_Ob-fGhGXpl3NrJ_pad-1" x="610" y="300"/><use xlink:href="#P88hz_Ob-fGhGXpl3NrJ_pad-1" x="610" y="400"/><use xlink:href="#P88hz_Ob-fGhGXpl3NrJ_pad-1" x="800" y="400"/><use xlink:href="#P88hz_Ob-fGhGXpl3NrJ_pad-1" x="800" y="300"/><use xlink:href="#P88hz_Ob-fGhGXpl3NrJ_pad-1" x="800" y="200"/><use xlink:href="#P88hz_Ob-fGhGXpl3NrJ_pad-1" x="960" y="160"/><use xlink:href="#P88hz_Ob-fGhGXpl3NrJ_pad-1" x="1100" y="160"/><use xlink:href="#P88hz_Ob-fGhGXpl3NrJ_pad-1" x="1250" y="275"/><use xlink:href="#P88hz_Ob-fGhGXpl3NrJ_pad-1" x="1250" y="475"/><use xlink:href="#P88hz_Ob-fGhGXpl3NrJ_pad-1" x="1310" y="700"/><use xlink:href="#P88hz_Ob-fGhGXpl3NrJ_pad-1" x="1510" y="700"/><use xlink:href="#P88hz_Ob-fGhGXpl3NrJ_pad-1" x="1720" y="660"/><use xlink:href="#P88hz_Ob-fGhGXpl3NrJ_pad-1" x="1720" y="460"/><use xlink:href="#P88hz_Ob-fGhGXpl3NrJ_pad-1" x="1100" y="660"/><use xlink:href="#P88hz_Ob-fGhGXpl3NrJ_pad-1" x="960" y="660"/><use xlink:href="#P88hz_Ob-fGhGXpl3NrJ_pad-2" x="440" y="890"/><use xlink:href="#P88hz_Ob-fGhGXpl3NrJ_pad-2" x="540" y="890"/><use xlink:href="#P88hz_Ob-fGhGXpl3NrJ_pad-2" x="640" y="890"/><use xlink:href="#P88hz_Ob-fGhGXpl3NrJ_pad-2" x="740" y="890"/><use xlink:href="#P88hz_Ob-fGhGXpl3NrJ_pad-2" x="840" y="890"/><use xlink:href="#P88hz_Ob-fGhGXpl3NrJ_pad-2" x="940" y="890"/><use xlink:href="#P88hz_Ob-fGhGXpl3NrJ_pad-2" x="1040" y="890"/><use xlink:href="#P88hz_Ob-fGhGXpl3NrJ_pad-2" x="1140" y="890"/><use xlink:href="#P88hz_Ob-fGhGXpl3NrJ_pad-2" x="1240" y="890"/><use xlink:href="#P88hz_Ob-fGhGXpl3NrJ_pad-2" x="1340" y="890"/><use xlink:href="#P88hz_Ob-fGhGXpl3NrJ_pad-2" x="1440" y="890"/><use xlink:href="#P88hz_Ob-fGhGXpl3NrJ_pad-2" x="1540" y="890"/><use xlink:href="#P88hz_Ob-fGhGXpl3NrJ_pad-2" x="1640" y="890"/><use xlink:href="#P88hz_Ob-fGhGXpl3NrJ_pad-2" x="1740" y="890"/><use xlink:href="#P88hz_Ob-fGhGXpl3NrJ_pad-2" x="1585" y="475"/><use xlink:href="#P88hz_Ob-fGhGXpl3NrJ_pad-2" x="1485" y="475"/><use xlink:href="#P88hz_Ob-fGhGXpl3NrJ_pad-2" x="1385" y="475"/><use xlink:href="#P88hz_Ob-fGhGXpl3NrJ_pad-2" x="280" y="1460"/><use xlink:href="#P88hz_Ob-fGhGXpl3NrJ_pad-2" x="180" y="1460"/><use xlink:href="#P88hz_Ob-fGhGXpl3NrJ_pad-2" x="80" y="1460"/><use xlink:href="#P88hz_Ob-fGhGXpl3NrJ_pad-2" x="80" y="2170"/><use xlink:href="#P88hz_Ob-fGhGXpl3NrJ_pad-2" x="180" y="2170"/><use xlink:href="#P88hz_Ob-fGhGXpl3NrJ_pad-2" x="280" y="2170"/><use xlink:href="#P88hz_Ob-fGhGXpl3NrJ_pad-2" x="380" y="2170"/><use xlink:href="#P88hz_Ob-fGhGXpl3NrJ_pad-2" x="480" y="2170"/><use xlink:href="#P88hz_Ob-fGhGXpl3NrJ_pad-2" x="580" y="2170"/><use xlink:href="#P88hz_Ob-fGhGXpl3NrJ_pad-2" x="680" y="2170"/><use xlink:href="#P88hz_Ob-fGhGXpl3NrJ_pad-2" x="780" y="2170"/><use xlink:href="#P88hz_Ob-fGhGXpl3NrJ_pad-2" x="940" y="2460"/><use xlink:href="#P88hz_Ob-fGhGXpl3NrJ_pad-2" x="1040" y="2460"/><use xlink:href="#P88hz_Ob-fGhGXpl3NrJ_pad-2" x="1140" y="2460"/><use xlink:href="#P88hz_Ob-fGhGXpl3NrJ_pad-2" x="1240" y="2460"/><use xlink:href="#P88hz_Ob-fGhGXpl3NrJ_pad-2" x="1340" y="2460"/><use xlink:href="#P88hz_Ob-fGhGXpl3NrJ_pad-2" x="1340" y="1460"/><use xlink:href="#P88hz_Ob-fGhGXpl3NrJ_pad-2" x="1240" y="1460"/><use xlink:href="#P88hz_Ob-fGhGXpl3NrJ_pad-2" x="1140" y="1460"/><use xlink:href="#P88hz_Ob-fGhGXpl3NrJ_pad-2" x="1040" y="1460"/><use xlink:href="#P88hz_Ob-fGhGXpl3NrJ_pad-2" x="940" y="1460"/><use xlink:href="#P88hz_Ob-fGhGXpl3NrJ_pad-2" x="780" y="1460"/><use xlink:href="#P88hz_Ob-fGhGXpl3NrJ_pad-2" x="680" y="1460"/><use xlink:href="#P88hz_Ob-fGhGXpl3NrJ_pad-2" x="580" y="1460"/><use xlink:href="#P88hz_Ob-fGhGXpl3NrJ_pad-2" x="480" y="1460"/><use xlink:href="#P88hz_Ob-fGhGXpl3NrJ_pad-2" x="380" y="1460"/><use xlink:href="#P88hz_Ob-fGhGXpl3NrJ_pad-2" x="440" y="1190"/><use xlink:href="#P88hz_Ob-fGhGXpl3NrJ_pad-2" x="540" y="1190"/><use xlink:href="#P88hz_Ob-fGhGXpl3NrJ_pad-2" x="640" y="1190"/><use xlink:href="#P88hz_Ob-fGhGXpl3NrJ_pad-2" x="740" y="1190"/><use xlink:href="#P88hz_Ob-fGhGXpl3NrJ_pad-2" x="840" y="1190"/><use xlink:href="#P88hz_Ob-fGhGXpl3NrJ_pad-2" x="940" y="1190"/><use xlink:href="#P88hz_Ob-fGhGXpl3NrJ_pad-2" x="1040" y="1190"/><use xlink:href="#P88hz_Ob-fGhGXpl3NrJ_pad-2" x="1140" y="1190"/><use xlink:href="#P88hz_Ob-fGhGXpl3NrJ_pad-2" x="1240" y="1190"/><use xlink:href="#P88hz_Ob-fGhGXpl3NrJ_pad-2" x="1340" y="1190"/><use xlink:href="#P88hz_Ob-fGhGXpl3NrJ_pad-2" x="1440" y="1190"/><use xlink:href="#P88hz_Ob-fGhGXpl3NrJ_pad-2" x="1540" y="1190"/><use xlink:href="#P88hz_Ob-fGhGXpl3NrJ_pad-2" x="1640" y="1190"/><use xlink:href="#P88hz_Ob-fGhGXpl3NrJ_pad-2" x="1740" y="1190"/><use xlink:href="#P88hz_Ob-fGhGXpl3NrJ_pad-2" x="1740" y="1460"/><use xlink:href="#P88hz_Ob-fGhGXpl3NrJ_pad-2" x="1640" y="1460"/><use xlink:href="#P88hz_Ob-fGhGXpl3NrJ_pad-2" x="1540" y="1460"/><use xlink:href="#P88hz_Ob-fGhGXpl3NrJ_pad-2" x="1440" y="1460"/><use xlink:href="#P88hz_Ob-fGhGXpl3NrJ_pad-3" x="350" y="200"/><use xlink:href="#P88hz_Ob-fGhGXpl3NrJ_pad-3" x="350" y="400"/><use xlink:href="#P88hz_Ob-fGhGXpl3NrJ_pad-3" x="1480" y="220"/><use xlink:href="#P88hz_Ob-fGhGXpl3NrJ_pad-3" x="1680" y="220"/><use xlink:href="#P88hz_Ob-fGhGXpl3NrJ_pad-4" x="1910" y="90"/><use xlink:href="#P88hz_Ob-fGhGXpl3NrJ_pad-4" x="90" y="90"/><use xlink:href="#P88hz_Ob-fGhGXpl3NrJ_pad-4" x="90" y="2480"/><use xlink:href="#P88hz_Ob-fGhGXpl3NrJ_pad-4" x="1910" y="2480"/></g><clipPath id="m-f1ntC48_gNF52rjwq6_top_outline"><path d="M -50 -50 2050 -50 2050 2620 -50 2620 -50 -50" fill="none" stroke-width="20"/></clipPath><mask id="m-f1ntC48_gNF52rjwq6_top_mech-mask"><g fill="#000" stroke="#000"><rect x="-50" y="-50" width="2100" height="2670" fill="#fff"/><use xlink:href="#m-f1ntC48_gNF52rjwq6_top_drill1"/></g></mask><mask id="m-f1ntC48_gNF52rjwq6_top_cf-mask"><g fill="#fff" stroke="#fff"><use xlink:href="#m-f1ntC48_gNF52rjwq6_top_soldermask"/></g></mask><mask id="m-f1ntC48_gNF52rjwq6_top_sm-mask"><g fill="#000" stroke="#000"><rect x="-50" y="-50" width="2100" height="2670" fill="#fff"/><use xlink:href="#m-f1ntC48_gNF52rjwq6_top_soldermask"/></g></mask></defs><g transform="translate(0,2570) scale(1,-1)"><g mask="url(#m-f1ntC48_gNF52rjwq6_top_mech-mask)" clip-path="url(#m-f1ntC48_gNF52rjwq6_top_outline)"><rect x="-50" y="-50" width="2100" height="2670" fill="currentColor" class="m-f1ntC48_gNF52rjwq6_fr4"/><use xlink:href="#m-f1ntC48_gNF52rjwq6_top_copper" fill="currentColor" stroke="currentColor" class="m-f1ntC48_gNF52rjwq6_cu"/><use xlink:href="#m-f1ntC48_gNF52rjwq6_top_copper" fill="currentColor" stroke="currentColor" class="m-f1ntC48_gNF52rjwq6_cf" mask="url(#m-f1ntC48_gNF52rjwq6_top_cf-mask)"/><g mask="url(#m-f1ntC48_gNF52rjwq6_top_sm-mask)"><rect x="-50" y="-50" width="2100" height="2670" fill="currentColor" class="m-f1ntC48_gNF52rjwq6_sm"/><use xlink:href="#m-f1ntC48_gNF52rjwq6_top_silkscreen" fill="currentColor" stroke="currentColor" class="m-f1ntC48_gNF52rjwq6_ss"/></g></g></g></svg>