<svg version="1.1" xmlns="http://www.w3.org/2000/svg" xmlns:xlink="http://www.w3.org/1999/xlink" stroke-linecap="round" stroke-linejoin="round" stroke-width="0" fill-rule="evenodd" clip-rule="evenodd" id="bq_8Mc4bMngqijl1_eu__bottom" viewBox="-50 -50 2200 3605" width="2.2in" height="3.605in" class="w-100 h-100"><defs><style>.bq_8Mc4bMngqijl1_eu__fr4 {color: #666666;}
.bq_8Mc4bMngqijl1_eu__cu {color: #cccccc;}
.bq_8Mc4bMngqijl1_eu__cf {color: #cc9933;}
.bq_8Mc4bMngqijl1_eu__sm {color: #004200; opacity: 0.75;}
.bq_8Mc4bMngqijl1_eu__ss {color: #ffffff;}
.bq_8Mc4bMngqijl1_eu__sp {color: #999999;}
.bq_8Mc4bMngqijl1_eu__out {color: #000000;}</style><circle cx="0" cy="0" r="44" id="EilppT-Gu70ykl6TilUO_pad-11"/><rect x="-44" y="-44" width="88" height="88" id="EilppT-Gu70ykl6TilUO_pad-12"/><rect x="-34" y="-34" width="68" height="68" id="EilppT-Gu70ykl6TilUO_pad-13"/><circle cx="0" cy="0" r="34" id="EilppT-Gu70ykl6TilUO_pad-14"/><rect x="-35" y="-35" width="70" height="70" id="EilppT-Gu70ykl6TilUO_pad-15"/><circle cx="0" cy="0" r="35" id="EilppT-Gu70ykl6TilUO_pad-16"/><rect x="-35" y="-35" width="70" height="70" id="EilppT-Gu70ykl6TilUO_pad-17"/><rect x="-34" y="-34" width="68" height="68" id="EilppT-Gu70ykl6TilUO_pad-18"/><rect x="-44" y="-44" width="88" height="88" id="EilppT-Gu70ykl6TilUO_pad-19"/><circle cx="0" cy="0" r="29" id="EilppT-Gu70ykl6TilUO_pad-20"/><mask id="uWi4e7O5d6wlRTZmL9OC_clear-1" fill="#000" stroke="#000"><g><rect x="-50" y="-50" width="2200" height="3600" fill="#fff"/><path d="M 1655 3405 1545 3405 1545 3295 1655 3295 1655 3405"/><path d="M 1950 3425.36 1935.3 3423.91 1921.16 3419.63 1908.13 3412.66 1896.71 3403.29 1887.34 3391.87 1880.37 3378.84 1876.09 3364.7 1874.64 3350 1876.09 3335.3 1880.37 3321.16 1887.34 3308.13 1896.71 3296.71 1908.13 3287.34 1921.16 3280.37 1935.3 3276.08 1950 3274.64 1964.7 3276.08 1978.84 3280.37 1991.87 3287.34 2003.29 3296.71 2012.66 3308.13 2019.63 3321.16 2023.92 3335.3 2025.36 3350 2023.92 3364.7 2019.63 3378.84 2012.66 3391.87 2003.29 3403.29 1991.87 3412.66 1978.84 3419.63 1964.7 3423.91 1950 3425.36"/><path d="M 150 3425.36 135.3 3423.91 121.16 3419.63 108.13 3412.66 96.71 3403.29 87.34 3391.87 80.37 3378.84 76.09 3364.7 74.64 3350 76.09 3335.3 80.37 3321.16 87.34 3308.13 96.71 3296.71 108.13 3287.34 121.16 3280.37 135.3 3276.08 150 3274.64 164.7 3276.08 178.84 3280.37 191.87 3287.34 203.29 3296.71 212.66 3308.13 219.63 3321.16 223.91 3335.3 225.36 3350 223.91 3364.7 219.63 3378.84 212.66 3391.87 203.29 3403.29 191.87 3412.66 178.84 3419.63 164.7 3423.91 150 3425.36"/><path d="M 1600 3200.43 1586.95 3198.71 1574.78 3193.68 1568.34 3188.73 1600 3157.07 1631.66 3188.73 1625.22 3193.68 1613.05 3198.71 1600 3200.43"/><path d="M 1638.73 3181.66 1607.07 3150 1638.73 3118.34 1643.67 3124.78 1648.71 3136.95 1650.43 3150 1648.71 3163.05 1643.67 3175.22 1638.73 3181.66"/><path d="M 1561.27 3181.66 1556.32 3175.22 1551.29 3163.05 1549.57 3150 1551.29 3136.95 1556.32 3124.78 1561.27 3118.34 1592.93 3150 1561.27 3181.66"/><path d="M 1600 3142.93 1568.34 3111.27 1574.78 3106.32 1586.95 3101.29 1600 3099.57 1613.05 3101.29 1625.22 3106.32 1631.66 3111.27 1600 3142.93"/><path d="M 260 3165 150 3165 150 3055 260 3055 260 3165"/><path d="M 570 3165.47 555.64 3163.58 542.26 3158.04 530.77 3149.23 521.96 3137.74 516.42 3124.36 514.52 3110 516.42 3095.64 521.96 3082.26 530.77 3070.77 542.26 3061.96 555.64 3056.42 570 3054.52 584.36 3056.42 597.74 3061.96 609.23 3070.77 618.04 3082.26 623.58 3095.64 625.47 3110 623.58 3124.36 618.04 3137.74 609.23 3149.23 597.74 3158.04 584.36 3163.58 570 3165.47"/><path d="M 1646 2976 1554 2976 1554 2884 1646 2884 1646 2976"/><path d="M 625 2965 515 2965 515 2855 625 2855 625 2965"/><path d="M 205 2965.48 190.64 2963.58 177.26 2958.04 165.77 2949.23 156.96 2937.74 151.42 2924.36 149.53 2910 151.42 2895.64 156.96 2882.26 165.77 2870.77 177.26 2861.96 190.64 2856.42 205 2854.53 219.36 2856.42 232.74 2861.96 244.23 2870.77 253.04 2882.26 258.58 2895.64 260.48 2910 258.58 2924.36 253.04 2937.74 244.23 2949.23 232.74 2958.04 219.36 2963.58 205 2965.48"/><path d="M 1096 2876 1004 2876 1004 2784 1096 2784 1096 2876"/><path d="M 1600 2876.4 1587.99 2874.82 1576.8 2870.18 1567.19 2862.81 1559.82 2853.2 1555.18 2842.01 1553.6 2830 1555.18 2817.99 1559.82 2806.8 1567.19 2797.19 1576.8 2789.82 1587.99 2785.18 1600 2783.6 1612.01 2785.18 1623.2 2789.82 1632.81 2797.19 1640.18 2806.8 1644.82 2817.99 1646.4 2830 1644.82 2842.01 1640.18 2853.2 1632.81 2862.81 1623.2 2870.18 1612.01 2874.82 1600 2876.4"/><path d="M 1350 2876.4 1337.99 2874.82 1326.8 2870.18 1317.19 2862.81 1309.82 2853.2 1305.18 2842.01 1303.6 2830 1305.18 2817.99 1309.82 2806.8 1317.19 2797.19 1326.8 2789.82 1337.99 2785.18 1350 2783.6 1362.01 2785.18 1373.2 2789.82 1382.81 2797.19 1390.18 2806.8 1394.82 2817.99 1396.4 2830 1394.82 2842.01 1390.18 2853.2 1382.81 2862.81 1373.2 2870.18 1362.01 2874.82 1350 2876.4"/><path d="M 650 2732.93 617.07 2700 682.93 2700 650 2732.93"/><path d="M 150 2785.39 138.25 2783.84 127.31 2779.31 117.91 2772.09 110.69 2762.69 106.16 2751.75 104.61 2740 106.16 2728.25 110.69 2717.31 117.91 2707.91 127.31 2700.69 138.25 2696.16 150 2694.61 161.75 2696.16 172.69 2700.69 182.09 2707.91 189.31 2717.31 193.84 2728.25 195.39 2740 193.84 2751.75 189.31 2762.69 182.09 2772.09 172.69 2779.31 161.75 2783.84 150 2785.39"/><path d="M 1600 2776.4 1587.99 2774.82 1576.8 2770.18 1567.19 2762.81 1559.82 2753.2 1555.18 2742.01 1553.6 2730 1555.18 2717.99 1559.82 2706.8 1567.19 2697.19 1576.8 2689.82 1587.99 2685.18 1600 2683.6 1612.01 2685.18 1623.2 2689.82 1632.81 2697.19 1640.18 2706.8 1644.82 2717.99 1646.4 2730 1644.82 2742.01 1640.18 2753.2 1632.81 2762.81 1623.2 2770.18 1612.01 2774.82 1600 2776.4"/><path d="M 1350 2776.4 1337.99 2774.82 1326.8 2770.18 1317.19 2762.81 1309.82 2753.2 1305.18 2742.01 1303.6 2730 1305.18 2717.99 1309.82 2706.8 1317.19 2697.19 1326.8 2689.82 1337.99 2685.18 1350 2683.6 1362.01 2685.18 1373.2 2689.82 1382.81 2697.19 1390.18 2706.8 1394.82 2717.99 1396.4 2730 1394.82 2742.01 1390.18 2753.2 1382.81 2762.81 1373.2 2770.18 1362.01 2774.82 1350 2776.4"/><path d="M 1050 2776.4 1037.99 2774.82 1026.8 2770.18 1017.19 2762.81 1009.82 2753.2 1005.18 2742.01 1003.6 2730 1005.18 2717.99 1009.82 2706.8 1017.19 2697.19 1026.8 2689.82 1037.99 2685.18 1050 2683.6 1062.01 2685.18 1073.2 2689.82 1082.81 2697.19 1090.18 2706.8 1094.82 2717.99 1096.4 2730 1094.82 2742.01 1090.18 2753.2 1082.81 2762.81 1073.2 2770.18 1062.01 2774.82 1050 2776.4"/><path d="M 682.93 2650 617.07 2650 650 2617.07 682.93 2650"/><path d="M 1600 2676.4 1587.99 2674.82 1576.8 2670.18 1567.19 2662.81 1559.82 2653.2 1555.18 2642.01 1553.6 2630 1555.18 2617.99 1559.82 2606.8 1567.19 2597.19 1576.8 2589.82 1587.99 2585.18 1600 2583.6 1612.01 2585.18 1623.2 2589.82 1632.81 2597.19 1640.18 2606.8 1644.82 2617.99 1646.4 2630 1644.82 2642.01 1640.18 2653.2 1632.81 2662.81 1623.2 2670.18 1612.01 2674.82 1600 2676.4"/><path d="M 1350 2676.4 1337.99 2674.82 1326.8 2670.18 1317.19 2662.81 1309.82 2653.2 1305.18 2642.01 1303.6 2630 1305.18 2617.99 1309.82 2606.8 1317.19 2597.19 1326.8 2589.82 1337.99 2585.18 1350 2583.6 1362.01 2585.18 1373.2 2589.82 1382.81 2597.19 1390.18 2606.8 1394.82 2617.99 1396.4 2630 1394.82 2642.01 1390.18 2653.2 1382.81 2662.81 1373.2 2670.18 1362.01 2674.82 1350 2676.4"/><path d="M 1050 2676.4 1037.99 2674.82 1026.8 2670.18 1017.19 2662.81 1009.82 2653.2 1005.18 2642.01 1003.6 2630 1005.18 2617.99 1009.82 2606.8 1017.19 2597.19 1026.8 2589.82 1037.99 2585.18 1050 2583.6 1062.01 2585.18 1073.2 2589.82 1082.81 2597.19 1090.18 2606.8 1094.82 2617.99 1096.4 2630 1094.82 2642.01 1090.18 2653.2 1082.81 2662.81 1073.2 2670.18 1062.01 2674.82 1050 2676.4"/><path d="M 610 2642.93 610 2577.07 642.93 2610 610 2642.93"/><path d="M 690 2642.93 657.07 2610 690 2577.07 690 2642.93"/><path d="M 650 2602.93 617.07 2570 682.93 2570 650 2602.93"/><path d="M 1600 2576.4 1587.99 2574.82 1576.8 2570.18 1567.19 2562.81 1559.82 2553.2 1555.18 2542.01 1553.6 2530 1555.18 2517.99 1559.82 2506.8 1567.19 2497.19 1576.8 2489.82 1587.99 2485.18 1600 2483.6 1612.01 2485.18 1623.2 2489.82 1632.81 2497.19 1640.18 2506.8 1644.82 2517.99 1646.4 2530 1644.82 2542.01 1640.18 2553.2 1632.81 2562.81 1623.2 2570.18 1612.01 2574.82 1600 2576.4"/><path d="M 1350 2576.4 1337.99 2574.82 1326.8 2570.18 1317.19 2562.81 1309.82 2553.2 1305.18 2542.01 1303.6 2530 1305.18 2517.99 1309.82 2506.8 1317.19 2497.19 1326.8 2489.82 1337.99 2485.18 1350 2483.6 1362.01 2485.18 1373.2 2489.82 1382.81 2497.19 1390.18 2506.8 1394.82 2517.99 1396.4 2530 1394.82 2542.01 1390.18 2553.2 1382.81 2562.81 1373.2 2570.18 1362.01 2574.82 1350 2576.4"/><path d="M 1050 2576.4 1037.99 2574.82 1026.8 2570.18 1017.19 2562.81 1009.82 2553.2 1005.18 2542.01 1003.6 2530 1005.18 2517.99 1009.82 2506.8 1017.19 2497.19 1026.8 2489.82 1037.99 2485.18 1050 2483.6 1062.01 2485.18 1073.2 2489.82 1082.81 2497.19 1090.18 2506.8 1094.82 2517.99 1096.4 2530 1094.82 2542.01 1090.18 2553.2 1082.81 2562.81 1073.2 2570.18 1062.01 2574.82 1050 2576.4"/><path d="M 1600 2471.35 1589.3 2469.94 1579.32 2465.81 1574.76 2462.31 1600 2437.07 1625.24 2462.31 1620.68 2465.81 1610.7 2469.94 1600 2471.35"/><path d="M 1632.31 2455.24 1607.07 2430 1632.31 2404.76 1635.81 2409.32 1639.95 2419.3 1641.35 2430 1639.95 2440.7 1635.81 2450.68 1632.31 2455.24"/><path d="M 1567.69 2455.24 1564.19 2450.68 1560.06 2440.7 1558.65 2430 1560.06 2419.3 1564.19 2409.32 1567.69 2404.76 1592.93 2430 1567.69 2455.24"/><path d="M 1600 2422.93 1574.76 2397.69 1579.32 2394.19 1589.3 2390.05 1600 2388.65 1610.7 2390.05 1620.68 2394.19 1625.24 2397.69 1600 2422.93"/><path d="M 570 2495.48 555.64 2493.58 542.26 2488.04 530.77 2479.23 521.96 2467.74 516.42 2454.36 514.52 2440 516.42 2425.64 521.96 2412.26 530.77 2400.77 542.26 2391.96 555.64 2386.42 570 2384.53 584.36 2386.42 597.74 2391.96 609.23 2400.77 618.04 2412.26 623.58 2425.64 625.47 2440 623.58 2454.36 618.04 2467.74 609.23 2479.23 597.74 2488.04 584.36 2493.58 570 2495.48"/><path d="M 1350 2476.4 1337.99 2474.82 1326.8 2470.18 1317.19 2462.81 1309.82 2453.2 1305.18 2442.01 1303.6 2430 1305.18 2417.99 1309.82 2406.8 1317.19 2397.19 1326.8 2389.82 1337.99 2385.18 1350 2383.6 1362.01 2385.18 1373.2 2389.82 1382.81 2397.19 1390.18 2406.8 1394.82 2417.99 1396.4 2430 1394.82 2442.01 1390.18 2453.2 1382.81 2462.81 1373.2 2470.18 1362.01 2474.82 1350 2476.4"/><path d="M 1050 2476.4 1037.99 2474.82 1026.8 2470.18 1017.19 2462.81 1009.82 2453.2 1005.18 2442.01 1003.6 2430 1005.18 2417.99 1009.82 2406.8 1017.19 2397.19 1026.8 2389.82 1037.99 2385.18 1050 2383.6 1062.01 2385.18 1073.2 2389.82 1082.81 2397.19 1090.18 2406.8 1094.82 2417.99 1096.4 2430 1094.82 2442.01 1090.18 2453.2 1082.81 2462.81 1073.2 2470.18 1062.01 2474.82 1050 2476.4"/><path d="M 1350 2376.4 1337.99 2374.82 1326.8 2370.18 1317.19 2362.81 1309.82 2353.2 1305.18 2342.01 1303.6 2330 1305.18 2317.99 1309.82 2306.8 1317.19 2297.19 1326.8 2289.82 1337.99 2285.18 1350 2283.6 1362.01 2285.18 1373.2 2289.82 1382.81 2297.19 1390.18 2306.8 1394.82 2317.99 1396.4 2330 1394.82 2342.01 1390.18 2353.2 1382.81 2362.81 1373.2 2370.18 1362.01 2374.82 1350 2376.4"/><path d="M 671.21 2820.39 350 2820.39 342.2 2818.84 335.58 2814.42 185.58 2664.42 181.16 2657.8 179.61 2650 179.61 2649.66 175.12 2647.44 172.69 2649.31 161.75 2653.84 150 2655.39 138.25 2653.84 127.31 2649.31 117.91 2642.09 110.69 2632.69 106.16 2621.75 104.61 2610 106.16 2598.25 110.69 2587.31 117.91 2577.91 127.31 2570.69 138.25 2566.16 150 2564.61 161.75 2566.16 172.69 2570.69 175.12 2572.56 179.61 2570.34 179.61 2495 145 2495 145 2385 255 2385 255 2495 220.39 2495 220.39 2641.55 358.45 2779.61 610 2779.61 610 2707.07 646.47 2743.54 650 2740 653.54 2743.54 690 2707.07 690 2745.84 694.62 2747.76 822.93 2619.44 822.93 2436.68 824.48 2428.87 828.9 2422.26 1006.35 2244.82 1005.18 2242.01 1003.6 2230 1005.18 2217.99 1009.82 2206.8 1017.19 2197.19 1026.8 2189.82 1037.99 2185.18 1050 2183.6 1062.01 2185.18 1073.2 2189.82 1082.81 2197.19 1090.18 2206.8 1094.82 2217.99 1096.4 2230 1094.82 2242.01 1090.18 2253.2 1082.81 2262.81 1073.2 2270.18 1062.01 2274.82 1050 2276.4 1037.99 2274.82 1035.18 2273.65 1020.44 2288.4 1023.74 2292.16 1026.8 2289.82 1037.99 2285.18 1050 2283.6 1062.01 2285.18 1073.2 2289.82 1082.81 2297.19 1090.18 2306.8 1094.82 2317.99 1096.4 2330 1094.82 2342.01 1090.18 2353.2 1082.81 2362.81 1073.2 2370.18 1062.01 2374.82 1050 2376.4 1037.99 2374.82 1026.8 2370.18 1017.19 2362.81 1009.82 2353.2 1005.18 2342.01 1003.6 2330 1005.18 2317.99 1009.82 2306.8 1012.16 2303.75 1008.4 2300.44 863.71 2445.12 863.71 2627.89 862.16 2635.69 857.74 2642.31 685.63 2814.42 679.02 2818.84 671.21 2820.39"/><path d="M 1633.93 2271 1566.07 2271 1600 2237.07 1633.93 2271"/><path d="M 1700 2271.35 1689.3 2269.94 1679.32 2265.81 1674.76 2262.31 1700 2237.07 1725.24 2262.31 1720.68 2265.81 1710.7 2269.94 1700 2271.35"/><path d="M 1350 2271.35 1339.3 2269.94 1329.32 2265.81 1324.76 2262.31 1350 2237.07 1375.24 2262.31 1370.68 2265.81 1360.7 2269.94 1350 2271.35"/><path d="M 1382.31 2255.24 1357.07 2230 1382.31 2204.76 1385.81 2209.32 1389.95 2219.3 1391.35 2230 1389.95 2240.7 1385.81 2250.68 1382.31 2255.24"/><path d="M 1732.31 2255.24 1707.07 2230 1732.31 2204.76 1735.81 2209.32 1739.95 2219.3 1741.35 2230 1739.95 2240.7 1735.81 2250.68 1732.31 2255.24"/><path d="M 1667.69 2255.24 1664.19 2250.68 1660.06 2240.7 1658.65 2230 1660.06 2219.3 1664.19 2209.32 1667.69 2204.76 1692.93 2230 1667.69 2255.24"/><path d="M 1317.69 2255.24 1314.19 2250.68 1310.06 2240.7 1308.65 2230 1310.06 2219.3 1314.19 2209.32 1317.69 2204.76 1342.93 2230 1317.69 2255.24"/><path d="M 1641 2263.93 1607.07 2230 1641 2196.07 1641 2263.93"/><path d="M 1559 2263.93 1559 2196.07 1592.93 2230 1559 2263.93"/><path d="M 1600 2222.93 1566.07 2189 1633.93 2189 1600 2222.93"/><path d="M 1700 2222.93 1674.76 2197.69 1679.32 2194.19 1689.3 2190.05 1700 2188.65 1710.7 2190.05 1720.68 2194.19 1725.24 2197.69 1700 2222.93"/><path d="M 1350 2222.93 1324.76 2197.69 1329.32 2194.19 1339.3 2190.05 1350 2188.65 1360.7 2190.05 1370.68 2194.19 1375.24 2197.69 1350 2222.93"/><path d="M 625 2295 515 2295 515 2185 625 2185 625 2295"/><path d="M 200 2295.48 185.64 2293.58 172.26 2288.04 160.77 2279.23 151.96 2267.74 146.42 2254.36 144.53 2240 146.42 2225.64 151.96 2212.26 160.77 2200.77 172.26 2191.96 185.64 2186.42 200 2184.53 214.36 2186.42 227.74 2191.96 239.23 2200.77 248.04 2212.26 253.58 2225.64 255.48 2240 253.58 2254.36 248.04 2267.74 239.23 2279.23 227.74 2288.04 214.36 2293.58 200 2295.48"/><path d="M 1050 2171.35 1039.3 2169.95 1029.32 2165.81 1024.76 2162.31 1050 2137.07 1075.24 2162.31 1070.68 2165.81 1060.7 2169.95 1050 2171.35"/><path d="M 1082.31 2155.24 1057.07 2130 1082.31 2104.76 1085.81 2109.32 1089.94 2119.3 1091.35 2130 1089.94 2140.7 1085.81 2150.68 1082.31 2155.24"/><path d="M 1017.69 2155.24 1014.19 2150.68 1010.05 2140.7 1008.65 2130 1010.05 2119.3 1014.19 2109.32 1017.69 2104.76 1042.93 2130 1017.69 2155.24"/><path d="M 1050 2122.93 1024.76 2097.69 1029.32 2094.19 1039.3 2090.05 1050 2088.65 1060.7 2090.05 1070.68 2094.19 1075.24 2097.69 1050 2122.93"/><path d="M 1700 2176.4 1687.99 2174.82 1676.8 2170.18 1667.19 2162.81 1659.82 2153.2 1655.18 2142.01 1653.6 2130 1655.18 2117.99 1659.82 2106.8 1667.19 2097.19 1676.8 2089.82 1687.99 2085.18 1700 2083.6 1712.01 2085.18 1723.2 2089.82 1732.81 2097.19 1740.18 2106.8 1744.82 2117.99 1746.4 2130 1744.82 2142.01 1740.18 2153.2 1732.81 2162.81 1723.2 2170.18 1712.01 2174.82 1700 2176.4"/><path d="M 1600 2176.4 1587.99 2174.82 1576.8 2170.18 1567.19 2162.81 1559.82 2153.2 1555.18 2142.01 1553.6 2130 1555.18 2117.99 1559.82 2106.8 1567.19 2097.19 1576.8 2089.82 1587.99 2085.18 1600 2083.6 1612.01 2085.18 1623.2 2089.82 1632.81 2097.19 1640.18 2106.8 1644.82 2117.99 1646.4 2130 1644.82 2142.01 1640.18 2153.2 1632.81 2162.81 1623.2 2170.18 1612.01 2174.82 1600 2176.4"/><path d="M 1350 2176.4 1337.99 2174.82 1326.8 2170.18 1317.19 2162.81 1309.82 2153.2 1305.18 2142.01 1303.6 2130 1305.18 2117.99 1309.82 2106.8 1317.19 2097.19 1326.8 2089.82 1337.99 2085.18 1350 2083.6 1362.01 2085.18 1373.2 2089.82 1382.81 2097.19 1390.18 2106.8 1394.82 2117.99 1396.4 2130 1394.82 2142.01 1390.18 2153.2 1382.81 2162.81 1373.2 2170.18 1362.01 2174.82 1350 2176.4"/><path d="M 682.93 2110 617.07 2110 650 2077.07 682.93 2110"/><path d="M 875 2165 785 2165 785 2075 875 2075 875 2165"/><path d="M 610 2102.93 610 2037.07 642.93 2070 610 2102.93"/><path d="M 690 2102.93 657.07 2070 690 2037.07 690 2102.93"/><path d="M 650 2062.93 617.07 2030 682.93 2030 650 2062.93"/><path d="M 150 2115.39 138.25 2113.84 127.31 2109.31 117.91 2102.09 110.69 2092.69 106.16 2081.75 104.61 2070 106.16 2058.25 110.69 2047.31 117.91 2037.91 127.31 2030.69 138.25 2026.16 150 2024.61 161.75 2026.16 172.69 2030.69 182.09 2037.91 189.31 2047.31 193.84 2058.25 195.39 2070 193.84 2081.75 189.31 2092.69 182.09 2102.09 172.69 2109.31 161.75 2113.84 150 2115.39"/><path d="M 1700 2076.4 1687.99 2074.82 1676.8 2070.18 1667.19 2062.81 1659.82 2053.2 1655.18 2042.01 1653.6 2030 1655.18 2017.99 1659.82 2006.8 1667.19 1997.19 1676.8 1989.82 1687.99 1985.18 1700 1983.6 1712.01 1985.18 1723.2 1989.82 1732.81 1997.19 1740.18 2006.8 1744.82 2017.99 1746.4 2030 1744.82 2042.01 1740.18 2053.2 1732.81 2062.81 1723.2 2070.18 1712.01 2074.82 1700 2076.4"/><path d="M 1600 2076.4 1587.99 2074.82 1576.8 2070.18 1567.19 2062.81 1559.82 2053.2 1555.18 2042.01 1553.6 2030 1555.18 2017.99 1559.82 2006.8 1567.19 1997.19 1576.8 1989.82 1587.99 1985.18 1600 1983.6 1612.01 1985.18 1623.2 1989.82 1632.81 1997.19 1640.18 2006.8 1644.82 2017.99 1646.4 2030 1644.82 2042.01 1640.18 2053.2 1632.81 2062.81 1623.2 2070.18 1612.01 2074.82 1600 2076.4"/><path d="M 1350 2076.4 1337.99 2074.82 1326.8 2070.18 1317.19 2062.81 1309.82 2053.2 1305.18 2042.01 1303.6 2030 1305.18 2017.99 1309.82 2006.8 1317.19 1997.19 1326.8 1989.82 1337.99 1985.18 1350 1983.6 1362.01 1985.18 1373.2 1989.82 1382.81 1997.19 1390.18 2006.8 1394.82 2017.99 1396.4 2030 1394.82 2042.01 1390.18 2053.2 1382.81 2062.81 1373.2 2070.18 1362.01 2074.82 1350 2076.4"/><path d="M 1050 2076.4 1037.99 2074.82 1026.8 2070.18 1017.19 2062.81 1009.82 2053.2 1005.18 2042.01 1003.6 2030 1005.18 2017.99 1009.82 2006.8 1017.19 1997.19 1026.8 1989.82 1037.99 1985.18 1050 1983.6 1062.01 1985.18 1073.2 1989.82 1082.81 1997.19 1090.18 2006.8 1094.82 2017.99 1096.4 2030 1094.82 2042.01 1090.18 2053.2 1082.81 2062.81 1073.2 2070.18 1062.01 2074.82 1050 2076.4"/><path d="M 682.93 1980 617.07 1980 650 1947.07 682.93 1980"/><path d="M 690 1972.93 657.07 1940 690 1907.07 690 1972.93"/><path d="M 150 1985.39 138.25 1983.84 127.31 1979.31 117.91 1972.09 110.69 1962.69 106.16 1951.75 104.61 1940 106.16 1928.25 110.69 1917.31 117.91 1907.91 127.31 1900.69 138.25 1896.16 150 1894.61 161.75 1896.16 172.69 1900.69 182.09 1907.91 189.31 1917.31 193.84 1928.25 195.39 1940 193.84 1951.75 189.31 1962.69 182.09 1972.09 172.69 1979.31 161.75 1983.84 150 1985.39"/><path d="M 1700 1976.4 1687.99 1974.82 1676.8 1970.18 1667.19 1962.81 1659.82 1953.2 1655.18 1942.01 1653.6 1930 1655.18 1917.99 1659.82 1906.8 1667.19 1897.19 1676.8 1889.82 1687.99 1885.18 1700 1883.6 1712.01 1885.18 1723.2 1889.82 1732.81 1897.19 1740.18 1906.8 1744.82 1917.99 1746.4 1930 1744.82 1942.01 1740.18 1953.2 1732.81 1962.81 1723.2 1970.18 1712.01 1974.82 1700 1976.4"/><path d="M 1600 1976.4 1587.99 1974.82 1576.8 1970.18 1567.19 1962.81 1559.82 1953.2 1555.18 1942.01 1553.6 1930 1555.18 1917.99 1559.82 1906.8 1567.19 1897.19 1576.8 1889.82 1587.99 1885.18 1600 1883.6 1612.01 1885.18 1623.2 1889.82 1632.81 1897.19 1640.18 1906.8 1644.82 1917.99 1646.4 1930 1644.82 1942.01 1640.18 1953.2 1632.81 1962.81 1623.2 1970.18 1612.01 1974.82 1600 1976.4"/><path d="M 1350 1976.4 1337.99 1974.82 1326.8 1970.18 1317.19 1962.81 1309.82 1953.2 1305.18 1942.01 1303.6 1930 1305.18 1917.99 1309.82 1906.8 1317.19 1897.19 1326.8 1889.82 1337.99 1885.18 1350 1883.6 1362.01 1885.18 1373.2 1889.82 1382.81 1897.19 1390.18 1906.8 1394.82 1917.99 1396.4 1930 1394.82 1942.01 1390.18 1953.2 1382.81 1962.81 1373.2 1970.18 1362.01 1974.82 1350 1976.4"/><path d="M 1050 1976.4 1037.99 1974.82 1026.8 1970.18 1017.19 1962.81 1009.82 1953.2 1005.18 1942.01 1003.6 1930 1005.18 1917.99 1009.82 1906.8 1017.19 1897.19 1026.8 1889.82 1037.99 1885.18 1050 1883.6 1062.01 1885.18 1073.2 1889.82 1082.81 1897.19 1090.18 1906.8 1094.82 1917.99 1096.4 1930 1094.82 1942.01 1090.18 1953.2 1082.81 1962.81 1073.2 1970.18 1062.01 1974.82 1050 1976.4"/><path d="M 830 1965.39 818.25 1963.84 807.31 1959.31 797.91 1952.09 790.69 1942.69 786.16 1931.75 784.61 1920 786.16 1908.25 790.69 1897.31 797.91 1887.91 807.31 1880.69 818.25 1876.16 830 1874.61 841.75 1876.16 852.69 1880.69 862.09 1887.91 869.31 1897.31 873.84 1908.25 875.39 1920 873.84 1931.75 869.31 1942.69 862.09 1952.09 852.69 1959.31 841.75 1963.84 830 1965.39"/><path d="M 1600 1876.4 1587.99 1874.82 1576.8 1870.18 1567.19 1862.81 1559.82 1853.2 1558.66 1850.39 1555 1850.39 1555 1850.39 1547.2 1848.84 1540.58 1844.42 1540.58 1844.42 1446.55 1750.39 1391.34 1750.39 1390.18 1753.2 1382.81 1762.81 1373.2 1770.18 1362.01 1774.82 1350 1776.4 1337.99 1774.82 1326.8 1770.18 1317.19 1762.81 1309.82 1753.2 1305.18 1742.01 1303.6 1730 1305.18 1717.99 1309.82 1706.8 1317.19 1697.19 1326.8 1689.82 1337.99 1685.18 1350 1683.6 1362.01 1685.18 1373.2 1689.82 1382.81 1697.19 1390.18 1706.8 1391.34 1709.61 1455 1709.61 1462.8 1711.16 1469.42 1715.58 1557.49 1803.66 1562.48 1803.33 1567.19 1797.19 1576.8 1789.82 1587.99 1785.18 1600 1783.6 1612.01 1785.18 1623.2 1789.82 1632.81 1797.19 1640.18 1806.8 1644.82 1817.99 1646.4 1830 1644.82 1842.01 1640.18 1853.2 1632.81 1862.81 1623.2 1870.18 1612.01 1874.82 1600 1876.4"/><path d="M 1700 1876.4 1687.99 1874.82 1676.8 1870.18 1667.19 1862.81 1659.82 1853.2 1655.18 1842.01 1653.6 1830 1655.18 1817.99 1659.82 1806.8 1667.19 1797.19 1676.8 1789.82 1687.99 1785.18 1700 1783.6 1712.01 1785.18 1723.2 1789.82 1732.81 1797.19 1740.18 1806.8 1744.82 1817.99 1746.4 1830 1744.82 1842.01 1740.18 1853.2 1732.81 1862.81 1723.2 1870.18 1712.01 1874.82 1700 1876.4"/><path d="M 1350 1876.4 1337.99 1874.82 1326.8 1870.18 1317.19 1862.81 1309.82 1853.2 1305.18 1842.01 1303.6 1830 1305.18 1817.99 1309.82 1806.8 1317.19 1797.19 1326.8 1789.82 1337.99 1785.18 1350 1783.6 1362.01 1785.18 1373.2 1789.82 1382.81 1797.19 1390.18 1806.8 1394.82 1817.99 1396.4 1830 1394.82 1842.01 1390.18 1853.2 1382.81 1862.81 1373.2 1870.18 1362.01 1874.82 1350 1876.4"/><path d="M 385 2530.34 374.56 2528.97 364.83 2524.94 356.47 2518.53 350.06 2510.17 346.03 2500.44 344.66 2490 346.03 2479.56 350.06 2469.83 356.47 2461.47 364.61 2455.23 364.61 2095 366.16 2087.2 370.58 2080.58 635.58 1815.58 642.2 1811.16 650 1809.61 1008.66 1809.61 1009.82 1806.8 1017.19 1797.19 1026.8 1789.82 1037.99 1785.18 1050 1783.6 1062.01 1785.18 1073.2 1789.82 1082.81 1797.19 1090.18 1806.8 1094.82 1817.99 1096.4 1830 1094.82 1842.01 1090.18 1853.2 1082.81 1862.81 1073.2 1870.18 1062.01 1874.82 1050 1876.4 1037.99 1874.82 1026.8 1870.18 1017.19 1862.81 1009.82 1853.2 1008.66 1850.39 658.45 1850.39 613.84 1895 615.91 1900 682.93 1900 646.47 1936.47 610 1972.93 610 1905.91 605 1903.84 405.39 2103.45 405.39 2455.23 413.53 2461.47 419.94 2469.83 423.97 2479.56 425.35 2490 423.97 2500.44 419.94 2510.17 413.53 2518.53 405.17 2524.94 395.44 2528.97 385 2530.34"/><path d="M 255 1825 145 1825 145 1715 255 1715 255 1825"/><path d="M 570 1825.47 555.64 1823.58 542.26 1818.04 530.77 1809.23 521.96 1797.74 516.42 1784.36 514.52 1770 516.42 1755.64 521.96 1742.26 530.77 1730.77 542.26 1721.96 555.64 1716.42 570 1714.52 584.36 1716.42 597.74 1721.96 609.23 1730.77 618.04 1742.26 623.58 1755.64 625.47 1770 623.58 1784.36 618.04 1797.74 609.23 1809.23 597.74 1818.04 584.36 1823.58 570 1825.47"/><path d="M 770 1720.35 759.56 1718.97 749.83 1714.94 741.47 1708.53 735.23 1700.39 490 1700.39 490 1700.39 482.2 1698.84 475.58 1694.42 326.55 1545.39 254.17 1545.39 250.99 1549.37 253.58 1555.64 255.48 1570 253.58 1584.36 248.04 1597.74 239.23 1609.23 227.74 1618.04 214.36 1623.58 200 1625.48 185.64 1623.58 172.26 1618.04 160.77 1609.23 151.96 1597.74 146.42 1584.36 144.53 1570 146.42 1555.64 151.96 1542.26 160.77 1530.77 172.26 1521.96 185.64 1516.42 200 1514.53 214.36 1516.42 221.7 1519.46 230.58 1510.58 237.2 1506.16 245 1504.61 245 1504.61 335 1504.61 342.8 1506.16 349.42 1510.58 498.45 1659.61 735.23 1659.61 741.47 1651.47 749.83 1645.06 759.56 1641.03 770 1639.65 780.44 1641.03 790.17 1645.06 798.53 1651.47 804.94 1659.83 808.97 1669.56 810.34 1680 808.97 1690.44 804.94 1700.17 798.53 1708.53 790.17 1714.94 780.44 1718.97 770 1720.35"/><path d="M 1700 1776.4 1687.99 1774.82 1676.8 1770.18 1667.19 1762.81 1659.82 1753.2 1655.18 1742.01 1653.6 1730 1655.18 1717.99 1659.82 1706.8 1667.19 1697.19 1676.8 1689.82 1687.99 1685.18 1700 1683.6 1712.01 1685.18 1723.2 1689.82 1732.81 1697.19 1740.18 1706.8 1744.82 1717.99 1746.4 1730 1744.82 1742.01 1740.18 1753.2 1732.81 1762.81 1723.2 1770.18 1712.01 1774.82 1700 1776.4"/><path d="M 1600 1776.4 1587.99 1774.82 1576.8 1770.18 1567.19 1762.81 1559.82 1753.2 1555.18 1742.01 1553.6 1730 1555.18 1717.99 1559.82 1706.8 1567.19 1697.19 1576.8 1689.82 1587.99 1685.18 1600 1683.6 1612.01 1685.18 1623.2 1689.82 1632.81 1697.19 1640.18 1706.8 1644.82 1717.99 1646.4 1730 1644.82 1742.01 1640.18 1753.2 1632.81 1762.81 1623.2 1770.18 1612.01 1774.82 1600 1776.4"/><path d="M 1050 1776.4 1037.99 1774.82 1026.8 1770.18 1017.19 1762.81 1009.82 1753.2 1005.18 1742.01 1003.6 1730 1005.18 1717.99 1009.82 1706.8 1017.19 1697.19 1026.8 1689.82 1037.99 1685.18 1050 1683.6 1062.01 1685.18 1073.2 1689.82 1082.81 1697.19 1090.18 1706.8 1094.82 1717.99 1096.4 1730 1094.82 1742.01 1090.18 1753.2 1082.81 1762.81 1073.2 1770.18 1062.01 1774.82 1050 1776.4"/><path d="M 1700 1676.4 1687.99 1674.82 1676.8 1670.18 1667.19 1662.81 1659.82 1653.2 1655.18 1642.01 1653.6 1630 1655.18 1617.99 1659.82 1606.8 1667.19 1597.19 1676.8 1589.82 1687.99 1585.18 1700 1583.6 1712.01 1585.18 1723.2 1589.82 1732.81 1597.19 1740.18 1606.8 1744.82 1617.99 1746.4 1630 1744.82 1642.01 1740.18 1653.2 1732.81 1662.81 1723.2 1670.18 1712.01 1674.82 1700 1676.4"/><path d="M 1600 1676.4 1587.99 1674.82 1576.8 1670.18 1567.19 1662.81 1559.82 1653.2 1555.18 1642.01 1553.6 1630 1555.18 1617.99 1559.82 1606.8 1567.19 1597.19 1576.8 1589.82 1587.99 1585.18 1600 1583.6 1612.01 1585.18 1623.2 1589.82 1632.81 1597.19 1640.18 1606.8 1644.82 1617.99 1646.4 1630 1644.82 1642.01 1640.18 1653.2 1632.81 1662.81 1623.2 1670.18 1612.01 1674.82 1600 1676.4"/><path d="M 1350 1676.4 1337.99 1674.82 1326.8 1670.18 1317.19 1662.81 1309.82 1653.2 1305.18 1642.01 1303.6 1630 1305.18 1617.99 1309.82 1606.8 1317.19 1597.19 1326.8 1589.82 1337.99 1585.18 1350 1583.6 1362.01 1585.18 1373.2 1589.82 1382.81 1597.19 1390.18 1606.8 1394.82 1617.99 1396.4 1630 1394.82 1642.01 1390.18 1653.2 1382.81 1662.81 1373.2 1670.18 1362.01 1674.82 1350 1676.4"/><path d="M 1050 1676.4 1037.99 1674.82 1026.8 1670.18 1017.19 1662.81 1009.82 1653.2 1005.18 1642.01 1003.6 1630 1005.18 1617.99 1009.82 1606.8 1017.19 1597.19 1026.8 1589.82 1037.99 1585.18 1050 1583.6 1062.01 1585.18 1073.2 1589.82 1082.81 1597.19 1090.18 1606.8 1094.82 1617.99 1096.4 1630 1094.82 1642.01 1090.18 1653.2 1082.81 1662.81 1073.2 1670.18 1062.01 1674.82 1050 1676.4"/><path d="M 1700 1571.35 1689.3 1569.94 1679.32 1565.81 1674.76 1562.31 1700 1537.07 1725.24 1562.31 1720.68 1565.81 1710.7 1569.94 1700 1571.35"/><path d="M 1600 1571.35 1589.3 1569.94 1579.32 1565.81 1574.76 1562.31 1600 1537.07 1625.24 1562.31 1620.68 1565.81 1610.7 1569.94 1600 1571.35"/><path d="M 625 1625 515 1625 515 1515 625 1515 625 1625"/><path d="M 1732.31 1555.24 1707.07 1530 1732.31 1504.76 1735.81 1509.32 1739.95 1519.3 1741.35 1530 1739.95 1540.7 1735.81 1550.68 1732.31 1555.24"/><path d="M 1632.31 1555.24 1607.07 1530 1632.31 1504.76 1635.81 1509.32 1639.95 1519.3 1641.35 1530 1639.95 1540.7 1635.81 1550.68 1632.31 1555.24"/><path d="M 1667.69 1555.24 1664.19 1550.68 1660.06 1540.7 1658.65 1530 1660.06 1519.3 1664.19 1509.32 1667.69 1504.76 1692.93 1530 1667.69 1555.24"/><path d="M 1567.69 1555.24 1564.19 1550.68 1560.06 1540.7 1558.65 1530 1560.06 1519.3 1564.19 1509.32 1567.69 1504.76 1592.93 1530 1567.69 1555.24"/><path d="M 1700 1522.93 1674.76 1497.69 1679.32 1494.19 1689.3 1490.05 1700 1488.65 1710.7 1490.05 1720.68 1494.19 1725.24 1497.69 1700 1522.93"/><path d="M 1600 1522.93 1574.76 1497.69 1579.32 1494.19 1589.3 1490.05 1600 1488.65 1610.7 1490.05 1620.68 1494.19 1625.24 1497.69 1600 1522.93"/><path d="M 1050 1576.4 1037.99 1574.82 1026.8 1570.18 1017.19 1562.81 1009.82 1553.2 1005.18 1542.01 1003.6 1530 1005.18 1517.99 1009.82 1506.8 1017.19 1497.19 1026.8 1489.82 1037.99 1485.18 1050 1483.6 1062.01 1485.18 1073.2 1489.82 1082.81 1497.19 1090.18 1506.8 1094.82 1517.99 1096.4 1530 1094.82 1542.01 1090.18 1553.2 1082.81 1562.81 1073.2 1570.18 1062.01 1574.82 1050 1576.4"/><path d="M 682.93 1440 617.07 1440 650 1407.07 682.93 1440"/><path d="M 610 1432.93 610 1367.07 642.93 1400 610 1432.93"/><path d="M 690 1432.93 657.07 1400 690 1367.07 690 1432.93"/><path d="M 650 1392.93 617.07 1360 682.93 1360 650 1392.93"/><path d="M 762.5 1435.35 752.06 1433.97 742.33 1429.94 733.97 1423.53 727.56 1415.17 723.53 1405.44 722.15 1395 723.49 1384.83 693.66 1355 599.61 1355 591.8 1353.45 585.19 1349.03 196.97 960.81 192.77 954.52 185.64 953.58 178.3 950.54 40.39 1088.45 40.39 1225.23 48.53 1231.47 54.94 1239.83 58.97 1249.56 60.35 1260 58.97 1270.44 54.94 1280.17 48.53 1288.53 40.17 1294.94 30.44 1298.97 20 1300.34 9.56 1298.97 -0.17 1294.94 -8.53 1288.53 -14.94 1280.17 -18.97 1270.44 -20.35 1260 -18.97 1249.56 -14.94 1239.83 -8.53 1231.47 -0.39 1225.23 -0.39 1080 1.16 1072.2 5.58 1065.58 149.46 921.7 146.42 914.36 144.53 900 146.42 885.64 151.96 872.26 160.77 860.77 172.26 851.96 185.64 846.42 200 844.52 214.36 846.42 227.74 851.96 239.23 860.77 248.04 872.26 253.58 885.64 255.48 900 253.58 914.36 248.04 927.74 239.23 939.23 238.75 939.59 238.42 944.58 605.82 1311.98 610 1309.09 610 1237.07 646.47 1273.54 650 1270 653.54 1273.54 690 1237.07 690 1309.22 690 1310 691.89 1314.22 702.11 1314.22 709.91 1315.77 716.53 1320.19 752.33 1355.99 762.5 1354.66 772.94 1356.03 782.67 1360.06 791.03 1366.47 797.44 1374.83 801.47 1384.56 802.85 1395 801.47 1405.44 797.44 1415.17 791.03 1423.53 782.67 1429.94 772.94 1433.97 762.5 1435.35"/><path d="M 150 1445.39 138.25 1443.84 127.31 1439.31 117.91 1432.09 110.69 1422.69 106.16 1411.75 104.61 1400 106.16 1388.25 110.69 1377.31 117.91 1367.91 127.31 1360.69 138.25 1356.16 150 1354.61 161.75 1356.16 172.69 1360.69 182.09 1367.91 189.31 1377.31 193.84 1388.25 195.39 1400 193.84 1411.75 189.31 1422.69 182.09 1432.09 172.69 1439.31 161.75 1443.84 150 1445.39"/><path d="M 1540 1416.4 1527.99 1414.82 1516.8 1410.18 1507.19 1402.81 1499.82 1393.2 1495.18 1382.01 1493.6 1370 1495.18 1357.99 1499.82 1346.8 1507.19 1337.19 1516.8 1329.82 1527.99 1325.18 1540 1323.6 1552.01 1325.18 1563.2 1329.82 1572.81 1337.19 1580.18 1346.8 1584.82 1357.99 1586.4 1370 1584.82 1382.01 1580.18 1393.2 1572.81 1402.81 1563.2 1410.18 1552.01 1414.82 1540 1416.4"/><path d="M 1440 1416.4 1427.99 1414.82 1416.8 1410.18 1407.19 1402.81 1399.82 1393.2 1395.18 1382.01 1393.6 1370 1395.18 1357.99 1399.82 1346.8 1407.19 1337.19 1416.8 1329.82 1427.99 1325.18 1440 1323.6 1452.01 1325.18 1463.2 1329.82 1472.81 1337.19 1480.18 1346.8 1484.82 1357.99 1486.4 1370 1484.82 1382.01 1480.18 1393.2 1472.81 1402.81 1463.2 1410.18 1452.01 1414.82 1440 1416.4"/><path d="M 1340 1416.4 1327.99 1414.82 1316.8 1410.18 1307.19 1402.81 1299.82 1393.2 1295.18 1382.01 1293.6 1370 1295.18 1357.99 1299.82 1346.8 1307.19 1337.19 1316.8 1329.82 1327.99 1325.18 1340 1323.6 1352.01 1325.18 1363.2 1329.82 1372.81 1337.19 1380.18 1346.8 1384.82 1357.99 1386.4 1370 1384.82 1382.01 1380.18 1393.2 1372.81 1402.81 1363.2 1410.18 1352.01 1414.82 1340 1416.4"/><path d="M 1240 1416.4 1227.99 1414.82 1216.8 1410.18 1207.19 1402.81 1199.82 1393.2 1195.18 1382.01 1193.6 1370 1195.18 1357.99 1199.82 1346.8 1207.19 1337.19 1216.8 1329.82 1227.99 1325.18 1240 1323.6 1252.01 1325.18 1263.2 1329.82 1272.81 1337.19 1280.18 1346.8 1284.82 1357.99 1286.4 1370 1284.82 1382.01 1280.18 1393.2 1272.81 1402.81 1263.2 1410.18 1252.01 1414.82 1240 1416.4"/><path d="M 1350 1576.4 1337.99 1574.82 1326.8 1570.18 1317.19 1562.81 1309.82 1553.2 1305.18 1542.01 1303.6 1530 1305.18 1517.99 1309.82 1506.8 1317.19 1497.19 1326.8 1489.82 1337.99 1485.18 1350 1483.6 1362.01 1485.18 1373.2 1489.82 1382.81 1497.19 1384.66 1499.61 1471.55 1499.61 1525.58 1445.58 1532.2 1441.16 1540 1439.61 1621.55 1439.61 1639.98 1421.19 1637.96 1416.13 1627.99 1414.82 1616.8 1410.18 1607.19 1402.81 1599.82 1393.2 1595.18 1382.01 1593.6 1370 1595.18 1357.99 1599.82 1346.8 1607.19 1337.19 1616.8 1329.82 1627.99 1325.18 1640 1323.6 1652.01 1325.18 1663.2 1329.82 1672.81 1337.19 1680.18 1346.8 1684.82 1357.99 1686.13 1367.96 1691.19 1369.98 1715.58 1345.58 1715.58 1345.58 1722.2 1341.16 1730 1339.61 1730 1339.61 1845.23 1339.61 1851.47 1331.47 1859.83 1325.06 1869.56 1321.03 1880 1319.65 1890.44 1321.03 1900.17 1325.06 1908.53 1331.47 1914.94 1339.83 1918.97 1349.56 1920.34 1360 1918.97 1370.44 1914.94 1380.17 1908.53 1388.53 1900.17 1394.94 1890.44 1398.97 1880 1400.34 1869.56 1398.97 1859.83 1394.94 1851.47 1388.53 1845.23 1380.39 1738.45 1380.39 1644.42 1474.42 1637.8 1478.84 1630 1480.39 1548.45 1480.39 1494.42 1534.42 1487.8 1538.84 1480 1540.39 1395.03 1540.39 1394.82 1542.01 1390.18 1553.2 1382.81 1562.81 1373.2 1570.18 1362.01 1574.82 1350 1576.4"/><path d="M 650 1262.93 617.07 1230 682.93 1230 650 1262.93"/><path d="M 150 1315.39 138.25 1313.84 127.31 1309.31 117.91 1302.09 110.69 1292.69 106.16 1281.75 104.61 1270 106.16 1258.25 110.69 1247.31 117.91 1237.91 127.31 1230.69 138.25 1226.16 150 1224.61 161.75 1226.16 172.69 1230.69 182.09 1237.91 189.31 1247.31 193.84 1258.25 195.39 1270 193.84 1281.75 189.31 1292.69 182.09 1302.09 172.69 1309.31 161.75 1313.84 150 1315.39"/><path d="M 1050 1230.35 1039.56 1228.97 1029.83 1224.94 1025.47 1221.6 1050 1197.07 1074.53 1221.6 1070.17 1224.94 1060.44 1228.97 1050 1230.35"/><path d="M 1018.4 1214.53 1015.06 1210.17 1011.03 1200.44 1009.65 1190 1011.03 1179.56 1015.06 1169.83 1018.4 1165.47 1042.93 1190 1018.4 1214.53"/><path d="M 1081.6 1214.53 1057.07 1190 1081.6 1165.47 1084.94 1169.83 1088.97 1179.56 1090.35 1190 1088.97 1200.44 1084.94 1210.17 1081.6 1214.53"/><path d="M 955 1245 865 1245 865 1155 955 1155 955 1245"/><path d="M 825 1245 735 1245 735 1155 825 1155 825 1245"/><path d="M 1050 1182.93 1025.47 1158.4 1029.83 1155.06 1039.56 1151.03 1050 1149.65 1060.44 1151.03 1070.17 1155.06 1074.53 1158.4 1050 1182.93"/><path d="M 255 1155 145 1155 145 1045 255 1045 255 1155"/><path d="M 570 1155.48 555.64 1153.58 542.26 1148.04 530.77 1139.23 521.96 1127.74 516.42 1114.36 514.52 1100 516.42 1085.64 521.96 1072.26 530.77 1060.77 542.26 1051.96 555.64 1046.42 570 1044.53 584.36 1046.42 597.74 1051.96 609.23 1060.77 618.04 1072.26 623.58 1085.64 625.47 1100 623.58 1114.36 618.04 1127.74 609.23 1139.23 597.74 1148.04 584.36 1153.58 570 1155.48"/><path d="M 1095 1035 1005 1035 1005 945 1095 945 1095 1035"/><path d="M 1050 900.35 1039.56 898.97 1029.83 894.94 1025.47 891.6 1050 867.07 1074.53 891.6 1070.17 894.94 1060.44 898.97 1050 900.35"/><path d="M 625 955 515 955 515 845 625 845 625 955"/><path d="M 1018.4 884.53 1015.06 880.17 1011.03 870.44 1009.65 860 1011.03 849.56 1015.06 839.83 1018.4 835.47 1042.93 860 1018.4 884.53"/><path d="M 1081.6 884.53 1057.07 860 1081.6 835.47 1084.94 839.83 1088.97 849.56 1090.35 860 1088.97 870.44 1084.94 880.17 1081.6 884.53"/><path d="M 1050 852.93 1025.47 828.4 1029.83 825.06 1039.56 821.03 1050 819.66 1060.44 821.03 1070.17 825.06 1074.53 828.4 1050 852.93"/><path d="M 682.93 770 617.07 770 650 737.07 682.93 770"/><path d="M 910 740.35 899.56 738.97 889.83 734.94 885.47 731.6 910 707.07 934.53 731.6 930.17 734.94 920.44 738.97 910 740.35"/><path d="M 610 762.93 610 697.07 642.93 730 610 762.93"/><path d="M 690 762.93 657.07 730 690 697.07 690 762.93"/><path d="M 650 722.93 617.07 690 682.93 690 650 722.93"/><path d="M 150 775.39 138.25 773.84 127.31 769.31 117.91 762.09 110.69 752.69 106.16 741.75 104.61 730 106.16 718.25 110.69 707.31 117.91 697.91 127.31 690.69 138.25 686.16 150 684.61 161.75 686.16 172.69 690.69 182.09 697.91 189.31 707.31 193.84 718.25 195.39 730 193.84 741.75 189.31 752.69 182.09 762.09 172.69 769.31 161.75 773.84 150 775.39"/><path d="M 941.6 724.53 917.07 700 941.6 675.47 944.94 679.83 948.97 689.56 950.34 700 948.97 710.44 944.94 720.17 941.6 724.53"/><path d="M 878.4 724.53 875.06 720.17 871.03 710.44 869.66 700 871.03 689.56 875.06 679.83 878.4 675.47 902.93 700 878.4 724.53"/><path d="M 910 692.93 885.47 668.4 889.83 665.06 899.56 661.03 910 659.65 920.44 661.03 930.17 665.06 934.53 668.4 910 692.93"/><path d="M 780 745.39 768.25 743.84 757.31 739.31 747.91 732.09 740.69 722.69 736.16 711.75 734.61 700 736.16 688.25 740.69 677.31 747.91 667.91 757.31 660.69 768.25 656.16 780 654.61 791.75 656.16 802.69 660.69 812.09 667.91 819.31 677.31 823.84 688.25 825.39 700 823.84 711.75 819.31 722.69 812.09 732.09 802.69 739.31 791.75 743.84 780 745.39"/><path d="M 1095 705 1005 705 1005 615 1095 615 1095 705"/><path d="M 682.93 640 617.07 640 650 607.07 682.93 640"/><path d="M 610 632.93 610 567.07 642.93 600 610 632.93"/><path d="M 690 632.93 657.07 600 690 567.07 690 632.93"/><path d="M 650 592.93 617.07 560 682.93 560 650 592.93"/><path d="M 150 645.39 138.25 643.84 127.31 639.31 117.91 632.09 110.69 622.69 106.16 611.75 104.61 600 106.16 588.25 110.69 577.31 117.91 567.91 127.31 560.69 138.25 556.16 150 554.61 161.75 556.16 172.69 560.69 182.09 567.91 189.31 577.31 193.84 588.25 195.39 600 193.84 611.75 189.31 622.69 182.09 632.09 172.69 639.31 161.75 643.84 150 645.39"/><path d="M 950 551.35 939.3 549.94 929.32 545.81 924.76 542.31 950 517.07 975.24 542.31 970.68 545.81 960.7 549.94 950 551.35"/><path d="M 982.31 535.24 957.07 510 982.31 484.76 985.81 489.32 989.94 499.3 991.35 510 989.94 520.7 985.81 530.68 982.31 535.24"/><path d="M 917.69 535.24 914.19 530.68 910.05 520.7 908.65 510 910.05 499.3 914.19 489.32 917.69 484.76 942.93 510 917.69 535.24"/><path d="M 950 502.93 924.76 477.69 929.32 474.19 939.3 470.06 950 468.65 960.7 470.06 970.68 474.19 975.24 477.69 950 502.93"/><path d="M 896 556 804 556 804 464 896 464 896 556"/><path d="M 1050 556.4 1037.99 554.82 1026.8 550.18 1017.19 542.81 1009.82 533.2 1005.18 522.01 1003.6 510 1005.18 497.99 1009.82 486.8 1017.19 477.19 1026.8 469.82 1037.99 465.18 1050 463.6 1062.01 465.18 1073.2 469.82 1082.81 477.19 1090.18 486.8 1094.82 497.99 1096.4 510 1094.82 522.01 1090.18 533.2 1082.81 542.81 1073.2 550.18 1062.01 554.82 1050 556.4"/><path d="M 456 506 364 506 364 414 456 414 456 506"/><path d="M 1340 411.35 1329.3 409.95 1319.32 405.81 1314.76 402.31 1340 377.07 1365.24 402.31 1360.68 405.81 1350.7 409.95 1340 411.35"/><path d="M 1372.31 395.24 1347.07 370 1372.31 344.76 1375.81 349.32 1379.95 359.3 1381.35 370 1379.95 380.7 1375.81 390.68 1372.31 395.24"/><path d="M 1307.69 395.24 1304.19 390.68 1300.06 380.7 1298.65 370 1300.06 359.3 1304.19 349.32 1307.69 344.76 1332.93 370 1307.69 395.24"/><path d="M 1340 362.93 1314.76 337.69 1319.32 334.19 1329.3 330.05 1340 328.65 1350.7 330.05 1360.68 334.19 1365.24 337.69 1340 362.93"/><path d="M 1286 416 1194 416 1194 324 1286 324 1286 416"/><path d="M 2040 416.4 2027.99 414.82 2016.8 410.18 2007.19 402.81 1999.82 393.2 1995.18 382.01 1993.6 370 1995.18 357.99 1999.82 346.8 2007.19 337.19 2016.8 329.82 2027.99 325.18 2040 323.6 2052.01 325.18 2063.2 329.82 2072.81 337.19 2080.18 346.8 2084.82 357.99 2086.4 370 2084.82 382.01 2080.18 393.2 2072.81 402.81 2063.2 410.18 2052.01 414.82 2040 416.4"/><path d="M 1940 416.4 1927.99 414.82 1916.8 410.18 1907.19 402.81 1899.82 393.2 1895.18 382.01 1893.6 370 1895.18 357.99 1899.82 346.8 1907.19 337.19 1916.8 329.82 1927.99 325.18 1940 323.6 1952.01 325.18 1963.2 329.82 1972.81 337.19 1980.18 346.8 1984.82 357.99 1986.4 370 1984.82 382.01 1980.18 393.2 1972.81 402.81 1963.2 410.18 1952.01 414.82 1940 416.4"/><path d="M 1840 416.4 1827.99 414.82 1816.8 410.18 1807.19 402.81 1799.82 393.2 1795.18 382.01 1793.6 370 1795.18 357.99 1799.82 346.8 1807.19 337.19 1816.8 329.82 1827.99 325.18 1840 323.6 1852.01 325.18 1863.2 329.82 1872.81 337.19 1880.18 346.8 1884.82 357.99 1886.4 370 1884.82 382.01 1880.18 393.2 1872.81 402.81 1863.2 410.18 1852.01 414.82 1840 416.4"/><path d="M 1740 416.4 1727.99 414.82 1716.8 410.18 1707.19 402.81 1699.82 393.2 1695.18 382.01 1693.6 370 1695.18 357.99 1699.82 346.8 1707.19 337.19 1716.8 329.82 1727.99 325.18 1740 323.6 1752.01 325.18 1763.2 329.82 1772.81 337.19 1780.18 346.8 1784.82 357.99 1786.4 370 1784.82 382.01 1780.18 393.2 1772.81 402.81 1763.2 410.18 1752.01 414.82 1740 416.4"/><path d="M 1640 416.4 1627.99 414.82 1616.8 410.18 1607.19 402.81 1599.82 393.2 1595.18 382.01 1593.6 370 1595.18 357.99 1599.82 346.8 1607.19 337.19 1616.8 329.82 1627.99 325.18 1640 323.6 1652.01 325.18 1663.2 329.82 1672.81 337.19 1680.18 346.8 1684.82 357.99 1686.4 370 1684.82 382.01 1680.18 393.2 1672.81 402.81 1663.2 410.18 1652.01 414.82 1640 416.4"/><path d="M 1540 416.4 1527.99 414.82 1516.8 410.18 1507.19 402.81 1499.82 393.2 1495.18 382.01 1493.6 370 1495.18 357.99 1499.82 346.8 1507.19 337.19 1516.8 329.82 1527.99 325.18 1540 323.6 1552.01 325.18 1563.2 329.82 1572.81 337.19 1580.18 346.8 1584.82 357.99 1586.4 370 1584.82 382.01 1580.18 393.2 1572.81 402.81 1563.2 410.18 1552.01 414.82 1540 416.4"/><path d="M 1440 416.4 1427.99 414.82 1416.8 410.18 1407.19 402.81 1399.82 393.2 1395.18 382.01 1393.6 370 1395.18 357.99 1399.82 346.8 1407.19 337.19 1416.8 329.82 1427.99 325.18 1440 323.6 1452.01 325.18 1463.2 329.82 1472.81 337.19 1480.18 346.8 1484.82 357.99 1486.4 370 1484.82 382.01 1480.18 393.2 1472.81 402.81 1463.2 410.18 1452.01 414.82 1440 416.4"/><path d="M 410 406.4 397.99 404.82 386.8 400.18 377.19 392.81 369.82 383.2 365.18 372.01 363.6 360 365.18 347.99 369.82 336.8 377.19 327.19 386.8 319.82 397.99 315.18 410 313.6 422.01 315.18 433.2 319.82 442.81 327.19 450.18 336.8 454.82 347.99 456.4 360 454.82 372.01 450.18 383.2 442.81 392.81 433.2 400.18 422.01 404.82 410 406.4"/><path d="M 410 301.35 399.3 299.94 389.32 295.81 384.76 292.31 410 267.07 435.24 292.31 430.68 295.81 420.7 299.94 410 301.35"/><path d="M 442.31 285.24 417.07 260 442.31 234.76 445.81 239.32 449.95 249.3 451.35 260 449.95 270.7 445.81 280.68 442.31 285.24"/><path d="M 377.69 285.24 374.19 280.68 370.05 270.7 368.65 260 370.05 249.3 374.19 239.32 377.69 234.76 402.93 260 377.69 285.24"/><path d="M 1010 270.43 996.95 268.71 984.78 263.68 978.34 258.73 1010 227.07 1041.66 258.73 1035.22 263.68 1023.05 268.71 1010 270.43"/><path d="M 410 252.93 384.76 227.69 389.32 224.19 399.3 220.05 410 218.65 420.7 220.05 430.68 224.19 435.24 227.69 410 252.93"/><path d="M 1048.73 251.66 1017.07 220 1048.73 188.34 1053.68 194.78 1058.71 206.95 1060.43 220 1058.71 233.05 1053.68 245.22 1048.73 251.66"/><path d="M 971.27 251.66 966.32 245.22 961.29 233.05 959.57 220 961.29 206.95 966.32 194.78 971.27 188.34 1002.93 220 971.27 251.66"/><path d="M 1010 212.93 978.34 181.27 984.78 176.32 996.95 171.29 1010 169.57 1023.05 171.29 1035.22 176.32 1041.66 181.27 1010 212.93"/><path d="M 665 275 555 275 555 165 665 165 665 275"/><path d="M 810 275.47 795.64 273.58 782.26 268.04 770.77 259.23 761.96 247.74 756.42 234.36 754.53 220 756.42 205.64 761.96 192.26 770.77 180.77 782.26 171.96 795.64 166.42 810 164.53 824.36 166.42 837.74 171.96 849.23 180.77 858.04 192.26 863.58 205.64 865.47 220 863.58 234.36 858.04 247.74 849.23 259.23 837.74 268.04 824.36 273.58 810 275.47"/><path d="M 1950 225.36 1935.3 223.91 1921.16 219.63 1908.13 212.66 1896.71 203.29 1887.34 191.87 1880.37 178.84 1876.09 164.7 1874.64 150 1876.09 135.3 1880.37 121.16 1887.34 108.13 1896.71 96.71 1908.13 87.34 1921.16 80.37 1935.3 76.09 1950 74.64 1964.7 76.09 1978.84 80.37 1991.87 87.34 2003.29 96.71 2012.66 108.13 2019.63 121.16 2023.92 135.3 2025.36 150 2023.92 164.7 2019.63 178.84 2012.66 191.87 2003.29 203.29 1991.87 212.66 1978.84 219.63 1964.7 223.91 1950 225.36"/><path d="M 150 225.36 135.3 223.91 121.16 219.63 108.13 212.66 96.71 203.29 87.34 191.87 80.37 178.84 76.09 164.7 74.64 150 76.09 135.3 80.37 121.16 87.34 108.13 96.71 96.71 108.13 87.34 121.16 80.37 135.3 76.09 150 74.64 164.7 76.09 178.84 80.37 191.87 87.34 203.29 96.71 212.66 108.13 219.63 121.16 223.91 135.3 225.36 150 223.91 164.7 219.63 178.84 212.66 191.87 203.29 203.29 191.87 212.66 178.84 219.63 164.7 223.91 150 225.36"/></g></mask><circle cx="0" cy="0" r="40" id="uWi4e7O5d6wlRTZmL9OC_pad-21"/><rect x="-40" y="-40" width="80" height="80" id="uWi4e7O5d6wlRTZmL9OC_pad-22"/><rect x="-30" y="-30" width="60" height="60" id="uWi4e7O5d6wlRTZmL9OC_pad-23"/><circle cx="0" cy="0" r="30" id="uWi4e7O5d6wlRTZmL9OC_pad-24"/><rect x="-31" y="-31" width="62" height="62" id="uWi4e7O5d6wlRTZmL9OC_pad-25"/><circle cx="0" cy="0" r="31" id="uWi4e7O5d6wlRTZmL9OC_pad-26"/><rect x="-31" y="-31" width="62" height="62" id="uWi4e7O5d6wlRTZmL9OC_pad-27"/><rect x="-30" y="-30" width="60" height="60" id="uWi4e7O5d6wlRTZmL9OC_pad-28"/><rect x="-40" y="-40" width="80" height="80" id="uWi4e7O5d6wlRTZmL9OC_pad-29"/><circle cx="0" cy="0" r="25" id="uWi4e7O5d6wlRTZmL9OC_pad-30"/><circle cx="0" cy="0" r="14" id="rd8uNjmDL_iR9yT-6Hgd_pad-1"/><circle cx="0" cy="0" r="15" id="rd8uNjmDL_iR9yT-6Hgd_pad-2"/><circle cx="0" cy="0" r="20" id="rd8uNjmDL_iR9yT-6Hgd_pad-3"/><circle cx="0" cy="0" r="28.5" id="rd8uNjmDL_iR9yT-6Hgd_pad-4"/><circle cx="0" cy="0" r="60" id="rd8uNjmDL_iR9yT-6Hgd_pad-5"/><g id="bq_8Mc4bMngqijl1_eu__bottom_soldermask"><use xlink:href="#EilppT-Gu70ykl6TilUO_pad-11" x="1600" y="3150"/><use xlink:href="#EilppT-Gu70ykl6TilUO_pad-11" x="200" y="900"/><use xlink:href="#EilppT-Gu70ykl6TilUO_pad-11" x="810" y="220"/><use xlink:href="#EilppT-Gu70ykl6TilUO_pad-11" x="1010" y="220"/><use xlink:href="#EilppT-Gu70ykl6TilUO_pad-11" x="570" y="1100"/><use xlink:href="#EilppT-Gu70ykl6TilUO_pad-11" x="570" y="1770"/><use xlink:href="#EilppT-Gu70ykl6TilUO_pad-11" x="570" y="2440"/><use xlink:href="#EilppT-Gu70ykl6TilUO_pad-11" x="570" y="3110"/><use xlink:href="#EilppT-Gu70ykl6TilUO_pad-11" x="200" y="1570"/><use xlink:href="#EilppT-Gu70ykl6TilUO_pad-11" x="200" y="2240"/><use xlink:href="#EilppT-Gu70ykl6TilUO_pad-11" x="205" y="2910"/><use xlink:href="#EilppT-Gu70ykl6TilUO_pad-12" x="1600" y="3350"/><use xlink:href="#EilppT-Gu70ykl6TilUO_pad-12" x="200" y="1100"/><use xlink:href="#EilppT-Gu70ykl6TilUO_pad-12" x="570" y="900"/><use xlink:href="#EilppT-Gu70ykl6TilUO_pad-12" x="570" y="1570"/><use xlink:href="#EilppT-Gu70ykl6TilUO_pad-12" x="570" y="2240"/><use xlink:href="#EilppT-Gu70ykl6TilUO_pad-12" x="570" y="2910"/><use xlink:href="#EilppT-Gu70ykl6TilUO_pad-12" x="200" y="1770"/><use xlink:href="#EilppT-Gu70ykl6TilUO_pad-12" x="200" y="2440"/><use xlink:href="#EilppT-Gu70ykl6TilUO_pad-12" x="205" y="3110"/><use xlink:href="#EilppT-Gu70ykl6TilUO_pad-13" x="830" y="2120"/><use xlink:href="#EilppT-Gu70ykl6TilUO_pad-13" x="910" y="1200"/><use xlink:href="#EilppT-Gu70ykl6TilUO_pad-13" x="780" y="1200"/><use xlink:href="#EilppT-Gu70ykl6TilUO_pad-13" x="1050" y="990"/><use xlink:href="#EilppT-Gu70ykl6TilUO_pad-13" x="1050" y="660"/><use xlink:href="#EilppT-Gu70ykl6TilUO_pad-14" x="830" y="1920"/><use xlink:href="#EilppT-Gu70ykl6TilUO_pad-14" x="910" y="700"/><use xlink:href="#EilppT-Gu70ykl6TilUO_pad-14" x="780" y="700"/><use xlink:href="#EilppT-Gu70ykl6TilUO_pad-14" x="150" y="730"/><use xlink:href="#EilppT-Gu70ykl6TilUO_pad-14" x="150" y="1400"/><use xlink:href="#EilppT-Gu70ykl6TilUO_pad-14" x="150" y="2070"/><use xlink:href="#EilppT-Gu70ykl6TilUO_pad-14" x="150" y="2740"/><use xlink:href="#EilppT-Gu70ykl6TilUO_pad-14" x="150" y="600"/><use xlink:href="#EilppT-Gu70ykl6TilUO_pad-14" x="150" y="1270"/><use xlink:href="#EilppT-Gu70ykl6TilUO_pad-14" x="150" y="1940"/><use xlink:href="#EilppT-Gu70ykl6TilUO_pad-14" x="150" y="2610"/><use xlink:href="#EilppT-Gu70ykl6TilUO_pad-14" x="1050" y="1190"/><use xlink:href="#EilppT-Gu70ykl6TilUO_pad-14" x="1050" y="860"/><use xlink:href="#EilppT-Gu70ykl6TilUO_pad-14" x="150" y="150"/><use xlink:href="#EilppT-Gu70ykl6TilUO_pad-14" x="150" y="3350"/><use xlink:href="#EilppT-Gu70ykl6TilUO_pad-14" x="1950" y="150"/><use xlink:href="#EilppT-Gu70ykl6TilUO_pad-14" x="1950" y="3350"/><use xlink:href="#EilppT-Gu70ykl6TilUO_pad-15" x="850" y="510"/><use xlink:href="#EilppT-Gu70ykl6TilUO_pad-15" x="1240" y="370"/><use xlink:href="#EilppT-Gu70ykl6TilUO_pad-16" x="950" y="510"/><use xlink:href="#EilppT-Gu70ykl6TilUO_pad-16" x="1050" y="510"/><use xlink:href="#EilppT-Gu70ykl6TilUO_pad-16" x="1600" y="2430"/><use xlink:href="#EilppT-Gu70ykl6TilUO_pad-16" x="1600" y="2530"/><use xlink:href="#EilppT-Gu70ykl6TilUO_pad-16" x="1600" y="2630"/><use xlink:href="#EilppT-Gu70ykl6TilUO_pad-16" x="1600" y="2730"/><use xlink:href="#EilppT-Gu70ykl6TilUO_pad-16" x="1600" y="2830"/><use xlink:href="#EilppT-Gu70ykl6TilUO_pad-16" x="1240" y="1370"/><use xlink:href="#EilppT-Gu70ykl6TilUO_pad-16" x="1340" y="1370"/><use xlink:href="#EilppT-Gu70ykl6TilUO_pad-16" x="1440" y="1370"/><use xlink:href="#EilppT-Gu70ykl6TilUO_pad-16" x="1540" y="1370"/><use xlink:href="#EilppT-Gu70ykl6TilUO_pad-16" x="1640" y="1370"/><use xlink:href="#EilppT-Gu70ykl6TilUO_pad-16" x="1340" y="370"/><use xlink:href="#EilppT-Gu70ykl6TilUO_pad-16" x="1440" y="370"/><use xlink:href="#EilppT-Gu70ykl6TilUO_pad-16" x="1540" y="370"/><use xlink:href="#EilppT-Gu70ykl6TilUO_pad-16" x="1640" y="370"/><use xlink:href="#EilppT-Gu70ykl6TilUO_pad-16" x="1740" y="370"/><use xlink:href="#EilppT-Gu70ykl6TilUO_pad-16" x="1840" y="370"/><use xlink:href="#EilppT-Gu70ykl6TilUO_pad-16" x="1940" y="370"/><use xlink:href="#EilppT-Gu70ykl6TilUO_pad-16" x="2040" y="370"/><use xlink:href="#EilppT-Gu70ykl6TilUO_pad-16" x="1700" y="2230"/><use xlink:href="#EilppT-Gu70ykl6TilUO_pad-16" x="1700" y="2130"/><use xlink:href="#EilppT-Gu70ykl6TilUO_pad-16" x="1700" y="2030"/><use xlink:href="#EilppT-Gu70ykl6TilUO_pad-16" x="1700" y="1930"/><use xlink:href="#EilppT-Gu70ykl6TilUO_pad-16" x="1700" y="1830"/><use xlink:href="#EilppT-Gu70ykl6TilUO_pad-16" x="1700" y="1730"/><use xlink:href="#EilppT-Gu70ykl6TilUO_pad-16" x="1700" y="1630"/><use xlink:href="#EilppT-Gu70ykl6TilUO_pad-16" x="1700" y="1530"/><use xlink:href="#EilppT-Gu70ykl6TilUO_pad-16" x="1600" y="1530"/><use xlink:href="#EilppT-Gu70ykl6TilUO_pad-16" x="1600" y="1630"/><use xlink:href="#EilppT-Gu70ykl6TilUO_pad-16" x="1600" y="1730"/><use xlink:href="#EilppT-Gu70ykl6TilUO_pad-16" x="1600" y="1830"/><use xlink:href="#EilppT-Gu70ykl6TilUO_pad-16" x="1600" y="1930"/><use xlink:href="#EilppT-Gu70ykl6TilUO_pad-16" x="1600" y="2030"/><use xlink:href="#EilppT-Gu70ykl6TilUO_pad-16" x="1600" y="2130"/><use xlink:href="#EilppT-Gu70ykl6TilUO_pad-16" x="1350" y="2630"/><use xlink:href="#EilppT-Gu70ykl6TilUO_pad-16" x="1350" y="2230"/><use xlink:href="#EilppT-Gu70ykl6TilUO_pad-16" x="1350" y="1830"/><use xlink:href="#EilppT-Gu70ykl6TilUO_pad-16" x="1350" y="2830"/><use xlink:href="#EilppT-Gu70ykl6TilUO_pad-16" x="1350" y="2730"/><use xlink:href="#EilppT-Gu70ykl6TilUO_pad-16" x="1350" y="2430"/><use xlink:href="#EilppT-Gu70ykl6TilUO_pad-16" x="1350" y="2330"/><use xlink:href="#EilppT-Gu70ykl6TilUO_pad-16" x="1350" y="2130"/><use xlink:href="#EilppT-Gu70ykl6TilUO_pad-16" x="1350" y="2030"/><use xlink:href="#EilppT-Gu70ykl6TilUO_pad-16" x="1350" y="1730"/><use xlink:href="#EilppT-Gu70ykl6TilUO_pad-16" x="1350" y="1630"/><use xlink:href="#EilppT-Gu70ykl6TilUO_pad-16" x="1350" y="1530"/><use xlink:href="#EilppT-Gu70ykl6TilUO_pad-16" x="1350" y="2530"/><use xlink:href="#EilppT-Gu70ykl6TilUO_pad-16" x="1350" y="1930"/><use xlink:href="#EilppT-Gu70ykl6TilUO_pad-16" x="1050" y="1530"/><use xlink:href="#EilppT-Gu70ykl6TilUO_pad-16" x="1050" y="2730"/><use xlink:href="#EilppT-Gu70ykl6TilUO_pad-16" x="1050" y="2630"/><use xlink:href="#EilppT-Gu70ykl6TilUO_pad-16" x="1050" y="2530"/><use xlink:href="#EilppT-Gu70ykl6TilUO_pad-16" x="1050" y="2430"/><use xlink:href="#EilppT-Gu70ykl6TilUO_pad-16" x="1050" y="2330"/><use xlink:href="#EilppT-Gu70ykl6TilUO_pad-16" x="1050" y="2230"/><use xlink:href="#EilppT-Gu70ykl6TilUO_pad-16" x="1050" y="2130"/><use xlink:href="#EilppT-Gu70ykl6TilUO_pad-16" x="1050" y="2030"/><use xlink:href="#EilppT-Gu70ykl6TilUO_pad-16" x="1050" y="1930"/><use xlink:href="#EilppT-Gu70ykl6TilUO_pad-16" x="1050" y="1830"/><use xlink:href="#EilppT-Gu70ykl6TilUO_pad-16" x="1050" y="1730"/><use xlink:href="#EilppT-Gu70ykl6TilUO_pad-16" x="1050" y="1630"/><use xlink:href="#EilppT-Gu70ykl6TilUO_pad-16" x="410" y="260"/><use xlink:href="#EilppT-Gu70ykl6TilUO_pad-16" x="410" y="360"/><use xlink:href="#EilppT-Gu70ykl6TilUO_pad-17" x="1600" y="2930"/><use xlink:href="#EilppT-Gu70ykl6TilUO_pad-17" x="1600" y="2230"/><use xlink:href="#EilppT-Gu70ykl6TilUO_pad-17" x="1050" y="2830"/><use xlink:href="#EilppT-Gu70ykl6TilUO_pad-17" x="410" y="460"/><use xlink:href="#EilppT-Gu70ykl6TilUO_pad-18" x="650" y="730"/><use xlink:href="#EilppT-Gu70ykl6TilUO_pad-18" x="650" y="1400"/><use xlink:href="#EilppT-Gu70ykl6TilUO_pad-18" x="650" y="2070"/><use xlink:href="#EilppT-Gu70ykl6TilUO_pad-18" x="650" y="2740"/><use xlink:href="#EilppT-Gu70ykl6TilUO_pad-18" x="650" y="600"/><use xlink:href="#EilppT-Gu70ykl6TilUO_pad-18" x="650" y="1270"/><use xlink:href="#EilppT-Gu70ykl6TilUO_pad-18" x="650" y="1940"/><use xlink:href="#EilppT-Gu70ykl6TilUO_pad-18" x="650" y="2610"/><use xlink:href="#EilppT-Gu70ykl6TilUO_pad-19" x="610" y="220"/><use xlink:href="#EilppT-Gu70ykl6TilUO_pad-20" x="20" y="1260"/><use xlink:href="#EilppT-Gu70ykl6TilUO_pad-20" x="770" y="1680"/><use xlink:href="#EilppT-Gu70ykl6TilUO_pad-20" x="762.5" y="1395"/><use xlink:href="#EilppT-Gu70ykl6TilUO_pad-20" x="385" y="2490"/><use xlink:href="#EilppT-Gu70ykl6TilUO_pad-20" x="1880" y="1360"/></g><g id="bq_8Mc4bMngqijl1_eu__bottom_copper"><g mask="url(#uWi4e7O5d6wlRTZmL9OC_clear-1)"><path d="M 2150 0 -50 0 -50 3550 2150 3550 2150 -50"/></g><path d="M 20 1080 20 1260 M 20 1080 200 900 M 1455 1730 1555 1830 M 1350 1730 1455 1730 M 1555 1830 1600 1830 M 490 1680 770 1680 M 335 1525 490 1680 M 245 1525 335 1525 M 650 1830 1050 1830 M 385 2095 650 1830 M 200 1570 245 1525 M 702.11 1334.61 762.5 1395 M 599.61 1334.61 702.11 1334.61 M 200 900 211.39 911.39 211.39 946.39 599.61 1334.61 M 385 2095 385 2490 M 200 2440 200 2650 350 2800 671.21 2800 M 1381.86 1520 1480 1520 M 1540 1460 1630 1460 M 1480 1520 1540 1460 M 1630 1460 1730 1360 M 1350 1530 1359.95 1520.05 1381.81 1520.05 1381.86 1520 M 1730 1360 1880 1360 M 671.21 2800 843.32 2627.89 M 843.32 2436.68 843.32 2627.89 M 843.32 2436.68 1050 2230" fill="none" stroke-width="10"/><use xlink:href="#uWi4e7O5d6wlRTZmL9OC_pad-21" x="1600" y="3150"/><use xlink:href="#uWi4e7O5d6wlRTZmL9OC_pad-21" x="200" y="900"/><use xlink:href="#uWi4e7O5d6wlRTZmL9OC_pad-21" x="810" y="220"/><use xlink:href="#uWi4e7O5d6wlRTZmL9OC_pad-21" x="1010" y="220"/><use xlink:href="#uWi4e7O5d6wlRTZmL9OC_pad-21" x="570" y="1100"/><use xlink:href="#uWi4e7O5d6wlRTZmL9OC_pad-21" x="570" y="1770"/><use xlink:href="#uWi4e7O5d6wlRTZmL9OC_pad-21" x="570" y="2440"/><use xlink:href="#uWi4e7O5d6wlRTZmL9OC_pad-21" x="570" y="3110"/><use xlink:href="#uWi4e7O5d6wlRTZmL9OC_pad-21" x="200" y="1570"/><use xlink:href="#uWi4e7O5d6wlRTZmL9OC_pad-21" x="200" y="2240"/><use xlink:href="#uWi4e7O5d6wlRTZmL9OC_pad-21" x="205" y="2910"/><use xlink:href="#uWi4e7O5d6wlRTZmL9OC_pad-22" x="1600" y="3350"/><use xlink:href="#uWi4e7O5d6wlRTZmL9OC_pad-22" x="200" y="1100"/><use xlink:href="#uWi4e7O5d6wlRTZmL9OC_pad-22" x="570" y="900"/><use xlink:href="#uWi4e7O5d6wlRTZmL9OC_pad-22" x="570" y="1570"/><use xlink:href="#uWi4e7O5d6wlRTZmL9OC_pad-22" x="570" y="2240"/><use xlink:href="#uWi4e7O5d6wlRTZmL9OC_pad-22" x="570" y="2910"/><use xlink:href="#uWi4e7O5d6wlRTZmL9OC_pad-22" x="200" y="1770"/><use xlink:href="#uWi4e7O5d6wlRTZmL9OC_pad-22" x="200" y="2440"/><use xlink:href="#uWi4e7O5d6wlRTZmL9OC_pad-22" x="205" y="3110"/><use xlink:href="#uWi4e7O5d6wlRTZmL9OC_pad-23" x="830" y="2120"/><use xlink:href="#uWi4e7O5d6wlRTZmL9OC_pad-23" x="910" y="1200"/><use xlink:href="#uWi4e7O5d6wlRTZmL9OC_pad-23" x="780" y="1200"/><use xlink:href="#uWi4e7O5d6wlRTZmL9OC_pad-23" x="1050" y="990"/><use xlink:href="#uWi4e7O5d6wlRTZmL9OC_pad-23" x="1050" y="660"/><use xlink:href="#uWi4e7O5d6wlRTZmL9OC_pad-24" x="830" y="1920"/><use xlink:href="#uWi4e7O5d6wlRTZmL9OC_pad-24" x="910" y="700"/><use xlink:href="#uWi4e7O5d6wlRTZmL9OC_pad-24" x="780" y="700"/><use xlink:href="#uWi4e7O5d6wlRTZmL9OC_pad-24" x="150" y="730"/><use xlink:href="#uWi4e7O5d6wlRTZmL9OC_pad-24" x="150" y="1400"/><use xlink:href="#uWi4e7O5d6wlRTZmL9OC_pad-24" x="150" y="2070"/><use xlink:href="#uWi4e7O5d6wlRTZmL9OC_pad-24" x="150" y="2740"/><use xlink:href="#uWi4e7O5d6wlRTZmL9OC_pad-24" x="150" y="600"/><use xlink:href="#uWi4e7O5d6wlRTZmL9OC_pad-24" x="150" y="1270"/><use xlink:href="#uWi4e7O5d6wlRTZmL9OC_pad-24" x="150" y="1940"/><use xlink:href="#uWi4e7O5d6wlRTZmL9OC_pad-24" x="150" y="2610"/><use xlink:href="#uWi4e7O5d6wlRTZmL9OC_pad-24" x="1050" y="1190"/><use xlink:href="#uWi4e7O5d6wlRTZmL9OC_pad-24" x="1050" y="860"/><use xlink:href="#uWi4e7O5d6wlRTZmL9OC_pad-24" x="150" y="150"/><use xlink:href="#uWi4e7O5d6wlRTZmL9OC_pad-24" x="150" y="3350"/><use xlink:href="#uWi4e7O5d6wlRTZmL9OC_pad-24" x="1950" y="150"/><use xlink:href="#uWi4e7O5d6wlRTZmL9OC_pad-24" x="1950" y="3350"/><use xlink:href="#uWi4e7O5d6wlRTZmL9OC_pad-25" x="850" y="510"/><use xlink:href="#uWi4e7O5d6wlRTZmL9OC_pad-25" x="1240" y="370"/><use xlink:href="#uWi4e7O5d6wlRTZmL9OC_pad-26" x="950" y="510"/><use xlink:href="#uWi4e7O5d6wlRTZmL9OC_pad-26" x="1050" y="510"/><use xlink:href="#uWi4e7O5d6wlRTZmL9OC_pad-26" x="1600" y="2430"/><use xlink:href="#uWi4e7O5d6wlRTZmL9OC_pad-26" x="1600" y="2530"/><use xlink:href="#uWi4e7O5d6wlRTZmL9OC_pad-26" x="1600" y="2630"/><use xlink:href="#uWi4e7O5d6wlRTZmL9OC_pad-26" x="1600" y="2730"/><use xlink:href="#uWi4e7O5d6wlRTZmL9OC_pad-26" x="1600" y="2830"/><use xlink:href="#uWi4e7O5d6wlRTZmL9OC_pad-26" x="1240" y="1370"/><use xlink:href="#uWi4e7O5d6wlRTZmL9OC_pad-26" x="1340" y="1370"/><use xlink:href="#uWi4e7O5d6wlRTZmL9OC_pad-26" x="1440" y="1370"/><use xlink:href="#uWi4e7O5d6wlRTZmL9OC_pad-26" x="1540" y="1370"/><use xlink:href="#uWi4e7O5d6wlRTZmL9OC_pad-26" x="1640" y="1370"/><use xlink:href="#uWi4e7O5d6wlRTZmL9OC_pad-26" x="1340" y="370"/><use xlink:href="#uWi4e7O5d6wlRTZmL9OC_pad-26" x="1440" y="370"/><use xlink:href="#uWi4e7O5d6wlRTZmL9OC_pad-26" x="1540" y="370"/><use xlink:href="#uWi4e7O5d6wlRTZmL9OC_pad-26" x="1640" y="370"/><use xlink:href="#uWi4e7O5d6wlRTZmL9OC_pad-26" x="1740" y="370"/><use xlink:href="#uWi4e7O5d6wlRTZmL9OC_pad-26" x="1840" y="370"/><use xlink:href="#uWi4e7O5d6wlRTZmL9OC_pad-26" x="1940" y="370"/><use xlink:href="#uWi4e7O5d6wlRTZmL9OC_pad-26" x="2040" y="370"/><use xlink:href="#uWi4e7O5d6wlRTZmL9OC_pad-26" x="1700" y="2230"/><use xlink:href="#uWi4e7O5d6wlRTZmL9OC_pad-26" x="1700" y="2130"/><use xlink:href="#uWi4e7O5d6wlRTZmL9OC_pad-26" x="1700" y="2030"/><use xlink:href="#uWi4e7O5d6wlRTZmL9OC_pad-26" x="1700" y="1930"/><use xlink:href="#uWi4e7O5d6wlRTZmL9OC_pad-26" x="1700" y="1830"/><use xlink:href="#uWi4e7O5d6wlRTZmL9OC_pad-26" x="1700" y="1730"/><use xlink:href="#uWi4e7O5d6wlRTZmL9OC_pad-26" x="1700" y="1630"/><use xlink:href="#uWi4e7O5d6wlRTZmL9OC_pad-26" x="1700" y="1530"/><use xlink:href="#uWi4e7O5d6wlRTZmL9OC_pad-26" x="1600" y="1530"/><use xlink:href="#uWi4e7O5d6wlRTZmL9OC_pad-26" x="1600" y="1630"/><use xlink:href="#uWi4e7O5d6wlRTZmL9OC_pad-26" x="1600" y="1730"/><use xlink:href="#uWi4e7O5d6wlRTZmL9OC_pad-26" x="1600" y="1830"/><use xlink:href="#uWi4e7O5d6wlRTZmL9OC_pad-26" x="1600" y="1930"/><use xlink:href="#uWi4e7O5d6wlRTZmL9OC_pad-26" x="1600" y="2030"/><use xlink:href="#uWi4e7O5d6wlRTZmL9OC_pad-26" x="1600" y="2130"/><use xlink:href="#uWi4e7O5d6wlRTZmL9OC_pad-26" x="1350" y="2630"/><use xlink:href="#uWi4e7O5d6wlRTZmL9OC_pad-26" x="1350" y="2230"/><use xlink:href="#uWi4e7O5d6wlRTZmL9OC_pad-26" x="1350" y="1830"/><use xlink:href="#uWi4e7O5d6wlRTZmL9OC_pad-26" x="1350" y="2830"/><use xlink:href="#uWi4e7O5d6wlRTZmL9OC_pad-26" x="1350" y="2730"/><use xlink:href="#uWi4e7O5d6wlRTZmL9OC_pad-26" x="1350" y="2430"/><use xlink:href="#uWi4e7O5d6wlRTZmL9OC_pad-26" x="1350" y="2330"/><use xlink:href="#uWi4e7O5d6wlRTZmL9OC_pad-26" x="1350" y="2130"/><use xlink:href="#uWi4e7O5d6wlRTZmL9OC_pad-26" x="1350" y="2030"/><use xlink:href="#uWi4e7O5d6wlRTZmL9OC_pad-26" x="1350" y="1730"/><use xlink:href="#uWi4e7O5d6wlRTZmL9OC_pad-26" x="1350" y="1630"/><use xlink:href="#uWi4e7O5d6wlRTZmL9OC_pad-26" x="1350" y="1530"/><use xlink:href="#uWi4e7O5d6wlRTZmL9OC_pad-26" x="1350" y="2530"/><use xlink:href="#uWi4e7O5d6wlRTZmL9OC_pad-26" x="1350" y="1930"/><use xlink:href="#uWi4e7O5d6wlRTZmL9OC_pad-26" x="1050" y="1530"/><use xlink:href="#uWi4e7O5d6wlRTZmL9OC_pad-26" x="1050" y="2730"/><use xlink:href="#uWi4e7O5d6wlRTZmL9OC_pad-26" x="1050" y="2630"/><use xlink:href="#uWi4e7O5d6wlRTZmL9OC_pad-26" x="1050" y="2530"/><use xlink:href="#uWi4e7O5d6wlRTZmL9OC_pad-26" x="1050" y="2430"/><use xlink:href="#uWi4e7O5d6wlRTZmL9OC_pad-26" x="1050" y="2330"/><use xlink:href="#uWi4e7O5d6wlRTZmL9OC_pad-26" x="1050" y="2230"/><use xlink:href="#uWi4e7O5d6wlRTZmL9OC_pad-26" x="1050" y="2130"/><use xlink:href="#uWi4e7O5d6wlRTZmL9OC_pad-26" x="1050" y="2030"/><use xlink:href="#uWi4e7O5d6wlRTZmL9OC_pad-26" x="1050" y="1930"/><use xlink:href="#uWi4e7O5d6wlRTZmL9OC_pad-26" x="1050" y="1830"/><use xlink:href="#uWi4e7O5d6wlRTZmL9OC_pad-26" x="1050" y="1730"/><use xlink:href="#uWi4e7O5d6wlRTZmL9OC_pad-26" x="1050" y="1630"/><use xlink:href="#uWi4e7O5d6wlRTZmL9OC_pad-26" x="410" y="260"/><use xlink:href="#uWi4e7O5d6wlRTZmL9OC_pad-26" x="410" y="360"/><use xlink:href="#uWi4e7O5d6wlRTZmL9OC_pad-27" x="1600" y="2930"/><use xlink:href="#uWi4e7O5d6wlRTZmL9OC_pad-27" x="1600" y="2230"/><use xlink:href="#uWi4e7O5d6wlRTZmL9OC_pad-27" x="1050" y="2830"/><use xlink:href="#uWi4e7O5d6wlRTZmL9OC_pad-27" x="410" y="460"/><use xlink:href="#uWi4e7O5d6wlRTZmL9OC_pad-28" x="650" y="730"/><use xlink:href="#uWi4e7O5d6wlRTZmL9OC_pad-28" x="650" y="1400"/><use xlink:href="#uWi4e7O5d6wlRTZmL9OC_pad-28" x="650" y="2070"/><use xlink:href="#uWi4e7O5d6wlRTZmL9OC_pad-28" x="650" y="2740"/><use xlink:href="#uWi4e7O5d6wlRTZmL9OC_pad-28" x="650" y="600"/><use xlink:href="#uWi4e7O5d6wlRTZmL9OC_pad-28" x="650" y="1270"/><use xlink:href="#uWi4e7O5d6wlRTZmL9OC_pad-28" x="650" y="1940"/><use xlink:href="#uWi4e7O5d6wlRTZmL9OC_pad-28" x="650" y="2610"/><use xlink:href="#uWi4e7O5d6wlRTZmL9OC_pad-29" x="610" y="220"/><use xlink:href="#uWi4e7O5d6wlRTZmL9OC_pad-30" x="20" y="1260"/><use xlink:href="#uWi4e7O5d6wlRTZmL9OC_pad-30" x="770" y="1680"/><use xlink:href="#uWi4e7O5d6wlRTZmL9OC_pad-30" x="762.5" y="1395"/><use xlink:href="#uWi4e7O5d6wlRTZmL9OC_pad-30" x="385" y="2490"/><use xlink:href="#uWi4e7O5d6wlRTZmL9OC_pad-30" x="1880" y="1360"/></g><g id="bq_8Mc4bMngqijl1_eu__bottom_drill1"><use xlink:href="#rd8uNjmDL_iR9yT-6Hgd_pad-1" x="20" y="1260"/><use xlink:href="#rd8uNjmDL_iR9yT-6Hgd_pad-1" x="762.5" y="1395"/><use xlink:href="#rd8uNjmDL_iR9yT-6Hgd_pad-1" x="1880" y="1360"/><use xlink:href="#rd8uNjmDL_iR9yT-6Hgd_pad-1" x="770" y="1680"/><use xlink:href="#rd8uNjmDL_iR9yT-6Hgd_pad-1" x="385" y="2490"/><use xlink:href="#rd8uNjmDL_iR9yT-6Hgd_pad-2" x="150" y="600"/><use xlink:href="#rd8uNjmDL_iR9yT-6Hgd_pad-2" x="150" y="730"/><use xlink:href="#rd8uNjmDL_iR9yT-6Hgd_pad-2" x="650" y="730"/><use xlink:href="#rd8uNjmDL_iR9yT-6Hgd_pad-2" x="650" y="600"/><use xlink:href="#rd8uNjmDL_iR9yT-6Hgd_pad-2" x="780" y="700"/><use xlink:href="#rd8uNjmDL_iR9yT-6Hgd_pad-2" x="910" y="700"/><use xlink:href="#rd8uNjmDL_iR9yT-6Hgd_pad-2" x="1050" y="660"/><use xlink:href="#rd8uNjmDL_iR9yT-6Hgd_pad-2" x="1050" y="860"/><use xlink:href="#rd8uNjmDL_iR9yT-6Hgd_pad-2" x="1050" y="990"/><use xlink:href="#rd8uNjmDL_iR9yT-6Hgd_pad-2" x="1050" y="1190"/><use xlink:href="#rd8uNjmDL_iR9yT-6Hgd_pad-2" x="910" y="1200"/><use xlink:href="#rd8uNjmDL_iR9yT-6Hgd_pad-2" x="780" y="1200"/><use xlink:href="#rd8uNjmDL_iR9yT-6Hgd_pad-2" x="650" y="1270"/><use xlink:href="#rd8uNjmDL_iR9yT-6Hgd_pad-2" x="650" y="1400"/><use xlink:href="#rd8uNjmDL_iR9yT-6Hgd_pad-2" x="150" y="1400"/><use xlink:href="#rd8uNjmDL_iR9yT-6Hgd_pad-2" x="150" y="1270"/><use xlink:href="#rd8uNjmDL_iR9yT-6Hgd_pad-2" x="150" y="1940"/><use xlink:href="#rd8uNjmDL_iR9yT-6Hgd_pad-2" x="150" y="2070"/><use xlink:href="#rd8uNjmDL_iR9yT-6Hgd_pad-2" x="650" y="2070"/><use xlink:href="#rd8uNjmDL_iR9yT-6Hgd_pad-2" x="650" y="1940"/><use xlink:href="#rd8uNjmDL_iR9yT-6Hgd_pad-2" x="830" y="1920"/><use xlink:href="#rd8uNjmDL_iR9yT-6Hgd_pad-2" x="830" y="2120"/><use xlink:href="#rd8uNjmDL_iR9yT-6Hgd_pad-2" x="650" y="2610"/><use xlink:href="#rd8uNjmDL_iR9yT-6Hgd_pad-2" x="650" y="2740"/><use xlink:href="#rd8uNjmDL_iR9yT-6Hgd_pad-2" x="150" y="2740"/><use xlink:href="#rd8uNjmDL_iR9yT-6Hgd_pad-2" x="150" y="2610"/><use xlink:href="#rd8uNjmDL_iR9yT-6Hgd_pad-3" x="410" y="260"/><use xlink:href="#rd8uNjmDL_iR9yT-6Hgd_pad-3" x="410" y="360"/><use xlink:href="#rd8uNjmDL_iR9yT-6Hgd_pad-3" x="410" y="460"/><use xlink:href="#rd8uNjmDL_iR9yT-6Hgd_pad-3" x="850" y="510"/><use xlink:href="#rd8uNjmDL_iR9yT-6Hgd_pad-3" x="950" y="510"/><use xlink:href="#rd8uNjmDL_iR9yT-6Hgd_pad-3" x="1050" y="510"/><use xlink:href="#rd8uNjmDL_iR9yT-6Hgd_pad-3" x="1240" y="370"/><use xlink:href="#rd8uNjmDL_iR9yT-6Hgd_pad-3" x="1340" y="370"/><use xlink:href="#rd8uNjmDL_iR9yT-6Hgd_pad-3" x="1340" y="1370"/><use xlink:href="#rd8uNjmDL_iR9yT-6Hgd_pad-3" x="1240" y="1370"/><use xlink:href="#rd8uNjmDL_iR9yT-6Hgd_pad-3" x="1440" y="1370"/><use xlink:href="#rd8uNjmDL_iR9yT-6Hgd_pad-3" x="1540" y="1370"/><use xlink:href="#rd8uNjmDL_iR9yT-6Hgd_pad-3" x="1640" y="1370"/><use xlink:href="#rd8uNjmDL_iR9yT-6Hgd_pad-3" x="1640" y="370"/><use xlink:href="#rd8uNjmDL_iR9yT-6Hgd_pad-3" x="1540" y="370"/><use xlink:href="#rd8uNjmDL_iR9yT-6Hgd_pad-3" x="1440" y="370"/><use xlink:href="#rd8uNjmDL_iR9yT-6Hgd_pad-3" x="1740" y="370"/><use xlink:href="#rd8uNjmDL_iR9yT-6Hgd_pad-3" x="1840" y="370"/><use xlink:href="#rd8uNjmDL_iR9yT-6Hgd_pad-3" x="1940" y="370"/><use xlink:href="#rd8uNjmDL_iR9yT-6Hgd_pad-3" x="2040" y="370"/><use xlink:href="#rd8uNjmDL_iR9yT-6Hgd_pad-3" x="1700" y="1530"/><use xlink:href="#rd8uNjmDL_iR9yT-6Hgd_pad-3" x="1700" y="1630"/><use xlink:href="#rd8uNjmDL_iR9yT-6Hgd_pad-3" x="1700" y="1730"/><use xlink:href="#rd8uNjmDL_iR9yT-6Hgd_pad-3" x="1700" y="1830"/><use xlink:href="#rd8uNjmDL_iR9yT-6Hgd_pad-3" x="1700" y="1930"/><use xlink:href="#rd8uNjmDL_iR9yT-6Hgd_pad-3" x="1700" y="2030"/><use xlink:href="#rd8uNjmDL_iR9yT-6Hgd_pad-3" x="1700" y="2130"/><use xlink:href="#rd8uNjmDL_iR9yT-6Hgd_pad-3" x="1700" y="2230"/><use xlink:href="#rd8uNjmDL_iR9yT-6Hgd_pad-3" x="1600" y="2230"/><use xlink:href="#rd8uNjmDL_iR9yT-6Hgd_pad-3" x="1600" y="2130"/><use xlink:href="#rd8uNjmDL_iR9yT-6Hgd_pad-3" x="1600" y="2030"/><use xlink:href="#rd8uNjmDL_iR9yT-6Hgd_pad-3" x="1600" y="1930"/><use xlink:href="#rd8uNjmDL_iR9yT-6Hgd_pad-3" x="1600" y="1830"/><use xlink:href="#rd8uNjmDL_iR9yT-6Hgd_pad-3" x="1600" y="1730"/><use xlink:href="#rd8uNjmDL_iR9yT-6Hgd_pad-3" x="1600" y="1630"/><use xlink:href="#rd8uNjmDL_iR9yT-6Hgd_pad-3" x="1600" y="1530"/><use xlink:href="#rd8uNjmDL_iR9yT-6Hgd_pad-3" x="1600" y="2430"/><use xlink:href="#rd8uNjmDL_iR9yT-6Hgd_pad-3" x="1600" y="2530"/><use xlink:href="#rd8uNjmDL_iR9yT-6Hgd_pad-3" x="1600" y="2630"/><use xlink:href="#rd8uNjmDL_iR9yT-6Hgd_pad-3" x="1600" y="2730"/><use xlink:href="#rd8uNjmDL_iR9yT-6Hgd_pad-3" x="1600" y="2830"/><use xlink:href="#rd8uNjmDL_iR9yT-6Hgd_pad-3" x="1600" y="2930"/><use xlink:href="#rd8uNjmDL_iR9yT-6Hgd_pad-3" x="1350" y="2830"/><use xlink:href="#rd8uNjmDL_iR9yT-6Hgd_pad-3" x="1350" y="2730"/><use xlink:href="#rd8uNjmDL_iR9yT-6Hgd_pad-3" x="1350" y="2630"/><use xlink:href="#rd8uNjmDL_iR9yT-6Hgd_pad-3" x="1350" y="2530"/><use xlink:href="#rd8uNjmDL_iR9yT-6Hgd_pad-3" x="1350" y="2430"/><use xlink:href="#rd8uNjmDL_iR9yT-6Hgd_pad-3" x="1350" y="2330"/><use xlink:href="#rd8uNjmDL_iR9yT-6Hgd_pad-3" x="1350" y="2230"/><use xlink:href="#rd8uNjmDL_iR9yT-6Hgd_pad-3" x="1350" y="2130"/><use xlink:href="#rd8uNjmDL_iR9yT-6Hgd_pad-3" x="1350" y="2030"/><use xlink:href="#rd8uNjmDL_iR9yT-6Hgd_pad-3" x="1350" y="1930"/><use xlink:href="#rd8uNjmDL_iR9yT-6Hgd_pad-3" x="1350" y="1830"/><use xlink:href="#rd8uNjmDL_iR9yT-6Hgd_pad-3" x="1350" y="1730"/><use xlink:href="#rd8uNjmDL_iR9yT-6Hgd_pad-3" x="1350" y="1630"/><use xlink:href="#rd8uNjmDL_iR9yT-6Hgd_pad-3" x="1350" y="1530"/><use xlink:href="#rd8uNjmDL_iR9yT-6Hgd_pad-3" x="1050" y="1530"/><use xlink:href="#rd8uNjmDL_iR9yT-6Hgd_pad-3" x="1050" y="1630"/><use xlink:href="#rd8uNjmDL_iR9yT-6Hgd_pad-3" x="1050" y="1730"/><use xlink:href="#rd8uNjmDL_iR9yT-6Hgd_pad-3" x="1050" y="1830"/><use xlink:href="#rd8uNjmDL_iR9yT-6Hgd_pad-3" x="1050" y="1930"/><use xlink:href="#rd8uNjmDL_iR9yT-6Hgd_pad-3" x="1050" y="2030"/><use xlink:href="#rd8uNjmDL_iR9yT-6Hgd_pad-3" x="1050" y="2130"/><use xlink:href="#rd8uNjmDL_iR9yT-6Hgd_pad-3" x="1050" y="2230"/><use xlink:href="#rd8uNjmDL_iR9yT-6Hgd_pad-3" x="1050" y="2330"/><use xlink:href="#rd8uNjmDL_iR9yT-6Hgd_pad-3" x="1050" y="2430"/><use xlink:href="#rd8uNjmDL_iR9yT-6Hgd_pad-3" x="1050" y="2530"/><use xlink:href="#rd8uNjmDL_iR9yT-6Hgd_pad-3" x="1050" y="2630"/><use xlink:href="#rd8uNjmDL_iR9yT-6Hgd_pad-3" x="1050" y="2730"/><use xlink:href="#rd8uNjmDL_iR9yT-6Hgd_pad-3" x="1050" y="2830"/><use xlink:href="#rd8uNjmDL_iR9yT-6Hgd_pad-4" x="610" y="220"/><use xlink:href="#rd8uNjmDL_iR9yT-6Hgd_pad-4" x="810" y="220"/><use xlink:href="#rd8uNjmDL_iR9yT-6Hgd_pad-4" x="1010" y="220"/><use xlink:href="#rd8uNjmDL_iR9yT-6Hgd_pad-4" x="570" y="900"/><use xlink:href="#rd8uNjmDL_iR9yT-6Hgd_pad-4" x="570" y="1100"/><use xlink:href="#rd8uNjmDL_iR9yT-6Hgd_pad-4" x="200" y="1100"/><use xlink:href="#rd8uNjmDL_iR9yT-6Hgd_pad-4" x="200" y="900"/><use xlink:href="#rd8uNjmDL_iR9yT-6Hgd_pad-4" x="200" y="1570"/><use xlink:href="#rd8uNjmDL_iR9yT-6Hgd_pad-4" x="200" y="1770"/><use xlink:href="#rd8uNjmDL_iR9yT-6Hgd_pad-4" x="570" y="1770"/><use xlink:href="#rd8uNjmDL_iR9yT-6Hgd_pad-4" x="570" y="1570"/><use xlink:href="#rd8uNjmDL_iR9yT-6Hgd_pad-4" x="570" y="2240"/><use xlink:href="#rd8uNjmDL_iR9yT-6Hgd_pad-4" x="570" y="2440"/><use xlink:href="#rd8uNjmDL_iR9yT-6Hgd_pad-4" x="200" y="2440"/><use xlink:href="#rd8uNjmDL_iR9yT-6Hgd_pad-4" x="200" y="2240"/><use xlink:href="#rd8uNjmDL_iR9yT-6Hgd_pad-4" x="205" y="2910"/><use xlink:href="#rd8uNjmDL_iR9yT-6Hgd_pad-4" x="570" y="2910"/><use xlink:href="#rd8uNjmDL_iR9yT-6Hgd_pad-4" x="570" y="3110"/><use xlink:href="#rd8uNjmDL_iR9yT-6Hgd_pad-4" x="205" y="3110"/><use xlink:href="#rd8uNjmDL_iR9yT-6Hgd_pad-4" x="1600" y="3150"/><use xlink:href="#rd8uNjmDL_iR9yT-6Hgd_pad-4" x="1600" y="3350"/><use xlink:href="#rd8uNjmDL_iR9yT-6Hgd_pad-5" x="150" y="150"/><use xlink:href="#rd8uNjmDL_iR9yT-6Hgd_pad-5" x="1950" y="150"/><use xlink:href="#rd8uNjmDL_iR9yT-6Hgd_pad-5" x="150" y="3350"/><use xlink:href="#rd8uNjmDL_iR9yT-6Hgd_pad-5" x="1950" y="3350"/></g><clipPath id="bq_8Mc4bMngqijl1_eu__bottom_outline"><path d="M 2150 3555 2150 -50 -50 -50 -50 3555 2150 3555" fill="none" stroke-width="20"/></clipPath><mask id="bq_8Mc4bMngqijl1_eu__bottom_mech-mask"><g fill="#000" stroke="#000"><rect x="-50" y="-50" width="2200" height="3605" fill="#fff"/><use xlink:href="#bq_8Mc4bMngqijl1_eu__bottom_drill1"/></g></mask><mask id="bq_8Mc4bMngqijl1_eu__bottom_cf-mask"><g fill="#fff" stroke="#fff"><use xlink:href="#bq_8Mc4bMngqijl1_eu__bottom_soldermask"/></g></mask><mask id="bq_8Mc4bMngqijl1_eu__bottom_sm-mask"><g fill="#000" stroke="#000"><rect x="-50" y="-50" width="2200" height="3605" fill="#fff"/><use xlink:href="#bq_8Mc4bMngqijl1_eu__bottom_soldermask"/></g></mask></defs><g transform="translate(0,3505) scale(1,-1)"><g mask="url(#bq_8Mc4bMngqijl1_eu__bottom_mech-mask)" clip-path="url(#bq_8Mc4bMngqijl1_eu__bottom_outline)" transform="translate(2100,0) scale(-1,1)"><rect x="-50" y="-50" width="2200" height="3605" fill="currentColor" class="bq_8Mc4bMngqijl1_eu__fr4"/><use xlink:href="#bq_8Mc4bMngqijl1_eu__bottom_copper" fill="currentColor" stroke="currentColor" class="bq_8Mc4bMngqijl1_eu__cu"/><use xlink:href="#bq_8Mc4bMngqijl1_eu__bottom_copper" fill="currentColor" stroke="currentColor" class="bq_8Mc4bMngqijl1_eu__cf" mask="url(#bq_8Mc4bMngqijl1_eu__bottom_cf-mask)"/><g mask="url(#bq_8Mc4bMngqijl1_eu__bottom_sm-mask)"><rect x="-50" y="-50" width="2200" height="3605" fill="currentColor" class="bq_8Mc4bMngqijl1_eu__sm"/></g></g></g></svg>