<svg version="1.1" xmlns="http://www.w3.org/2000/svg" xmlns:xlink="http://www.w3.org/1999/xlink" stroke-linecap="round" stroke-linejoin="round" stroke-width="0" fill-rule="evenodd" clip-rule="evenodd" id="bq_8Mc4bMngqijl1_eu__top" viewBox="-50 -50 2200 3605" width="2.2in" height="3.605in" class="w-100 h-100"><defs><style>.bq_8Mc4bMngqijl1_eu__fr4 {color: #666666;}
.bq_8Mc4bMngqijl1_eu__cu {color: #cccccc;}
.bq_8Mc4bMngqijl1_eu__cf {color: #cc9933;}
.bq_8Mc4bMngqijl1_eu__sm {color: #004200; opacity: 0.75;}
.bq_8Mc4bMngqijl1_eu__ss {color: #ffffff;}
.bq_8Mc4bMngqijl1_eu__sp {color: #999999;}
.bq_8Mc4bMngqijl1_eu__out {color: #000000;}</style><circle cx="0" cy="0" r="40" id="_5kYZjFjZTDP1TAlOiMB_pad-21"/><rect x="-40" y="-40" width="80" height="80" id="_5kYZjFjZTDP1TAlOiMB_pad-22"/><rect x="-30" y="-30" width="60" height="60" id="_5kYZjFjZTDP1TAlOiMB_pad-23"/><circle cx="0" cy="0" r="30" id="_5kYZjFjZTDP1TAlOiMB_pad-24"/><rect x="-31" y="-31" width="62" height="62" id="_5kYZjFjZTDP1TAlOiMB_pad-25"/><circle cx="0" cy="0" r="31" id="_5kYZjFjZTDP1TAlOiMB_pad-26"/><rect x="-31" y="-31" width="62" height="62" id="_5kYZjFjZTDP1TAlOiMB_pad-27"/><rect x="-30" y="-30" width="60" height="60" id="_5kYZjFjZTDP1TAlOiMB_pad-28"/><rect x="-40" y="-40" width="80" height="80" id="_5kYZjFjZTDP1TAlOiMB_pad-29"/><circle cx="0" cy="0" r="25" id="_5kYZjFjZTDP1TAlOiMB_pad-30"/><circle cx="0" cy="0" r="44" id="d8-8MisCJr82xPh-TDYG_pad-11"/><rect x="-44" y="-44" width="88" height="88" id="d8-8MisCJr82xPh-TDYG_pad-12"/><rect x="-34" y="-34" width="68" height="68" id="d8-8MisCJr82xPh-TDYG_pad-13"/><circle cx="0" cy="0" r="34" id="d8-8MisCJr82xPh-TDYG_pad-14"/><rect x="-35" y="-35" width="70" height="70" id="d8-8MisCJr82xPh-TDYG_pad-15"/><circle cx="0" cy="0" r="35" id="d8-8MisCJr82xPh-TDYG_pad-16"/><rect x="-35" y="-35" width="70" height="70" id="d8-8MisCJr82xPh-TDYG_pad-17"/><rect x="-34" y="-34" width="68" height="68" id="d8-8MisCJr82xPh-TDYG_pad-18"/><rect x="-44" y="-44" width="88" height="88" id="d8-8MisCJr82xPh-TDYG_pad-19"/><circle cx="0" cy="0" r="29" id="d8-8MisCJr82xPh-TDYG_pad-20"/><circle cx="0" cy="0" r="14" id="rd8uNjmDL_iR9yT-6Hgd_pad-1"/><circle cx="0" cy="0" r="15" id="rd8uNjmDL_iR9yT-6Hgd_pad-2"/><circle cx="0" cy="0" r="20" id="rd8uNjmDL_iR9yT-6Hgd_pad-3"/><circle cx="0" cy="0" r="28.5" id="rd8uNjmDL_iR9yT-6Hgd_pad-4"/><circle cx="0" cy="0" r="60" id="rd8uNjmDL_iR9yT-6Hgd_pad-5"/><g id="bq_8Mc4bMngqijl1_eu__top_silkscreen"><path d="M 920 2145 A 90 90 0 0 1 740 2145 M 740 1894.79 A 90 90 0 0 1 920 1894.79 M 1170 2880 A 30 30 0 0 1 1230 2880 M 1475 3445 1750 3445 M 1750 3055 1750 3445 M 1475 3105 1475 3445 M 1475 3105 1525 3055 1750 3055 M 75 1195 350 1195 M 350 805 350 1195 M 75 855 75 1195 M 75 855 125 805 350 805 M 920 1894.79 920 2145 M 740 1894.53 740 2145 M 800 585 1100 585 M 800 400 1100 400 1100 585 M 800 400 800 585 M 1550 2980 1650 2980 M 1550 2410 1550 2980 M 1580 2380 1650 2380 1650 2980 M 1550 2410 1580 2380 M 1190 1420 2090 1420 M 1190 320 1190 1420 M 2090 320 2090 1420 M 1190 320 2090 320 M 1550 1505 1575 1480 M 1550 1505 1550 2280 M 1575 1480 1725 1480 1750 1505 1750 2280 M 1550 2280 1750 2280 M 1000 2880 1170 2880 M 1230 2880 1400 2880 M 1000 1480 1400 1480 M 1000 1480 1000 2880 M 1400 1480 1400 2880 M 300 510 485 510 M 300 210 485 210 M 300 210 300 510 M 485 210 485 510 M 940 650 960 670 960 1250 M 860 1250 960 1250 M 885 650 940 650 M 860 675 885 650 M 860 675 860 1250 M 810 650 830 670 830 1250 M 730 1250 830 1250 M 755 650 810 650 M 730 675 755 650 M 730 675 730 1250 M 100 700 120 680 700 680 700 780 M 100 700 100 755 125 780 700 780 M 100 1370 120 1350 700 1350 700 1450 M 100 1370 100 1425 125 1450 700 1450 M 100 2040 120 2020 700 2020 700 2120 M 100 2040 100 2095 125 2120 700 2120 M 100 2710 120 2690 700 2690 700 2790 M 100 2710 100 2765 125 2790 700 2790 M 100 570 120 550 700 550 700 650 M 100 570 100 625 125 650 700 650 M 100 1240 120 1220 700 1220 700 1320 M 100 1240 100 1295 125 1320 700 1320 M 100 1910 120 1890 700 1890 700 1990 M 100 1910 100 1965 125 1990 700 1990 M 100 2580 120 2560 700 2560 700 2660 M 100 2580 100 2635 125 2660 700 2660 M 1105 145 1105 370 M 1055 95 1105 145 M 515 95 1055 95 M 515 95 515 370 1105 370 M 420 805 695 805 M 420 805 420 1195 M 695 805 695 1145 M 645 1195 695 1145 M 420 1195 645 1195 M 420 1475 695 1475 M 420 1475 420 1865 M 695 1475 695 1815 M 645 1865 695 1815 M 420 1865 645 1865 M 420 2145 695 2145 M 420 2145 420 2535 M 695 2145 695 2485 M 645 2535 695 2485 M 420 2535 645 2535 M 420 2815 695 2815 M 420 2815 420 3205 M 695 2815 695 3155 M 645 3205 695 3155 M 420 3205 645 3205 M 75 1865 350 1865 M 350 1475 350 1865 M 75 1525 75 1865 M 75 1525 125 1475 350 1475 M 75 2535 350 2535 M 350 2145 350 2535 M 75 2195 75 2535 M 75 2195 125 2145 350 2145 M 80 3205 355 3205 M 355 2815 355 3205 M 80 2865 80 3205 M 80 2865 130 2815 355 2815 M 1100 940 1100 1220 M 1080 1240 1100 1220 M 1000 1240 1080 1240 M 1000 940 1100 940 M 1000 940 1000 1240 M 1100 610 1100 890 M 1080 910 1100 890 M 1000 910 1080 910 M 1000 610 1100 610 M 1000 610 1000 910 M 1439.98 3155.01 1449.98 3165.01 1449.98 3185 1439.98 3195 1429.99 3195 1419.99 3185 1419.99 3165.01 1409.99 3155.01 1400 3155.01 1390 3165.01 1390 3185 1400 3195 M 1419.99 3135.02 1419.99 3095.03 M 1439.98 3365.01 1449.98 3375.01 1449.98 3395 1439.98 3405 1429.99 3405 1419.99 3395 1419.99 3375.01 1409.99 3365.01 1400 3365.01 1390 3375.01 1390 3395 1400 3405 M 1419.99 3345.02 1419.99 3305.03 M 1439.98 3325.03 1400 3325.03 M 1470.05 850 1470.05 909.98 1500.04 909.98 1510.04 899.98 1510.04 879.99 1500.04 869.99 1470.05 869.99 M 1490.05 869.99 1510.04 850 M 1570.02 909.98 1530.04 909.98 1530.04 879.99 1550.03 879.99 1530.04 879.99 1530.04 850 M 1590.02 850 1590.02 909.98 1610.01 889.99 1630 909.98 1630 850 M 1650 860 1659.99 850 1679.99 850 1689.98 860 1689.98 899.98 1679.99 909.98 1659.99 909.98 1650 899.98 1650 889.99 1659.99 879.99 1689.98 879.99 M 1749.96 909.98 1729.97 899.98 1709.98 879.99 1709.98 860 1719.97 850 1739.97 850 1749.96 860 1749.96 869.99 1739.97 879.99 1709.98 879.99 M 1769.96 909.98 1769.96 850 1789.95 869.99 1809.94 850 1809.94 909.98 M 1179.99 2469.91 1219.98 2469.91 1239.97 2449.91 1219.98 2429.92 1179.99 2429.92 1209.98 2429.92 1209.98 2469.91 M 1239.97 2409.93 1239.97 2369.94 1239.97 2389.93 1179.99 2389.93 M 1179.99 2349.95 1219.98 2349.95 1219.98 2339.95 1209.98 2329.95 1179.99 2329.95 1209.98 2329.95 1219.98 2319.96 1209.98 2309.96 1179.99 2309.96 M 1179.99 2259.97 1179.99 2279.97 1189.99 2289.96 1209.98 2289.96 1219.98 2279.97 1219.98 2259.97 1209.98 2249.98 1199.99 2249.98 1199.99 2289.96 M 1160 2209.99 1160 2199.99 1170 2190 1219.98 2190 1219.98 2219.99 1209.98 2229.98 1189.99 2229.98 1179.99 2219.99 1179.99 2190 M 1219.98 2160.01 1219.98 2140.01 1209.98 2130.02 1179.99 2130.02 1179.99 2160.01 1189.99 2170 1199.99 2160.01 1199.99 2130.02 M 1229.98 2110.02 1239.97 2100.03 1239.97 2080.03 1229.98 2070.04 1219.98 2070.04 1209.98 2080.03 1209.98 2090.03 1209.98 2080.03 1199.99 2070.04 1189.99 2070.04 1179.99 2080.03 1179.99 2100.03 1189.99 2110.02 M 1179.99 2010.06 1179.99 2050.04 1219.98 2010.06 1229.98 2010.06 1239.97 2020.05 1239.97 2040.05 1229.98 2050.04 M 1229.98 1990.06 1239.97 1980.06 1239.97 1960.07 1229.98 1950.08 1219.98 1950.08 1209.98 1960.07 1199.99 1950.08 1189.99 1950.08 1179.99 1960.07 1179.99 1980.06 1189.99 1990.06 1199.99 1990.06 1209.98 1980.06 1219.98 1990.06 1229.98 1990.06 M 1209.98 1980.06 1209.98 1960.07 M 1179.99 1930.08 1239.97 1930.08 1239.97 1900.09 1229.98 1890.09 1209.98 1890.09 1199.99 1900.09 1199.99 1930.08 M 355 3285 355 3225.02 325.01 3225.02 315.01 3235.02 315.01 3255.01 325.01 3265.01 355 3265.01 M 295.02 3225.02 295.02 3285 265.03 3285 255.03 3275 255.03 3265.01 265.03 3255.01 295.02 3255.01 265.03 3255.01 255.03 3245.01 255.03 3235.02 265.03 3225.02 295.02 3225.02 M 585 3225.02 585 3285 545.01 3285 M 485.03 3225.02 525.02 3225.02 525.02 3285 485.03 3285 M 525.02 3255.01 505.03 3255.01 M 465.04 3225.02 465.04 3285 435.05 3285 425.05 3275 425.05 3235.02 435.05 3225.02 465.04 3225.02 M 2031.67 1520 1976.69 1520 2031.67 1556.66 1976.69 1556.66 M 2031.67 1574.98 2022.51 1574.98 2022.51 1584.15 2031.67 1584.15 2031.67 1574.98 M 1976.69 1712.44 2031.67 1712.44 2031.67 1684.95 2022.51 1675.78 2004.18 1675.78 1995.02 1684.95 1995.02 1712.44 M 2031.67 1730.76 1976.69 1730.76 1976.69 1758.26 1985.85 1767.42 2004.18 1767.42 2013.35 1758.26 2013.35 1730.76 M 2040.84 1794.91 2031.67 1804.08 2022.51 1804.08 2022.51 1794.91 2031.67 1794.91 2031.67 1804.08 2040.84 1794.91 2050 1785.75 M 1976.69 1895.71 2031.67 1895.71 2031.67 1923.2 2022.51 1932.37 2013.35 1932.37 2004.18 1923.2 2004.18 1895.71 2004.18 1923.2 1995.02 1932.37 1985.85 1932.37 1976.69 1923.2 1976.69 1895.71 M 2031.67 1950.69 2022.51 1950.69 2022.51 1959.86 2031.67 1959.86 2031.67 1950.69 M 2031.67 2051.5 1976.69 2051.5 1976.69 2078.99 1985.85 2088.15 2004.18 2088.15 2013.35 2078.99 2013.35 2051.5 M 2040.84 2115.64 2031.67 2124.8 2022.51 2124.8 2022.51 2115.64 2031.67 2115.64 2031.67 2124.8 2040.84 2115.64 2050 2106.48 M 1985.85 2253.1 1976.69 2243.93 1976.69 2225.61 1985.85 2216.44 2022.51 2216.44 2031.67 2225.61 2031.67 2243.93 2022.51 2253.1 M 2031.67 2271.42 2022.51 2271.42 2022.51 2280.59 2031.67 2280.59 2031.67 2271.42 M 2031.67 2372.22 1976.69 2372.22 1995.02 2390.55 1976.69 2408.88 2031.67 2408.88 M 1886.69 1556.66 1886.69 1520 1941.67 1520 1941.67 1556.66 M 1914.18 1520 1914.18 1538.33 M 1895.85 1611.64 1886.69 1602.47 1886.69 1584.15 1895.85 1574.98 1932.51 1574.98 1941.67 1584.15 1941.67 1602.47 1932.51 1611.64 1914.18 1611.64 1914.18 1593.31 M 1886.69 1629.96 1941.67 1629.96 1914.18 1629.96 1914.18 1666.62 1886.69 1666.62 1941.67 1666.62 M 1941.67 1712.44 1886.69 1712.44 1914.18 1684.95 1914.18 1721.6 M 1895.85 1739.93 1886.69 1749.09 1886.69 1767.42 1895.85 1776.58 1932.51 1776.58 1941.67 1767.42 1941.67 1749.09 1932.51 1739.93 1895.85 1739.93 M 1895.85 1794.91 1886.69 1804.08 1886.69 1822.4 1895.85 1831.57 1932.51 1831.57 1941.67 1822.4 1941.67 1804.08 1932.51 1794.91 1895.85 1794.91 M 1895.85 1941.53 1886.69 1932.37 1886.69 1914.04 1895.85 1904.88 1905.02 1904.88 1914.18 1914.04 1914.18 1932.37 1923.34 1941.53 1932.51 1941.53 1941.67 1932.37 1941.67 1914.04 1932.51 1904.88 M 1895.85 1969.02 1905.02 1969.02 1905.02 1959.86 1905.02 1978.19 1905.02 1969.02 1932.51 1969.02 1941.67 1978.19 M 1905.02 2014.84 1905.02 2033.17 1914.18 2042.33 1941.67 2042.33 1941.67 2014.84 1932.51 2005.68 1923.34 2014.84 1923.34 2042.33 M 1905.02 2060.66 1941.67 2060.66 1923.34 2060.66 1914.18 2069.82 1905.02 2078.99 1905.02 2088.15 M 1895.85 2124.8 1905.02 2124.8 1905.02 2115.64 1905.02 2133.97 1905.02 2124.8 1932.51 2124.8 1941.67 2133.97 M 1886.69 2216.44 1941.67 2216.44 1941.67 2253.1 M 1941.67 2271.42 1941.67 2289.75 1941.67 2280.59 1905.02 2280.59 1905.02 2271.42 M 1941.67 2317.24 1905.02 2317.24 1905.02 2344.73 1914.18 2353.9 1941.67 2353.9 M 1941.67 2399.71 1941.67 2381.39 1932.51 2372.22 1914.18 2372.22 1905.02 2381.39 1905.02 2399.71 1914.18 2408.88 1923.34 2408.88 1923.34 2372.22 M 1895.85 2518.84 1886.69 2509.68 1886.69 2491.35 1895.85 2482.19 1905.02 2482.19 1914.18 2491.35 1914.18 2509.68 1923.34 2518.84 1932.51 2518.84 1941.67 2509.68 1941.67 2491.35 1932.51 2482.19 M 1905.02 2537.17 1932.51 2537.17 1941.67 2546.33 1941.67 2573.82 1950.84 2573.82 1960 2564.66 1960 2555.5 M 1941.67 2573.82 1905.02 2573.82 M 1941.67 2592.15 1941.67 2619.64 1932.51 2628.81 1923.34 2619.64 1923.34 2601.32 1914.18 2592.15 1905.02 2601.32 1905.02 2628.81 M 1895.85 2656.3 1905.02 2656.3 1905.02 2647.14 1905.02 2665.46 1905.02 2656.3 1932.51 2656.3 1941.67 2665.46 M 1941.67 2720.44 1941.67 2702.12 1932.51 2692.95 1914.18 2692.95 1905.02 2702.12 1905.02 2720.44 1914.18 2729.61 1923.34 2729.61 1923.34 2692.95 M 1941.67 2747.94 1905.02 2747.94 1905.02 2757.1 1914.18 2766.26 1941.67 2766.26 1914.18 2766.26 1905.02 2775.43 1914.18 2784.59 1941.67 2784.59 M 1941.67 2857.9 1941.67 2876.23 1941.67 2867.06 1886.69 2867.06 1895.85 2857.9 M 1941.67 2903.72 1932.51 2903.72 1932.51 2912.88 1941.67 2912.88 1941.67 2903.72 M 1941.67 2949.54 1941.67 2967.86 1941.67 2958.7 1886.69 2958.7 1895.85 2949.54 M 273.32 503.34 279.99 510.01 279.99 523.34 273.32 530 266.66 530 259.99 523.34 259.99 510.01 253.33 503.34 246.67 503.34 240 510.01 240 523.34 246.67 530 M 279.99 490.01 279.99 463.36 279.99 476.68 240 476.68 M 240 450.03 279.99 450.03 279.99 430.03 273.32 423.37 259.99 423.37 253.33 430.03 253.33 450.03 M 240 410.04 240 396.71 240 403.37 279.99 403.37 273.32 410.04 M 279.99 350.06 273.32 363.39 259.99 376.72 246.67 376.72 240 370.05 240 356.72 246.67 350.06 253.33 350.06 259.99 356.72 259.99 376.72 M 240 336.73 279.99 336.73 240 310.07 279.99 310.07 M 279.99 270.08 279.99 296.74 259.99 296.74 259.99 283.41 259.99 296.74 240 296.74 M 273.32 256.75 279.99 250.09 279.99 236.76 273.32 230.1 246.67 230.1 240 236.76 240 250.09 246.67 256.75 273.32 256.75 M 279.99 190.11 273.32 203.44 259.99 216.77 246.67 216.77 240 210.1 240 196.77 246.67 190.11 253.33 190.11 259.99 196.77 259.99 216.77 M 279.99 176.78 240 176.78 240 150.12 M 779.99 585 740 585 740 558.34 M 779.99 545.01 779.99 518.36 773.32 518.36 746.66 545.01 740 545.01 M 773.32 505.03 779.99 498.36 779.99 485.03 773.32 478.37 766.66 478.37 759.99 485.03 753.33 478.37 746.66 478.37 740 485.03 740 498.36 746.66 505.03 753.33 505.03 759.99 498.36 766.66 505.03 773.32 505.03 M 759.99 498.36 759.99 485.03 M 773.32 465.04 779.99 458.37 779.99 445.04 773.32 438.38 746.66 438.38 740 445.04 740 458.37 746.66 465.04 773.32 465.04 M 779.99 398.39 779.99 425.05 759.99 425.05 766.66 411.72 766.66 405.06 759.99 398.39 746.66 398.39 740 405.06 740 418.39 746.66 425.05 M 966.66 63.32 959.99 69.99 946.66 69.99 940 63.32 940 36.66 946.66 30 959.99 30 966.66 36.66 966.66 49.99 953.33 49.99 M 979.99 30 979.99 69.99 1006.64 30 1006.64 69.99 M 1019.97 69.99 1019.97 30 1039.97 30 1046.63 36.66 1046.63 63.32 1039.97 69.99 1019.97 69.99 M 740 69.99 740 43.33 753.33 30 766.66 43.33 766.66 69.99 M 779.99 30 793.32 30 786.65 30 786.65 56.66 779.99 56.66 M 813.31 30 813.31 56.66 833.3 56.66 839.97 49.99 839.97 30 M 520 69.99 520 30 546.66 30 M 586.65 69.99 559.99 69.99 559.99 30 586.65 30 M 559.99 49.99 573.32 49.99 M 599.97 69.99 599.97 30 619.97 30 626.63 36.66 626.63 63.32 619.97 69.99 599.97 69.99 M 1680.02 2550 1740 2550 1740 2579.99 1730 2589.99 1690.02 2589.99 1680.02 2579.99 1680.02 2550 M 1690.02 2649.97 1680.02 2639.97 1680.02 2619.98 1690.02 2609.98 1700.01 2609.98 1710.01 2619.98 1710.01 2639.97 1720.01 2649.97 1730 2649.97 1740 2639.97 1740 2619.98 1730 2609.98 M 1690.02 2669.96 1680.02 2679.96 1680.02 2699.95 1690.02 2709.95 1700.01 2709.95 1710.01 2699.95 1710.01 2689.95 1710.01 2699.95 1720.01 2709.95 1730 2709.95 1740 2699.95 1740 2679.96 1730 2669.96 M 1740 2769.93 1740 2729.94 1700.01 2769.93 1690.02 2769.93 1680.02 2759.93 1680.02 2739.94 1690.02 2729.94 M 1690.02 2789.92 1680.02 2799.92 1680.02 2819.91 1690.02 2829.91 1700.01 2829.91 1710.01 2819.91 1710.01 2809.92 1710.01 2819.91 1720.01 2829.91 1730 2829.91 1740 2819.91 1740 2799.92 1730 2789.92 M 1740 2849.9 1740 2869.9 1740 2859.9 1680.02 2859.9 1690.02 2849.9 M 1770.02 1760 1770.02 1799.99 1780.02 1799.99 1820 1760 1830 1760 1830 1799.99 M 1770.02 1859.97 1780.02 1839.97 1800.01 1819.98 1820 1819.98 1830 1829.98 1830 1849.97 1820 1859.97 1810.01 1859.97 1800.01 1849.97 1800.01 1819.98 M 1780.02 1879.96 1770.02 1889.96 1770.02 1909.95 1780.02 1919.95 1790.01 1919.95 1800.01 1909.95 1800.01 1899.96 1800.01 1909.95 1810.01 1919.95 1820 1919.95 1830 1909.95 1830 1889.96 1820 1879.96 M 1770.02 1979.93 1770.02 1939.94 1800.01 1939.94 1790.01 1959.93 1790.01 1969.93 1800.01 1979.93 1820 1979.93 1830 1969.93 1830 1949.94 1820 1939.94 M 1780.02 1999.92 1770.02 2009.92 1770.02 2029.91 1780.02 2039.91 1790.01 2039.91 1800.01 2029.91 1800.01 2019.92 1800.01 2029.91 1810.01 2039.91 1820 2039.91 1830 2029.91 1830 2009.92 1820 1999.92 M 44.98 1070.01 54.98 1080.01 54.98 1100 44.98 1110 34.99 1110 24.99 1100 24.99 1080.01 14.99 1070.01 5 1070.01 -5 1080.01 -5 1100 5 1110 M 54.98 1050.02 44.98 1050.02 24.99 1030.03 44.98 1010.03 54.98 1010.03 M 24.99 1030.03 -5 1030.03 M -5 990.04 54.98 990.04 -5 950.05 54.98 950.05 M 44.98 890.07 54.98 900.07 54.98 920.06 44.98 930.06 5 930.06 -5 920.06 -5 900.07 5 890.07 M 39.98 3110.01 49.98 3120.01 49.98 3140 39.98 3150 29.99 3150 19.99 3140 19.99 3120.01 9.99 3110.01 0 3110.01 -10 3120.01 -10 3140 0 3150 M 49.98 3090.02 49.98 3050.03 49.98 3070.03 -10 3070.03 M -10 3030.04 29.99 3030.04 49.98 3010.05 29.99 2990.05 -10 2990.05 19.99 2990.05 19.99 3030.04 M -10 2970.06 49.98 2970.06 49.98 2940.07 39.98 2930.07 19.99 2930.07 9.99 2940.07 9.99 2970.06 M 9.99 2950.06 -10 2930.07 M 49.98 2910.08 49.98 2870.09 49.98 2890.08 -10 2890.08 M 44.98 2405.01 54.98 2415.01 54.98 2435 44.98 2445 34.99 2445 24.99 2435 24.99 2415.01 14.99 2405.01 5 2405.01 -5 2415.01 -5 2435 5 2445 M 54.98 2385.02 54.98 2345.03 54.98 2365.03 -5 2365.03 M 54.98 2295.05 54.98 2315.04 44.98 2325.04 5 2325.04 -5 2315.04 -5 2295.05 5 2285.05 44.98 2285.05 54.98 2295.05 M -5 2265.06 54.98 2265.06 54.98 2235.07 44.98 2225.07 24.99 2225.07 14.99 2235.07 14.99 2265.06 M 54.98 1680.01 54.98 1720 24.99 1720 24.99 1700.01 24.99 1720 -5 1720 M 44.98 1620.03 54.98 1630.03 54.98 1650.02 44.98 1660.02 34.99 1660.02 24.99 1650.02 24.99 1630.03 14.99 1620.03 5 1620.03 -5 1630.03 -5 1650.02 5 1660.02 M 929.99 913.35 929.99 926.68 929.99 920.01 890.01 920.01 896.67 913.35 M 896.67 946.67 890.01 953.34 890.01 966.66 896.67 973.33 923.33 973.33 929.99 966.66 929.99 953.34 923.33 946.67 896.67 946.67 M 929.99 986.66 890.01 986.66 M 916.66 986.66 903.34 1006.65 M 916.66 986.66 929.99 1006.65 M 799.99 933.34 799.99 946.67 799.99 940.01 760.01 940.01 766.67 933.34 M 799.99 966.67 760.01 966.67 M 786.66 966.67 773.34 986.66 M 786.66 966.67 799.99 986.66 M 353.35 710.01 366.68 710.01 360.01 710.01 360.01 749.99 353.35 743.33 M 386.67 743.33 393.34 749.99 406.66 749.99 413.33 743.33 413.33 716.67 406.66 710.01 393.34 710.01 386.67 716.67 386.67 743.33 M 426.66 710.01 426.66 749.99 M 426.66 723.34 446.65 736.66 M 426.66 723.34 446.65 710.01 M 353.35 1380.01 366.68 1380.01 360.01 1380.01 360.01 1419.99 353.35 1413.33 M 386.67 1413.33 393.34 1419.99 406.66 1419.99 413.33 1413.33 413.33 1386.67 406.66 1380.01 393.34 1380.01 386.67 1386.67 386.67 1413.33 M 426.66 1380.01 426.66 1419.99 M 426.66 1393.33 446.65 1406.66 M 426.66 1393.33 446.65 1380.01 M 353.35 2050.01 366.68 2050.01 360.01 2050.01 360.01 2089.99 353.35 2083.33 M 386.67 2083.33 393.34 2089.99 406.66 2089.99 413.33 2083.33 413.33 2056.67 406.66 2050.01 393.34 2050.01 386.67 2056.67 386.67 2083.33 M 426.66 2050.01 426.66 2089.99 M 426.66 2063.34 446.65 2076.66 M 426.66 2063.34 446.65 2050.01 M 343.35 2720.01 356.68 2720.01 350.01 2720.01 350.01 2759.99 343.35 2753.33 M 376.67 2753.33 383.34 2759.99 396.66 2759.99 403.33 2753.33 403.33 2726.67 396.66 2720.01 383.34 2720.01 376.67 2726.67 376.67 2753.33 M 416.66 2720.01 416.66 2759.99 M 416.66 2733.34 436.65 2746.66 M 416.66 2733.34 436.65 2720.01 M 346.68 613.33 353.35 619.99 366.68 619.99 373.34 613.33 373.34 606.66 366.68 600 360.01 600 366.68 600 373.34 593.34 373.34 586.67 366.68 580.01 353.35 580.01 346.68 586.67 M 386.67 613.33 393.34 619.99 406.66 619.99 413.33 613.33 413.33 606.66 406.66 600 400 600 406.66 600 413.33 593.34 413.33 586.67 406.66 580.01 393.34 580.01 386.67 586.67 M 426.66 613.33 433.32 619.99 446.65 619.99 453.32 613.33 453.32 586.67 446.65 580.01 433.32 580.01 426.66 586.67 426.66 613.33 M 346.68 1283.33 353.35 1289.99 366.68 1289.99 373.34 1283.33 373.34 1276.66 366.68 1270 360.01 1270 366.68 1270 373.34 1263.33 373.34 1256.67 366.68 1250.01 353.35 1250.01 346.68 1256.67 M 386.67 1283.33 393.34 1289.99 406.66 1289.99 413.33 1283.33 413.33 1276.66 406.66 1270 400 1270 406.66 1270 413.33 1263.33 413.33 1256.67 406.66 1250.01 393.34 1250.01 386.67 1256.67 M 426.66 1283.33 433.32 1289.99 446.65 1289.99 453.32 1283.33 453.32 1256.67 446.65 1250.01 433.32 1250.01 426.66 1256.67 426.66 1283.33 M 346.68 1953.33 353.35 1959.99 366.68 1959.99 373.34 1953.33 373.34 1946.67 366.68 1940 360.01 1940 366.68 1940 373.34 1933.33 373.34 1926.67 366.68 1920.01 353.35 1920.01 346.68 1926.67 M 386.67 1953.33 393.34 1959.99 406.66 1959.99 413.33 1953.33 413.33 1946.67 406.66 1940 400 1940 406.66 1940 413.33 1933.33 413.33 1926.67 406.66 1920.01 393.34 1920.01 386.67 1926.67 M 426.66 1953.33 433.32 1959.99 446.65 1959.99 453.32 1953.33 453.32 1926.67 446.65 1920.01 433.32 1920.01 426.66 1926.67 426.66 1953.33 M 336.68 2623.33 343.35 2629.99 356.68 2629.99 363.34 2623.33 363.34 2616.66 356.68 2610 350.01 2610 356.68 2610 363.34 2603.34 363.34 2596.67 356.68 2590.01 343.35 2590.01 336.68 2596.67 M 376.67 2623.33 383.34 2629.99 396.66 2629.99 403.33 2623.33 403.33 2616.66 396.66 2610 390 2610 396.66 2610 403.33 2603.34 403.33 2596.67 396.66 2590.01 383.34 2590.01 376.67 2596.67 M 416.66 2623.33 423.32 2629.99 436.65 2629.99 443.32 2623.33 443.32 2596.67 436.65 2590.01 423.32 2590.01 416.66 2596.67 416.66 2623.33 M 1062.5 1046.26 1062.5 1054.59 1062.5 1050.43 1037.5 1050.43 1041.67 1046.26 M 1041.67 1067.09 1037.5 1071.26 1037.5 1079.59 1041.67 1083.75 1058.33 1083.75 1062.5 1079.59 1062.5 1071.26 1058.33 1067.09 1041.67 1067.09 M 1041.67 1092.08 1037.5 1096.25 1037.5 1104.58 1041.67 1108.74 1058.33 1108.74 1062.5 1104.58 1062.5 1096.25 1058.33 1092.08 1041.67 1092.08 M 1062.5 1117.07 1045.84 1117.07 1045.84 1129.57 1050 1133.74 1062.5 1133.74 M 1041.67 714.18 1037.5 718.35 1037.5 726.68 1041.67 730.84 1045.84 730.84 1050 726.68 1050 722.51 1050 726.68 1054.17 730.84 1058.33 730.84 1062.5 726.68 1062.5 718.35 1058.33 714.18 M 1041.67 739.17 1037.5 743.34 1037.5 751.67 1041.67 755.83 1045.84 755.83 1050 751.67 1050 747.5 1050 751.67 1054.17 755.83 1058.33 755.83 1062.5 751.67 1062.5 743.34 1058.33 739.17 M 1041.67 764.16 1037.5 768.33 1037.5 776.66 1041.67 780.83 1058.33 780.83 1062.5 776.66 1062.5 768.33 1058.33 764.16 1041.67 764.16 M 1062.5 789.16 1045.84 789.16 1045.84 801.65 1050 805.82 1062.5 805.82" fill="none" stroke-width="10"/></g><g id="bq_8Mc4bMngqijl1_eu__top_copper"><path d="M 305 3350 1600 3350 M 20 3065 305 3350 M 20 1260 20 3065 M 1600 3350 1600 3380 M 1600 3320 1600 3350 M 75 1225 200 1100 M 75 1690 155 1770 M 75 1225 75 1690 M 1700 1830 1710 1830 M 1600 1830 1700 1830 M 770 2175 925 2330 M 770 1680 770 2175 M 740 1740 740 2210 M 570 1570 740 1740 M 740 2210 910 2380 M 925 2330 1050 2330 M 645 1715 645 1835 M 572.5 1642.5 645 1715 M 480 2000 645 1835 M 522.5 1642.5 572.5 1642.5 M 495 1615 522.5 1642.5 M 730 1060 730 1285 M 815 1370 815 1491.57 M 730 1285 815 1370 M 815 1491.57 1003.43 1680 M 762.5 1512.5 980 1730 M 762.5 1395 762.5 1512.5 M 980 1730 1050 1730 M 1003.43 1680 1105 1680 M 495 1335 495 1615 M 495 1335 636.05 1193.95 M 636.05 1076.05 636.05 1193.95 M 500 940 636.05 1076.05 M 345 1100 570 1100 M 220 975 345 1100 M 155 975 220 975 M 160 2750 385 2525 M 385 2490 385 2525 M 1550 1630 1600 1630 M 1350 1830 1550 1630 M 1245 1725 1245 1920 M 1305 1980 1431.44 1980 M 1245 1920 1305 1980 M 1431.44 1980 1481.44 1930 M 1050 1530 1245 1725 M 1481.44 1930 1600 1930 M 1200 2170 1359.39 2329.39 M 1105 1680 1200 1775 1200 2170 M 1600 1630 1700 1630 M 1716.49 1630 1744.14 1630 M 1709.95 1636.54 1716.49 1630 M 1750 394.07 1750 1624.14 M 1744.14 1630 1750 1624.14 M 1740 370 1740 384.07 1750 394.07 M 570 900 730 1060 M 200 1070 200 1130 M 90 910 155 975 M 90 660 90 910 M 100 1320 100 1590 160 1650 220 1650 340 1770 M 100 2925 160 2985 M 220 2985 345 3110 M 160 2985 220 2985 M 100 2660 100 2925 M 345 3110 570 3110 M 345 2440 570 2440 M 220 2315 345 2440 M 165 2315 220 2315 M 100 2250 165 2315 M 100 1990 100 2250 M 570 870 570 930 M 570 1540 570 1600 M 570 2210 570 2270 M 570 2880 570 2940 M 200 1740 200 1800 M 200 2410 200 2470 M 205 3080 205 3140 M 520 834.08 615.08 834.08 M 500 854.08 520 834.08 M 615.08 834.08 831 1050 M 500 854.08 500 940 M 831 1050 1085 1050 M 480 2270 520 2310 M 630 2310 850 2530 M 520 2310 630 2310 M 480 2000 480 2270 M 165 3110 205 3110 M 65 2575 65 3010 165 3110 M 1175 370 1245 370 M 340 1770 570 1770 M 1626 2904 1626 2904 M 1662.5 2612.5 1662.5 2867.5 M 1626 2904 1662.5 2867.5 M 1600 2930 1626 2904 M 1630 2580 1662.5 2612.5 M 1395 2480 1495 2580 1630 2580 M 1440 2830 1540 2730 1600 2730 M 1430 2730 1530 2630 1600 2630 M 1350 2830 1440 2830 M 1650 2080 1650 2480 M 1600 2530 1650 2480 M 1650 2080 1700 2030 M 1600 2030 1700 2030 M 1350 2030 1600 2030 M 1600 1930 1700 1930 M 1710 1830 1840 1700 M 1840 370 1840 1700 M 1715 1730 1790 1655 M 1709.07 1735 1714.54 1729.53 M 1790 350 1790 1655 M 1700 1730 1709.07 1730 M 1714.54 1729.53 1724.02 1720.05 M 1600 1730 1700 1730 M 1409.95 1920.05 1600 1730 M 1350 1930 1359.95 1920.05 1409.95 1920.05 M 1680 320 1760 320 1790 350 M 1640 360 1680 320 M 850 2530 1050 2530 M 500 2360 600 2360 M 870 2630 1050 2630 M 600 2360 870 2630 M 380 2240 500 2360 M 215 2240 380 2240 M 570 2240 650 2240 M 890 2480 1125 2480 M 650 2240 890 2480 M 1178.49 2380 1228.49 2430 M 910 2380 1178.49 2380 M 1125 2480 1175 2530 M 570 2910 1070 2910 1350 2630 M 910 1200 910 1510 M 1040.43 1620.43 1050 1630 M 1020.43 1620.43 1040.43 1620.43 M 910 1510 1020.43 1620.43 M 2040 370 2040 370 M 1880 1358.24 1880 1360 M 1880 1358.24 2040 1198.24 M 2040 370 2040 1198.24 M 1940 370 1940 371.56 M 1415 2095 1415 2355 M 1390 2380 1415 2355 M 1305 2380 1390 2380 M 1155 2230 1305 2380 M 1050 2230 1155 2230 M 1350 2030 1415 2095 M 1350 2730 1430 2730 M 1205 2480 1395 2480 M 1155 2430 1205 2480 M 1050 2430 1155 2430 M 1175 2530 1350 2530 M 100 1320 150 1270 M 90 660 150 600 M 60 626.36 60 960 200 1100 M 60 626.36 131.36 555 M 830 990 1050 990 M 131.36 555 395 555 M 615 775 830 990 M 395 555 605 765 M 605 766.21 613.79 775 615 775 M 605 765 605 766.21 M 1085 1050 1540 595 M 1540 375.91 1540 595 M 65 2575 200 2440 M 100 2660 150 2610 M 100 1990 150 1940 M 60 1910 200 1770 M 60 2300 200 2440 M 60 1910 60 2300 M 1590 335 1630 295 M 1940 356.47 1940 370 M 1352.02 1627.98 1590 1390 M 1590 335 1590 1390 M 1640 360 1640 370 M 1880 295 1925.68 340.68 M 1630 295 1880 295 M 1925.68 342.15 1940 356.47 M 1925.68 340.68 1925.68 342.15 M 1050 510 1050 518.79 M 1050 496.47 1050 510 M 1064.32 480.68 1175 370 M 1050 496.47 1064.32 482.15 M 1064.32 480.68 1064.32 482.15 M 150 850 200 900 M 150 730 150 850 M 155 1770 200 1770 M 150 1520 200 1570 M 150 1400 150 1520 M 150 2190 200 2240 M 150 2070 150 2190 M 200 2240 215 2240 M 150 2855 205 2910 M 150 2740 150 2855 M 830 1920 835 1925 1045 1925 1050 1930 M 830 2120 960 2120 1050 2030 M 1228.49 2430 1350 2430 M 470 360 610 220 M 410 360 470 360 M 780 600 780 700 M 640 460 780 600 M 410 460 640 460 M 810 470 1000 660 M 810 220 810 470 M 150 2740 160 2750 M 1000 660 1050 660 M 765.1 1200 910 1200 M 1120 588.79 1120 920 M 1050 990 1120 920 M 1050 518.79 1120 588.79" fill="none" stroke-width="10"/><use xlink:href="#_5kYZjFjZTDP1TAlOiMB_pad-21" x="1600" y="3150"/><use xlink:href="#_5kYZjFjZTDP1TAlOiMB_pad-21" x="200" y="900"/><use xlink:href="#_5kYZjFjZTDP1TAlOiMB_pad-21" x="810" y="220"/><use xlink:href="#_5kYZjFjZTDP1TAlOiMB_pad-21" x="1010" y="220"/><use xlink:href="#_5kYZjFjZTDP1TAlOiMB_pad-21" x="570" y="1100"/><use xlink:href="#_5kYZjFjZTDP1TAlOiMB_pad-21" x="570" y="1770"/><use xlink:href="#_5kYZjFjZTDP1TAlOiMB_pad-21" x="570" y="2440"/><use xlink:href="#_5kYZjFjZTDP1TAlOiMB_pad-21" x="570" y="3110"/><use xlink:href="#_5kYZjFjZTDP1TAlOiMB_pad-21" x="200" y="1570"/><use xlink:href="#_5kYZjFjZTDP1TAlOiMB_pad-21" x="200" y="2240"/><use xlink:href="#_5kYZjFjZTDP1TAlOiMB_pad-21" x="205" y="2910"/><use xlink:href="#_5kYZjFjZTDP1TAlOiMB_pad-22" x="1600" y="3350"/><use xlink:href="#_5kYZjFjZTDP1TAlOiMB_pad-22" x="200" y="1100"/><use xlink:href="#_5kYZjFjZTDP1TAlOiMB_pad-22" x="570" y="900"/><use xlink:href="#_5kYZjFjZTDP1TAlOiMB_pad-22" x="570" y="1570"/><use xlink:href="#_5kYZjFjZTDP1TAlOiMB_pad-22" x="570" y="2240"/><use xlink:href="#_5kYZjFjZTDP1TAlOiMB_pad-22" x="570" y="2910"/><use xlink:href="#_5kYZjFjZTDP1TAlOiMB_pad-22" x="200" y="1770"/><use xlink:href="#_5kYZjFjZTDP1TAlOiMB_pad-22" x="200" y="2440"/><use xlink:href="#_5kYZjFjZTDP1TAlOiMB_pad-22" x="205" y="3110"/><use xlink:href="#_5kYZjFjZTDP1TAlOiMB_pad-23" x="830" y="2120"/><use xlink:href="#_5kYZjFjZTDP1TAlOiMB_pad-23" x="910" y="1200"/><use xlink:href="#_5kYZjFjZTDP1TAlOiMB_pad-23" x="780" y="1200"/><use xlink:href="#_5kYZjFjZTDP1TAlOiMB_pad-23" x="1050" y="990"/><use xlink:href="#_5kYZjFjZTDP1TAlOiMB_pad-23" x="1050" y="660"/><use xlink:href="#_5kYZjFjZTDP1TAlOiMB_pad-24" x="830" y="1920"/><use xlink:href="#_5kYZjFjZTDP1TAlOiMB_pad-24" x="910" y="700"/><use xlink:href="#_5kYZjFjZTDP1TAlOiMB_pad-24" x="780" y="700"/><use xlink:href="#_5kYZjFjZTDP1TAlOiMB_pad-24" x="150" y="730"/><use xlink:href="#_5kYZjFjZTDP1TAlOiMB_pad-24" x="150" y="1400"/><use xlink:href="#_5kYZjFjZTDP1TAlOiMB_pad-24" x="150" y="2070"/><use xlink:href="#_5kYZjFjZTDP1TAlOiMB_pad-24" x="150" y="2740"/><use xlink:href="#_5kYZjFjZTDP1TAlOiMB_pad-24" x="150" y="600"/><use xlink:href="#_5kYZjFjZTDP1TAlOiMB_pad-24" x="150" y="1270"/><use xlink:href="#_5kYZjFjZTDP1TAlOiMB_pad-24" x="150" y="1940"/><use xlink:href="#_5kYZjFjZTDP1TAlOiMB_pad-24" x="150" y="2610"/><use xlink:href="#_5kYZjFjZTDP1TAlOiMB_pad-24" x="1050" y="1190"/><use xlink:href="#_5kYZjFjZTDP1TAlOiMB_pad-24" x="1050" y="860"/><use xlink:href="#_5kYZjFjZTDP1TAlOiMB_pad-24" x="150" y="150"/><use xlink:href="#_5kYZjFjZTDP1TAlOiMB_pad-24" x="150" y="3350"/><use xlink:href="#_5kYZjFjZTDP1TAlOiMB_pad-24" x="1950" y="150"/><use xlink:href="#_5kYZjFjZTDP1TAlOiMB_pad-24" x="1950" y="3350"/><use xlink:href="#_5kYZjFjZTDP1TAlOiMB_pad-25" x="850" y="510"/><use xlink:href="#_5kYZjFjZTDP1TAlOiMB_pad-25" x="1240" y="370"/><use xlink:href="#_5kYZjFjZTDP1TAlOiMB_pad-26" x="950" y="510"/><use xlink:href="#_5kYZjFjZTDP1TAlOiMB_pad-26" x="1050" y="510"/><use xlink:href="#_5kYZjFjZTDP1TAlOiMB_pad-26" x="1600" y="2430"/><use xlink:href="#_5kYZjFjZTDP1TAlOiMB_pad-26" x="1600" y="2530"/><use xlink:href="#_5kYZjFjZTDP1TAlOiMB_pad-26" x="1600" y="2630"/><use xlink:href="#_5kYZjFjZTDP1TAlOiMB_pad-26" x="1600" y="2730"/><use xlink:href="#_5kYZjFjZTDP1TAlOiMB_pad-26" x="1600" y="2830"/><use xlink:href="#_5kYZjFjZTDP1TAlOiMB_pad-26" x="1240" y="1370"/><use xlink:href="#_5kYZjFjZTDP1TAlOiMB_pad-26" x="1340" y="1370"/><use xlink:href="#_5kYZjFjZTDP1TAlOiMB_pad-26" x="1440" y="1370"/><use xlink:href="#_5kYZjFjZTDP1TAlOiMB_pad-26" x="1540" y="1370"/><use xlink:href="#_5kYZjFjZTDP1TAlOiMB_pad-26" x="1640" y="1370"/><use xlink:href="#_5kYZjFjZTDP1TAlOiMB_pad-26" x="1340" y="370"/><use xlink:href="#_5kYZjFjZTDP1TAlOiMB_pad-26" x="1440" y="370"/><use xlink:href="#_5kYZjFjZTDP1TAlOiMB_pad-26" x="1540" y="370"/><use xlink:href="#_5kYZjFjZTDP1TAlOiMB_pad-26" x="1640" y="370"/><use xlink:href="#_5kYZjFjZTDP1TAlOiMB_pad-26" x="1740" y="370"/><use xlink:href="#_5kYZjFjZTDP1TAlOiMB_pad-26" x="1840" y="370"/><use xlink:href="#_5kYZjFjZTDP1TAlOiMB_pad-26" x="1940" y="370"/><use xlink:href="#_5kYZjFjZTDP1TAlOiMB_pad-26" x="2040" y="370"/><use xlink:href="#_5kYZjFjZTDP1TAlOiMB_pad-26" x="1700" y="2230"/><use xlink:href="#_5kYZjFjZTDP1TAlOiMB_pad-26" x="1700" y="2130"/><use xlink:href="#_5kYZjFjZTDP1TAlOiMB_pad-26" x="1700" y="2030"/><use xlink:href="#_5kYZjFjZTDP1TAlOiMB_pad-26" x="1700" y="1930"/><use xlink:href="#_5kYZjFjZTDP1TAlOiMB_pad-26" x="1700" y="1830"/><use xlink:href="#_5kYZjFjZTDP1TAlOiMB_pad-26" x="1700" y="1730"/><use xlink:href="#_5kYZjFjZTDP1TAlOiMB_pad-26" x="1700" y="1630"/><use xlink:href="#_5kYZjFjZTDP1TAlOiMB_pad-26" x="1700" y="1530"/><use xlink:href="#_5kYZjFjZTDP1TAlOiMB_pad-26" x="1600" y="1530"/><use xlink:href="#_5kYZjFjZTDP1TAlOiMB_pad-26" x="1600" y="1630"/><use xlink:href="#_5kYZjFjZTDP1TAlOiMB_pad-26" x="1600" y="1730"/><use xlink:href="#_5kYZjFjZTDP1TAlOiMB_pad-26" x="1600" y="1830"/><use xlink:href="#_5kYZjFjZTDP1TAlOiMB_pad-26" x="1600" y="1930"/><use xlink:href="#_5kYZjFjZTDP1TAlOiMB_pad-26" x="1600" y="2030"/><use xlink:href="#_5kYZjFjZTDP1TAlOiMB_pad-26" x="1600" y="2130"/><use xlink:href="#_5kYZjFjZTDP1TAlOiMB_pad-26" x="1350" y="2630"/><use xlink:href="#_5kYZjFjZTDP1TAlOiMB_pad-26" x="1350" y="2230"/><use xlink:href="#_5kYZjFjZTDP1TAlOiMB_pad-26" x="1350" y="1830"/><use xlink:href="#_5kYZjFjZTDP1TAlOiMB_pad-26" x="1350" y="2830"/><use xlink:href="#_5kYZjFjZTDP1TAlOiMB_pad-26" x="1350" y="2730"/><use xlink:href="#_5kYZjFjZTDP1TAlOiMB_pad-26" x="1350" y="2430"/><use xlink:href="#_5kYZjFjZTDP1TAlOiMB_pad-26" x="1350" y="2330"/><use xlink:href="#_5kYZjFjZTDP1TAlOiMB_pad-26" x="1350" y="2130"/><use xlink:href="#_5kYZjFjZTDP1TAlOiMB_pad-26" x="1350" y="2030"/><use xlink:href="#_5kYZjFjZTDP1TAlOiMB_pad-26" x="1350" y="1730"/><use xlink:href="#_5kYZjFjZTDP1TAlOiMB_pad-26" x="1350" y="1630"/><use xlink:href="#_5kYZjFjZTDP1TAlOiMB_pad-26" x="1350" y="1530"/><use xlink:href="#_5kYZjFjZTDP1TAlOiMB_pad-26" x="1350" y="2530"/><use xlink:href="#_5kYZjFjZTDP1TAlOiMB_pad-26" x="1350" y="1930"/><use xlink:href="#_5kYZjFjZTDP1TAlOiMB_pad-26" x="1050" y="1530"/><use xlink:href="#_5kYZjFjZTDP1TAlOiMB_pad-26" x="1050" y="2730"/><use xlink:href="#_5kYZjFjZTDP1TAlOiMB_pad-26" x="1050" y="2630"/><use xlink:href="#_5kYZjFjZTDP1TAlOiMB_pad-26" x="1050" y="2530"/><use xlink:href="#_5kYZjFjZTDP1TAlOiMB_pad-26" x="1050" y="2430"/><use xlink:href="#_5kYZjFjZTDP1TAlOiMB_pad-26" x="1050" y="2330"/><use xlink:href="#_5kYZjFjZTDP1TAlOiMB_pad-26" x="1050" y="2230"/><use xlink:href="#_5kYZjFjZTDP1TAlOiMB_pad-26" x="1050" y="2130"/><use xlink:href="#_5kYZjFjZTDP1TAlOiMB_pad-26" x="1050" y="2030"/><use xlink:href="#_5kYZjFjZTDP1TAlOiMB_pad-26" x="1050" y="1930"/><use xlink:href="#_5kYZjFjZTDP1TAlOiMB_pad-26" x="1050" y="1830"/><use xlink:href="#_5kYZjFjZTDP1TAlOiMB_pad-26" x="1050" y="1730"/><use xlink:href="#_5kYZjFjZTDP1TAlOiMB_pad-26" x="1050" y="1630"/><use xlink:href="#_5kYZjFjZTDP1TAlOiMB_pad-26" x="410" y="260"/><use xlink:href="#_5kYZjFjZTDP1TAlOiMB_pad-26" x="410" y="360"/><use xlink:href="#_5kYZjFjZTDP1TAlOiMB_pad-27" x="1600" y="2930"/><use xlink:href="#_5kYZjFjZTDP1TAlOiMB_pad-27" x="1600" y="2230"/><use xlink:href="#_5kYZjFjZTDP1TAlOiMB_pad-27" x="1050" y="2830"/><use xlink:href="#_5kYZjFjZTDP1TAlOiMB_pad-27" x="410" y="460"/><use xlink:href="#_5kYZjFjZTDP1TAlOiMB_pad-28" x="650" y="730"/><use xlink:href="#_5kYZjFjZTDP1TAlOiMB_pad-28" x="650" y="1400"/><use xlink:href="#_5kYZjFjZTDP1TAlOiMB_pad-28" x="650" y="2070"/><use xlink:href="#_5kYZjFjZTDP1TAlOiMB_pad-28" x="650" y="2740"/><use xlink:href="#_5kYZjFjZTDP1TAlOiMB_pad-28" x="650" y="600"/><use xlink:href="#_5kYZjFjZTDP1TAlOiMB_pad-28" x="650" y="1270"/><use xlink:href="#_5kYZjFjZTDP1TAlOiMB_pad-28" x="650" y="1940"/><use xlink:href="#_5kYZjFjZTDP1TAlOiMB_pad-28" x="650" y="2610"/><use xlink:href="#_5kYZjFjZTDP1TAlOiMB_pad-29" x="610" y="220"/><use xlink:href="#_5kYZjFjZTDP1TAlOiMB_pad-30" x="20" y="1260"/><use xlink:href="#_5kYZjFjZTDP1TAlOiMB_pad-30" x="770" y="1680"/><use xlink:href="#_5kYZjFjZTDP1TAlOiMB_pad-30" x="762.5" y="1395"/><use xlink:href="#_5kYZjFjZTDP1TAlOiMB_pad-30" x="385" y="2490"/><use xlink:href="#_5kYZjFjZTDP1TAlOiMB_pad-30" x="1880" y="1360"/></g><g id="bq_8Mc4bMngqijl1_eu__top_soldermask"><use xlink:href="#d8-8MisCJr82xPh-TDYG_pad-11" x="1600" y="3150"/><use xlink:href="#d8-8MisCJr82xPh-TDYG_pad-11" x="200" y="900"/><use xlink:href="#d8-8MisCJr82xPh-TDYG_pad-11" x="810" y="220"/><use xlink:href="#d8-8MisCJr82xPh-TDYG_pad-11" x="1010" y="220"/><use xlink:href="#d8-8MisCJr82xPh-TDYG_pad-11" x="570" y="1100"/><use xlink:href="#d8-8MisCJr82xPh-TDYG_pad-11" x="570" y="1770"/><use xlink:href="#d8-8MisCJr82xPh-TDYG_pad-11" x="570" y="2440"/><use xlink:href="#d8-8MisCJr82xPh-TDYG_pad-11" x="570" y="3110"/><use xlink:href="#d8-8MisCJr82xPh-TDYG_pad-11" x="200" y="1570"/><use xlink:href="#d8-8MisCJr82xPh-TDYG_pad-11" x="200" y="2240"/><use xlink:href="#d8-8MisCJr82xPh-TDYG_pad-11" x="205" y="2910"/><use xlink:href="#d8-8MisCJr82xPh-TDYG_pad-12" x="1600" y="3350"/><use xlink:href="#d8-8MisCJr82xPh-TDYG_pad-12" x="200" y="1100"/><use xlink:href="#d8-8MisCJr82xPh-TDYG_pad-12" x="570" y="900"/><use xlink:href="#d8-8MisCJr82xPh-TDYG_pad-12" x="570" y="1570"/><use xlink:href="#d8-8MisCJr82xPh-TDYG_pad-12" x="570" y="2240"/><use xlink:href="#d8-8MisCJr82xPh-TDYG_pad-12" x="570" y="2910"/><use xlink:href="#d8-8MisCJr82xPh-TDYG_pad-12" x="200" y="1770"/><use xlink:href="#d8-8MisCJr82xPh-TDYG_pad-12" x="200" y="2440"/><use xlink:href="#d8-8MisCJr82xPh-TDYG_pad-12" x="205" y="3110"/><use xlink:href="#d8-8MisCJr82xPh-TDYG_pad-13" x="830" y="2120"/><use xlink:href="#d8-8MisCJr82xPh-TDYG_pad-13" x="910" y="1200"/><use xlink:href="#d8-8MisCJr82xPh-TDYG_pad-13" x="780" y="1200"/><use xlink:href="#d8-8MisCJr82xPh-TDYG_pad-13" x="1050" y="990"/><use xlink:href="#d8-8MisCJr82xPh-TDYG_pad-13" x="1050" y="660"/><use xlink:href="#d8-8MisCJr82xPh-TDYG_pad-14" x="830" y="1920"/><use xlink:href="#d8-8MisCJr82xPh-TDYG_pad-14" x="910" y="700"/><use xlink:href="#d8-8MisCJr82xPh-TDYG_pad-14" x="780" y="700"/><use xlink:href="#d8-8MisCJr82xPh-TDYG_pad-14" x="150" y="730"/><use xlink:href="#d8-8MisCJr82xPh-TDYG_pad-14" x="150" y="1400"/><use xlink:href="#d8-8MisCJr82xPh-TDYG_pad-14" x="150" y="2070"/><use xlink:href="#d8-8MisCJr82xPh-TDYG_pad-14" x="150" y="2740"/><use xlink:href="#d8-8MisCJr82xPh-TDYG_pad-14" x="150" y="600"/><use xlink:href="#d8-8MisCJr82xPh-TDYG_pad-14" x="150" y="1270"/><use xlink:href="#d8-8MisCJr82xPh-TDYG_pad-14" x="150" y="1940"/><use xlink:href="#d8-8MisCJr82xPh-TDYG_pad-14" x="150" y="2610"/><use xlink:href="#d8-8MisCJr82xPh-TDYG_pad-14" x="1050" y="1190"/><use xlink:href="#d8-8MisCJr82xPh-TDYG_pad-14" x="1050" y="860"/><use xlink:href="#d8-8MisCJr82xPh-TDYG_pad-14" x="150" y="150"/><use xlink:href="#d8-8MisCJr82xPh-TDYG_pad-14" x="150" y="3350"/><use xlink:href="#d8-8MisCJr82xPh-TDYG_pad-14" x="1950" y="150"/><use xlink:href="#d8-8MisCJr82xPh-TDYG_pad-14" x="1950" y="3350"/><use xlink:href="#d8-8MisCJr82xPh-TDYG_pad-15" x="850" y="510"/><use xlink:href="#d8-8MisCJr82xPh-TDYG_pad-15" x="1240" y="370"/><use xlink:href="#d8-8MisCJr82xPh-TDYG_pad-16" x="950" y="510"/><use xlink:href="#d8-8MisCJr82xPh-TDYG_pad-16" x="1050" y="510"/><use xlink:href="#d8-8MisCJr82xPh-TDYG_pad-16" x="1600" y="2430"/><use xlink:href="#d8-8MisCJr82xPh-TDYG_pad-16" x="1600" y="2530"/><use xlink:href="#d8-8MisCJr82xPh-TDYG_pad-16" x="1600" y="2630"/><use xlink:href="#d8-8MisCJr82xPh-TDYG_pad-16" x="1600" y="2730"/><use xlink:href="#d8-8MisCJr82xPh-TDYG_pad-16" x="1600" y="2830"/><use xlink:href="#d8-8MisCJr82xPh-TDYG_pad-16" x="1240" y="1370"/><use xlink:href="#d8-8MisCJr82xPh-TDYG_pad-16" x="1340" y="1370"/><use xlink:href="#d8-8MisCJr82xPh-TDYG_pad-16" x="1440" y="1370"/><use xlink:href="#d8-8MisCJr82xPh-TDYG_pad-16" x="1540" y="1370"/><use xlink:href="#d8-8MisCJr82xPh-TDYG_pad-16" x="1640" y="1370"/><use xlink:href="#d8-8MisCJr82xPh-TDYG_pad-16" x="1340" y="370"/><use xlink:href="#d8-8MisCJr82xPh-TDYG_pad-16" x="1440" y="370"/><use xlink:href="#d8-8MisCJr82xPh-TDYG_pad-16" x="1540" y="370"/><use xlink:href="#d8-8MisCJr82xPh-TDYG_pad-16" x="1640" y="370"/><use xlink:href="#d8-8MisCJr82xPh-TDYG_pad-16" x="1740" y="370"/><use xlink:href="#d8-8MisCJr82xPh-TDYG_pad-16" x="1840" y="370"/><use xlink:href="#d8-8MisCJr82xPh-TDYG_pad-16" x="1940" y="370"/><use xlink:href="#d8-8MisCJr82xPh-TDYG_pad-16" x="2040" y="370"/><use xlink:href="#d8-8MisCJr82xPh-TDYG_pad-16" x="1700" y="2230"/><use xlink:href="#d8-8MisCJr82xPh-TDYG_pad-16" x="1700" y="2130"/><use xlink:href="#d8-8MisCJr82xPh-TDYG_pad-16" x="1700" y="2030"/><use xlink:href="#d8-8MisCJr82xPh-TDYG_pad-16" x="1700" y="1930"/><use xlink:href="#d8-8MisCJr82xPh-TDYG_pad-16" x="1700" y="1830"/><use xlink:href="#d8-8MisCJr82xPh-TDYG_pad-16" x="1700" y="1730"/><use xlink:href="#d8-8MisCJr82xPh-TDYG_pad-16" x="1700" y="1630"/><use xlink:href="#d8-8MisCJr82xPh-TDYG_pad-16" x="1700" y="1530"/><use xlink:href="#d8-8MisCJr82xPh-TDYG_pad-16" x="1600" y="1530"/><use xlink:href="#d8-8MisCJr82xPh-TDYG_pad-16" x="1600" y="1630"/><use xlink:href="#d8-8MisCJr82xPh-TDYG_pad-16" x="1600" y="1730"/><use xlink:href="#d8-8MisCJr82xPh-TDYG_pad-16" x="1600" y="1830"/><use xlink:href="#d8-8MisCJr82xPh-TDYG_pad-16" x="1600" y="1930"/><use xlink:href="#d8-8MisCJr82xPh-TDYG_pad-16" x="1600" y="2030"/><use xlink:href="#d8-8MisCJr82xPh-TDYG_pad-16" x="1600" y="2130"/><use xlink:href="#d8-8MisCJr82xPh-TDYG_pad-16" x="1350" y="2630"/><use xlink:href="#d8-8MisCJr82xPh-TDYG_pad-16" x="1350" y="2230"/><use xlink:href="#d8-8MisCJr82xPh-TDYG_pad-16" x="1350" y="1830"/><use xlink:href="#d8-8MisCJr82xPh-TDYG_pad-16" x="1350" y="2830"/><use xlink:href="#d8-8MisCJr82xPh-TDYG_pad-16" x="1350" y="2730"/><use xlink:href="#d8-8MisCJr82xPh-TDYG_pad-16" x="1350" y="2430"/><use xlink:href="#d8-8MisCJr82xPh-TDYG_pad-16" x="1350" y="2330"/><use xlink:href="#d8-8MisCJr82xPh-TDYG_pad-16" x="1350" y="2130"/><use xlink:href="#d8-8MisCJr82xPh-TDYG_pad-16" x="1350" y="2030"/><use xlink:href="#d8-8MisCJr82xPh-TDYG_pad-16" x="1350" y="1730"/><use xlink:href="#d8-8MisCJr82xPh-TDYG_pad-16" x="1350" y="1630"/><use xlink:href="#d8-8MisCJr82xPh-TDYG_pad-16" x="1350" y="1530"/><use xlink:href="#d8-8MisCJr82xPh-TDYG_pad-16" x="1350" y="2530"/><use xlink:href="#d8-8MisCJr82xPh-TDYG_pad-16" x="1350" y="1930"/><use xlink:href="#d8-8MisCJr82xPh-TDYG_pad-16" x="1050" y="1530"/><use xlink:href="#d8-8MisCJr82xPh-TDYG_pad-16" x="1050" y="2730"/><use xlink:href="#d8-8MisCJr82xPh-TDYG_pad-16" x="1050" y="2630"/><use xlink:href="#d8-8MisCJr82xPh-TDYG_pad-16" x="1050" y="2530"/><use xlink:href="#d8-8MisCJr82xPh-TDYG_pad-16" x="1050" y="2430"/><use xlink:href="#d8-8MisCJr82xPh-TDYG_pad-16" x="1050" y="2330"/><use xlink:href="#d8-8MisCJr82xPh-TDYG_pad-16" x="1050" y="2230"/><use xlink:href="#d8-8MisCJr82xPh-TDYG_pad-16" x="1050" y="2130"/><use xlink:href="#d8-8MisCJr82xPh-TDYG_pad-16" x="1050" y="2030"/><use xlink:href="#d8-8MisCJr82xPh-TDYG_pad-16" x="1050" y="1930"/><use xlink:href="#d8-8MisCJr82xPh-TDYG_pad-16" x="1050" y="1830"/><use xlink:href="#d8-8MisCJr82xPh-TDYG_pad-16" x="1050" y="1730"/><use xlink:href="#d8-8MisCJr82xPh-TDYG_pad-16" x="1050" y="1630"/><use xlink:href="#d8-8MisCJr82xPh-TDYG_pad-16" x="410" y="260"/><use xlink:href="#d8-8MisCJr82xPh-TDYG_pad-16" x="410" y="360"/><use xlink:href="#d8-8MisCJr82xPh-TDYG_pad-17" x="1600" y="2930"/><use xlink:href="#d8-8MisCJr82xPh-TDYG_pad-17" x="1600" y="2230"/><use xlink:href="#d8-8MisCJr82xPh-TDYG_pad-17" x="1050" y="2830"/><use xlink:href="#d8-8MisCJr82xPh-TDYG_pad-17" x="410" y="460"/><use xlink:href="#d8-8MisCJr82xPh-TDYG_pad-18" x="650" y="730"/><use xlink:href="#d8-8MisCJr82xPh-TDYG_pad-18" x="650" y="1400"/><use xlink:href="#d8-8MisCJr82xPh-TDYG_pad-18" x="650" y="2070"/><use xlink:href="#d8-8MisCJr82xPh-TDYG_pad-18" x="650" y="2740"/><use xlink:href="#d8-8MisCJr82xPh-TDYG_pad-18" x="650" y="600"/><use xlink:href="#d8-8MisCJr82xPh-TDYG_pad-18" x="650" y="1270"/><use xlink:href="#d8-8MisCJr82xPh-TDYG_pad-18" x="650" y="1940"/><use xlink:href="#d8-8MisCJr82xPh-TDYG_pad-18" x="650" y="2610"/><use xlink:href="#d8-8MisCJr82xPh-TDYG_pad-19" x="610" y="220"/><use xlink:href="#d8-8MisCJr82xPh-TDYG_pad-20" x="20" y="1260"/><use xlink:href="#d8-8MisCJr82xPh-TDYG_pad-20" x="770" y="1680"/><use xlink:href="#d8-8MisCJr82xPh-TDYG_pad-20" x="762.5" y="1395"/><use xlink:href="#d8-8MisCJr82xPh-TDYG_pad-20" x="385" y="2490"/><use xlink:href="#d8-8MisCJr82xPh-TDYG_pad-20" x="1880" y="1360"/></g><g id="bq_8Mc4bMngqijl1_eu__top_drill1"><use xlink:href="#rd8uNjmDL_iR9yT-6Hgd_pad-1" x="20" y="1260"/><use xlink:href="#rd8uNjmDL_iR9yT-6Hgd_pad-1" x="762.5" y="1395"/><use xlink:href="#rd8uNjmDL_iR9yT-6Hgd_pad-1" x="1880" y="1360"/><use xlink:href="#rd8uNjmDL_iR9yT-6Hgd_pad-1" x="770" y="1680"/><use xlink:href="#rd8uNjmDL_iR9yT-6Hgd_pad-1" x="385" y="2490"/><use xlink:href="#rd8uNjmDL_iR9yT-6Hgd_pad-2" x="150" y="600"/><use xlink:href="#rd8uNjmDL_iR9yT-6Hgd_pad-2" x="150" y="730"/><use xlink:href="#rd8uNjmDL_iR9yT-6Hgd_pad-2" x="650" y="730"/><use xlink:href="#rd8uNjmDL_iR9yT-6Hgd_pad-2" x="650" y="600"/><use xlink:href="#rd8uNjmDL_iR9yT-6Hgd_pad-2" x="780" y="700"/><use xlink:href="#rd8uNjmDL_iR9yT-6Hgd_pad-2" x="910" y="700"/><use xlink:href="#rd8uNjmDL_iR9yT-6Hgd_pad-2" x="1050" y="660"/><use xlink:href="#rd8uNjmDL_iR9yT-6Hgd_pad-2" x="1050" y="860"/><use xlink:href="#rd8uNjmDL_iR9yT-6Hgd_pad-2" x="1050" y="990"/><use xlink:href="#rd8uNjmDL_iR9yT-6Hgd_pad-2" x="1050" y="1190"/><use xlink:href="#rd8uNjmDL_iR9yT-6Hgd_pad-2" x="910" y="1200"/><use xlink:href="#rd8uNjmDL_iR9yT-6Hgd_pad-2" x="780" y="1200"/><use xlink:href="#rd8uNjmDL_iR9yT-6Hgd_pad-2" x="650" y="1270"/><use xlink:href="#rd8uNjmDL_iR9yT-6Hgd_pad-2" x="650" y="1400"/><use xlink:href="#rd8uNjmDL_iR9yT-6Hgd_pad-2" x="150" y="1400"/><use xlink:href="#rd8uNjmDL_iR9yT-6Hgd_pad-2" x="150" y="1270"/><use xlink:href="#rd8uNjmDL_iR9yT-6Hgd_pad-2" x="150" y="1940"/><use xlink:href="#rd8uNjmDL_iR9yT-6Hgd_pad-2" x="150" y="2070"/><use xlink:href="#rd8uNjmDL_iR9yT-6Hgd_pad-2" x="650" y="2070"/><use xlink:href="#rd8uNjmDL_iR9yT-6Hgd_pad-2" x="650" y="1940"/><use xlink:href="#rd8uNjmDL_iR9yT-6Hgd_pad-2" x="830" y="1920"/><use xlink:href="#rd8uNjmDL_iR9yT-6Hgd_pad-2" x="830" y="2120"/><use xlink:href="#rd8uNjmDL_iR9yT-6Hgd_pad-2" x="650" y="2610"/><use xlink:href="#rd8uNjmDL_iR9yT-6Hgd_pad-2" x="650" y="2740"/><use xlink:href="#rd8uNjmDL_iR9yT-6Hgd_pad-2" x="150" y="2740"/><use xlink:href="#rd8uNjmDL_iR9yT-6Hgd_pad-2" x="150" y="2610"/><use xlink:href="#rd8uNjmDL_iR9yT-6Hgd_pad-3" x="410" y="260"/><use xlink:href="#rd8uNjmDL_iR9yT-6Hgd_pad-3" x="410" y="360"/><use xlink:href="#rd8uNjmDL_iR9yT-6Hgd_pad-3" x="410" y="460"/><use xlink:href="#rd8uNjmDL_iR9yT-6Hgd_pad-3" x="850" y="510"/><use xlink:href="#rd8uNjmDL_iR9yT-6Hgd_pad-3" x="950" y="510"/><use xlink:href="#rd8uNjmDL_iR9yT-6Hgd_pad-3" x="1050" y="510"/><use xlink:href="#rd8uNjmDL_iR9yT-6Hgd_pad-3" x="1240" y="370"/><use xlink:href="#rd8uNjmDL_iR9yT-6Hgd_pad-3" x="1340" y="370"/><use xlink:href="#rd8uNjmDL_iR9yT-6Hgd_pad-3" x="1340" y="1370"/><use xlink:href="#rd8uNjmDL_iR9yT-6Hgd_pad-3" x="1240" y="1370"/><use xlink:href="#rd8uNjmDL_iR9yT-6Hgd_pad-3" x="1440" y="1370"/><use xlink:href="#rd8uNjmDL_iR9yT-6Hgd_pad-3" x="1540" y="1370"/><use xlink:href="#rd8uNjmDL_iR9yT-6Hgd_pad-3" x="1640" y="1370"/><use xlink:href="#rd8uNjmDL_iR9yT-6Hgd_pad-3" x="1640" y="370"/><use xlink:href="#rd8uNjmDL_iR9yT-6Hgd_pad-3" x="1540" y="370"/><use xlink:href="#rd8uNjmDL_iR9yT-6Hgd_pad-3" x="1440" y="370"/><use xlink:href="#rd8uNjmDL_iR9yT-6Hgd_pad-3" x="1740" y="370"/><use xlink:href="#rd8uNjmDL_iR9yT-6Hgd_pad-3" x="1840" y="370"/><use xlink:href="#rd8uNjmDL_iR9yT-6Hgd_pad-3" x="1940" y="370"/><use xlink:href="#rd8uNjmDL_iR9yT-6Hgd_pad-3" x="2040" y="370"/><use xlink:href="#rd8uNjmDL_iR9yT-6Hgd_pad-3" x="1700" y="1530"/><use xlink:href="#rd8uNjmDL_iR9yT-6Hgd_pad-3" x="1700" y="1630"/><use xlink:href="#rd8uNjmDL_iR9yT-6Hgd_pad-3" x="1700" y="1730"/><use xlink:href="#rd8uNjmDL_iR9yT-6Hgd_pad-3" x="1700" y="1830"/><use xlink:href="#rd8uNjmDL_iR9yT-6Hgd_pad-3" x="1700" y="1930"/><use xlink:href="#rd8uNjmDL_iR9yT-6Hgd_pad-3" x="1700" y="2030"/><use xlink:href="#rd8uNjmDL_iR9yT-6Hgd_pad-3" x="1700" y="2130"/><use xlink:href="#rd8uNjmDL_iR9yT-6Hgd_pad-3" x="1700" y="2230"/><use xlink:href="#rd8uNjmDL_iR9yT-6Hgd_pad-3" x="1600" y="2230"/><use xlink:href="#rd8uNjmDL_iR9yT-6Hgd_pad-3" x="1600" y="2130"/><use xlink:href="#rd8uNjmDL_iR9yT-6Hgd_pad-3" x="1600" y="2030"/><use xlink:href="#rd8uNjmDL_iR9yT-6Hgd_pad-3" x="1600" y="1930"/><use xlink:href="#rd8uNjmDL_iR9yT-6Hgd_pad-3" x="1600" y="1830"/><use xlink:href="#rd8uNjmDL_iR9yT-6Hgd_pad-3" x="1600" y="1730"/><use xlink:href="#rd8uNjmDL_iR9yT-6Hgd_pad-3" x="1600" y="1630"/><use xlink:href="#rd8uNjmDL_iR9yT-6Hgd_pad-3" x="1600" y="1530"/><use xlink:href="#rd8uNjmDL_iR9yT-6Hgd_pad-3" x="1600" y="2430"/><use xlink:href="#rd8uNjmDL_iR9yT-6Hgd_pad-3" x="1600" y="2530"/><use xlink:href="#rd8uNjmDL_iR9yT-6Hgd_pad-3" x="1600" y="2630"/><use xlink:href="#rd8uNjmDL_iR9yT-6Hgd_pad-3" x="1600" y="2730"/><use xlink:href="#rd8uNjmDL_iR9yT-6Hgd_pad-3" x="1600" y="2830"/><use xlink:href="#rd8uNjmDL_iR9yT-6Hgd_pad-3" x="1600" y="2930"/><use xlink:href="#rd8uNjmDL_iR9yT-6Hgd_pad-3" x="1350" y="2830"/><use xlink:href="#rd8uNjmDL_iR9yT-6Hgd_pad-3" x="1350" y="2730"/><use xlink:href="#rd8uNjmDL_iR9yT-6Hgd_pad-3" x="1350" y="2630"/><use xlink:href="#rd8uNjmDL_iR9yT-6Hgd_pad-3" x="1350" y="2530"/><use xlink:href="#rd8uNjmDL_iR9yT-6Hgd_pad-3" x="1350" y="2430"/><use xlink:href="#rd8uNjmDL_iR9yT-6Hgd_pad-3" x="1350" y="2330"/><use xlink:href="#rd8uNjmDL_iR9yT-6Hgd_pad-3" x="1350" y="2230"/><use xlink:href="#rd8uNjmDL_iR9yT-6Hgd_pad-3" x="1350" y="2130"/><use xlink:href="#rd8uNjmDL_iR9yT-6Hgd_pad-3" x="1350" y="2030"/><use xlink:href="#rd8uNjmDL_iR9yT-6Hgd_pad-3" x="1350" y="1930"/><use xlink:href="#rd8uNjmDL_iR9yT-6Hgd_pad-3" x="1350" y="1830"/><use xlink:href="#rd8uNjmDL_iR9yT-6Hgd_pad-3" x="1350" y="1730"/><use xlink:href="#rd8uNjmDL_iR9yT-6Hgd_pad-3" x="1350" y="1630"/><use xlink:href="#rd8uNjmDL_iR9yT-6Hgd_pad-3" x="1350" y="1530"/><use xlink:href="#rd8uNjmDL_iR9yT-6Hgd_pad-3" x="1050" y="1530"/><use xlink:href="#rd8uNjmDL_iR9yT-6Hgd_pad-3" x="1050" y="1630"/><use xlink:href="#rd8uNjmDL_iR9yT-6Hgd_pad-3" x="1050" y="1730"/><use xlink:href="#rd8uNjmDL_iR9yT-6Hgd_pad-3" x="1050" y="1830"/><use xlink:href="#rd8uNjmDL_iR9yT-6Hgd_pad-3" x="1050" y="1930"/><use xlink:href="#rd8uNjmDL_iR9yT-6Hgd_pad-3" x="1050" y="2030"/><use xlink:href="#rd8uNjmDL_iR9yT-6Hgd_pad-3" x="1050" y="2130"/><use xlink:href="#rd8uNjmDL_iR9yT-6Hgd_pad-3" x="1050" y="2230"/><use xlink:href="#rd8uNjmDL_iR9yT-6Hgd_pad-3" x="1050" y="2330"/><use xlink:href="#rd8uNjmDL_iR9yT-6Hgd_pad-3" x="1050" y="2430"/><use xlink:href="#rd8uNjmDL_iR9yT-6Hgd_pad-3" x="1050" y="2530"/><use xlink:href="#rd8uNjmDL_iR9yT-6Hgd_pad-3" x="1050" y="2630"/><use xlink:href="#rd8uNjmDL_iR9yT-6Hgd_pad-3" x="1050" y="2730"/><use xlink:href="#rd8uNjmDL_iR9yT-6Hgd_pad-3" x="1050" y="2830"/><use xlink:href="#rd8uNjmDL_iR9yT-6Hgd_pad-4" x="610" y="220"/><use xlink:href="#rd8uNjmDL_iR9yT-6Hgd_pad-4" x="810" y="220"/><use xlink:href="#rd8uNjmDL_iR9yT-6Hgd_pad-4" x="1010" y="220"/><use xlink:href="#rd8uNjmDL_iR9yT-6Hgd_pad-4" x="570" y="900"/><use xlink:href="#rd8uNjmDL_iR9yT-6Hgd_pad-4" x="570" y="1100"/><use xlink:href="#rd8uNjmDL_iR9yT-6Hgd_pad-4" x="200" y="1100"/><use xlink:href="#rd8uNjmDL_iR9yT-6Hgd_pad-4" x="200" y="900"/><use xlink:href="#rd8uNjmDL_iR9yT-6Hgd_pad-4" x="200" y="1570"/><use xlink:href="#rd8uNjmDL_iR9yT-6Hgd_pad-4" x="200" y="1770"/><use xlink:href="#rd8uNjmDL_iR9yT-6Hgd_pad-4" x="570" y="1770"/><use xlink:href="#rd8uNjmDL_iR9yT-6Hgd_pad-4" x="570" y="1570"/><use xlink:href="#rd8uNjmDL_iR9yT-6Hgd_pad-4" x="570" y="2240"/><use xlink:href="#rd8uNjmDL_iR9yT-6Hgd_pad-4" x="570" y="2440"/><use xlink:href="#rd8uNjmDL_iR9yT-6Hgd_pad-4" x="200" y="2440"/><use xlink:href="#rd8uNjmDL_iR9yT-6Hgd_pad-4" x="200" y="2240"/><use xlink:href="#rd8uNjmDL_iR9yT-6Hgd_pad-4" x="205" y="2910"/><use xlink:href="#rd8uNjmDL_iR9yT-6Hgd_pad-4" x="570" y="2910"/><use xlink:href="#rd8uNjmDL_iR9yT-6Hgd_pad-4" x="570" y="3110"/><use xlink:href="#rd8uNjmDL_iR9yT-6Hgd_pad-4" x="205" y="3110"/><use xlink:href="#rd8uNjmDL_iR9yT-6Hgd_pad-4" x="1600" y="3150"/><use xlink:href="#rd8uNjmDL_iR9yT-6Hgd_pad-4" x="1600" y="3350"/><use xlink:href="#rd8uNjmDL_iR9yT-6Hgd_pad-5" x="150" y="150"/><use xlink:href="#rd8uNjmDL_iR9yT-6Hgd_pad-5" x="1950" y="150"/><use xlink:href="#rd8uNjmDL_iR9yT-6Hgd_pad-5" x="150" y="3350"/><use xlink:href="#rd8uNjmDL_iR9yT-6Hgd_pad-5" x="1950" y="3350"/></g><clipPath id="bq_8Mc4bMngqijl1_eu__top_outline"><path d="M 2150 3555 2150 -50 -50 -50 -50 3555 2150 3555" fill="none" stroke-width="20"/></clipPath><mask id="bq_8Mc4bMngqijl1_eu__top_mech-mask"><g fill="#000" stroke="#000"><rect x="-50" y="-50" width="2200" height="3605" fill="#fff"/><use xlink:href="#bq_8Mc4bMngqijl1_eu__top_drill1"/></g></mask><mask id="bq_8Mc4bMngqijl1_eu__top_cf-mask"><g fill="#fff" stroke="#fff"><use xlink:href="#bq_8Mc4bMngqijl1_eu__top_soldermask"/></g></mask><mask id="bq_8Mc4bMngqijl1_eu__top_sm-mask"><g fill="#000" stroke="#000"><rect x="-50" y="-50" width="2200" height="3605" fill="#fff"/><use xlink:href="#bq_8Mc4bMngqijl1_eu__top_soldermask"/></g></mask></defs><g transform="translate(0,3505) scale(1,-1)"><g mask="url(#bq_8Mc4bMngqijl1_eu__top_mech-mask)" clip-path="url(#bq_8Mc4bMngqijl1_eu__top_outline)"><rect x="-50" y="-50" width="2200" height="3605" fill="currentColor" class="bq_8Mc4bMngqijl1_eu__fr4"/><use xlink:href="#bq_8Mc4bMngqijl1_eu__top_copper" fill="currentColor" stroke="currentColor" class="bq_8Mc4bMngqijl1_eu__cu"/><use xlink:href="#bq_8Mc4bMngqijl1_eu__top_copper" fill="currentColor" stroke="currentColor" class="bq_8Mc4bMngqijl1_eu__cf" mask="url(#bq_8Mc4bMngqijl1_eu__top_cf-mask)"/><g mask="url(#bq_8Mc4bMngqijl1_eu__top_sm-mask)"><rect x="-50" y="-50" width="2200" height="3605" fill="currentColor" class="bq_8Mc4bMngqijl1_eu__sm"/><use xlink:href="#bq_8Mc4bMngqijl1_eu__top_silkscreen" fill="currentColor" stroke="currentColor" class="bq_8Mc4bMngqijl1_eu__ss"/></g></g></g></svg>